# Blender v3.2.0 OBJ File: 'AngleBrush1.blend'
# www.blender.org
mtllib AngleBrush1.mtl
o AngleBrush1_Cube.001
v -0.006355 -0.205083 0.006355
v -0.006017 -0.015928 0.008511
v -0.006355 -0.205083 -0.006356
v -0.006017 -0.015927 -0.008511
v 0.006355 -0.205083 0.006355
v 0.006017 -0.015928 0.008511
v 0.006355 -0.205083 -0.006356
v 0.006017 -0.015927 -0.008511
v -0.009425 0.063979 0.001167
v -0.009425 0.063979 -0.001167
v 0.009425 0.063979 -0.001167
v 0.009425 0.063979 0.001167
v -0.010483 0.063979 0.001483
v -0.010483 0.063979 -0.001483
v 0.010483 0.063979 -0.001483
v 0.010483 0.063979 0.001483
v -0.009425 0.086055 0.001168
v -0.009425 0.086055 -0.001167
v 0.009425 0.100053 -0.001167
v 0.009425 0.100053 0.001168
vt 0.625000 0.000000
vt 0.375000 0.250000
vt 0.375000 0.000000
vt 0.625000 0.250000
vt 0.375000 0.500000
vt 0.625000 0.750000
vt 0.375000 0.750000
vt 0.375000 1.000000
vt 0.125000 0.750000
vt 0.125000 0.500000
vt 0.625000 1.000000
vt 0.625000 1.000000
vt 0.625000 0.500000
vt 0.625000 0.500000
vt 0.625000 0.750000
vt 0.625000 0.250000
vt 0.862379 0.526565
vt 0.875000 0.750000
vt 0.862379 0.723435
vt 0.875000 0.500000
vt 0.637621 0.526565
vt 0.637621 0.723435
vt 0.625000 0.000000
vt 0.637621 0.526565
vt 0.637621 0.723435
vt 0.862379 0.526565
vt 0.862379 0.723435
vn -1.0000 0.0018 0.0000
vn 0.0000 -0.0114 -0.9999
vn 1.0000 0.0018 0.0000
vn 0.0000 -0.0114 0.9999
vn 0.0000 -1.0000 0.0000
vn 0.0000 0.0876 0.9962
vn 0.0000 0.0876 -0.9962
vn 0.9984 -0.0558 0.0000
vn -0.9984 -0.0558 0.0000
vn 0.0000 1.0000 0.0000
vn 1.0000 0.0000 0.0000
vn -0.5962 0.8028 0.0000
vn -1.0000 -0.0000 0.0000
vn 0.0000 -0.0000 1.0000
vn 0.0000 0.0000 -1.0000
usemtl Wood1AngleBrush1
s off
f 2/1/1 3/2/1 1/3/1
f 4/4/2 7/5/2 3/2/2
f 7/5/3 6/6/3 5/7/3
f 6/6/4 1/8/4 5/7/4
f 7/5/5 1/9/5 3/10/5
f 6/6/6 13/11/6 2/12/6
f 4/4/7 15/13/7 8/14/7
f 8/14/8 16/15/8 6/6/8
f 2/1/9 14/16/9 4/4/9
f 10/17/10 13/18/10 9/19/10
f 10/17/10 15/13/10 14/20/10
f 11/21/10 16/15/10 15/13/10
f 12/22/10 13/18/10 16/15/10
f 2/1/1 4/4/1 3/2/1
f 4/4/2 8/14/2 7/5/2
f 7/5/3 8/14/3 6/6/3
f 6/6/4 2/12/4 1/8/4
f 7/5/5 5/7/5 1/9/5
f 6/6/6 16/15/6 13/11/6
f 4/4/7 14/16/7 15/13/7
f 8/14/8 15/13/8 16/15/8
f 2/1/9 13/23/9 14/16/9
f 10/17/10 14/20/10 13/18/10
f 10/17/10 11/21/10 15/13/10
f 11/21/10 12/22/10 16/15/10
f 12/22/10 9/19/10 13/18/10
usemtl Bristles1AngleBrush1
f 12/22/11 19/24/11 20/25/11
f 18/26/12 20/25/12 19/24/12
f 9/19/13 18/26/13 10/17/13
f 12/22/14 17/27/14 9/19/14
f 11/21/15 18/26/15 19/24/15
f 12/22/11 11/21/11 19/24/11
f 18/26/12 17/27/12 20/25/12
f 9/19/13 17/27/13 18/26/13
f 12/22/14 20/25/14 17/27/14
f 11/21/15 10/17/15 18/26/15
