# Blender v3.2.0 OBJ File: 'BassSpeakers1.blend'
# www.blender.org
mtllib BassSpeakers1.mtl
o BassSpeakers1_Cube.002
v -0.000234 0.352166 0.005126
v -0.198380 -0.458908 0.029527
v -0.181766 -0.424054 0.047767
v 0.109693 0.306633 0.005126
v -0.216620 -0.440668 0.029527
v -0.181766 0.487929 0.047767
v -0.198380 0.522784 0.029527
v 0.155226 0.196707 0.005126
v -0.216620 0.504544 0.029527
v -0.198380 -0.458908 -0.266313
v 0.109693 0.086781 0.005126
v -0.216620 -0.440668 -0.266313
v -0.198380 -0.440668 -0.284553
v -0.000234 0.041248 0.005126
v -0.198380 0.522784 -0.266313
v -0.198380 0.504544 -0.284553
v -0.110160 0.086781 0.005126
v -0.216620 0.504544 -0.266313
v 0.197913 -0.458908 0.029527
v -0.155693 0.196707 0.005126
v 0.216153 -0.440668 0.029527
v 0.181299 -0.424054 0.047767
v -0.110160 0.306633 0.005126
v 0.197913 0.522784 0.029527
v 0.181299 0.487929 0.047767
v -0.000234 -0.056730 0.005126
v 0.216153 0.504544 0.029527
v 0.197913 -0.458908 -0.266313
v 0.109693 -0.102263 0.005126
v 0.197913 -0.440668 -0.284553
v 0.216153 -0.440668 -0.266313
v 0.155226 -0.212189 0.005126
v 0.197913 0.522784 -0.266313
v 0.216153 0.504544 -0.266313
v 0.109693 -0.322115 0.005126
v 0.197913 0.504544 -0.284553
v -0.198380 -0.440668 0.047767
v -0.000234 -0.367648 0.005126
v -0.198380 0.504544 0.047767
v 0.197913 0.504544 0.047767
v -0.110160 -0.322115 0.005126
v 0.197913 -0.440668 0.047767
v -0.181766 -0.424054 0.024533
v -0.155693 -0.212189 0.005126
v -0.181766 0.487929 0.024533
v -0.110160 -0.102263 0.005126
v 0.181299 0.487929 0.024533
v 0.181299 -0.424054 0.024533
v 0.042036 -0.074238 0.024533
v -0.000234 0.041248 0.024533
v -0.004672 0.043086 0.024533
v -0.000234 0.352166 0.024533
v 0.155226 0.196707 0.024533
v 0.155226 -0.212189 0.024533
v 0.109693 0.306633 0.024533
v 0.109693 -0.102263 0.024533
v 0.109693 0.086781 0.024533
v -0.155693 -0.212189 0.024533
v -0.155693 0.196707 0.024533
v -0.110160 -0.102263 0.024533
v -0.110160 0.086781 0.024533
v -0.110160 -0.322115 0.024533
v -0.110160 0.306633 0.024533
v 0.109693 -0.322115 0.024533
v -0.000234 -0.367648 0.024533
v -0.000234 -0.056730 0.024533
v -0.000234 0.367549 0.003429
v -0.000234 0.341226 0.041112
v 0.120570 0.317510 0.003429
v 0.101957 0.298898 0.041112
v 0.170608 0.196707 0.003429
v 0.144286 0.196707 0.041112
v 0.120570 0.075903 0.003429
v 0.101957 0.094516 0.041112
v -0.000234 0.025865 0.003429
v -0.000234 0.052187 0.041112
v -0.121037 0.075903 0.003429
v -0.102424 0.094516 0.041112
v -0.171075 0.196707 0.003429
v -0.144753 0.196707 0.041112
v -0.121037 0.317510 0.003429
v -0.102424 0.298898 0.041112
v -0.000234 -0.041347 0.003429
v -0.000234 -0.067669 0.041112
v 0.120570 -0.091386 0.003429
v 0.101957 -0.109998 0.041112
v 0.170608 -0.212189 0.003429
v 0.144286 -0.212189 0.041112
v 0.120570 -0.332992 0.003429
v 0.101957 -0.314380 0.041112
v -0.000234 -0.383031 0.003429
v -0.000234 -0.356709 0.041112
v -0.121037 -0.332992 0.003429
v -0.102424 -0.314380 0.041112
v -0.171075 -0.212189 0.003429
v -0.144753 -0.212189 0.041112
v -0.121037 -0.091386 0.003429
v -0.102424 -0.109998 0.041112
v 0.120570 0.317510 0.041112
v -0.000234 0.367549 0.041112
v 0.170608 0.196707 0.041112
v 0.120570 0.075903 0.041112
v -0.000234 0.025865 0.041112
v -0.121037 0.075903 0.041112
v -0.171075 0.196707 0.041112
v -0.121037 0.317510 0.041112
v 0.120570 -0.091386 0.041112
v -0.000234 -0.041347 0.041112
v 0.170608 -0.212189 0.041112
v 0.120570 -0.332992 0.041112
v -0.000234 -0.383031 0.041112
v -0.121037 -0.332992 0.041112
v -0.171075 -0.212189 0.041112
v -0.121037 -0.091386 0.041112
v 0.042217 0.239157 0.009181
v -0.000234 0.256741 0.009181
v 0.059801 0.196707 0.009181
v 0.042217 0.154256 0.009181
v -0.000234 0.136673 0.009181
v -0.042684 0.154256 0.009181
v -0.060268 0.196707 0.009181
v -0.042684 0.239157 0.009181
v 0.042217 -0.169738 0.009181
v -0.000234 -0.152155 0.009181
v 0.059801 -0.212189 0.009181
v 0.042217 -0.254639 0.009181
v -0.000234 -0.272223 0.009181
v -0.042684 -0.254639 0.009181
v -0.060268 -0.212189 0.009181
v -0.042684 -0.169738 0.009181
v 0.035290 0.232230 0.020504
v 0.042217 0.239157 0.011453
v -0.000234 0.256741 0.011453
v -0.000234 0.246944 0.020504
v 0.050004 0.196707 0.020504
v 0.059801 0.196707 0.011453
v 0.035290 0.161184 0.020504
v 0.042217 0.154256 0.011453
v -0.000234 0.146469 0.020504
v -0.000234 0.136673 0.011453
v -0.035757 0.161184 0.020504
v -0.042684 0.154256 0.011453
v -0.050471 0.196707 0.020504
v -0.060268 0.196707 0.011453
v -0.035757 0.232230 0.020504
v -0.042684 0.239157 0.011453
v 0.035290 -0.176666 0.020504
v 0.042217 -0.169738 0.011453
v -0.000234 -0.152155 0.011453
v -0.000234 -0.161952 0.020504
v 0.050004 -0.212189 0.020504
v 0.059801 -0.212189 0.011453
v 0.035290 -0.247712 0.020504
v 0.042217 -0.254639 0.011453
v -0.000234 -0.262426 0.020504
v -0.000234 -0.272223 0.011453
v -0.035757 -0.247712 0.020504
v -0.042684 -0.254639 0.011453
v -0.050471 -0.212189 0.020504
v -0.060268 -0.212189 0.011453
v -0.035757 -0.176666 0.020504
v -0.042684 -0.169738 0.011453
vt 0.616124 0.770134
vt 0.383876 0.770134
vt 0.383876 0.770134
vt 0.620355 0.513722
vt 0.379645 0.736278
vt 0.379645 0.513722
vt 0.864463 0.513722
vt 0.635537 0.736278
vt 0.635537 0.513722
vt 0.620355 0.013722
vt 0.379645 0.236278
vt 0.379645 0.013722
vt 0.620355 0.260537
vt 0.379645 0.489463
vt 0.379645 0.260537
vt 0.135537 0.736278
vt 0.135537 0.750000
vt 0.125000 0.736278
vt 0.620355 0.000000
vt 0.625000 0.013722
vt 0.135537 0.513722
vt 0.125000 0.513722
vt 0.135537 0.500000
vt 0.625000 0.236278
vt 0.620355 0.250000
vt 0.620355 0.236278
vt 0.364463 0.736278
vt 0.375000 0.736278
vt 0.364463 0.750000
vt 0.625000 0.760537
vt 0.620355 0.760537
vt 0.620355 0.750000
vt 0.364463 0.513722
vt 0.364463 0.500000
vt 0.375000 0.513722
vt 0.625000 0.489463
vt 0.620355 0.500000
vt 0.620355 0.489463
vt 0.379645 0.000000
vt 0.625000 0.260537
vt 0.379645 0.760537
vt 0.620355 0.736278
vt 0.625000 0.989463
vt 0.616124 0.979866
vt 0.379645 0.989463
vt 0.383876 0.979866
vt 0.620355 0.989463
vt 0.569955 0.811499
vt 0.541961 0.785196
vt 0.616124 0.770134
vt 0.477420 0.875000
vt 0.502371 0.875000
vt 0.502839 0.877564
vt 0.383876 0.979866
vt 0.398241 0.875000
vt 0.616124 0.979866
vt 1.000000 0.500000
vt 0.875000 0.782988
vt 1.000000 0.782988
vt 0.875000 0.500000
vt 0.750000 0.782988
vt 0.750000 0.500000
vt 0.625000 0.782988
vt 0.625000 0.500000
vt 0.500000 0.782988
vt 0.375000 0.500000
vt 0.375000 0.782988
vt 0.494953 0.782988
vt 0.250000 0.782988
vt 0.250000 0.500000
vt 0.125000 0.782988
vt 0.000000 0.500000
vt 0.125000 0.500000
vt 0.750000 0.490000
vt 0.510000 0.250000
vt 0.750000 0.490000
vt 0.875000 0.500000
vt 0.875000 0.782988
vt 0.951935 0.782988
vt 0.750000 0.782988
vt 0.750000 0.500000
vt 0.625000 0.782988
vt 0.625000 0.500000
vt 0.500000 0.782988
vt 0.500000 0.500000
vt 0.375000 0.782988
vt 0.375000 0.500000
vt 0.250000 0.782988
vt 0.250000 0.500000
vt 0.125000 0.782988
vt 0.125000 0.500000
vt 0.000000 0.782988
vt 0.990000 0.250000
vt 0.750000 0.490000
vt 0.510000 0.250000
vt 1.000000 1.000000
vt 0.875000 0.500000
vt 1.000000 0.500000
vt 0.875000 1.000000
vt 0.750000 0.500000
vt 0.750000 1.000000
vt 0.625000 0.500000
vt 0.625000 1.000000
vt 0.500000 0.500000
vt 0.500000 1.000000
vt 0.375000 0.500000
vt 0.375000 1.000000
vt 0.250000 0.500000
vt 0.101093 0.398907
vt 0.250000 0.460586
vt 0.250000 0.460586
vt 0.250000 1.000000
vt 0.125000 0.500000
vt 0.125000 1.000000
vt 0.000000 0.500000
vt 0.919706 0.080294
vt 0.580294 0.080294
vt 0.580294 0.419706
vt 1.000000 1.000000
vt 0.875000 0.500000
vt 1.000000 0.500000
vt 0.875000 1.000000
vt 0.750000 0.500000
vt 0.750000 1.000000
vt 0.625000 0.500000
vt 0.500000 1.000000
vt 0.500000 0.500000
vt 0.375000 0.500000
vt 0.375000 1.000000
vt 0.250000 0.500000
vt 0.250000 0.460586
vt 0.398907 0.398907
vt 0.398907 0.398907
vt 0.250000 1.000000
vt 0.125000 0.500000
vt 0.125000 1.000000
vt 0.000000 0.500000
vt 0.919706 0.080294
vt 0.580294 0.080294
vt 0.580294 0.419706
vt 0.419706 0.419706
vt 0.250000 0.490000
vt 0.460586 0.250000
vt 0.398907 0.101093
vt 0.490000 0.250000
vt 0.250000 0.039414
vt 0.419706 0.080294
vt 0.101093 0.101093
vt 0.250000 0.010000
vt 0.039414 0.250000
vt 0.080294 0.080294
vt 0.101093 0.398907
vt 0.010000 0.250000
vt 0.080294 0.419706
vt 0.398907 0.398907
vt 0.250000 0.490000
vt 0.460586 0.250000
vt 0.419706 0.419706
vt 0.419706 0.080294
vt 0.490000 0.250000
vt 0.250000 0.039414
vt 0.398907 0.101093
vt 0.101093 0.101093
vt 0.250000 0.010000
vt 0.039414 0.250000
vt 0.080294 0.080294
vt 0.010000 0.250000
vt 0.080294 0.419706
vt 0.101093 0.398907
vt 0.250000 0.460586
vt 0.101093 0.398907
vt 0.250000 0.460586
vt 0.250000 0.460586
vt 0.398907 0.398907
vt 0.460586 0.250000
vt 0.460586 0.250000
vt 0.398907 0.101093
vt 0.398907 0.101093
vt 0.250000 0.039414
vt 0.250000 0.039414
vt 0.101093 0.101093
vt 0.101093 0.101093
vt 0.039414 0.250000
vt 0.039414 0.250000
vt 0.460586 0.250000
vt 0.460586 0.250000
vt 0.250000 0.039414
vt 0.250000 0.039414
vt 0.101093 0.101093
vt 0.101093 0.101093
vt 0.039414 0.250000
vt 0.039414 0.250000
vt 0.101093 0.398907
vt 0.101093 0.398907
vt 0.398907 0.398907
vt 0.398907 0.101093
vt 0.073779 0.250000
vt 0.250000 0.073779
vt 0.426221 0.250000
vt 0.398907 0.101093
vt 0.426221 0.250000
vt 0.250000 0.426221
vt 0.073779 0.250000
vt 0.374607 0.374607
vt 0.398907 0.398907
vt 0.374607 0.125393
vt 0.125393 0.125393
vt 0.125393 0.374607
vt 0.250000 0.426221
vt 0.374607 0.374607
vt 0.374607 0.125393
vt 0.250000 0.073779
vt 0.125393 0.125393
vt 0.125393 0.374607
vt 0.864463 0.736278
vt 0.465824 0.938501
vt 0.513966 0.938501
vt 0.409836 0.938501
vt 0.437830 0.964804
vt 0.541960 0.964804
vt 0.437830 0.785196
vt 0.409836 0.811499
vt 0.472961 0.850582
vt 0.513966 0.811499
vt 0.465824 0.811499
vt 0.569955 0.938501
vt 0.581550 0.875000
vt 0.500000 0.500000
vt 0.000000 0.782988
vt 0.919706 0.419706
vt 0.990000 0.250000
vt 0.919706 0.419706
vt 0.580294 0.419706
vt 0.580294 0.419706
vt 1.000000 0.782988
vt 1.000000 0.500000
vt 0.000000 0.500000
vt 0.919706 0.419706
vt 0.580294 0.419706
vt 0.580294 0.419706
vt 0.750000 0.490000
vt 0.919706 0.419706
vt 0.000000 1.000000
vt 0.750000 0.490000
vt 0.919706 0.419706
vt 0.990000 0.250000
vt 0.750000 0.010000
vt 0.510000 0.250000
vt 0.625000 1.000000
vt 0.000000 1.000000
vt 0.750000 0.490000
vt 0.919706 0.419706
vt 0.990000 0.250000
vt 0.750000 0.010000
vt 0.510000 0.250000
vn -1.0000 0.0000 0.0000
vn 1.0000 0.0000 0.0000
vn 0.0000 1.0000 0.0000
vn 0.0000 0.0000 -1.0000
vn -0.5774 -0.5774 0.5774
vn -0.5773 0.5773 0.5774
vn -0.5774 -0.5774 -0.5774
vn -0.5773 0.5773 -0.5774
vn 0.5774 -0.5774 0.5774
vn 0.5773 0.5773 0.5774
vn 0.5774 -0.5774 -0.5774
vn 0.5773 0.5773 -0.5774
vn -0.7071 -0.7071 0.0000
vn -0.7071 0.0000 0.7071
vn -0.7071 0.7071 0.0000
vn -0.7071 0.0000 -0.7071
vn 0.0000 -0.7071 -0.7071
vn 0.0000 0.7071 -0.7071
vn 0.7071 0.0000 -0.7071
vn 0.7071 -0.7071 0.0000
vn 0.7071 0.7071 0.0000
vn 0.7071 0.0000 0.7071
vn 0.0000 -0.7071 0.7071
vn 0.0000 0.7071 0.7071
vn 0.0000 -1.0000 0.0000
vn -0.0000 0.0000 1.0000
vn -0.3827 -0.9239 0.0000
vn -0.9239 -0.3827 0.0000
vn -0.9239 0.3827 0.0000
vn -0.3827 0.9239 0.0000
vn 0.3827 0.9239 0.0000
vn 0.9239 0.3827 0.0000
vn 0.9239 -0.3827 0.0000
vn 0.3827 -0.9239 0.0000
vn 0.1449 -0.3498 0.9255
vn -0.1449 -0.3498 0.9255
vn -0.3498 -0.1449 0.9255
vn -0.3498 0.1449 0.9255
vn -0.1449 0.3498 0.9255
vn 0.1449 0.3498 0.9255
vn 0.3498 0.1449 0.9255
vn 0.3498 -0.1449 0.9255
vn 0.2706 0.6533 0.7071
vn 0.6533 0.2706 0.7071
vn 0.6533 -0.2706 0.7071
vn 0.2706 -0.6533 0.7071
vn -0.2706 -0.6533 0.7071
vn -0.6533 -0.2706 0.7071
vn -0.6533 0.2706 0.7071
vn -0.2706 0.6533 0.7071
usemtl Plastic1BassSpeakers1
s off
f 25/1/1 48/2/1 22/3/1
f 34/4/2 21/5/2 31/6/2
f 15/7/3 24/8/3 33/9/3
f 9/10/1 12/11/1 5/12/1
f 16/13/4 30/14/4 13/15/4
f 2/16/5 37/17/5 5/18/5
f 39/19/6 7/20/6 9/10/6
f 10/21/7 12/22/7 13/23/7
f 15/24/8 16/25/8 18/26/8
f 19/27/9 21/28/9 42/29/9
f 24/30/10 40/31/10 27/32/10
f 28/33/11 30/34/11 31/35/11
f 33/36/12 34/37/12 36/38/12
f 2/16/13 12/22/13 10/21/13
f 39/19/14 5/12/14 37/39/14
f 15/24/15 9/10/15 7/20/15
f 13/15/16 18/26/16 16/13/16
f 10/21/17 30/34/17 28/33/17
f 33/36/18 16/13/18 15/40/18
f 31/6/19 36/38/19 34/4/19
f 28/33/20 21/5/20 19/27/20
f 24/8/21 34/4/21 33/9/21
f 42/41/22 27/42/22 40/31/22
f 19/27/23 37/17/23 2/16/23
f 7/43/24 40/31/24 24/30/24
f 28/33/25 2/16/25 10/21/25
f 6/44/26 37/45/26 3/46/26
f 22/3/26 40/31/26 25/1/26
f 3/46/26 42/41/26 22/3/26
f 25/1/26 39/47/26 6/44/26
f 55/48/26 53/49/26 47/50/26
f 66/51/26 50/52/26 51/53/26
f 43/54/26 48/2/26 65/55/26
f 22/3/3 43/54/3 3/46/3
f 3/46/2 45/56/2 6/44/2
f 6/44/25 47/50/25 25/1/25
f 1/57/27 55/58/27 52/59/27
f 4/60/28 53/61/28 55/58/28
f 8/62/29 57/63/29 53/61/29
f 11/64/30 50/65/30 57/63/30
f 17/66/31 61/67/31 51/68/31
f 17/66/32 59/69/32 61/67/32
f 20/70/33 63/71/33 59/69/33
f 1/72/34 63/71/34 23/73/34
f 1/74/26 20/75/26 14/76/26
f 29/77/27 56/78/27 49/79/27
f 29/77/28 54/80/28 56/78/28
f 32/81/29 64/82/29 54/80/29
f 35/83/30 65/84/30 64/82/30
f 38/85/31 62/86/31 65/84/31
f 41/87/32 58/88/32 62/86/32
f 44/89/33 60/90/33 58/88/33
f 46/91/34 66/92/34 60/90/34
f 32/93/26 26/94/26 44/95/26
f 100/96/31 69/97/31 67/98/31
f 99/99/32 71/100/32 69/97/32
f 101/101/33 73/102/33 71/100/33
f 102/103/34 75/104/34 73/102/34
f 103/105/27 77/106/27 75/104/27
f 104/107/28 79/108/28 77/106/28
f 98/109/35 124/110/35 84/111/35
f 105/112/29 81/113/29 79/108/29
f 106/114/30 67/115/30 81/113/30
f 73/116/4 77/117/4 81/118/4
f 108/119/31 85/120/31 83/121/31
f 107/122/32 87/123/32 85/120/32
f 109/124/33 89/125/33 87/123/33
f 89/125/34 111/126/34 91/127/34
f 111/126/27 93/128/27 91/127/27
f 112/129/28 95/130/28 93/128/28
f 68/131/36 115/132/36 70/133/36
f 113/134/29 97/135/29 95/130/29
f 114/136/30 83/137/30 97/135/30
f 89/138/4 93/139/4 97/140/4
f 68/131/26 99/141/26 100/142/26
f 72/143/26 99/141/26 70/133/26
f 74/144/26 101/145/26 72/143/26
f 76/146/26 102/147/26 74/144/26
f 78/148/26 103/149/26 76/146/26
f 80/150/26 104/151/26 78/148/26
f 82/152/26 105/153/26 80/150/26
f 68/131/26 106/154/26 82/152/26
f 86/155/26 108/156/26 84/111/26
f 88/157/26 107/158/26 86/155/26
f 88/157/26 110/159/26 109/160/26
f 92/161/26 110/159/26 90/162/26
f 94/163/26 111/164/26 92/161/26
f 96/165/26 112/166/26 94/163/26
f 98/109/26 113/167/26 96/165/26
f 84/111/26 114/168/26 98/109/26
f 130/169/30 149/170/30 124/110/30
f 122/171/30 133/172/30 116/173/30
f 84/111/36 123/174/36 86/155/36
f 70/133/37 117/175/37 72/143/37
f 86/155/37 125/176/37 88/157/37
f 72/143/38 118/177/38 74/144/38
f 88/157/38 126/178/38 90/162/38
f 74/144/39 119/179/39 76/146/39
f 90/162/39 127/180/39 92/161/39
f 78/148/40 119/179/40 120/181/40
f 94/163/40 127/180/40 128/182/40
f 78/148/41 121/183/41 80/150/41
f 94/163/41 129/184/41 96/165/41
f 82/152/42 121/183/42 122/171/42
f 98/109/42 129/184/42 130/169/42
f 82/152/35 116/173/35 68/131/35
f 115/132/32 136/185/32 117/175/32
f 123/174/32 152/186/32 125/176/32
f 118/177/34 140/187/34 119/179/34
f 126/178/34 156/188/34 127/180/34
f 119/179/27 142/189/27 120/181/27
f 127/180/27 158/190/27 128/182/27
f 120/181/28 144/191/28 121/183/28
f 128/182/28 160/192/28 129/184/28
f 121/183/29 146/193/29 122/171/29
f 129/184/29 162/194/29 130/169/29
f 124/110/31 148/195/31 123/174/31
f 117/175/33 138/196/33 118/177/33
f 143/197/26 139/198/26 135/199/26
f 125/176/33 154/200/33 126/178/33
f 151/201/26 150/202/26 159/203/26
f 133/172/43 131/204/43 132/205/43
f 136/185/44 131/204/44 135/199/44
f 138/196/45 135/199/45 137/206/45
f 140/187/46 137/206/46 139/198/46
f 140/187/47 141/207/47 142/189/47
f 142/189/48 143/197/48 144/191/48
f 144/191/49 145/208/49 146/193/49
f 146/193/50 134/209/50 133/172/50
f 149/170/43 147/210/43 148/195/43
f 148/195/44 151/201/44 152/186/44
f 152/186/45 153/211/45 154/200/45
f 154/200/46 155/212/46 156/188/46
f 158/190/47 155/212/47 157/213/47
f 160/192/48 157/213/48 159/203/48
f 162/194/49 159/203/49 161/214/49
f 162/194/50 150/202/50 149/170/50
f 116/173/31 132/205/31 115/132/31
f 25/1/1 47/50/1 48/2/1
f 34/4/2 27/42/2 21/5/2
f 15/7/3 7/215/3 24/8/3
f 9/10/1 18/26/1 12/11/1
f 16/13/4 36/38/4 30/14/4
f 2/16/13 5/18/13 12/22/13
f 39/19/14 9/10/14 5/12/14
f 15/24/15 18/26/15 9/10/15
f 13/15/16 12/11/16 18/26/16
f 10/21/17 13/23/17 30/34/17
f 33/36/18 36/38/18 16/13/18
f 31/6/19 30/14/19 36/38/19
f 28/33/20 31/6/20 21/5/20
f 24/8/21 27/42/21 34/4/21
f 42/41/22 21/5/22 27/42/22
f 19/27/23 42/29/23 37/17/23
f 7/43/24 39/47/24 40/31/24
f 28/33/25 19/27/25 2/16/25
f 6/44/26 39/47/26 37/45/26
f 22/3/26 42/41/26 40/31/26
f 3/46/26 37/45/26 42/41/26
f 25/1/26 40/31/26 39/47/26
f 66/51/26 51/53/26 60/216/26
f 51/53/26 61/217/26 60/216/26
f 43/54/26 62/218/26 58/219/26
f 58/219/26 60/216/26 59/220/26
f 60/216/26 61/217/26 59/220/26
f 45/56/26 43/54/26 59/220/26
f 43/54/26 58/219/26 59/220/26
f 54/221/26 64/222/26 48/2/26
f 50/52/26 49/223/26 57/224/26
f 49/223/26 56/225/26 57/224/26
f 54/221/26 48/2/26 53/49/26
f 48/2/26 47/50/26 53/49/26
f 45/56/26 59/220/26 63/226/26
f 57/224/26 56/225/26 54/221/26
f 53/49/26 57/224/26 54/221/26
f 47/50/26 45/56/26 52/227/26
f 45/56/26 63/226/26 52/227/26
f 47/50/26 52/227/26 55/48/26
f 66/51/26 49/223/26 50/52/26
f 65/55/26 62/218/26 43/54/26
f 48/2/26 64/222/26 65/55/26
f 22/3/3 48/2/3 43/54/3
f 3/46/2 43/54/2 45/56/2
f 6/44/25 45/56/25 47/50/25
f 1/57/27 4/60/27 55/58/27
f 4/60/28 8/62/28 53/61/28
f 8/62/29 11/64/29 57/63/29
f 11/64/30 14/228/30 50/65/30
f 51/68/31 50/65/31 14/228/31
f 14/228/31 17/66/31 51/68/31
f 17/66/32 20/70/32 59/69/32
f 20/70/33 23/73/33 63/71/33
f 1/72/34 52/229/34 63/71/34
f 14/76/26 11/230/26 8/231/26
f 8/231/26 4/232/26 1/74/26
f 1/74/26 23/233/26 20/75/26
f 20/75/26 17/234/26 14/76/26
f 14/76/26 8/231/26 1/74/26
f 66/235/27 26/236/27 49/79/27
f 26/236/27 29/77/27 49/79/27
f 29/77/28 32/81/28 54/80/28
f 32/81/29 35/83/29 64/82/29
f 35/83/30 38/85/30 65/84/30
f 38/85/31 41/87/31 62/86/31
f 41/87/32 44/89/32 58/88/32
f 44/89/33 46/91/33 60/90/33
f 46/91/34 26/237/34 66/92/34
f 32/93/26 29/238/26 26/94/26
f 26/94/26 46/239/26 44/95/26
f 44/95/26 41/240/26 32/93/26
f 41/240/26 38/241/26 32/93/26
f 38/241/26 35/242/26 32/93/26
f 100/96/31 99/99/31 69/97/31
f 99/99/32 101/101/32 71/100/32
f 101/101/33 102/103/33 73/102/33
f 102/103/34 103/105/34 75/104/34
f 103/105/27 104/107/27 77/106/27
f 104/107/28 105/112/28 79/108/28
f 98/109/35 130/169/35 124/110/35
f 105/112/29 106/114/29 81/113/29
f 106/114/30 100/243/30 67/115/30
f 81/118/4 67/244/4 69/245/4
f 69/245/4 71/246/4 73/116/4
f 73/116/4 75/247/4 77/117/4
f 77/117/4 79/248/4 81/118/4
f 81/118/4 69/245/4 73/116/4
f 108/119/31 107/122/31 85/120/31
f 107/122/32 109/124/32 87/123/32
f 109/124/33 110/249/33 89/125/33
f 89/125/34 110/249/34 111/126/34
f 111/126/27 112/129/27 93/128/27
f 112/129/28 113/134/28 95/130/28
f 68/131/36 116/173/36 115/132/36
f 113/134/29 114/136/29 97/135/29
f 114/136/30 108/250/30 83/137/30
f 97/140/4 83/251/4 85/252/4
f 85/252/4 87/253/4 89/138/4
f 89/138/4 91/254/4 93/139/4
f 93/139/4 95/255/4 97/140/4
f 97/140/4 85/252/4 89/138/4
f 68/131/26 70/133/26 99/141/26
f 72/143/26 101/145/26 99/141/26
f 74/144/26 102/147/26 101/145/26
f 76/146/26 103/149/26 102/147/26
f 78/148/26 104/151/26 103/149/26
f 80/150/26 105/153/26 104/151/26
f 82/152/26 106/154/26 105/153/26
f 68/131/26 100/142/26 106/154/26
f 86/155/26 107/158/26 108/156/26
f 88/157/26 109/160/26 107/158/26
f 88/157/26 90/162/26 110/159/26
f 92/161/26 111/164/26 110/159/26
f 94/163/26 112/166/26 111/164/26
f 96/165/26 113/167/26 112/166/26
f 98/109/26 114/168/26 113/167/26
f 84/111/26 108/156/26 114/168/26
f 130/169/30 162/194/30 149/170/30
f 122/171/30 146/193/30 133/172/30
f 84/111/36 124/110/36 123/174/36
f 70/133/37 115/132/37 117/175/37
f 86/155/37 123/174/37 125/176/37
f 72/143/38 117/175/38 118/177/38
f 88/157/38 125/176/38 126/178/38
f 74/144/39 118/177/39 119/179/39
f 90/162/39 126/178/39 127/180/39
f 78/148/40 76/146/40 119/179/40
f 94/163/40 92/161/40 127/180/40
f 78/148/41 120/181/41 121/183/41
f 94/163/41 128/182/41 129/184/41
f 82/152/42 80/150/42 121/183/42
f 98/109/42 96/165/42 129/184/42
f 82/152/35 122/171/35 116/173/35
f 115/132/32 132/205/32 136/185/32
f 123/174/32 148/195/32 152/186/32
f 118/177/34 138/196/34 140/187/34
f 126/178/34 154/200/34 156/188/34
f 119/179/27 140/187/27 142/189/27
f 127/180/27 156/188/27 158/190/27
f 120/181/28 142/189/28 144/191/28
f 128/182/28 158/190/28 160/192/28
f 121/183/29 144/191/29 146/193/29
f 129/184/29 160/192/29 162/194/29
f 124/110/31 149/170/31 148/195/31
f 117/175/33 136/185/33 138/196/33
f 135/199/26 131/204/26 134/209/26
f 134/209/26 145/208/26 135/199/26
f 145/208/26 143/197/26 135/199/26
f 143/197/26 141/207/26 139/198/26
f 139/198/26 137/206/26 135/199/26
f 125/176/33 152/186/33 154/200/33
f 151/201/26 147/210/26 150/202/26
f 150/202/26 161/214/26 159/203/26
f 159/203/26 157/213/26 151/201/26
f 157/213/26 155/212/26 151/201/26
f 155/212/26 153/211/26 151/201/26
f 133/172/43 134/209/43 131/204/43
f 136/185/44 132/205/44 131/204/44
f 138/196/45 136/185/45 135/199/45
f 140/187/46 138/196/46 137/206/46
f 140/187/47 139/198/47 141/207/47
f 142/189/48 141/207/48 143/197/48
f 144/191/49 143/197/49 145/208/49
f 146/193/50 145/208/50 134/209/50
f 149/170/43 150/202/43 147/210/43
f 148/195/44 147/210/44 151/201/44
f 152/186/45 151/201/45 153/211/45
f 154/200/46 153/211/46 155/212/46
f 158/190/47 156/188/47 155/212/47
f 160/192/48 158/190/48 157/213/48
f 162/194/49 160/192/49 159/203/49
f 162/194/50 161/214/50 150/202/50
f 116/173/31 133/172/31 132/205/31
