# Blender v3.2.0 OBJ File: 'CeilingLamp4.blend'
# www.blender.org
mtllib CeilingLamp4.mtl
o CeilingLamp4_Cylinder
v -0.000000 0.010728 -0.190674
v -0.000000 0.128251 -0.190674
v 0.134827 0.010728 -0.134827
v 0.134827 0.128251 -0.134827
v 0.190674 0.010728 0.000000
v 0.190674 0.128251 0.000000
v 0.134827 0.010728 0.134827
v 0.134827 0.128251 0.134827
v -0.000000 0.010728 0.190674
v -0.000000 0.128251 0.190674
v -0.134827 0.010728 0.134827
v -0.134827 0.128251 0.134827
v -0.190674 0.010728 0.000000
v -0.190674 0.128251 0.000000
v -0.134827 0.010728 -0.134827
v -0.134827 0.128251 -0.134827
v -0.000000 -0.043468 -0.206292
v 0.145871 -0.043468 -0.145871
v 0.206292 -0.043468 0.000000
v 0.145871 -0.043468 0.145871
v -0.000000 -0.043468 0.206292
v -0.145871 -0.043468 0.145871
v -0.206292 -0.043468 -0.000000
v -0.145871 -0.043468 -0.145871
v 0.000000 -0.095512 -0.326710
v 0.231019 -0.095512 -0.231019
v 0.326710 -0.095512 0.000000
v 0.231019 -0.095512 0.231019
v -0.000000 -0.095512 0.326710
v -0.231019 -0.095512 0.231019
v -0.326710 -0.095512 -0.000000
v -0.231019 -0.095512 -0.231019
vt 1.000000 1.000000
vt 0.875000 0.500000
vt 1.000000 0.500000
vt 0.875000 1.000000
vt 0.750000 0.500000
vt 0.750000 1.000000
vt 0.625000 0.500000
vt 0.625000 1.000000
vt 0.500000 0.500000
vt 0.500000 1.000000
vt 0.375000 0.500000
vt 0.375000 1.000000
vt 0.250000 0.500000
vt 0.010000 0.250000
vt 0.250000 0.010000
vt 0.490000 0.250000
vt 0.250000 1.000000
vt 0.125000 0.500000
vt 0.125000 1.000000
vt 0.000000 0.500000
vt 0.250000 0.500000
vt 0.750000 0.500000
vt 0.875000 0.500000
vt 0.500000 0.500000
vt 0.000000 0.500000
vt 0.125000 0.500000
vt 1.000000 0.500000
vt 0.625000 0.500000
vt 0.375000 0.500000
vt 0.750000 0.410937
vt 0.919706 0.419706
vt 0.863799 0.363799
vt 0.990000 0.250000
vt 0.910937 0.250000
vt 0.919706 0.080294
vt 0.863799 0.136201
vt 0.750000 0.010000
vt 0.750000 0.089063
vt 0.636201 0.136201
vt 0.580294 0.080294
vt 0.510000 0.250000
vt 0.589063 0.250000
vt 0.636201 0.363799
vt 0.580294 0.419706
vt 0.750000 0.490000
vt 0.419706 0.419706
vt 0.250000 0.490000
vt 0.080294 0.419706
vt 0.080294 0.080294
vt 0.419706 0.080294
vt 0.000000 1.000000
vn 0.3827 0.0000 -0.9239
vn 0.9239 0.0000 -0.3827
vn 0.9239 0.0000 0.3827
vn 0.3827 0.0000 0.9239
vn -0.3827 0.0000 0.9239
vn -0.9239 0.0000 0.3827
vn 0.0000 1.0000 -0.0000
vn -0.9239 0.0000 -0.3827
vn -0.3827 0.0000 -0.9239
vn -0.5964 0.7637 -0.2470
vn 0.5964 0.7637 -0.2470
vn -0.2470 0.7637 0.5964
vn -0.2470 0.7637 -0.5964
vn 0.2470 0.7637 -0.5964
vn 0.5964 0.7637 0.2470
vn -0.5964 0.7637 0.2470
vn 0.2470 0.7637 0.5964
vn -0.1622 -0.9058 0.3915
vn -0.3915 -0.9058 0.1622
vn -0.3915 -0.9058 -0.1622
vn -0.1622 -0.9058 -0.3915
vn 0.1622 -0.9058 -0.3915
vn 0.3915 -0.9058 -0.1622
vn 0.3915 -0.9058 0.1622
vn 0.1622 -0.9058 0.3915
vn 0.0000 -1.0000 -0.0000
usemtl MetalCeilingLamp4
s off
f 2/1/1 3/2/1 1/3/1
f 4/4/2 5/5/2 3/2/2
f 6/6/3 7/7/3 5/5/3
f 8/8/4 9/9/4 7/7/4
f 10/10/5 11/11/5 9/9/5
f 12/12/6 13/13/6 11/11/6
f 14/14/7 10/15/7 6/16/7
f 14/17/8 15/18/8 13/13/8
f 16/19/9 1/20/9 15/18/9
f 15/18/10 31/21/10 13/13/10
f 3/2/11 27/22/11 26/23/11
f 11/11/12 29/24/12 9/9/12
f 15/18/13 25/25/13 32/26/13
f 3/2/14 25/27/14 1/3/14
f 5/5/15 28/28/15 27/22/15
f 11/11/16 31/21/16 30/29/16
f 7/7/17 29/24/17 28/28/17
f 17/30/18 26/31/18 18/32/18
f 18/32/19 27/33/19 19/34/19
f 19/34/20 28/35/20 20/36/20
f 20/36/21 29/37/21 21/38/21
f 22/39/22 29/37/22 30/40/22
f 22/39/23 31/41/23 23/42/23
f 24/43/24 31/41/24 32/44/24
f 24/43/25 25/45/25 17/30/25
f 2/1/1 4/4/1 3/2/1
f 4/4/2 6/6/2 5/5/2
f 6/6/3 8/8/3 7/7/3
f 8/8/4 10/10/4 9/9/4
f 10/10/5 12/12/5 11/11/5
f 12/12/6 14/17/6 13/13/6
f 6/16/7 4/46/7 2/47/7
f 2/47/7 16/48/7 6/16/7
f 16/48/7 14/14/7 6/16/7
f 14/14/7 12/49/7 10/15/7
f 10/15/7 8/50/7 6/16/7
f 14/17/8 16/19/8 15/18/8
f 16/19/9 2/51/9 1/20/9
f 15/18/10 32/26/10 31/21/10
f 3/2/11 5/5/11 27/22/11
f 11/11/12 30/29/12 29/24/12
f 15/18/13 1/20/13 25/25/13
f 3/2/14 26/23/14 25/27/14
f 5/5/15 7/7/15 28/28/15
f 11/11/16 13/13/16 31/21/16
f 7/7/17 9/9/17 29/24/17
f 17/30/18 25/45/18 26/31/18
f 18/32/19 26/31/19 27/33/19
f 19/34/20 27/33/20 28/35/20
f 20/36/21 28/35/21 29/37/21
f 22/39/22 21/38/22 29/37/22
f 22/39/23 30/40/23 31/41/23
f 24/43/24 23/42/24 31/41/24
f 24/43/25 32/44/25 25/45/25
usemtl LightCeilingLamp4
f 23/42/26 24/43/26 20/36/26
f 24/43/26 17/30/26 18/32/26
f 18/32/26 19/34/26 24/43/26
f 19/34/26 20/36/26 24/43/26
f 20/36/26 21/38/26 22/39/26
f 22/39/26 23/42/26 20/36/26
