# Blender v3.2.0 OBJ File: 'CeilingLamp5.blend'
# www.blender.org
mtllib CeilingLamp5.mtl
o CeilingLamp5_Cylinder.002
v 0.000000 0.060010 -0.279318
v 0.000000 0.162443 -0.303795
v 0.197508 0.060010 -0.197508
v 0.214815 0.162443 -0.214815
v 0.279318 0.060010 0.000000
v 0.303795 0.162443 0.000000
v 0.197508 0.060010 0.197508
v 0.214815 0.162443 0.214815
v -0.000000 0.060010 0.279318
v -0.000000 0.162443 0.303795
v -0.197508 0.060010 0.197508
v -0.214815 0.162443 0.214815
v -0.279318 0.060010 -0.000000
v -0.303795 0.162443 -0.000000
v -0.197508 0.060010 -0.197508
v -0.214815 0.162443 -0.214815
v 0.000000 0.069456 -0.303795
v 0.214815 0.069456 -0.214815
v 0.303795 0.069456 0.000000
v 0.214815 0.069456 0.214815
v -0.000000 0.069456 0.303795
v -0.214815 0.069456 0.214815
v -0.303795 0.069456 -0.000000
v -0.214815 0.069456 -0.214815
v 0.000000 -0.160968 -0.032959
v 0.023305 -0.160968 -0.023305
v 0.032959 -0.160968 0.000000
v 0.023305 -0.160968 0.023305
v -0.000000 -0.160968 0.032959
v -0.023305 -0.160968 0.023305
v -0.032959 -0.160968 -0.000000
v -0.023305 -0.160968 -0.023305
v -0.000000 -0.019773 0.257234
v 0.181892 -0.019773 0.181892
v 0.257234 -0.019773 0.000000
v 0.181892 -0.019773 -0.181892
v -0.181892 -0.019773 -0.181892
v -0.257234 -0.019773 -0.000000
v -0.181892 -0.019773 0.181892
v 0.000000 -0.019773 -0.257234
v 0.000000 -0.111168 -0.179959
v 0.127250 -0.111168 -0.127250
v 0.179959 -0.111168 0.000000
v 0.127250 -0.111168 0.127250
v -0.000000 -0.111168 0.179959
v -0.127250 -0.111168 0.127250
v -0.179959 -0.111168 -0.000000
v -0.127250 -0.111168 -0.127250
vt 1.000000 1.000000
vt 0.875000 0.500000
vt 1.000000 0.500000
vt 0.875000 1.000000
vt 0.750000 0.500000
vt 0.750000 1.000000
vt 0.625000 0.500000
vt 0.625000 1.000000
vt 0.500000 0.500000
vt 0.500000 1.000000
vt 0.375000 0.500000
vt 0.375000 1.000000
vt 0.250000 0.500000
vt 0.490000 0.250000
vt 0.250000 0.490000
vt 0.010000 0.250000
vt 0.250000 1.000000
vt 0.125000 0.500000
vt 0.125000 1.000000
vt 0.000000 0.500000
vt 0.892047 0.392047
vt 0.750000 0.490000
vt 0.919706 0.419706
vt 0.990000 0.250000
vt 0.950885 0.250000
vt 0.892047 0.107953
vt 0.919706 0.080294
vt 0.750000 0.049115
vt 0.750000 0.010000
vt 0.580294 0.080294
vt 0.607953 0.107953
vt 0.549115 0.250000
vt 0.510000 0.250000
vt 0.580294 0.419706
vt 0.607953 0.392047
vt 0.750000 0.450885
vt 0.419706 0.419706
vt 0.080294 0.419706
vt 0.080294 0.080294
vt 0.250000 0.010000
vt 0.419706 0.080294
vt 0.000000 1.000000
vt 0.892047 0.107953
vt 0.750000 0.049115
vt 0.892047 0.107953
vt 0.779824 0.279824
vt 0.779824 0.220176
vt 0.720176 0.220176
vt 0.892047 0.392047
vt 0.950885 0.250000
vt 0.892047 0.392047
vt 0.607953 0.392047
vt 0.549115 0.250000
vt 0.549115 0.250000
vt 0.607953 0.107953
vt 0.750000 0.049115
vt 0.950885 0.250000
vt 0.750000 0.450885
vt 0.750000 0.450885
vt 0.607953 0.392047
vt 0.607953 0.107953
vt 0.750000 0.292178
vt 0.792178 0.250000
vt 0.750000 0.207822
vt 0.707822 0.250000
vt 0.720176 0.279824
vn 0.3827 0.0000 -0.9239
vn 0.9239 0.0000 -0.3827
vn 0.9239 0.0000 0.3827
vn 0.3827 0.0000 0.9239
vn -0.3827 0.0000 0.9239
vn -0.9239 0.0000 0.3827
vn 0.0000 1.0000 0.0000
vn -0.9239 0.0000 -0.3827
vn -0.3827 0.0000 -0.9239
vn 0.1475 -0.9227 -0.3561
vn 0.3561 -0.9227 -0.1475
vn 0.3561 -0.9227 0.1475
vn 0.1475 -0.9227 0.3561
vn -0.1475 -0.9227 0.3561
vn -0.3561 -0.9227 0.1475
vn -0.3561 -0.9227 -0.1475
vn -0.1475 -0.9227 -0.3561
vn 0.3016 -0.6156 0.7281
vn 0.0000 -1.0000 -0.0000
vn 0.7281 -0.6156 -0.3016
vn -0.7281 -0.6156 -0.3016
vn -0.3016 -0.6156 0.7281
vn 0.7281 -0.6156 0.3016
vn 0.3016 -0.6156 -0.7281
vn -0.3016 -0.6156 -0.7281
vn -0.7281 -0.6156 0.3016
vn -0.8951 -0.2478 0.3708
vn -0.3708 -0.2478 -0.8951
vn 0.3708 -0.2478 -0.8951
vn 0.8951 -0.2478 0.3708
vn -0.3708 -0.2478 0.8951
vn -0.8951 -0.2478 -0.3708
vn 0.8951 -0.2478 -0.3708
vn 0.3708 -0.2478 0.8951
vn 0.1317 -0.9389 -0.3181
vn 0.3181 -0.9389 -0.1317
vn 0.3181 -0.9389 0.1317
vn 0.1317 -0.9389 0.3181
vn -0.1317 -0.9389 0.3181
vn -0.3181 -0.9389 0.1317
vn -0.3181 -0.9389 -0.1317
vn -0.1317 -0.9389 -0.3181
usemtl MetalCeilingLamp5
s off
f 2/1/1 18/2/1 17/3/1
f 4/4/2 19/5/2 18/2/2
f 6/6/3 20/7/3 19/5/3
f 8/8/4 21/9/4 20/7/4
f 10/10/5 22/11/5 21/9/5
f 12/12/6 23/13/6 22/11/6
f 6/14/7 2/15/7 14/16/7
f 14/17/8 24/18/8 23/13/8
f 16/19/9 17/20/9 24/18/9
f 3/21/10 17/22/10 18/23/10
f 3/21/11 19/24/11 5/25/11
f 7/26/12 19/24/12 20/27/12
f 9/28/13 20/27/13 21/29/13
f 9/28/14 22/30/14 11/31/14
f 13/32/15 22/30/15 23/33/15
f 13/32/16 24/34/16 15/35/16
f 1/36/17 24/34/17 17/22/17
f 2/1/1 4/4/1 18/2/1
f 4/4/2 6/6/2 19/5/2
f 6/6/3 8/8/3 20/7/3
f 8/8/4 10/10/4 21/9/4
f 10/10/5 12/12/5 22/11/5
f 12/12/6 14/17/6 23/13/6
f 6/14/7 4/37/7 2/15/7
f 2/15/7 16/38/7 14/16/7
f 14/16/7 12/39/7 6/14/7
f 12/39/7 10/40/7 6/14/7
f 10/40/7 8/41/7 6/14/7
f 14/17/8 16/19/8 24/18/8
f 16/19/9 2/42/9 17/20/9
f 3/21/10 1/36/10 17/22/10
f 3/21/11 18/23/11 19/24/11
f 7/26/12 5/25/12 19/24/12
f 9/28/13 7/26/13 20/27/13
f 9/28/14 21/29/14 22/30/14
f 13/32/15 11/31/15 22/30/15
f 13/32/16 23/33/16 24/34/16
f 1/36/17 15/35/17 24/34/17
usemtl LightCeilingLamp5
f 34/43/18 45/44/18 44/45/18
f 26/46/19 28/47/19 30/48/19
f 36/49/20 43/50/20 42/51/20
f 37/52/21 47/53/21 38/54/21
f 39/55/22 45/44/22 33/56/22
f 34/43/23 43/50/23 35/57/23
f 36/49/24 41/58/24 40/59/24
f 40/59/25 48/60/25 37/52/25
f 39/55/26 47/53/26 46/61/26
f 13/32/27 39/55/27 11/31/27
f 1/36/28 37/52/28 15/35/28
f 1/36/29 36/49/29 40/59/29
f 7/26/30 35/57/30 5/25/30
f 11/31/31 33/56/31 9/28/31
f 15/35/32 38/54/32 13/32/32
f 5/25/33 36/49/33 3/21/33
f 7/26/34 33/56/34 34/43/34
f 25/62/35 42/51/35 26/46/35
f 26/46/36 43/50/36 27/63/36
f 27/63/37 44/45/37 28/47/37
f 28/47/38 45/44/38 29/64/38
f 30/48/39 45/44/39 46/61/39
f 31/65/40 46/61/40 47/53/40
f 32/66/41 47/53/41 48/60/41
f 32/66/42 41/58/42 25/62/42
f 34/43/18 33/56/18 45/44/18
f 32/66/19 25/62/19 26/46/19
f 26/46/19 27/63/19 28/47/19
f 28/47/19 29/64/19 30/48/19
f 30/48/19 31/65/19 32/66/19
f 32/66/19 26/46/19 30/48/19
f 36/49/20 35/57/20 43/50/20
f 37/52/21 48/60/21 47/53/21
f 39/55/22 46/61/22 45/44/22
f 34/43/23 44/45/23 43/50/23
f 36/49/24 42/51/24 41/58/24
f 40/59/25 41/58/25 48/60/25
f 39/55/26 38/54/26 47/53/26
f 13/32/27 38/54/27 39/55/27
f 1/36/28 40/59/28 37/52/28
f 1/36/29 3/21/29 36/49/29
f 7/26/30 34/43/30 35/57/30
f 11/31/31 39/55/31 33/56/31
f 15/35/32 37/52/32 38/54/32
f 5/25/33 35/57/33 36/49/33
f 7/26/34 9/28/34 33/56/34
f 25/62/35 41/58/35 42/51/35
f 26/46/36 42/51/36 43/50/36
f 27/63/37 43/50/37 44/45/37
f 28/47/38 44/45/38 45/44/38
f 30/48/39 29/64/39 45/44/39
f 31/65/40 30/48/40 46/61/40
f 32/66/41 31/65/41 47/53/41
f 32/66/42 48/60/42 41/58/42
