# Blender v3.2.0 OBJ File: 'ColoredPencil1.blend'
# www.blender.org
mtllib ColoredPencil1.mtl
o ColoredPencil1_Cube.001
v 0.006026 -0.161371 -0.006026
v 0.006026 -0.161371 0.006026
v -0.006026 -0.161371 0.006026
v -0.006026 -0.161371 -0.006026
v 0.008299 -0.161371 -0.000000
v -0.000000 -0.161371 0.008298
v -0.008299 -0.161371 -0.000000
v 0.000000 -0.161371 -0.008299
v 0.004761 0.041287 -0.004761
v 0.006556 0.041287 0.000000
v 0.004761 0.041287 0.004761
v 0.000000 0.041287 0.006556
v -0.004761 0.041287 0.004761
v -0.006556 0.041288 0.000000
v -0.004761 0.041287 -0.004761
v 0.000000 0.041287 -0.006556
v 0.002023 0.054941 -0.002023
v 0.002786 0.054941 0.000000
v 0.002023 0.054941 0.002023
v 0.000000 0.054941 0.002786
v -0.002023 0.054941 0.002023
v -0.002786 0.054941 0.000000
v -0.002023 0.054941 -0.002023
v 0.000000 0.054941 -0.002786
v 0.001437 0.063213 -0.001437
v 0.001979 0.063213 0.000000
v 0.001437 0.063213 0.001437
v -0.000000 0.063213 0.001979
v -0.001437 0.063213 0.001437
v -0.001979 0.063213 0.000000
v -0.001437 0.063213 -0.001437
v -0.000000 0.063213 -0.001979
vt 0.500000 0.692502
vt 0.500000 0.432508
vt 0.500000 0.692502
vt 0.500000 0.437574
vt 0.500000 0.605343
vt 0.500000 0.744809
vt 0.500000 0.688718
vt 0.500000 0.688718
vt 0.500000 0.518523
vt 0.500000 0.518523
vt 0.500000 0.374682
vt 0.500000 0.374682
vt 0.500000 0.432508
vt 0.500000 0.374682
vt 0.500000 0.374682
vt 0.500000 0.605343
vt 0.500000 0.437574
vt 0.500000 0.432508
vt 0.500000 0.688718
vt 0.500000 0.744809
vt 0.500000 0.688718
vt 0.500000 0.518523
vt 0.500000 0.605343
vt 0.500000 0.518523
vt 0.500000 0.437574
vt 0.500000 0.692502
vt 0.500000 0.692502
vt 0.500000 0.432508
vt 0.500000 0.744809
vt 0.500000 0.605343
vt 0.500000 0.437574
vt 0.500000 0.744809
vn 0.9356 0.0080 -0.3529
vn -0.0000 -1.0000 -0.0000
vn 0.3529 0.0080 -0.9356
vn -0.9356 0.0080 -0.3529
vn -0.3529 0.0080 0.9356
vn 0.9356 0.0080 0.3529
vn -0.3529 0.0080 -0.9356
vn -0.9356 0.0080 0.3529
vn 0.3529 0.0080 0.9356
vn 0.9318 0.0909 0.3515
vn 0.0000 1.0000 -0.0000
vn -0.3515 0.0909 -0.9318
vn -0.9318 0.0909 0.3515
vn 0.3515 0.0909 0.9318
vn 0.9318 0.0909 -0.3515
vn 0.3515 0.0909 -0.9318
vn -0.9318 0.0909 -0.3515
vn -0.3515 0.0909 0.9318
vn -0.0000 1.0000 -0.0001
vn -0.3417 0.2502 -0.9059
vn -0.9059 0.2502 0.3417
vn 0.3417 0.2502 0.9059
vn 0.9059 0.2502 -0.3417
vn 0.3417 0.2502 -0.9059
vn -0.9059 0.2502 -0.3417
vn -0.3417 0.2502 0.9059
vn 0.9059 0.2502 0.3417
usemtl Blue1Pencil1
s off
f 9/1/1 5/2/1 1/3/1
f 6/4/2 7/5/2 8/6/2
f 8/6/3 9/1/3 1/3/3
f 7/5/4 15/7/4 4/8/4
f 6/4/5 13/9/5 3/10/5
f 5/2/6 11/11/6 2/12/6
f 15/7/7 8/6/7 4/8/7
f 13/9/8 7/5/8 3/10/8
f 11/11/9 6/4/9 2/12/9
f 18/13/10 27/14/10 19/15/10
f 30/16/11 28/17/11 26/18/11
f 31/19/12 24/20/12 23/21/12
f 29/22/13 22/23/13 21/24/13
f 27/14/14 20/25/14 19/15/14
f 25/26/15 18/13/15 17/27/15
f 24/20/16 25/26/16 17/27/16
f 22/23/17 31/19/17 23/21/17
f 20/25/18 29/22/18 21/24/18
f 9/1/1 10/28/1 5/2/1
f 8/6/2 1/3/2 5/2/2
f 5/2/2 2/12/2 6/4/2
f 6/4/2 3/10/2 7/5/2
f 7/5/2 4/8/2 8/6/2
f 8/6/2 5/2/2 6/4/2
f 8/6/3 16/29/3 9/1/3
f 7/5/4 14/30/4 15/7/4
f 6/4/5 12/31/5 13/9/5
f 5/2/6 10/28/6 11/11/6
f 15/7/7 16/29/7 8/6/7
f 13/9/8 14/30/8 7/5/8
f 11/11/9 12/31/9 6/4/9
f 18/13/10 26/18/10 27/14/10
f 26/18/11 25/26/11 32/32/11
f 32/32/11 31/19/11 30/16/11
f 30/16/11 29/22/11 28/17/11
f 28/17/19 27/14/19 26/18/19
f 26/18/11 32/32/11 30/16/11
f 31/19/12 32/32/12 24/20/12
f 29/22/13 30/16/13 22/23/13
f 27/14/14 28/17/14 20/25/14
f 25/26/15 26/18/15 18/13/15
f 24/20/16 32/32/16 25/26/16
f 22/23/17 30/16/17 31/19/17
f 20/25/18 28/17/18 29/22/18
usemtl Wood1Pencil1
f 23/21/20 16/29/20 15/7/20
f 21/24/21 14/30/21 13/9/21
f 19/15/22 12/31/22 11/11/22
f 17/27/23 10/28/23 9/1/23
f 16/29/24 17/27/24 9/1/24
f 14/30/25 23/21/25 15/7/25
f 12/31/26 21/24/26 13/9/26
f 10/28/27 19/15/27 11/11/27
f 23/21/20 24/20/20 16/29/20
f 21/24/21 22/23/21 14/30/21
f 19/15/22 20/25/22 12/31/22
f 17/27/23 18/13/23 10/28/23
f 16/29/24 24/20/24 17/27/24
f 14/30/25 22/23/25 23/21/25
f 12/31/26 20/25/26 21/24/26
f 10/28/27 18/13/27 19/15/27
