# Blender v3.2.0 OBJ File: 'DoubleDoorUpperCabinet1.blend'
# www.blender.org
mtllib DoubleDoorUpperCabinet1.mtl
o DoubleDoorUpperCabinet1_Cube.002
v -0.448550 0.354915 0.177926
v -0.476288 0.382653 -0.207367
v -0.000000 0.354915 0.177926
v -0.000000 0.382653 -0.207367
v -0.476288 0.382653 0.177926
v -0.000000 0.382653 0.177926
v -0.448550 0.354915 -0.193003
v -0.000000 0.354915 -0.193003
v -0.448550 -0.373136 0.177926
v -0.476288 -0.400874 -0.207367
v -0.000000 -0.373136 0.177926
v -0.000000 -0.400874 -0.207367
v -0.476288 -0.400874 0.177926
v -0.000000 -0.400874 0.177926
v -0.448550 -0.373136 -0.193002
v -0.000000 -0.373136 -0.193002
v -0.476288 0.382653 0.060867
v -0.000000 0.382653 0.060867
v -0.476288 -0.400874 0.060867
v -0.000000 -0.400874 0.060867
v -0.000000 0.382653 0.065408
v -0.464515 -0.015574 0.172517
v -0.464515 -0.002648 0.172517
v -0.464515 -0.015574 -0.199767
v -0.464515 -0.002648 -0.199767
v -0.000000 -0.015574 0.172517
v -0.000000 -0.002648 0.172517
v -0.000000 -0.015574 -0.199767
v -0.000000 -0.002648 -0.199767
v 0.448550 0.354915 0.177926
v 0.476288 0.382653 -0.207367
v 0.476288 0.382653 0.177926
v 0.448550 0.354915 -0.193003
v 0.448550 -0.373136 0.177926
v 0.476288 -0.400874 -0.207367
v 0.476288 -0.400874 0.177926
v 0.448550 -0.373136 -0.193002
v 0.476288 0.382653 0.060867
v 0.476288 -0.400874 0.060867
v 0.464515 -0.015574 0.172517
v 0.464515 -0.002648 0.172517
v 0.464515 -0.015574 -0.199767
v 0.464515 -0.002648 -0.199767
vt 0.375000 0.500000
vt 0.625000 0.250000
vt 0.625000 0.500000
vt 0.375000 1.000000
vt 0.617238 0.985186
vt 0.625000 1.000000
vt 0.382762 0.985186
vt 0.617238 0.985186
vt 0.382762 0.764814
vt 0.617238 0.764814
vt 0.625000 0.750000
vt 0.617238 0.764814
vt 0.382762 0.764814
vt 0.382762 0.985186
vt 0.125000 0.700000
vt 0.375000 0.750000
vt 0.125000 0.750000
vt 0.375000 0.050000
vt 0.625000 0.000000
vt 0.625000 0.050000
vt 0.625000 0.000000
vt 0.375000 0.250000
vt 0.375000 0.000000
vt 0.625000 0.250000
vt 0.375000 0.500000
vt 0.625000 0.750000
vt 0.375000 1.000000
vt 0.375000 0.750000
vt 0.125000 0.750000
vt 0.125000 0.500000
vt 0.875000 0.500000
vt 0.625000 0.500000
vt 0.625000 0.250000
vt 0.625000 1.000000
vt 0.382762 0.985186
vt 0.375000 1.000000
vt 0.617238 0.985186
vt 0.617238 0.985186
vt 0.382762 0.985186
vt 0.125000 0.750000
vt 0.375000 0.700000
vt 0.125000 0.700000
vt 0.625000 0.000000
vt 0.375000 0.050000
vt 0.625000 0.050000
vt 0.375000 0.250000
vt 0.375000 0.250000
vt 0.375000 0.250000
vt 0.625000 0.000000
vt 0.375000 0.000000
vt 0.625000 0.250000
vt 0.375000 1.000000
vt 0.125000 0.750000
vt 0.125000 0.500000
vt 0.875000 0.750000
vt 0.875000 0.500000
vt 0.000000 0.000000
vt 0.375000 0.000000
vt 0.625000 1.000000
vt 0.875000 0.750000
vt 0.375000 0.000000
vt 0.625000 1.000000
vn 0.0000 -0.0000 -1.0000
vn 0.0000 0.0000 1.0000
vn 1.0000 0.0000 0.0000
vn 0.0000 -1.0000 0.0000
vn 0.0000 1.0000 0.0000
vn -1.0000 0.0000 0.0000
usemtl WoodDoubleDoorUpperCabinet1
s off
f 12/1/1 2/2/1 4/3/1
f 13/4/2 1/5/2 5/6/2
f 9/7/3 7/8/3 1/5/3
f 7/8/2 16/9/2 8/10/2
f 1/5/2 6/11/2 5/6/2
f 1/5/4 8/10/4 3/12/4
f 11/13/5 15/14/5 9/7/5
f 19/15/4 14/16/4 13/17/4
f 9/7/2 14/16/2 11/13/2
f 19/18/6 5/19/6 17/20/6
f 2/2/6 19/18/6 17/20/6
f 23/21/6 24/22/6 22/23/6
f 25/24/1 28/25/1 24/22/1
f 27/26/2 22/27/2 26/28/2
f 28/25/4 22/29/4 24/30/4
f 25/31/5 27/26/5 29/32/5
f 31/33/1 12/1/1 4/3/1
f 32/34/2 34/35/2 36/36/2
f 33/37/6 34/35/6 30/38/6
f 16/9/2 33/37/2 8/10/2
f 30/38/2 6/11/2 3/12/2
f 8/10/4 30/38/4 3/12/4
f 37/39/5 11/13/5 34/35/5
f 36/40/4 20/41/4 39/42/4
f 14/16/2 34/35/2 11/13/2
f 32/43/3 39/44/3 38/45/3
f 38/45/3 35/46/3 31/33/3
f 12/1/4 19/18/4 10/47/4
f 39/44/4 12/1/4 35/46/4
f 42/48/3 41/49/3 40/50/3
f 28/25/1 43/51/1 42/48/1
f 40/52/2 27/26/2 26/28/2
f 40/53/4 28/25/4 42/54/4
f 29/32/5 41/55/5 43/56/5
f 18/57/5 5/19/5 6/11/5
f 18/57/5 2/2/5 17/20/5
f 4/3/5 38/45/5 31/33/5
f 6/11/5 38/45/5 18/57/5
f 12/1/1 10/47/1 2/2/1
f 13/4/2 9/7/2 1/5/2
f 9/7/3 15/14/3 7/8/3
f 7/8/2 15/14/2 16/9/2
f 1/5/2 3/12/2 6/11/2
f 1/5/4 7/8/4 8/10/4
f 11/13/5 16/9/5 15/14/5
f 19/15/4 20/41/4 14/16/4
f 9/7/2 13/4/2 14/16/2
f 19/18/6 13/58/6 5/19/6
f 2/2/6 10/47/6 19/18/6
f 23/21/6 25/24/6 24/22/6
f 25/24/1 29/32/1 28/25/1
f 27/26/2 23/59/2 22/27/2
f 28/25/4 26/28/4 22/29/4
f 25/31/5 23/60/5 27/26/5
f 31/33/1 35/46/1 12/1/1
f 32/34/2 30/38/2 34/35/2
f 33/37/6 37/39/6 34/35/6
f 16/9/2 37/39/2 33/37/2
f 30/38/2 32/34/2 6/11/2
f 8/10/4 33/37/4 30/38/4
f 37/39/5 16/9/5 11/13/5
f 36/40/4 14/16/4 20/41/4
f 14/16/2 36/36/2 34/35/2
f 32/43/3 36/61/3 39/44/3
f 38/45/3 39/44/3 35/46/3
f 12/1/4 20/41/4 19/18/4
f 39/44/4 20/41/4 12/1/4
f 42/48/3 43/51/3 41/49/3
f 28/25/1 29/32/1 43/51/1
f 40/52/2 41/62/2 27/26/2
f 40/53/4 26/28/4 28/25/4
f 29/32/5 27/26/5 41/55/5
f 18/57/5 17/20/5 5/19/5
f 18/57/5 4/3/5 2/2/5
f 4/3/5 18/57/5 38/45/5
f 6/11/5 32/43/5 38/45/5
l 21 18
o DoorL1DoubleDoorUpperCabinet1_Cube.001
v 0.462419 -0.375315 0.171138
v 0.462419 0.357094 0.171137
v 0.001267 -0.375315 0.171138
v 0.001267 0.357094 0.171137
v 0.418229 -0.325431 0.184714
v 0.418229 0.307210 0.184714
v 0.045457 0.307210 0.184714
v 0.045457 -0.325431 0.184714
v 0.462419 -0.375315 0.184714
v 0.462419 0.357094 0.184714
v 0.001267 0.357094 0.184714
v 0.001267 -0.375315 0.184714
v 0.418229 -0.325431 0.176158
v 0.418229 0.307210 0.176158
v 0.045457 0.307210 0.176158
v 0.045457 -0.325431 0.176158
v 0.026458 0.305597 0.188580
v 0.026458 0.311773 0.214862
v 0.021533 0.303557 0.188580
v 0.017166 0.307924 0.214862
v 0.019493 0.298632 0.188580
v 0.013317 0.298632 0.214862
v 0.021533 0.293707 0.188580
v 0.017166 0.289340 0.214862
v 0.026458 0.291667 0.188580
v 0.026458 0.285491 0.214862
v 0.031383 0.293707 0.188580
v 0.035750 0.289340 0.214862
v 0.033423 0.298632 0.188580
v 0.039599 0.298632 0.214862
v 0.031383 0.303557 0.188580
v 0.035750 0.307924 0.214862
v 0.026458 0.319436 0.201721
v 0.011747 0.313343 0.201721
v 0.005654 0.298632 0.201721
v 0.011747 0.283922 0.201721
v 0.026458 0.277828 0.201721
v 0.041168 0.283922 0.201721
v 0.047262 0.298632 0.201721
v 0.041168 0.313343 0.201721
v 0.026458 0.311773 0.188580
v 0.017166 0.307924 0.188580
v 0.013317 0.298632 0.188580
v 0.017166 0.289340 0.188580
v 0.026458 0.285491 0.188580
v 0.035750 0.289340 0.188580
v 0.039599 0.298632 0.188580
v 0.035750 0.307924 0.188580
v 0.026458 0.305597 0.174334
v 0.021533 0.303557 0.174334
v 0.019493 0.298632 0.174334
v 0.021533 0.293707 0.174334
v 0.026458 0.291667 0.174334
v 0.031383 0.293707 0.174334
v 0.033423 0.298632 0.174334
v 0.031383 0.303557 0.174334
vt 0.000000 0.000000
vt 0.000000 0.000000
vt 0.000000 0.000000
vt 0.000000 0.000000
vt 0.000000 0.000000
vt 0.000000 0.000000
vt 0.000000 0.000000
vt 0.000000 0.000000
vt 0.000000 0.000000
vt 0.000000 0.000000
vt 0.000000 0.000000
vt 0.000000 0.000000
vt 0.000000 0.000000
vt 0.000000 0.000000
vt 0.000000 0.000000
vt 0.000000 0.000000
vt 0.875000 0.750000
vt 1.000000 1.000000
vt 1.000000 0.750000
vt 0.750000 0.750000
vt 0.875000 1.000000
vt 0.625000 1.000000
vt 0.750000 1.000000
vt 0.625000 0.750000
vt 0.500000 1.000000
vt 0.375000 0.750000
vt 0.500000 0.750000
vt 0.250000 0.750000
vt 0.375000 1.000000
vt 0.010000 0.250000
vt 0.080294 0.419706
vt 0.250000 0.490000
vt 0.125000 0.750000
vt 0.250000 1.000000
vt 0.000000 1.000000
vt 0.125000 1.000000
vt 0.622803 0.250000
vt 0.660058 0.339942
vt 0.622803 0.250000
vt 0.000000 0.500000
vt 0.125000 0.500000
vt 0.250000 0.500000
vt 0.375000 0.500000
vt 0.500000 0.500000
vt 0.625000 0.500000
vt 0.750000 0.500000
vt 0.875000 0.500000
vt 1.000000 0.500000
vt 0.919706 0.419706
vt 0.750000 0.377197
vt 0.839942 0.339942
vt 0.990000 0.250000
vt 0.877197 0.250000
vt 0.919706 0.080294
vt 0.839942 0.160058
vt 0.750000 0.122803
vt 0.580294 0.080294
vt 0.660058 0.160058
vt 0.580294 0.419706
vt 0.750000 0.490000
vt 0.839942 0.339942
vt 0.660058 0.339942
vt 0.660058 0.160058
vt 0.750000 0.122803
vt 0.877197 0.250000
vt 0.750000 0.377197
vt 0.839942 0.160058
vt 0.419706 0.419706
vt 0.490000 0.250000
vt 0.419706 0.080294
vt 0.250000 0.010000
vt 0.080294 0.080294
vt 0.000000 0.750000
vt 0.750000 0.010000
vt 0.510000 0.250000
vn 0.0000 -0.0000 -1.0000
vn 0.0000 -1.0000 0.0000
vn -1.0000 0.0000 0.0000
vn 1.0000 0.0000 0.0000
vn 0.0000 1.0000 0.0000
vn 0.0000 0.0000 1.0000
vn -0.3369 0.8134 0.4743
vn -0.8134 0.3369 0.4743
vn -0.8134 -0.3369 0.4743
vn -0.3369 -0.8134 0.4743
vn 0.3369 -0.8134 0.4743
vn 0.8134 -0.3369 0.4743
vn 0.8134 0.3369 0.4743
vn 0.3369 0.8134 0.4743
vn 0.9239 0.3827 0.0000
vn 0.3369 0.8134 -0.4743
vn 0.8134 0.3369 -0.4743
vn 0.8134 -0.3369 -0.4743
vn 0.3369 -0.8134 -0.4743
vn -0.3369 -0.8134 -0.4743
vn -0.8134 -0.3369 -0.4743
vn -0.8134 0.3369 -0.4743
vn -0.3369 0.8134 -0.4743
vn 0.3827 -0.9239 0.0000
vn -0.9239 -0.3827 0.0000
vn -0.3827 0.9239 0.0000
vn 0.3827 0.9239 0.0000
vn 0.9239 -0.3827 0.0000
vn -0.3827 -0.9239 0.0000
vn -0.9239 0.3827 0.0000
usemtl WoodDoorL1DoubleDoorUpperCabinet1
s off
f 44/63/7 47/64/7 45/65/7
f 58/66/8 49/67/8 50/68/8
f 46/69/9 54/70/9 47/64/9
f 44/63/8 55/71/8 46/69/8
f 45/65/10 52/72/10 44/63/10
f 47/64/11 53/73/11 45/65/11
f 52/72/12 49/67/12 48/74/12
f 54/70/12 51/75/12 50/68/12
f 55/71/12 48/74/12 51/75/12
f 53/73/12 50/68/12 49/67/12
f 58/66/12 56/76/12 57/77/12
f 51/75/10 58/66/10 50/68/10
f 56/76/11 51/75/11 48/74/11
f 57/77/9 48/74/9 49/67/9
f 44/63/7 46/69/7 47/64/7
f 58/66/8 57/77/8 49/67/8
f 46/69/9 55/71/9 54/70/9
f 44/63/8 52/72/8 55/71/8
f 45/65/10 53/73/10 52/72/10
f 47/64/11 54/70/11 53/73/11
f 52/72/12 53/73/12 49/67/12
f 54/70/12 55/71/12 51/75/12
f 55/71/12 52/72/12 48/74/12
f 53/73/12 54/70/12 50/68/12
f 58/66/12 59/78/12 56/76/12
f 51/75/10 59/78/10 58/66/10
f 56/76/11 59/78/11 51/75/11
f 57/77/9 56/76/9 48/74/9
usemtl MetalDoorL1DoubleDoorUpperCabinet1
f 77/79/13 61/80/13 76/81/13
f 78/82/14 63/83/14 77/79/14
f 78/82/15 67/84/15 65/85/15
f 79/86/16 69/87/16 67/84/16
f 81/88/17 69/87/17 80/89/17
f 82/90/18 71/91/18 81/88/18
f 73/92/12 75/93/12 61/94/12
f 83/95/19 73/96/19 82/90/19
f 83/95/20 61/97/20 75/98/20
f 98/99/21 74/100/21 72/101/21
f 84/102/22 83/95/22 91/103/22
f 90/104/23 83/95/23 82/90/23
f 89/105/24 82/90/24 81/88/24
f 88/106/25 81/88/25 80/89/25
f 88/106/26 79/86/26 87/107/26
f 86/108/27 79/86/27 78/82/27
f 86/108/28 77/79/28 85/109/28
f 84/110/29 77/79/29 76/81/29
f 85/111/7 60/112/7 62/113/7
f 86/114/7 62/113/7 64/115/7
f 87/116/7 64/115/7 66/117/7
f 68/118/7 87/116/7 66/117/7
f 89/119/7 68/118/7 70/120/7
f 72/101/7 89/119/7 70/120/7
f 91/121/7 72/101/7 74/100/7
f 84/122/7 74/100/7 60/112/7
f 93/123/7 99/124/7 97/125/7
f 96/126/30 70/120/30 68/118/30
f 94/127/31 66/117/31 64/115/31
f 92/128/32 62/113/32 60/112/32
f 99/124/33 60/112/33 74/100/33
f 97/125/34 72/101/34 70/120/34
f 95/129/35 68/118/35 66/117/35
f 93/123/36 64/115/36 62/113/36
f 77/79/13 63/83/13 61/80/13
f 78/82/14 65/85/14 63/83/14
f 78/82/15 79/86/15 67/84/15
f 79/86/16 80/89/16 69/87/16
f 81/88/17 71/91/17 69/87/17
f 82/90/18 73/96/18 71/91/18
f 61/94/12 63/130/12 65/131/12
f 65/131/12 67/132/12 61/94/12
f 67/132/12 69/133/12 61/94/12
f 69/133/12 71/134/12 61/94/12
f 71/134/12 73/92/12 61/94/12
f 83/95/19 75/98/19 73/96/19
f 83/95/20 76/135/20 61/97/20
f 98/99/21 99/124/21 74/100/21
f 84/102/22 76/135/22 83/95/22
f 90/104/23 91/103/23 83/95/23
f 89/105/24 90/104/24 82/90/24
f 88/106/25 89/105/25 81/88/25
f 88/106/26 80/89/26 79/86/26
f 86/108/27 87/107/27 79/86/27
f 86/108/28 78/82/28 77/79/28
f 84/110/29 85/109/29 77/79/29
f 85/111/7 84/122/7 60/112/7
f 86/114/7 85/111/7 62/113/7
f 87/116/7 86/114/7 64/115/7
f 68/118/7 88/136/7 87/116/7
f 89/119/7 88/136/7 68/118/7
f 72/101/7 90/137/7 89/119/7
f 91/121/7 90/137/7 72/101/7
f 84/122/7 91/121/7 74/100/7
f 93/123/7 92/128/7 99/124/7
f 99/124/7 98/99/7 97/125/7
f 97/125/7 96/126/7 95/129/7
f 95/129/7 94/127/7 97/125/7
f 94/127/7 93/123/7 97/125/7
f 96/126/30 97/125/30 70/120/30
f 94/127/31 95/129/31 66/117/31
f 92/128/32 93/123/32 62/113/32
f 99/124/33 92/128/33 60/112/33
f 97/125/34 98/99/34 72/101/34
f 95/129/35 96/126/35 68/118/35
f 93/123/36 94/127/36 64/115/36
o DoorR1DoubleDoorUpperCabinet1_Cube.008
v -0.462419 -0.375315 0.171138
v -0.462419 0.357094 0.171137
v -0.001267 -0.375315 0.171138
v -0.001267 0.357094 0.171137
v -0.418229 -0.325431 0.184714
v -0.418229 0.307210 0.184714
v -0.045457 0.307210 0.184714
v -0.045457 -0.325431 0.184714
v -0.462419 -0.375315 0.184714
v -0.462419 0.357094 0.184714
v -0.001267 0.357094 0.184714
v -0.001267 -0.375315 0.184714
v -0.418229 -0.325431 0.176158
v -0.418229 0.307210 0.176158
v -0.045457 0.307210 0.176158
v -0.045457 -0.325431 0.176158
v -0.026458 0.305597 0.188580
v -0.026458 0.311773 0.214862
v -0.021533 0.303557 0.188580
v -0.017166 0.307924 0.214862
v -0.019493 0.298632 0.188580
v -0.013317 0.298632 0.214862
v -0.021533 0.293707 0.188580
v -0.017166 0.289340 0.214862
v -0.026458 0.291667 0.188580
v -0.026458 0.285491 0.214862
v -0.031383 0.293707 0.188580
v -0.035750 0.289340 0.214862
v -0.033423 0.298632 0.188580
v -0.039599 0.298632 0.214862
v -0.031383 0.303557 0.188580
v -0.035750 0.307924 0.214862
v -0.026458 0.319436 0.201721
v -0.011748 0.313343 0.201721
v -0.005654 0.298632 0.201721
v -0.011748 0.283922 0.201721
v -0.026458 0.277828 0.201721
v -0.041168 0.283922 0.201721
v -0.047262 0.298632 0.201721
v -0.041168 0.313343 0.201721
v -0.026458 0.311773 0.188580
v -0.017166 0.307924 0.188580
v -0.013317 0.298632 0.188580
v -0.017166 0.289340 0.188580
v -0.026458 0.285491 0.188580
v -0.035750 0.289340 0.188580
v -0.039599 0.298632 0.188580
v -0.035750 0.307924 0.188580
v -0.026458 0.305597 0.174334
v -0.021533 0.303557 0.174334
v -0.019493 0.298632 0.174334
v -0.021533 0.293707 0.174334
v -0.026458 0.291667 0.174334
v -0.031383 0.293707 0.174334
v -0.033423 0.298632 0.174334
v -0.031383 0.303557 0.174334
vt 1.000000 1.000000
vt 0.875000 0.750000
vt 1.000000 0.750000
vt 0.750000 1.000000
vt 0.750000 0.750000
vt 0.625000 1.000000
vt 0.625000 0.750000
vt 0.500000 1.000000
vt 0.500000 0.750000
vt 0.375000 0.750000
vt 0.375000 1.000000
vt 0.250000 0.750000
vt 0.419706 0.080294
vt 0.490000 0.250000
vt 0.010000 0.250000
vt 0.250000 1.000000
vt 0.125000 0.750000
vt 0.125000 1.000000
vt 0.000000 0.750000
vt 0.660058 0.339942
vt 0.622803 0.250000
vt 0.622803 0.250000
vt 0.000000 0.500000
vt 0.125000 0.500000
vt 0.250000 0.500000
vt 0.375000 0.500000
vt 0.500000 0.500000
vt 0.625000 0.500000
vt 0.750000 0.500000
vt 0.875000 0.500000
vt 1.000000 0.500000
vt 0.750000 0.377197
vt 0.919706 0.419706
vt 0.839942 0.339942
vt 0.990000 0.250000
vt 0.877197 0.250000
vt 0.839942 0.160058
vt 0.919706 0.080294
vt 0.750000 0.122803
vt 0.750000 0.010000
vt 0.660058 0.160058
vt 0.580294 0.080294
vt 0.510000 0.250000
vt 0.580294 0.419706
vt 0.750000 0.490000
vt 0.839942 0.160058
vt 0.660058 0.160058
vt 0.660058 0.339942
vt 0.750000 0.122803
vt 0.877197 0.250000
vt 0.750000 0.377197
vt 0.839942 0.339942
vt 0.875000 1.000000
vt 0.419706 0.419706
vt 0.250000 0.490000
vt 0.080294 0.419706
vt 0.080294 0.080294
vt 0.250000 0.010000
vt 0.000000 1.000000
vt 0.000000 0.000000
vt 0.000000 0.000000
vt 0.000000 0.000000
vt 0.000000 0.000000
vt 0.000000 0.000000
vt 0.000000 0.000000
vt 0.000000 0.000000
vt 0.000000 0.000000
vt 0.000000 0.000000
vt 0.000000 0.000000
vt 0.000000 0.000000
vt 0.000000 0.000000
vt 0.000000 0.000000
vt 0.000000 0.000000
vt 0.000000 0.000000
vt 0.000000 0.000000
vn 0.3369 0.8134 0.4743
vn 0.8134 0.3369 0.4743
vn 0.8134 -0.3369 0.4743
vn 0.3369 -0.8134 0.4743
vn -0.3369 -0.8134 0.4743
vn -0.8134 -0.3369 0.4743
vn 0.0000 0.0000 1.0000
vn -0.8134 0.3369 0.4743
vn -0.3369 0.8134 0.4743
vn -0.9239 0.3827 0.0000
vn -0.3369 0.8134 -0.4743
vn -0.8134 0.3369 -0.4743
vn -0.8134 -0.3369 -0.4743
vn -0.3369 -0.8134 -0.4743
vn 0.3369 -0.8134 -0.4743
vn 0.8134 -0.3369 -0.4743
vn 0.8134 0.3369 -0.4743
vn 0.3369 0.8134 -0.4743
vn 0.0000 0.0000 -1.0000
vn -0.3827 -0.9239 0.0000
vn 0.9239 -0.3827 0.0000
vn 0.3827 0.9239 0.0000
vn -0.3827 0.9239 0.0000
vn -0.9239 -0.3827 0.0000
vn 0.3827 -0.9239 0.0000
vn 0.9239 0.3827 0.0000
vn 0.0000 -1.0000 0.0000
vn 1.0000 -0.0000 0.0000
vn -1.0000 -0.0000 0.0000
vn 0.0000 1.0000 0.0000
usemtl MetalDoorR1DoubleDoorUpperCabinet1
s off
f 117/138/37 133/139/37 132/140/37
f 133/139/38 121/141/38 134/142/38
f 134/142/39 123/143/39 135/144/39
f 135/144/40 125/145/40 136/146/40
f 125/145/41 137/147/41 136/146/41
f 127/148/42 138/149/42 137/147/42
f 123/150/43 121/151/43 129/152/43
f 129/153/44 139/154/44 138/149/44
f 131/155/45 132/156/45 139/154/45
f 130/157/46 154/158/46 128/159/46
f 139/154/47 140/160/47 147/161/47
f 138/149/48 147/161/48 146/162/48
f 145/163/49 138/149/49 146/162/49
f 144/164/50 137/147/50 145/163/50
f 135/144/51 144/164/51 143/165/51
f 134/142/52 143/165/52 142/166/52
f 133/139/53 142/166/53 141/167/53
f 140/168/54 133/139/54 141/167/54
f 116/169/55 141/170/55 118/171/55
f 118/171/55 142/172/55 120/173/55
f 122/174/55 142/172/55 143/175/55
f 124/176/55 143/175/55 144/177/55
f 126/178/55 144/177/55 145/179/55
f 128/159/55 145/179/55 146/180/55
f 128/159/55 147/181/55 130/157/55
f 130/157/55 140/182/55 116/169/55
f 151/183/55 153/184/55 155/185/55
f 126/178/56 152/186/56 124/176/56
f 122/174/57 150/187/57 120/173/57
f 118/171/58 148/188/58 116/169/58
f 116/169/59 155/185/59 130/157/59
f 128/159/60 153/184/60 126/178/60
f 124/176/61 151/183/61 122/174/61
f 120/173/62 149/189/62 118/171/62
f 117/138/37 119/190/37 133/139/37
f 133/139/38 119/190/38 121/141/38
f 134/142/39 121/141/39 123/143/39
f 135/144/40 123/143/40 125/145/40
f 125/145/41 127/148/41 137/147/41
f 127/148/42 129/153/42 138/149/42
f 121/151/43 119/191/43 129/152/43
f 119/191/43 117/192/43 129/152/43
f 117/192/43 131/193/43 129/152/43
f 129/152/43 127/194/43 125/195/43
f 125/195/43 123/150/43 129/152/43
f 129/153/44 131/155/44 139/154/44
f 131/155/45 117/196/45 132/156/45
f 130/157/46 155/185/46 154/158/46
f 139/154/47 132/156/47 140/160/47
f 138/149/48 139/154/48 147/161/48
f 145/163/49 137/147/49 138/149/49
f 144/164/50 136/146/50 137/147/50
f 135/144/51 136/146/51 144/164/51
f 134/142/52 135/144/52 143/165/52
f 133/139/53 134/142/53 142/166/53
f 140/168/54 132/140/54 133/139/54
f 116/169/55 140/182/55 141/170/55
f 118/171/55 141/170/55 142/172/55
f 122/174/55 120/173/55 142/172/55
f 124/176/55 122/174/55 143/175/55
f 126/178/55 124/176/55 144/177/55
f 128/159/55 126/178/55 145/179/55
f 128/159/55 146/180/55 147/181/55
f 130/157/55 147/181/55 140/182/55
f 155/185/55 148/188/55 149/189/55
f 149/189/55 150/187/55 155/185/55
f 150/187/55 151/183/55 155/185/55
f 151/183/55 152/186/55 153/184/55
f 153/184/55 154/158/55 155/185/55
f 126/178/56 153/184/56 152/186/56
f 122/174/57 151/183/57 150/187/57
f 118/171/58 149/189/58 148/188/58
f 116/169/59 148/188/59 155/185/59
f 128/159/60 154/158/60 153/184/60
f 124/176/61 152/186/61 151/183/61
f 120/173/62 150/187/62 149/189/62
usemtl WoodDoorR1DoubleDoorUpperCabinet1
f 103/197/55 100/198/55 101/199/55
f 105/200/63 114/201/63 106/202/63
f 110/203/64 102/204/64 103/197/64
f 111/205/63 100/198/63 102/204/63
f 108/206/65 101/199/65 100/198/65
f 109/207/66 103/197/66 101/199/66
f 105/200/43 108/206/43 104/208/43
f 107/209/43 110/203/43 106/202/43
f 104/208/43 111/205/43 107/209/43
f 106/202/43 109/207/43 105/200/43
f 112/210/43 114/201/43 113/211/43
f 106/202/65 115/212/65 107/209/65
f 107/209/66 112/210/66 104/208/66
f 104/208/64 113/211/64 105/200/64
f 103/197/55 102/204/55 100/198/55
f 105/200/63 113/211/63 114/201/63
f 110/203/64 111/205/64 102/204/64
f 111/205/63 108/206/63 100/198/63
f 108/206/65 109/207/65 101/199/65
f 109/207/66 110/203/66 103/197/66
f 105/200/43 109/207/43 108/206/43
f 107/209/43 111/205/43 110/203/43
f 104/208/43 108/206/43 111/205/43
f 106/202/43 110/203/43 109/207/43
f 112/210/43 115/212/43 114/201/43
f 106/202/65 114/201/65 115/212/65
f 107/209/66 115/212/66 112/210/66
f 104/208/64 112/210/64 113/211/64
