# Blender v3.2.0 OBJ File: 'Dumbell1.blend'
# www.blender.org
mtllib Dumbell1.mtl
o Dumbell1_Cylinder.007
v 0.328290 -0.033567 0.000000
v 0.311228 -0.033567 0.000000
v 0.328290 -0.016784 0.029070
v 0.311228 -0.016784 0.029070
v 0.328290 0.016784 0.029070
v 0.311228 0.016784 0.029070
v 0.328290 0.033567 0.000000
v 0.311228 0.033567 0.000000
v 0.328290 0.016784 -0.029070
v 0.311228 0.016784 -0.029070
v 0.328290 -0.016784 -0.029070
v 0.311228 -0.016784 -0.029070
v -0.328290 -0.033567 0.000000
v -0.311228 -0.033567 0.000000
v -0.328290 -0.016784 0.029070
v -0.311228 -0.016784 0.029070
v -0.328290 0.016783 0.029070
v -0.311228 0.016783 0.029070
v -0.328290 0.033567 0.000000
v -0.311228 0.033567 0.000000
v -0.328290 0.016783 -0.029070
v -0.311228 0.016783 -0.029070
v -0.328290 -0.016784 -0.029070
v -0.311228 -0.016784 -0.029070
v 0.338601 0.000000 -0.024135
v 0.338601 -0.020901 -0.012067
v 0.338601 -0.020901 0.012068
v 0.338601 0.000000 0.024135
v 0.338601 0.020902 0.012068
v 0.338601 0.020902 -0.012067
v 0.189979 0.000000 -0.024135
v 0.189979 -0.020901 -0.012067
v 0.189979 -0.020901 0.012068
v 0.189979 0.000000 0.024135
v 0.189979 0.020902 0.012068
v 0.189979 0.020902 -0.012067
v 0.163859 -0.020901 -0.012067
v 0.163859 -0.020901 0.012068
v 0.163859 0.000000 0.024135
v 0.163859 0.020902 0.012068
v 0.163859 0.020902 -0.012067
v 0.163859 0.000000 -0.024135
v 0.163859 0.000000 -0.043567
v 0.189979 0.000000 -0.043567
v 0.189979 0.037730 -0.021783
v 0.189979 0.037730 0.021783
v 0.189979 0.000000 0.043567
v 0.189979 -0.037730 0.021783
v 0.189979 -0.037730 -0.021783
v 0.163859 -0.037730 -0.021783
v 0.163859 -0.037730 0.021783
v 0.163859 0.000000 0.043567
v 0.163859 0.037730 0.021783
v 0.163859 0.037730 -0.021783
v -0.338601 -0.000000 -0.024135
v -0.338601 -0.020902 -0.012067
v -0.338601 -0.020902 0.012068
v -0.338601 -0.000000 0.024135
v -0.338601 0.020901 0.012068
v -0.338601 0.020901 -0.012067
v -0.189979 -0.000000 -0.024135
v -0.189979 -0.020902 -0.012067
v -0.189979 -0.020902 0.012068
v -0.189979 -0.000000 0.024135
v -0.189979 0.020901 0.012068
v -0.189979 0.020901 -0.012067
v -0.163859 -0.020902 -0.012067
v -0.163859 -0.020902 0.012068
v -0.163859 -0.000000 0.024135
v -0.163859 0.020901 0.012068
v -0.163859 0.020901 -0.012067
v -0.163859 -0.000000 -0.024135
v -0.163859 -0.000000 -0.043567
v -0.189979 -0.000000 -0.043567
v -0.189979 0.037730 -0.021783
v -0.189979 0.037730 0.021783
v -0.189979 -0.000000 0.043567
v -0.189979 -0.037730 0.021783
v -0.189979 -0.037730 -0.021783
v -0.163859 -0.037730 -0.021783
v -0.163859 -0.037730 0.021783
v -0.163859 -0.000000 0.043567
v -0.163859 0.037730 0.021783
v -0.163859 0.037730 -0.021783
v 0.186539 -0.059019 -0.102225
v 0.193629 -0.063113 -0.109314
v 0.252957 -0.059019 -0.102225
v 0.245867 -0.063113 -0.109314
v 0.186539 -0.118039 -0.000000
v 0.193629 -0.126225 -0.000000
v 0.252957 -0.118039 -0.000000
v 0.245867 -0.126225 -0.000000
v 0.186539 -0.059019 0.102225
v 0.193629 -0.063113 0.109314
v 0.252957 -0.059019 0.102225
v 0.245867 -0.063113 0.109314
v 0.186539 0.059019 0.102225
v 0.193629 0.063113 0.109314
v 0.252957 0.059019 0.102225
v 0.245867 0.063113 0.109314
v 0.186539 0.118039 -0.000000
v 0.193629 0.126225 -0.000000
v 0.252957 0.118039 -0.000000
v 0.245867 0.126225 -0.000000
v 0.186539 0.059019 -0.102225
v 0.193629 0.063113 -0.109314
v 0.252957 0.059019 -0.102225
v 0.245867 0.063113 -0.109314
v 0.255120 -0.048892 -0.084683
v 0.260993 -0.052283 -0.090556
v 0.310140 -0.048892 -0.084683
v 0.304267 -0.052283 -0.090556
v 0.255120 -0.097783 -0.000000
v 0.260993 -0.104565 -0.000000
v 0.310140 -0.097783 -0.000000
v 0.304267 -0.104565 -0.000000
v 0.255120 -0.048892 0.084683
v 0.260993 -0.052283 0.090556
v 0.310140 -0.048892 0.084683
v 0.304267 -0.052283 0.090556
v 0.255120 0.048892 0.084683
v 0.260993 0.052283 0.090556
v 0.310140 0.048892 0.084683
v 0.304267 0.052283 0.090556
v 0.255120 0.097783 -0.000000
v 0.260993 0.104565 -0.000000
v 0.310140 0.097783 -0.000000
v 0.304267 0.104565 -0.000000
v 0.255120 0.048892 -0.084683
v 0.260993 0.052283 -0.090556
v 0.310140 0.048892 -0.084683
v 0.304267 0.052283 -0.090556
v -0.186539 -0.059019 -0.102225
v -0.193629 -0.063113 -0.109314
v -0.252957 -0.059019 -0.102225
v -0.245867 -0.063113 -0.109314
v -0.186539 -0.118039 -0.000000
v -0.193629 -0.126225 -0.000000
v -0.252957 -0.118039 -0.000000
v -0.245867 -0.126225 -0.000000
v -0.186539 -0.059019 0.102225
v -0.193629 -0.063113 0.109314
v -0.252957 -0.059019 0.102225
v -0.245867 -0.063113 0.109314
v -0.186539 0.059019 0.102225
v -0.193629 0.063113 0.109314
v -0.252957 0.059019 0.102225
v -0.245867 0.063113 0.109314
v -0.186539 0.118039 -0.000000
v -0.193629 0.126225 -0.000000
v -0.252957 0.118039 -0.000000
v -0.245867 0.126225 -0.000000
v -0.186539 0.059019 -0.102225
v -0.193629 0.063113 -0.109314
v -0.252957 0.059019 -0.102225
v -0.245867 0.063113 -0.109314
v -0.255120 -0.048892 -0.084683
v -0.260993 -0.052283 -0.090556
v -0.310140 -0.048892 -0.084683
v -0.304267 -0.052283 -0.090556
v -0.255120 -0.097783 -0.000000
v -0.260993 -0.104565 -0.000000
v -0.310140 -0.097783 -0.000000
v -0.304267 -0.104565 -0.000000
v -0.255120 -0.048892 0.084683
v -0.260993 -0.052283 0.090556
v -0.310140 -0.048892 0.084683
v -0.304267 -0.052283 0.090556
v -0.255120 0.048892 0.084683
v -0.260993 0.052283 0.090556
v -0.310140 0.048892 0.084683
v -0.304267 0.052283 0.090556
v -0.255120 0.097783 -0.000000
v -0.260993 0.104565 -0.000000
v -0.310140 0.097783 -0.000000
v -0.304267 0.104565 -0.000000
v -0.255120 0.048892 -0.084683
v -0.260993 0.052283 -0.090556
v -0.310140 0.048892 -0.084683
v -0.304267 0.052283 -0.090556
vt 0.833333 0.873750
vt 1.000000 0.873750
vt 0.833333 0.873750
vt 0.666667 0.873750
vt 0.666667 0.873750
vt 0.500000 0.873750
vt 0.500000 0.873750
vt 0.333333 0.873750
vt 0.333333 0.873750
vt 0.166667 0.873750
vt 0.166667 0.873750
vt -0.000000 0.873750
vt -0.000000 0.873750
vt 1.000000 0.873750
vt 0.833333 0.500000
vt 1.000000 1.000000
vt 1.000000 0.500000
vt 0.666667 0.500000
vt 0.833333 1.000000
vt 0.500000 0.500000
vt 0.666667 1.000000
vt 0.333333 0.500000
vt 0.500000 1.000000
vt 0.457846 0.130000
vt 0.042154 0.130000
vt 0.250000 0.490000
vt 0.166667 1.000000
vt 0.333333 1.000000
vt 0.166667 0.500000
vt -0.000000 1.000000
vt 0.750000 0.010000
vt 0.957846 0.130000
vt 0.957846 0.370000
vt 1.000000 1.000000
vt 0.833333 0.500000
vt 1.000000 0.500000
vt 0.833333 1.000000
vt 0.666667 0.500000
vt 0.666667 1.000000
vt 0.500000 0.500000
vt 0.333333 1.000000
vt 0.333333 0.500000
vt 0.042154 0.130000
vt 0.250000 0.010000
vt 0.457846 0.130000
vt 0.166667 1.000000
vt 0.166667 0.500000
vt -0.000000 1.000000
vt -0.000000 0.500000
vt 0.542154 0.130000
vt 0.542154 0.370000
vt 0.957846 0.370000
vt 1.000000 1.000000
vt 0.833333 0.887500
vt 1.000000 0.887500
vt 0.833333 1.000000
vt 0.666667 0.887500
vt 0.666667 1.000000
vt 0.500000 0.887500
vt 0.500000 1.000000
vt 0.333333 0.887500
vt 0.250000 0.010000
vt 0.457846 0.130000
vt 0.250000 0.490000
vt 0.333333 1.000000
vt 0.166667 0.887500
vt -0.000000 1.000000
vt -0.000000 0.887500
vt 0.833333 0.873750
vt 1.000000 0.887500
vt 0.333333 0.873750
vt 0.333333 0.887500
vt 0.666667 0.887500
vt 0.833333 0.887500
vt 0.500000 0.873750
vt 0.166667 0.887500
vt -0.000000 0.873750
vt 0.166667 0.873750
vt 0.500000 0.887500
vt 0.666667 0.873750
vt 1.000000 0.873750
vt -0.000000 0.887500
vt 0.833333 0.887500
vt 1.000000 1.000000
vt 1.000000 0.887500
vt 0.666667 0.887500
vt 0.833333 1.000000
vt 0.500000 1.000000
vt 0.666667 1.000000
vt 0.500000 0.887500
vt 0.333333 1.000000
vt 0.457846 0.130000
vt 0.042154 0.130000
vt 0.250000 0.490000
vt 0.333333 0.887500
vt 0.166667 1.000000
vt -0.000000 0.887500
vt 0.166667 0.887500
vt 1.000000 0.873750
vt 1.000000 0.887500
vt 0.333333 0.873750
vt 0.333333 0.887500
vt 0.666667 0.887500
vt 0.500000 0.873750
vt -0.000000 0.873750
vt 0.166667 0.887500
vt 0.166667 0.873750
vt 0.500000 0.887500
vt 0.666667 0.873750
vt 0.833333 0.887500
vt 0.833333 0.873750
vt -0.000000 0.887500
vt 0.166667 0.946627
vt -0.000000 0.553373
vt 0.166667 0.553373
vt 0.666667 0.946627
vt 0.500000 0.553373
vt 0.666667 0.553373
vt 0.500000 0.946627
vt 0.333333 0.553373
vt 0.833333 0.946627
vt 0.833333 0.553373
vt 0.250000 0.474434
vt 0.055634 0.137783
vt 0.444366 0.137783
vt 1.000000 0.946627
vt 1.000000 0.553373
vt 0.838738 0.500000
vt 0.994595 0.500000
vt 0.838738 1.000000
vt 0.672071 0.500000
vt 0.827929 0.500000
vt 0.672071 1.000000
vt 0.661262 0.500000
vt 0.505405 1.000000
vt 0.338738 0.500000
vt 0.494595 0.500000
vt 0.333333 0.946627
vt 0.494595 1.000000
vt 0.338738 1.000000
vt 0.172071 0.500000
vt 0.327929 0.500000
vt 0.327929 1.000000
vt 0.172071 1.000000
vt 0.005405 0.500000
vt 0.161262 0.500000
vt -0.000000 0.946627
vt 0.161262 1.000000
vt 0.005405 1.000000
vt 0.750000 0.025566
vt 0.555634 0.137783
vt 0.555634 0.362217
vt 0.166667 0.553373
vt -0.000000 0.946627
vt -0.000000 0.553373
vt 0.666667 0.946627
vt 0.500000 0.553373
vt 0.666667 0.553373
vt 0.500000 0.946627
vt 0.333333 0.553373
vt 0.333333 0.946627
vt 0.833333 0.946627
vt 0.833333 0.553373
vt 0.250000 0.474434
vt 0.055634 0.137783
vt 0.444366 0.137783
vt 1.000000 0.946627
vt 1.000000 0.553373
vt 0.994595 0.500000
vt 0.838738 1.000000
vt 0.827929 0.500000
vt 0.672071 1.000000
vt 0.661262 0.500000
vt 0.661262 1.000000
vt 0.505405 1.000000
vt 0.494595 0.500000
vt 0.338738 1.000000
vt 0.172071 0.500000
vt 0.327929 0.500000
vt 0.166667 0.946627
vt 0.327929 1.000000
vt 0.172071 1.000000
vt 0.005405 0.500000
vt 0.161262 0.500000
vt 0.005405 1.000000
vt 0.750000 0.025566
vt 0.555634 0.137783
vt 0.555634 0.362217
vt 0.166667 0.553373
vt -0.000000 0.946627
vt 0.166667 0.946627
vt 0.500000 0.553373
vt 0.666667 0.946627
vt 0.666667 0.553373
vt 0.333333 0.553373
vt 0.500000 0.946627
vt 0.333333 0.946627
vt 0.833333 0.946627
vt 0.833333 0.553373
vt 0.444366 0.137783
vt 0.055634 0.137783
vt 0.250000 0.474434
vt 1.000000 0.553373
vt 1.000000 0.946627
vt 0.838738 0.500000
vt 0.838738 1.000000
vt 0.827929 0.500000
vt 0.672071 1.000000
vt 0.661262 0.500000
vt 0.505405 1.000000
vt 0.338738 0.500000
vt 0.338738 1.000000
vt 0.327929 0.500000
vt 0.172071 1.000000
vt 0.005405 0.500000
vt -0.000000 0.553373
vt 0.005405 1.000000
vt 0.750000 0.025566
vt 0.944366 0.137783
vt 0.944366 0.362217
vt 0.166667 0.553373
vt -0.000000 0.946627
vt 0.166667 0.946627
vt 0.500000 0.553373
vt 0.666667 0.946627
vt 0.666667 0.553373
vt 0.333333 0.553373
vt 0.500000 0.946627
vt 0.333333 0.946627
vt 0.833333 0.946627
vt 0.833333 0.553373
vt 0.444366 0.137783
vt 0.055634 0.137783
vt 0.250000 0.474434
vt 1.000000 0.553373
vt 1.000000 0.946627
vt 0.838738 0.500000
vt 0.838738 1.000000
vt 0.672071 0.500000
vt 0.827929 1.000000
vt 0.505405 0.500000
vt 0.505405 1.000000
vt 0.494595 0.500000
vt 0.338738 1.000000
vt 0.327929 0.500000
vt 0.172071 1.000000
vt 0.005405 0.500000
vt -0.000000 0.553373
vt 0.005405 1.000000
vt 0.750000 0.025566
vt 0.944366 0.137783
vt 0.944366 0.362217
vt 0.457846 0.370000
vt 0.250000 0.010000
vt 0.042154 0.370000
vt -0.000000 0.500000
vt 0.750000 0.490000
vt 0.542154 0.370000
vt 0.542154 0.130000
vt 0.500000 1.000000
vt 0.457846 0.370000
vt 0.250000 0.490000
vt 0.042154 0.370000
vt 0.750000 0.490000
vt 0.957846 0.130000
vt 0.750000 0.010000
vt 0.457846 0.370000
vt 0.042154 0.370000
vt 0.042154 0.130000
vt 0.166667 1.000000
vt 0.457846 0.370000
vt 0.250000 0.010000
vt 0.042154 0.370000
vt -0.000000 1.000000
vt 0.444366 0.362217
vt 0.055634 0.362217
vt 0.250000 0.025566
vt 0.994595 1.000000
vt 0.827929 1.000000
vt 0.505405 0.500000
vt 0.661262 1.000000
vt 0.750000 0.474434
vt 0.944366 0.362217
vt 0.944366 0.137783
vt 0.444366 0.362217
vt 0.055634 0.362217
vt 0.250000 0.025566
vt 0.838738 0.500000
vt 0.994595 1.000000
vt 0.672071 0.500000
vt 0.827929 1.000000
vt 0.505405 0.500000
vt 0.338738 0.500000
vt 0.494595 1.000000
vt 0.161262 1.000000
vt 0.750000 0.474434
vt 0.944366 0.362217
vt 0.944366 0.137783
vt 0.444366 0.362217
vt 0.250000 0.025566
vt 0.055634 0.362217
vt 0.994595 0.500000
vt 0.994595 1.000000
vt 0.672071 0.500000
vt 0.827929 1.000000
vt 0.505405 0.500000
vt 0.661262 1.000000
vt 0.494595 0.500000
vt 0.494595 1.000000
vt 0.172071 0.500000
vt 0.327929 1.000000
vt 0.161262 0.500000
vt 0.161262 1.000000
vt 0.750000 0.474434
vt 0.555634 0.362217
vt 0.555634 0.137783
vt 0.444366 0.362217
vt 0.250000 0.025566
vt 0.055634 0.362217
vt 0.994595 0.500000
vt 0.994595 1.000000
vt 0.827929 0.500000
vt 0.672071 1.000000
vt 0.661262 0.500000
vt 0.661262 1.000000
vt 0.338738 0.500000
vt 0.494595 1.000000
vt 0.172071 0.500000
vt 0.327929 1.000000
vt 0.161262 0.500000
vt 0.161262 1.000000
vt 0.750000 0.474434
vt 0.555634 0.362217
vt 0.555634 0.137783
vn 0.0000 -0.5000 -0.8660
vn 0.0000 -1.0000 0.0000
vn 0.0000 -0.5000 0.8660
vn -0.0000 0.5000 0.8660
vn -0.0000 1.0000 0.0000
vn -0.0000 0.5000 -0.8660
vn 0.0000 -0.8660 0.5000
vn 0.0000 0.0000 1.0000
vn 0.0000 0.8660 0.5000
vn 0.0000 0.8660 -0.5000
vn -1.0000 0.0000 0.0000
vn 0.0000 0.0000 -1.0000
vn -0.0000 -0.8660 -0.5000
vn 1.0000 0.0000 0.0000
vn -0.7071 -0.6124 -0.3536
vn 0.7071 -0.6124 -0.3536
vn -0.7071 -0.6124 0.3536
vn 0.7071 -0.6124 0.3536
vn -0.7071 0.0000 0.7071
vn 0.7071 0.0000 0.7071
vn -0.7071 0.6124 0.3536
vn 0.7071 0.6124 0.3536
vn -0.7071 0.6124 -0.3536
vn 0.7071 0.6124 -0.3536
vn -0.7071 0.0000 -0.7071
vn 0.7071 0.0000 -0.7071
usemtl SteelDumbell1
s off
f 67/1/1 42/2/1 37/3/1
f 68/4/2 37/3/2 38/5/2
f 69/6/3 38/5/3 39/7/3
f 70/8/4 39/7/4 40/9/4
f 71/10/5 40/9/5 41/11/5
f 72/12/6 41/11/6 42/13/6
f 67/1/1 72/14/1 42/2/1
f 68/4/2 67/1/2 37/3/2
f 69/6/3 68/4/3 38/5/3
f 70/8/4 69/6/4 39/7/4
f 71/10/5 70/8/5 40/9/5
f 72/12/6 71/10/6 41/11/6
usemtl IronDumbell1
f 3/15/7 2/16/7 1/17/7
f 5/18/8 4/19/8 3/15/8
f 7/20/9 6/21/9 5/18/9
f 9/22/10 8/23/10 7/20/10
f 6/24/11 10/25/11 2/26/11
f 9/22/12 12/27/12 10/28/12
f 11/29/13 2/30/13 12/27/13
f 7/31/14 5/32/14 3/33/14
f 14/34/7 15/35/7 13/36/7
f 16/37/8 17/38/8 15/35/8
f 18/39/9 19/40/9 17/38/9
f 19/40/10 22/41/10 21/42/10
f 22/43/14 20/44/14 18/45/14
f 21/42/12 24/46/12 23/47/12
f 23/47/13 14/48/13 13/49/13
f 21/50/11 23/51/11 15/52/11
f 25/53/1 32/54/1 31/55/1
f 26/56/2 33/57/2 32/54/2
f 27/58/3 34/59/3 33/57/3
f 28/60/4 35/61/4 34/59/4
f 28/62/14 27/63/14 25/64/14
f 29/65/5 36/66/5 35/61/5
f 36/66/6 25/67/6 31/68/6
f 42/2/11 50/69/11 37/3/11
f 32/54/14 44/70/14 31/55/14
f 39/7/11 53/71/11 40/9/11
f 36/66/14 46/72/14 35/61/14
f 32/54/14 48/73/14 49/74/14
f 38/5/11 52/75/11 39/7/11
f 45/76/6 43/77/6 54/78/6
f 46/72/5 54/78/5 53/71/5
f 47/79/4 53/71/4 52/75/4
f 48/73/3 52/75/3 51/80/3
f 49/74/2 51/80/2 50/69/2
f 44/70/1 50/69/1 43/81/1
f 35/61/14 47/79/14 34/59/14
f 41/11/11 53/71/11 54/78/11
f 37/3/11 51/80/11 38/5/11
f 33/57/14 47/79/14 48/73/14
f 41/11/11 43/77/11 42/13/11
f 36/66/14 44/82/14 45/76/14
f 62/83/1 55/84/1 61/85/1
f 63/86/2 56/87/2 62/83/2
f 63/86/3 58/88/3 57/89/3
f 64/90/4 59/91/4 58/88/4
f 57/92/11 59/93/11 55/94/11
f 65/95/5 60/96/5 59/91/5
f 61/97/6 60/96/6 66/98/6
f 67/1/14 73/99/14 72/14/14
f 74/100/11 62/83/11 61/85/11
f 83/101/14 69/6/14 70/8/14
f 76/102/11 66/98/11 65/95/11
f 62/83/11 78/103/11 63/86/11
f 82/104/14 68/4/14 69/6/14
f 73/105/6 75/106/6 84/107/6
f 84/107/5 76/102/5 83/101/5
f 82/104/4 76/102/4 77/108/4
f 81/109/3 77/108/3 78/103/3
f 81/109/2 79/110/2 80/111/2
f 80/111/1 74/100/1 73/99/1
f 77/108/11 65/95/11 64/90/11
f 71/10/14 83/101/14 70/8/14
f 81/109/14 67/1/14 68/4/14
f 63/86/11 77/108/11 64/90/11
f 73/105/14 71/10/14 72/12/14
f 66/98/11 74/112/11 61/97/11
f 108/113/12 86/114/12 106/115/12
f 96/116/8 98/117/8 94/118/8
f 100/119/9 102/120/9 98/117/9
f 102/120/10 108/113/10 106/115/10
f 92/121/7 94/118/7 90/122/7
f 87/123/14 103/124/14 95/125/14
f 88/126/13 90/122/13 86/127/13
f 86/127/15 89/128/15 85/129/15
f 88/126/16 91/130/16 92/121/16
f 90/122/17 93/131/17 89/132/17
f 92/121/18 95/133/18 96/116/18
f 98/117/19 93/134/19 94/118/19
f 96/116/20 99/135/20 100/119/20
f 98/117/21 101/136/21 97/137/21
f 104/138/22 99/139/22 103/140/22
f 102/120/23 105/141/23 101/142/23
f 108/113/24 103/143/24 107/144/24
f 106/115/25 85/145/25 105/146/25
f 88/147/26 107/148/26 87/149/26
f 97/150/11 101/151/11 105/152/11
f 130/153/12 112/154/12 110/155/12
f 120/156/8 122/157/8 118/158/8
f 124/159/9 126/160/9 122/157/9
f 128/161/10 130/153/10 126/160/10
f 116/162/7 118/158/7 114/163/7
f 111/164/14 127/165/14 119/166/14
f 112/167/13 114/163/13 110/168/13
f 114/163/15 109/169/15 110/168/15
f 112/167/16 115/170/16 116/162/16
f 118/158/17 113/171/17 114/163/17
f 116/162/18 119/172/18 120/156/18
f 122/157/19 117/173/19 118/158/19
f 124/159/20 119/174/20 123/175/20
f 126/160/21 121/176/21 122/157/21
f 124/159/22 127/177/22 128/161/22
f 126/160/23 129/178/23 125/179/23
f 132/180/24 127/181/24 131/182/24
f 130/153/25 109/183/25 129/184/25
f 132/180/26 111/185/26 112/154/26
f 121/186/11 125/187/11 129/188/11
f 154/189/12 136/190/12 156/191/12
f 146/192/8 144/193/8 142/194/8
f 150/195/9 148/196/9 146/192/9
f 154/189/10 152/197/10 150/195/10
f 142/194/7 140/198/7 138/199/7
f 143/200/11 151/201/11 135/202/11
f 134/203/13 140/198/13 136/204/13
f 134/203/16 137/205/16 138/199/16
f 139/206/15 136/204/15 140/198/15
f 137/207/18 142/194/18 138/199/18
f 143/208/17 140/198/17 144/193/17
f 141/209/20 146/192/20 142/194/20
f 147/210/19 144/193/19 148/196/19
f 146/192/22 149/211/22 150/195/22
f 151/212/21 148/196/21 152/197/21
f 149/213/24 154/189/24 150/195/24
f 155/214/23 152/197/23 156/191/23
f 154/189/26 133/215/26 134/216/26
f 135/217/25 156/191/25 136/190/25
f 145/218/14 141/219/14 137/220/14
f 178/221/12 160/222/12 180/223/12
f 170/224/8 168/225/8 166/226/8
f 174/227/9 172/228/9 170/224/9
f 174/227/10 180/223/10 176/229/10
f 166/226/7 164/230/7 162/231/7
f 167/232/11 175/233/11 159/234/11
f 158/235/13 164/230/13 160/236/13
f 158/235/16 161/237/16 162/231/16
f 163/238/15 160/236/15 164/230/15
f 162/231/18 165/239/18 166/226/18
f 168/225/17 163/240/17 164/230/17
f 166/226/20 169/241/20 170/224/20
f 171/242/19 168/225/19 172/228/19
f 169/243/22 174/227/22 170/224/22
f 175/244/21 172/228/21 176/229/21
f 173/245/24 178/221/24 174/227/24
f 179/246/23 176/229/23 180/223/23
f 178/221/26 157/247/26 158/248/26
f 159/249/25 180/223/25 160/222/25
f 169/250/14 165/251/14 161/252/14
f 3/15/7 4/19/7 2/16/7
f 5/18/8 6/21/8 4/19/8
f 7/20/9 8/23/9 6/21/9
f 9/22/10 10/28/10 8/23/10
f 2/26/11 4/253/11 6/24/11
f 6/24/11 8/254/11 10/25/11
f 10/25/11 12/255/11 2/26/11
f 9/22/12 11/29/12 12/27/12
f 11/29/13 1/256/13 2/30/13
f 3/33/14 1/257/14 11/258/14
f 11/258/14 9/259/14 3/33/14
f 9/259/14 7/31/14 3/33/14
f 14/34/7 16/37/7 15/35/7
f 16/37/8 18/39/8 17/38/8
f 18/39/9 20/260/9 19/40/9
f 19/40/10 20/260/10 22/41/10
f 18/45/14 16/261/14 14/262/14
f 14/262/14 24/263/14 18/45/14
f 24/263/14 22/43/14 18/45/14
f 21/42/12 22/41/12 24/46/12
f 23/47/13 24/46/13 14/48/13
f 23/51/11 13/264/11 15/52/11
f 15/52/11 17/265/11 19/266/11
f 19/266/11 21/50/11 15/52/11
f 25/53/1 26/56/1 32/54/1
f 26/56/2 27/58/2 33/57/2
f 27/58/3 28/60/3 34/59/3
f 28/60/4 29/65/4 35/61/4
f 27/63/14 26/267/14 25/64/14
f 25/64/14 30/268/14 29/269/14
f 29/269/14 28/62/14 25/64/14
f 29/65/5 30/270/5 36/66/5
f 36/66/6 30/270/6 25/67/6
f 42/2/11 43/81/11 50/69/11
f 32/54/14 49/74/14 44/70/14
f 39/7/11 52/75/11 53/71/11
f 36/66/14 45/76/14 46/72/14
f 32/54/14 33/57/14 48/73/14
f 38/5/11 51/80/11 52/75/11
f 45/76/6 44/82/6 43/77/6
f 46/72/5 45/76/5 54/78/5
f 47/79/4 46/72/4 53/71/4
f 48/73/3 47/79/3 52/75/3
f 49/74/2 48/73/2 51/80/2
f 44/70/1 49/74/1 50/69/1
f 35/61/14 46/72/14 47/79/14
f 41/11/11 40/9/11 53/71/11
f 37/3/11 50/69/11 51/80/11
f 33/57/14 34/59/14 47/79/14
f 41/11/11 54/78/11 43/77/11
f 36/66/14 31/68/14 44/82/14
f 62/83/1 56/87/1 55/84/1
f 63/86/2 57/89/2 56/87/2
f 63/86/3 64/90/3 58/88/3
f 64/90/4 65/95/4 59/91/4
f 55/94/11 56/271/11 57/92/11
f 57/92/11 58/272/11 59/93/11
f 59/93/11 60/273/11 55/94/11
f 65/95/5 66/98/5 60/96/5
f 61/97/6 55/274/6 60/96/6
f 67/1/14 80/111/14 73/99/14
f 74/100/11 79/110/11 62/83/11
f 83/101/14 82/104/14 69/6/14
f 76/102/11 75/106/11 66/98/11
f 62/83/11 79/110/11 78/103/11
f 82/104/14 81/109/14 68/4/14
f 73/105/6 74/112/6 75/106/6
f 84/107/5 75/106/5 76/102/5
f 82/104/4 83/101/4 76/102/4
f 81/109/3 82/104/3 77/108/3
f 81/109/2 78/103/2 79/110/2
f 80/111/1 79/110/1 74/100/1
f 77/108/11 76/102/11 65/95/11
f 71/10/14 84/107/14 83/101/14
f 81/109/14 80/111/14 67/1/14
f 63/86/11 78/103/11 77/108/11
f 73/105/14 84/107/14 71/10/14
f 66/98/11 75/106/11 74/112/11
f 108/113/12 88/147/12 86/114/12
f 96/116/8 100/119/8 98/117/8
f 100/119/9 104/138/9 102/120/9
f 102/120/10 104/138/10 108/113/10
f 92/121/7 96/116/7 94/118/7
f 95/125/14 91/275/14 87/123/14
f 87/123/14 107/276/14 103/124/14
f 103/124/14 99/277/14 95/125/14
f 88/126/13 92/121/13 90/122/13
f 86/127/15 90/122/15 89/128/15
f 88/126/16 87/278/16 91/130/16
f 90/122/17 94/118/17 93/131/17
f 92/121/18 91/279/18 95/133/18
f 98/117/19 97/280/19 93/134/19
f 96/116/20 95/281/20 99/135/20
f 98/117/21 102/120/21 101/136/21
f 104/138/22 100/119/22 99/139/22
f 102/120/23 106/115/23 105/141/23
f 108/113/24 104/138/24 103/143/24
f 106/115/25 86/114/25 85/145/25
f 88/147/26 108/113/26 107/148/26
f 105/152/11 85/282/11 97/150/11
f 85/282/11 89/283/11 97/150/11
f 89/283/11 93/284/11 97/150/11
f 130/153/12 132/180/12 112/154/12
f 120/156/8 124/159/8 122/157/8
f 124/159/9 128/161/9 126/160/9
f 128/161/10 132/180/10 130/153/10
f 116/162/7 120/156/7 118/158/7
f 119/166/14 115/285/14 111/164/14
f 111/164/14 131/286/14 127/165/14
f 127/165/14 123/287/14 119/166/14
f 112/167/13 116/162/13 114/163/13
f 114/163/15 113/288/15 109/169/15
f 112/167/16 111/289/16 115/170/16
f 118/158/17 117/290/17 113/171/17
f 116/162/18 115/291/18 119/172/18
f 122/157/19 121/292/19 117/173/19
f 124/159/20 120/156/20 119/174/20
f 126/160/21 125/293/21 121/176/21
f 124/159/22 123/294/22 127/177/22
f 126/160/23 130/153/23 129/178/23
f 132/180/24 128/161/24 127/181/24
f 130/153/25 110/155/25 109/183/25
f 132/180/26 131/295/26 111/185/26
f 129/188/11 109/296/11 121/186/11
f 109/296/11 113/297/11 121/186/11
f 113/297/11 117/298/11 121/186/11
f 154/189/12 134/216/12 136/190/12
f 146/192/8 148/196/8 144/193/8
f 150/195/9 152/197/9 148/196/9
f 154/189/10 156/191/10 152/197/10
f 142/194/7 144/193/7 140/198/7
f 135/202/11 139/299/11 143/200/11
f 143/200/11 147/300/11 151/201/11
f 151/201/11 155/301/11 135/202/11
f 134/203/13 138/199/13 140/198/13
f 134/203/16 133/302/16 137/205/16
f 139/206/15 135/303/15 136/204/15
f 137/207/18 141/304/18 142/194/18
f 143/208/17 139/305/17 140/198/17
f 141/209/20 145/306/20 146/192/20
f 147/210/19 143/307/19 144/193/19
f 146/192/22 145/308/22 149/211/22
f 151/212/21 147/309/21 148/196/21
f 149/213/24 153/310/24 154/189/24
f 155/214/23 151/311/23 152/197/23
f 154/189/26 153/312/26 133/215/26
f 135/217/25 155/313/25 156/191/25
f 137/220/14 133/314/14 145/218/14
f 133/314/14 153/315/14 145/218/14
f 153/315/14 149/316/14 145/218/14
f 178/221/12 158/248/12 160/222/12
f 170/224/8 172/228/8 168/225/8
f 174/227/9 176/229/9 172/228/9
f 174/227/10 178/221/10 180/223/10
f 166/226/7 168/225/7 164/230/7
f 159/234/11 163/317/11 167/232/11
f 167/232/11 171/318/11 175/233/11
f 175/233/11 179/319/11 159/234/11
f 158/235/13 162/231/13 164/230/13
f 158/235/16 157/320/16 161/237/16
f 163/238/15 159/321/15 160/236/15
f 162/231/18 161/322/18 165/239/18
f 168/225/17 167/323/17 163/240/17
f 166/226/20 165/324/20 169/241/20
f 171/242/19 167/325/19 168/225/19
f 169/243/22 173/326/22 174/227/22
f 175/244/21 171/327/21 172/228/21
f 173/245/24 177/328/24 178/221/24
f 179/246/23 175/329/23 176/229/23
f 178/221/26 177/330/26 157/247/26
f 159/249/25 179/331/25 180/223/25
f 161/252/14 157/332/14 169/250/14
f 157/332/14 177/333/14 169/250/14
f 177/333/14 173/334/14 169/250/14
