# Blender v3.2.0 OBJ File: 'FilbertBrush1.blend'
# www.blender.org
mtllib FilbertBrush1.mtl
o FilbertBrush1_Cube
v -0.009653 -0.214635 0.009653
v -0.010107 0.006374 0.006269
v -0.009653 -0.214635 -0.009653
v -0.010107 0.006374 -0.006269
v 0.009653 -0.214635 0.009653
v 0.010107 0.006374 0.006269
v 0.009653 -0.214635 -0.009653
v 0.010107 0.006374 -0.006269
v -0.015566 0.057085 0.002477
v -0.015566 0.057085 -0.002477
v 0.015566 0.057085 0.002477
v 0.015566 0.057085 -0.002477
v -0.016835 0.057085 0.003399
v -0.016835 0.057085 -0.003399
v 0.016835 0.057085 -0.003399
v 0.016835 0.057085 0.003399
v -0.015566 0.094091 0.002477
v -0.015566 0.094091 -0.002477
v 0.015566 0.094091 -0.002477
v 0.015566 0.094091 0.002477
vt 0.625000 0.000000
vt 0.375000 0.250000
vt 0.375000 0.000000
vt 0.625000 0.250000
vt 0.375000 0.500000
vt 0.625000 0.500000
vt 0.375000 0.750000
vt 0.625000 0.750000
vt 0.375000 1.000000
vt 0.125000 0.750000
vt 0.125000 0.500000
vt 0.625000 0.750000
vt 0.625000 0.250000
vt 0.625000 1.000000
vt 0.625000 1.000000
vt 0.625000 0.500000
vt 0.865579 0.533904
vt 0.875000 0.750000
vt 0.865579 0.716096
vt 0.634421 0.533904
vt 0.875000 0.500000
vt 0.634421 0.716096
vt 0.625000 0.000000
vt 0.865579 0.716096
vt 0.865579 0.533904
vt 0.634421 0.716096
vt 0.634421 0.533904
vn -1.0000 -0.0021 0.0000
vn 0.0000 0.0153 -0.9999
vn 1.0000 -0.0021 0.0000
vn 0.0000 0.0153 0.9999
vn 0.0000 -1.0000 0.0000
vn 0.9913 -0.1315 0.0000
vn -0.9913 -0.1315 0.0000
vn 0.0000 0.0565 0.9984
vn 0.0000 0.0565 -0.9984
vn 0.0000 1.0000 0.0000
vn 0.0000 0.0000 1.0000
vn 0.0000 0.0000 -1.0000
vn 1.0000 0.0000 0.0000
vn -1.0000 0.0000 0.0000
usemtl Wood1FilbertBrush1
s off
f 2/1/1 3/2/1 1/3/1
f 4/4/2 7/5/2 3/2/2
f 8/6/3 5/7/3 7/5/3
f 6/8/4 1/9/4 5/7/4
f 7/5/5 1/10/5 3/11/5
f 8/6/6 16/12/6 6/8/6
f 2/1/7 14/13/7 4/4/7
f 6/8/8 13/14/8 2/15/8
f 4/4/9 15/16/9 8/6/9
f 10/17/10 13/18/10 9/19/10
f 12/20/10 14/21/10 10/17/10
f 11/22/10 15/16/10 12/20/10
f 9/19/10 16/12/10 11/22/10
f 2/1/1 4/4/1 3/2/1
f 4/4/2 8/6/2 7/5/2
f 8/6/3 6/8/3 5/7/3
f 6/8/4 2/15/4 1/9/4
f 7/5/5 5/7/5 1/10/5
f 8/6/6 15/16/6 16/12/6
f 2/1/7 13/23/7 14/13/7
f 6/8/8 16/12/8 13/14/8
f 4/4/9 14/13/9 15/16/9
f 10/17/10 14/21/10 13/18/10
f 12/20/10 15/16/10 14/21/10
f 11/22/10 16/12/10 15/16/10
f 9/19/10 13/18/10 16/12/10
usemtl Bristles1FilbertBrush1
f 11/22/11 17/24/11 9/19/11
f 18/25/10 20/26/10 19/27/10
f 10/17/12 19/27/12 12/20/12
f 12/20/13 20/26/13 11/22/13
f 9/19/14 18/25/14 10/17/14
f 11/22/11 20/26/11 17/24/11
f 18/25/10 17/24/10 20/26/10
f 10/17/12 18/25/12 19/27/12
f 12/20/13 19/27/13 20/26/13
f 9/19/14 17/24/14 18/25/14
