# Blender v3.2.0 OBJ File: 'GlassCup1.blend'
# www.blender.org
mtllib GlassCup1.mtl
o GlassCup1_Cylinder.001
v 0.000000 -0.099398 -0.051630
v 0.000000 0.088849 -0.058384
v 0.036508 -0.099398 -0.036508
v 0.041284 0.088849 -0.041284
v 0.051630 -0.099398 -0.000000
v 0.058384 0.088849 -0.000000
v 0.036508 -0.099398 0.036508
v 0.041284 0.088849 0.041284
v 0.000000 -0.099398 0.051630
v 0.000000 0.088849 0.058384
v -0.036508 -0.099398 0.036508
v -0.041284 0.088849 0.041284
v -0.051630 -0.099398 -0.000000
v -0.058384 0.088849 -0.000000
v -0.036508 -0.099398 -0.036508
v -0.041284 0.088849 -0.041284
v 0.044197 0.088849 -0.044197
v 0.000000 0.088849 -0.062505
v 0.062505 0.088849 -0.000000
v 0.044197 0.088849 0.044197
v 0.000000 0.088849 0.062505
v -0.044197 0.088849 0.044197
v -0.062505 0.088849 -0.000000
v -0.044197 0.088849 -0.044197
v 0.033809 -0.078301 -0.033809
v -0.000000 -0.078301 -0.047813
v 0.047813 -0.078301 0.000000
v 0.033809 -0.078301 0.033809
v -0.000000 -0.078301 0.047813
v -0.033809 -0.078301 0.033809
v -0.047813 -0.078301 -0.000000
v -0.033809 -0.078301 -0.033809
vt 1.000000 1.000000
vt 0.875000 0.500000
vt 1.000000 0.500000
vt 0.875000 1.000000
vt 0.750000 0.500000
vt 0.750000 1.000000
vt 0.625000 0.500000
vt 0.625000 1.000000
vt 0.500000 0.500000
vt 0.500000 1.000000
vt 0.375000 0.500000
vt 0.375000 1.000000
vt 0.250000 0.500000
vt 0.091482 0.408518
vt 0.250000 0.474179
vt 0.250000 0.474179
vt 0.250000 1.000000
vt 0.125000 0.500000
vt 0.125000 1.000000
vt 0.000000 0.500000
vt 0.919706 0.080294
vt 0.580294 0.080294
vt 0.580294 0.419706
vt 0.408518 0.408518
vt 0.250000 0.490000
vt 0.490000 0.250000
vt 0.419706 0.419706
vt 0.474179 0.250000
vt 0.419706 0.080294
vt 0.250000 0.025821
vt 0.408518 0.091482
vt 0.091482 0.091482
vt 0.250000 0.010000
vt 0.025821 0.250000
vt 0.080294 0.080294
vt 0.010000 0.250000
vt 0.080294 0.419706
vt 0.408518 0.091482
vt 0.474179 0.250000
vt 0.025821 0.250000
vt 0.091482 0.091482
vt 0.250000 0.025821
vt 0.091482 0.408518
vt 0.408518 0.408518
vt 0.000000 1.000000
vt 0.750000 0.490000
vt 0.919706 0.419706
vt 0.990000 0.250000
vt 0.750000 0.010000
vt 0.510000 0.250000
vn 0.3821 -0.0533 -0.9226
vn 0.9226 -0.0533 -0.3821
vn 0.9226 -0.0533 0.3821
vn 0.3821 -0.0533 0.9226
vn -0.3821 -0.0533 0.9226
vn -0.9226 -0.0533 0.3821
vn 0.3820 0.0583 0.9223
vn -0.9226 -0.0533 -0.3821
vn -0.3821 -0.0533 -0.9226
vn 0.0000 -1.0000 -0.0000
vn 0.0000 1.0000 0.0000
vn 0.9223 0.0583 -0.3820
vn -0.3820 0.0583 -0.9223
vn -0.9223 0.0583 0.3820
vn 0.9223 0.0583 0.3820
vn 0.3820 0.0583 -0.9223
vn -0.9223 0.0583 -0.3820
vn -0.3820 0.0583 0.9223
usemtl GlassCup1
s off
f 18/1/1 3/2/1 1/3/1
f 17/4/2 5/5/2 3/2/2
f 19/6/3 7/7/3 5/5/3
f 20/8/4 9/9/4 7/7/4
f 21/10/5 11/11/5 9/9/5
f 22/12/6 13/13/6 11/11/6
f 16/14/7 26/15/7 2/16/7
f 23/17/8 15/18/8 13/13/8
f 24/19/9 1/20/9 15/18/9
f 7/21/10 11/22/10 15/23/10
f 4/24/11 18/25/11 2/16/11
f 4/24/11 19/26/11 17/27/11
f 6/28/11 20/29/11 19/26/11
f 10/30/11 20/29/11 8/31/11
f 12/32/11 21/33/11 10/30/11
f 14/34/11 22/35/11 12/32/11
f 16/14/11 23/36/11 14/34/11
f 2/16/11 24/37/11 16/14/11
f 28/38/11 27/39/11 31/40/11
f 14/34/12 30/41/12 31/40/12
f 10/30/13 28/38/13 29/42/13
f 4/24/14 27/39/14 6/28/14
f 14/34/15 32/43/15 16/14/15
f 12/32/16 29/42/16 30/41/16
f 6/28/17 28/38/17 8/31/17
f 2/16/18 25/44/18 4/24/18
f 18/1/1 17/4/1 3/2/1
f 17/4/2 19/6/2 5/5/2
f 19/6/3 20/8/3 7/7/3
f 20/8/4 21/10/4 9/9/4
f 21/10/5 22/12/5 11/11/5
f 22/12/6 23/17/6 13/13/6
f 16/14/7 32/43/7 26/15/7
f 23/17/8 24/19/8 15/18/8
f 24/19/9 18/45/9 1/20/9
f 15/23/10 1/46/10 3/47/10
f 3/47/10 5/48/10 7/21/10
f 7/21/10 9/49/10 11/22/10
f 11/22/10 13/50/10 15/23/10
f 15/23/10 3/47/10 7/21/10
f 4/24/11 17/27/11 18/25/11
f 4/24/11 6/28/11 19/26/11
f 6/28/11 8/31/11 20/29/11
f 10/30/11 21/33/11 20/29/11
f 12/32/11 22/35/11 21/33/11
f 14/34/11 23/36/11 22/35/11
f 16/14/11 24/37/11 23/36/11
f 2/16/11 18/25/11 24/37/11
f 27/39/11 25/44/11 31/40/11
f 25/44/11 26/15/11 31/40/11
f 26/15/11 32/43/11 31/40/11
f 31/40/11 30/41/11 29/42/11
f 29/42/11 28/38/11 31/40/11
f 14/34/12 12/32/12 30/41/12
f 10/30/13 8/31/13 28/38/13
f 4/24/14 25/44/14 27/39/14
f 14/34/15 31/40/15 32/43/15
f 12/32/16 10/30/16 29/42/16
f 6/28/17 27/39/17 28/38/17
f 2/16/18 26/15/18 25/44/18
