# Blender v3.2.0 OBJ File: 'Gymmat1.blend'
# www.blender.org
mtllib Gymmat1.mtl
o Gymmat1_Cube
v -0.374423 -0.014473 0.818420
v -0.374423 -0.007712 0.825181
v -0.381184 -0.007712 0.818420
v -0.374423 0.007712 0.825181
v -0.374423 0.014473 0.818420
v -0.381184 0.007712 0.818420
v -0.374423 -0.014473 -0.818420
v -0.381184 -0.007712 -0.818420
v -0.374423 -0.007712 -0.825181
v -0.374423 0.014473 -0.818420
v -0.374423 0.007712 -0.825181
v -0.381184 0.007712 -0.818420
v 0.374423 -0.014473 0.818420
v 0.381184 -0.007712 0.818420
v 0.374423 -0.007712 0.825181
v 0.374423 0.014473 0.818420
v 0.374423 0.007712 0.825181
v 0.381184 0.007712 0.818420
v 0.374423 -0.014473 -0.818420
v 0.374423 -0.007712 -0.825181
v 0.381184 -0.007712 -0.818420
v 0.374423 0.014473 -0.818420
v 0.381184 0.007712 -0.818420
v 0.374423 0.007712 -0.825181
vt 0.566606 0.752217
vt 0.433394 0.997783
vt 0.433394 0.752217
vt 0.566606 0.501024
vt 0.433394 0.748976
vt 0.433394 0.501024
vt 0.872783 0.501024
vt 0.627217 0.748976
vt 0.627217 0.501024
vt 0.566606 0.001024
vt 0.433394 0.248976
vt 0.433394 0.001024
vt 0.566606 0.252217
vt 0.433394 0.497783
vt 0.433394 0.252217
vt 0.127217 0.748976
vt 0.127217 0.750000
vt 0.125000 0.748976
vt 0.566606 0.997783
vt 0.625000 0.997783
vt 0.566606 1.000000
vt 0.127217 0.501024
vt 0.125000 0.501024
vt 0.127217 0.500000
vt 0.625000 0.252217
vt 0.566606 0.250000
vt 0.372783 0.748976
vt 0.375000 0.748976
vt 0.372783 0.750000
vt 0.625000 0.752217
vt 0.566606 0.750000
vt 0.372783 0.501024
vt 0.372783 0.500000
vt 0.375000 0.501024
vt 0.625000 0.501024
vt 0.566606 0.500000
vt 0.566606 0.000000
vt 0.433394 0.000000
vt 0.625000 0.248976
vt 0.625000 0.001024
vt 0.566606 0.248976
vt 0.625000 0.497783
vt 0.566606 0.497783
vt 0.566606 0.748976
vt 0.872783 0.748976
vn 0.0000 0.0000 1.0000
vn 1.0000 0.0000 0.0000
vn 0.0000 1.0000 0.0000
vn -1.0000 0.0000 0.0000
vn 0.0000 0.0000 -1.0000
vn -0.5773 -0.5774 0.5773
vn -0.5773 0.5774 0.5773
vn -0.5773 -0.5774 -0.5773
vn -0.5773 0.5774 -0.5773
vn 0.5773 -0.5774 0.5773
vn 0.5773 0.5774 0.5773
vn 0.5773 -0.5774 -0.5773
vn 0.5773 0.5774 -0.5773
vn -0.7071 -0.7071 0.0000
vn -0.7071 0.0000 0.7071
vn -0.7071 0.7071 0.0000
vn -0.7071 0.0000 -0.7071
vn 0.0000 -0.7071 -0.7071
vn 0.0000 0.7071 -0.7071
vn 0.7071 0.0000 -0.7071
vn 0.7071 -0.7071 0.0000
vn 0.7071 0.7071 0.0000
vn 0.7071 0.0000 0.7071
vn 0.0000 -0.7071 0.7071
vn 0.0000 0.7071 0.7071
vn 0.0000 -1.0000 0.0000
usemtl Mat1Gymmat1
s off
f 17/1/1 2/2/1 15/3/1
f 23/4/2 14/5/2 21/6/2
f 10/7/3 16/8/3 22/9/3
f 6/10/4 8/11/4 3/12/4
f 11/13/5 20/14/5 9/15/5
f 1/16/6 2/17/6 3/18/6
f 4/19/7 5/20/7 6/21/7
f 7/22/8 8/23/8 9/24/8
f 10/25/9 11/13/9 12/26/9
f 13/27/10 14/28/10 15/29/10
f 16/30/11 17/1/11 18/31/11
f 19/32/12 20/33/12 21/34/12
f 22/35/13 23/4/13 24/36/13
f 1/16/14 8/23/14 7/22/14
f 4/37/15 3/12/15 2/38/15
f 10/39/16 6/10/16 5/40/16
f 9/15/17 12/41/17 11/13/17
f 7/22/18 20/33/18 19/32/18
f 22/42/19 11/13/19 10/25/19
f 21/6/20 24/43/20 23/4/20
f 19/32/21 14/5/21 13/27/21
f 16/8/22 23/4/22 22/9/22
f 15/3/23 18/44/23 17/1/23
f 13/27/24 2/17/24 1/16/24
f 5/20/25 17/1/25 16/30/25
f 19/32/26 1/16/26 7/22/26
f 17/1/1 4/19/1 2/2/1
f 23/4/2 18/44/2 14/5/2
f 10/7/3 5/45/3 16/8/3
f 6/10/4 12/41/4 8/11/4
f 11/13/5 24/43/5 20/14/5
f 1/16/14 3/18/14 8/23/14
f 4/37/15 6/10/15 3/12/15
f 10/39/16 12/41/16 6/10/16
f 9/15/17 8/11/17 12/41/17
f 7/22/18 9/24/18 20/33/18
f 22/42/19 24/43/19 11/13/19
f 21/6/20 20/14/20 24/43/20
f 19/32/21 21/6/21 14/5/21
f 16/8/22 18/44/22 23/4/22
f 15/3/23 14/5/23 18/44/23
f 13/27/24 15/29/24 2/17/24
f 5/20/25 4/19/25 17/1/25
f 19/32/26 13/27/26 1/16/26
