# Blender v3.2.0 OBJ File: 'ModernKitchenStool1.blend'
# www.blender.org
mtllib ModernKitchenStool1.mtl
o ModernKitchenStool1_BezierCircle
v 0.000000 -0.081005 0.178387
v -0.000000 -0.081005 0.167370
v -0.000000 -0.090546 0.161862
v -0.000000 -0.100086 0.167370
v 0.000000 -0.100086 0.178387
v 0.000000 -0.090546 0.183895
v -0.064531 -0.081005 0.160929
v -0.059011 -0.081005 0.151396
v -0.056251 -0.090546 0.146629
v -0.059011 -0.100086 0.151396
v -0.064531 -0.100086 0.160929
v -0.067291 -0.090546 0.165696
v -0.110454 -0.081005 0.115006
v -0.100921 -0.081005 0.109486
v -0.096154 -0.090546 0.106726
v -0.100921 -0.100086 0.109486
v -0.110454 -0.100086 0.115006
v -0.115221 -0.090546 0.117766
v -0.127912 -0.081005 0.050475
v -0.116895 -0.081005 0.050475
v -0.111387 -0.090546 0.050475
v -0.116895 -0.100086 0.050475
v -0.127912 -0.100086 0.050475
v -0.133420 -0.090546 0.050475
v -0.110454 -0.081005 -0.014056
v -0.100921 -0.081005 -0.008536
v -0.096154 -0.090546 -0.005776
v -0.100921 -0.100086 -0.008536
v -0.110454 -0.100086 -0.014056
v -0.115221 -0.090546 -0.016816
v -0.064531 -0.081005 -0.059979
v -0.059011 -0.081005 -0.050446
v -0.056251 -0.090546 -0.045679
v -0.059011 -0.100086 -0.050446
v -0.064531 -0.100086 -0.059979
v -0.067291 -0.090546 -0.064746
v -0.000000 -0.081005 -0.077437
v 0.000000 -0.081005 -0.066420
v 0.000000 -0.090546 -0.060912
v 0.000000 -0.100086 -0.066420
v -0.000000 -0.100086 -0.077437
v -0.000000 -0.090546 -0.082945
v 0.064531 -0.081005 -0.059979
v 0.059011 -0.081005 -0.050446
v 0.056251 -0.090546 -0.045679
v 0.059011 -0.100086 -0.050446
v 0.064531 -0.100086 -0.059979
v 0.067291 -0.090546 -0.064746
v 0.110454 -0.081005 -0.014056
v 0.100921 -0.081005 -0.008536
v 0.096154 -0.090546 -0.005776
v 0.100921 -0.100086 -0.008536
v 0.110454 -0.100086 -0.014056
v 0.115221 -0.090546 -0.016816
v 0.127912 -0.081005 0.050475
v 0.116895 -0.081005 0.050475
v 0.111387 -0.090546 0.050475
v 0.116895 -0.100086 0.050475
v 0.127912 -0.100086 0.050475
v 0.133420 -0.090546 0.050475
v 0.110454 -0.081005 0.115006
v 0.100921 -0.081005 0.109486
v 0.096154 -0.090546 0.106726
v 0.100921 -0.100086 0.109486
v 0.110454 -0.100086 0.115006
v 0.115221 -0.090546 0.117766
v 0.064531 -0.081005 0.160929
v 0.059011 -0.081005 0.151396
v 0.056251 -0.090546 0.146629
v 0.059011 -0.100086 0.151396
v 0.064531 -0.100086 0.160929
v 0.067291 -0.090546 0.165696
v -0.000000 0.305358 -0.015331
v -0.000000 -0.411743 -0.015331
v -0.021505 0.305358 -0.022318
v -0.021505 -0.411743 -0.022318
v -0.034796 0.305358 -0.040611
v -0.034796 -0.411743 -0.040611
v -0.034796 0.305358 -0.063223
v -0.034796 -0.411743 -0.063223
v -0.021505 0.305358 -0.081516
v -0.021505 -0.411743 -0.081516
v 0.000000 0.305358 -0.088504
v 0.000000 -0.411743 -0.088504
v 0.021505 0.305358 -0.081516
v 0.021505 -0.411743 -0.081516
v 0.034796 0.305358 -0.063223
v 0.034796 -0.411743 -0.063223
v 0.034796 0.305358 -0.040611
v 0.034796 -0.411743 -0.040611
v 0.021505 0.305358 -0.022318
v 0.021505 -0.411743 -0.022318
v -0.130574 -0.463120 0.127803
v -0.000000 -0.463120 0.170229
v -0.211273 -0.463120 0.016730
v -0.211273 -0.463120 -0.120564
v -0.130574 -0.463120 -0.231636
v 0.000000 -0.463120 -0.274062
v 0.130574 -0.463120 -0.231636
v 0.211273 -0.463120 -0.120564
v 0.211273 -0.463120 0.016730
v 0.130574 -0.463120 0.127803
v 0.000000 0.251318 -0.260065
v 0.000000 0.271558 -0.281346
v 0.000000 0.359398 -0.260065
v 0.000000 0.339159 -0.281346
v 0.122346 0.251318 -0.220312
v 0.134855 0.271558 -0.237529
v 0.122346 0.359398 -0.220312
v 0.134855 0.339159 -0.237529
v 0.197960 0.251318 -0.116238
v 0.218199 0.271558 -0.122815
v 0.197960 0.359398 -0.116238
v 0.218199 0.339159 -0.122815
v 0.197960 0.251318 0.012404
v 0.218199 0.271558 0.018980
v 0.197960 0.359398 0.012404
v 0.218199 0.339159 0.018980
v 0.122346 0.251318 0.116478
v 0.134855 0.271558 0.133694
v 0.122346 0.359398 0.116478
v 0.134855 0.339159 0.133694
v -0.000000 0.251318 0.156230
v -0.000000 0.271558 0.177511
v -0.000000 0.359398 0.156230
v -0.000000 0.339159 0.177511
v -0.122346 0.251318 0.116478
v -0.134855 0.271558 0.133694
v -0.122346 0.359398 0.116478
v -0.134855 0.339159 0.133694
v -0.197960 0.251318 0.012404
v -0.218199 0.271558 0.018980
v -0.197960 0.359398 0.012404
v -0.218199 0.339159 0.018980
v -0.197960 0.251318 -0.116239
v -0.218199 0.271558 -0.122815
v -0.197960 0.359398 -0.116239
v -0.218199 0.339159 -0.122815
v -0.122346 0.251318 -0.220312
v -0.134855 0.271558 -0.237529
v -0.122346 0.359398 -0.220312
v -0.134855 0.339159 -0.237529
vt 0.900000 0.500000
vt 1.000000 1.000000
vt 1.000000 0.500000
vt 0.800000 0.500000
vt 0.900000 1.000000
vt 0.700000 0.500000
vt 0.800000 1.000000
vt 0.600000 0.500000
vt 0.700000 1.000000
vt 0.500000 0.500000
vt 0.600000 1.000000
vt 0.400000 0.500000
vt 0.500000 1.000000
vt 0.300000 0.500000
vt 0.400000 1.000000
vt 0.200000 0.500000
vt 0.300000 1.000000
vt 0.500000 1.000000
vt 0.100000 0.500000
vt 0.200000 1.000000
vt -0.000000 0.500000
vt 0.100000 1.000000
vt 0.521746 0.175836
vt 0.978254 0.175836
vt 0.891068 0.444164
vt 0.108932 0.444164
vt 0.250000 0.490000
vt 0.391068 0.055836
vt 0.600000 1.000000
vt 0.900000 1.000000
vt 0.700000 1.000000
vt 0.800000 1.000000
vt -0.000000 1.000000
vt 0.100000 1.000000
vt 0.200000 1.000000
vt 0.300000 1.000000
vt 0.400000 1.000000
vt 0.750000 0.490000
vt 0.608932 0.444164
vt 0.521746 0.324164
vt 0.608932 0.055836
vt 0.750000 0.010000
vt 0.891068 0.055836
vt 0.978254 0.324164
vt 0.391068 0.444164
vt 0.478254 0.324164
vt 0.478254 0.175836
vt 0.250000 0.010000
vt 0.021746 0.324164
vt 0.108932 0.055836
vt 0.021746 0.175836
vt 1.000000 1.000000
vt -0.000000 1.000000
vt 0.000000 1.000000
vt 0.083333 0.833333
vt 0.000000 0.833333
vt 0.000000 0.166667
vt 0.083333 0.000000
vt 0.000000 0.000000
vt 0.000000 0.333333
vt 0.083333 0.166667
vt 0.083333 0.500000
vt 0.000000 0.500000
vt 0.083333 0.666667
vt 0.000000 0.666667
vt 0.166667 1.000000
vt 0.083333 1.000000
vt 0.166667 0.000000
vt 0.083333 0.333333
vt 0.166667 0.166667
vt 0.166667 0.500000
vt 0.166667 0.666667
vt 0.250000 1.000000
vt 0.166667 0.833333
vt 0.250000 0.166667
vt 0.250000 0.333333
vt 0.166667 0.333333
vt 0.250000 0.500000
vt 0.250000 0.666667
vt 0.333333 0.833333
vt 0.250000 0.833333
vt 0.333333 0.000000
vt 0.250000 0.000000
vt 0.333333 0.166667
vt 0.333333 0.500000
vt 0.333333 0.666667
vt 0.333333 1.000000
vt 0.416667 0.833333
vt 0.416667 0.166667
vt 0.416667 0.333333
vt 0.333333 0.333333
vt 0.416667 0.500000
vt 0.416667 0.666667
vt 0.500000 1.000000
vt 0.416667 1.000000
vt 0.500000 0.166667
vt 0.416667 0.000000
vt 0.500000 0.333333
vt 0.500000 0.500000
vt 0.500000 0.666667
vt 0.583333 0.833333
vt 0.500000 0.833333
vt 0.583333 0.000000
vt 0.500000 0.000000
vt 0.583333 0.166667
vt 0.583333 0.500000
vt 0.583333 0.666667
vt 0.666667 1.000000
vt 0.583333 1.000000
vt 0.666667 0.166667
vt 0.666667 0.333333
vt 0.583333 0.333333
vt 0.666667 0.666667
vt 0.666667 0.833333
vt 0.750000 1.000000
vt 0.750000 0.166667
vt 0.666667 0.000000
vt 0.750000 0.333333
vt 0.666667 0.500000
vt 0.750000 0.500000
vt 0.750000 0.666667
vt 0.833333 0.833333
vt 0.750000 0.833333
vt 0.833333 0.000000
vt 0.750000 0.000000
vt 0.833333 0.166667
vt 0.833333 0.500000
vt 0.833333 0.666667
vt 0.833333 1.000000
vt 0.916667 0.833333
vt 0.916667 0.166667
vt 0.833333 0.333333
vt 0.916667 0.500000
vt 0.916667 0.666667
vt 1.000000 1.000000
vt 0.916667 1.000000
vt 1.000000 0.166667
vt 0.916667 0.000000
vt 1.000000 0.333333
vt 0.916667 0.333333
vt 1.000000 0.500000
vt 1.000000 0.666667
vt 1.000000 0.833333
vt 1.000000 0.000000
vt 0.100000 0.906369
vt -0.000000 0.593631
vt 0.100000 0.593631
vt 0.800000 0.906369
vt 0.700000 0.593631
vt 0.800000 0.593631
vt 0.700000 0.906369
vt 0.600000 0.593631
vt 0.600000 0.906369
vt 0.500000 0.593631
vt 0.500000 0.906369
vt 0.400000 0.593631
vt 0.400000 0.906369
vt 0.300000 0.593631
vt 0.300000 0.906369
vt 0.200000 0.593631
vt 0.200000 0.906369
vt 0.900000 0.906369
vt 0.900000 0.593631
vt 0.042918 0.317285
vt 0.377984 0.073846
vt 0.457082 0.317285
vt 1.000000 0.906369
vt 1.000000 0.593631
vt 0.891068 0.444164
vt 0.750000 0.467739
vt 0.750000 0.490000
vt 0.250000 0.490000
vt 0.377984 0.426154
vt 0.391068 0.444164
vt 0.978254 0.324164
vt 0.877984 0.426154
vt 0.478254 0.324164
vt 0.978254 0.175836
vt 0.957082 0.317285
vt 0.478254 0.175836
vt 0.457082 0.182715
vt 0.891068 0.055836
vt 0.957082 0.182715
vt 0.391068 0.055836
vt 0.750000 0.010000
vt 0.877984 0.073846
vt 0.250000 0.032261
vt 0.250000 0.010000
vt 0.608932 0.055836
vt 0.750000 0.032261
vt 0.108932 0.055836
vt 0.122016 0.073846
vt 0.521746 0.175836
vt 0.622016 0.073846
vt 0.042918 0.182715
vt 0.021746 0.175836
vt 0.521746 0.324164
vt 0.542918 0.182715
vt 0.021746 0.324164
vt 0.608932 0.444164
vt 0.542918 0.317285
vt 0.122016 0.426154
vt 0.108932 0.444164
vt 0.622016 0.426154
vt 0.250000 0.467739
vt -0.000000 0.906369
vn -0.3090 0.0000 0.9511
vn -0.8090 0.0000 0.5878
vn -1.0000 0.0000 -0.0000
vn -0.8090 0.0000 -0.5878
vn -0.3090 0.0000 -0.9511
vn 0.3090 0.0000 -0.9511
vn 0.8090 0.0000 -0.5878
vn 1.0000 0.0000 0.0000
vn -0.0864 0.9601 -0.2658
vn 0.8090 0.0000 0.5878
vn 0.3090 0.0000 0.9511
vn 0.0000 1.0000 0.0000
vn 0.0000 -1.0000 -0.0000
vn -0.2261 0.9601 -0.1643
vn -0.0864 0.9601 0.2658
vn -0.2795 0.9601 -0.0000
vn -0.2261 0.9601 0.1643
vn 0.0864 0.9601 0.2658
vn 0.2261 0.9601 0.1643
vn 0.2795 0.9601 0.0000
vn 0.2261 0.9601 -0.1643
vn 0.0864 0.9601 -0.2658
vn 0.0000 0.8300 0.5578
vn -0.5010 -0.0000 0.8654
vn 0.0000 0.0000 1.0000
vn 0.0000 0.9020 -0.4318
vn -0.2791 0.8305 0.4821
vn 0.0000 -0.0000 -1.0000
vn 0.2169 0.9015 -0.3746
vn 0.2169 -0.9015 -0.3746
vn 0.0000 -0.9020 -0.4318
vn -0.2791 -0.8305 0.4821
vn -0.0000 -0.8300 0.5578
vn -0.4821 0.8305 0.2791
vn 0.5012 0.0000 -0.8654
vn 0.3746 0.9015 -0.2169
vn 0.3746 -0.9015 -0.2169
vn -0.4821 -0.8305 0.2791
vn -0.5578 0.8300 0.0000
vn -0.8654 0.0000 0.5010
vn 0.4318 0.9020 -0.0000
vn 0.8654 -0.0000 -0.5012
vn 0.4318 -0.9020 -0.0000
vn -0.5578 -0.8300 0.0000
vn -0.8654 0.0000 -0.5010
vn -0.4821 0.8305 -0.2791
vn 0.3746 0.9015 0.2169
vn 0.3746 -0.9015 0.2169
vn -0.4821 -0.8305 -0.2791
vn -0.5010 -0.0000 -0.8654
vn 0.2169 0.9015 0.3746
vn 0.5012 0.0000 0.8654
vn 0.8654 0.0000 0.5012
vn 0.2169 -0.9015 0.3746
vn -0.2791 -0.8305 -0.4821
vn -0.0000 0.8300 -0.5578
vn -0.2791 0.8305 -0.4821
vn -0.0000 0.9020 0.4318
vn 0.0000 -0.9020 0.4318
vn -0.0000 -0.8300 -0.5578
vn 0.5010 -0.0000 -0.8654
vn 0.2791 0.8305 -0.4821
vn -0.2169 0.9015 0.3746
vn -0.2169 -0.9015 0.3746
vn 0.2791 -0.8305 -0.4821
vn 0.4821 0.8305 -0.2791
vn -0.3746 0.9015 0.2169
vn -0.8654 -0.0000 0.5012
vn -0.5012 -0.0000 0.8654
vn 0.4821 -0.8305 -0.2791
vn 0.8654 0.0000 -0.5010
vn 0.5578 0.8300 -0.0000
vn -0.4318 0.9020 -0.0000
vn -0.3746 -0.9015 0.2169
vn -0.4318 -0.9020 0.0000
vn 0.5578 -0.8300 0.0000
vn 0.8654 -0.0000 0.5010
vn 0.4821 0.8305 0.2791
vn -0.3746 0.9015 -0.2169
vn -0.3746 -0.9015 -0.2169
vn 0.4821 -0.8305 0.2791
vn 0.5010 0.0000 0.8654
vn -0.2169 0.9015 -0.3746
vn -0.8654 -0.0000 -0.5012
vn -0.2169 -0.9015 -0.3746
vn 0.2791 -0.8305 0.4821
vn 0.2791 0.8305 0.4821
vn -0.5012 0.0000 -0.8654
vn 0.2185 -0.7071 -0.6725
vn 0.2185 0.7071 -0.6725
vn 0.5721 -0.7071 -0.4156
vn 0.5721 0.7071 -0.4156
vn 0.7071 -0.7071 0.0000
vn 0.7071 0.7071 0.0000
vn 0.5721 -0.7071 0.4156
vn 0.5721 0.7071 0.4156
vn 0.2185 -0.7071 0.6725
vn 0.2185 0.7071 0.6725
vn -0.2185 -0.7071 0.6725
vn -0.2185 0.7071 0.6725
vn -0.5721 -0.7071 0.4156
vn -0.5721 0.7071 0.4156
vn -0.7071 -0.7071 0.0000
vn -0.7071 0.7071 0.0000
vn -0.5721 -0.7071 -0.4156
vn -0.5721 0.7071 -0.4156
vn -0.2185 -0.7071 -0.6725
vn -0.2185 0.7071 -0.6725
usemtl MetalModernKitchenStool1
s off
f 75/1/1 74/2/1 73/3/1
f 77/4/2 76/5/2 75/1/2
f 79/6/3 78/7/3 77/4/3
f 81/8/4 80/9/4 79/6/4
f 83/10/5 82/11/5 81/8/5
f 85/12/6 84/13/6 83/10/6
f 87/14/7 86/15/7 85/12/7
f 89/16/8 88/17/8 87/14/8
f 98/18/9 82/11/9 84/13/9
f 91/19/10 90/20/10 89/16/10
f 73/21/11 92/22/11 91/19/11
f 87/23/12 79/24/12 75/25/12
f 102/26/13 94/27/13 97/28/13
f 97/29/14 80/9/14 82/11/14
f 93/30/15 74/2/15 76/5/15
f 96/31/16 78/7/16 80/9/16
f 95/32/17 76/5/17 78/7/17
f 74/33/18 102/34/18 92/22/18
f 92/22/19 101/35/19 90/20/19
f 90/20/20 100/36/20 88/17/20
f 88/17/21 99/37/21 86/15/21
f 86/15/22 98/18/22 84/13/22
f 75/1/1 76/5/1 74/2/1
f 77/4/2 78/7/2 76/5/2
f 79/6/3 80/9/3 78/7/3
f 81/8/4 82/11/4 80/9/4
f 83/10/5 84/13/5 82/11/5
f 85/12/6 86/15/6 84/13/6
f 87/14/7 88/17/7 86/15/7
f 89/16/8 90/20/8 88/17/8
f 98/18/9 97/29/9 82/11/9
f 91/19/10 92/22/10 90/20/10
f 73/21/11 74/33/11 92/22/11
f 75/25/12 73/38/12 87/23/12
f 73/38/12 91/39/12 87/23/12
f 91/39/12 89/40/12 87/23/12
f 87/23/12 85/41/12 83/42/12
f 83/42/12 81/43/12 79/24/12
f 79/24/12 77/44/12 75/25/12
f 87/23/12 83/42/12 79/24/12
f 94/27/13 93/45/13 97/28/13
f 93/45/13 95/46/13 97/28/13
f 95/46/13 96/47/13 97/28/13
f 97/28/13 98/48/13 101/49/13
f 98/48/13 99/50/13 101/49/13
f 99/50/13 100/51/13 101/49/13
f 101/49/13 102/26/13 97/28/13
f 97/29/14 96/31/14 80/9/14
f 93/30/15 94/52/15 74/2/15
f 96/31/16 95/32/16 78/7/16
f 95/32/17 93/30/17 76/5/17
f 74/33/18 94/53/18 102/34/18
f 92/22/19 102/34/19 101/35/19
f 90/20/20 101/35/20 100/36/20
f 88/17/21 100/36/21 99/37/21
f 86/15/22 99/37/22 98/18/22
s 1
f 1/54/23 12/55/24 6/56/25
f 2/57/26 7/58/27 1/59/23
f 3/60/28 8/61/29 2/57/26
f 10/62/30 3/60/28 4/63/31
f 11/64/32 4/63/31 5/65/33
f 12/55/24 5/65/33 6/56/25
f 13/66/34 12/55/24 7/67/27
f 8/61/29 13/68/34 7/58/27
f 9/69/35 14/70/36 8/61/29
f 16/71/37 9/69/35 10/62/30
f 17/72/38 10/62/30 11/64/32
f 12/55/24 17/72/38 11/64/32
f 19/73/39 18/74/40 13/66/34
f 20/75/41 13/68/34 14/70/36
f 21/76/8 14/70/36 15/77/42
f 16/71/37 21/76/8 15/77/42
f 17/72/38 22/78/43 16/71/37
f 18/74/40 23/79/44 17/72/38
f 19/73/39 30/80/45 24/81/3
f 20/75/41 25/82/46 19/83/39
f 21/76/8 26/84/47 20/75/41
f 28/85/48 21/76/8 22/78/43
f 29/86/49 22/78/43 23/79/44
f 30/80/45 23/79/44 24/81/3
f 25/87/46 36/88/50 30/80/45
f 32/89/51 25/82/46 26/84/47
f 33/90/52 26/84/47 27/91/53
f 34/92/54 27/91/53 28/85/48
f 35/93/55 28/85/48 29/86/49
f 36/88/50 29/86/49 30/80/45
f 37/94/56 36/88/50 31/95/57
f 38/96/58 31/97/57 32/89/51
f 39/98/25 32/89/51 33/90/52
f 34/92/54 39/98/25 33/90/52
f 35/93/55 40/99/59 34/92/54
f 36/88/50 41/100/60 35/93/55
f 37/94/56 48/101/61 42/102/28
f 38/96/58 43/103/62 37/104/56
f 39/98/25 44/105/63 38/96/58
f 46/106/64 39/98/25 40/99/59
f 47/107/65 40/99/59 41/100/60
f 48/101/61 41/100/60 42/102/28
f 49/108/66 48/101/61 43/109/62
f 50/110/67 43/103/62 44/105/63
f 51/111/68 44/105/63 45/112/69
f 46/106/64 51/111/68 45/112/69
f 53/113/70 46/106/64 47/107/65
f 54/114/71 47/107/65 48/101/61
f 55/115/72 54/114/71 49/108/66
f 56/116/73 49/117/66 50/110/67
f 57/118/3 50/110/67 51/111/68
f 52/119/74 57/118/3 51/111/68
f 53/113/70 58/120/75 52/119/74
f 54/114/71 59/121/76 53/113/70
f 55/115/72 66/122/77 60/123/8
f 56/116/73 61/124/78 55/125/72
f 57/118/3 62/126/79 56/116/73
f 64/127/80 57/118/3 58/120/75
f 65/128/81 58/120/75 59/121/76
f 66/122/77 59/121/76 60/123/8
f 61/129/78 72/130/82 66/122/77
f 68/131/83 61/124/78 62/126/79
f 63/132/84 68/131/83 62/126/79
f 70/133/85 63/132/84 64/127/80
f 71/134/86 64/127/80 65/128/81
f 72/130/82 65/128/81 66/122/77
f 1/135/23 72/130/82 67/136/87
f 2/137/26 67/138/87 68/131/83
f 3/139/28 68/131/83 69/140/88
f 70/133/85 3/139/28 69/140/88
f 71/134/86 4/141/31 70/133/85
f 72/130/82 5/142/33 71/134/86
f 1/54/23 7/67/27 12/55/24
f 2/57/26 8/61/29 7/58/27
f 3/60/28 9/69/35 8/61/29
f 10/62/30 9/69/35 3/60/28
f 11/64/32 10/62/30 4/63/31
f 12/55/24 11/64/32 5/65/33
f 13/66/34 18/74/40 12/55/24
f 8/61/29 14/70/36 13/68/34
f 9/69/35 15/77/42 14/70/36
f 16/71/37 15/77/42 9/69/35
f 17/72/38 16/71/37 10/62/30
f 12/55/24 18/74/40 17/72/38
f 19/73/39 24/81/3 18/74/40
f 20/75/41 19/83/39 13/68/34
f 21/76/8 20/75/41 14/70/36
f 16/71/37 22/78/43 21/76/8
f 17/72/38 23/79/44 22/78/43
f 18/74/40 24/81/3 23/79/44
f 19/73/39 25/87/46 30/80/45
f 20/75/41 26/84/47 25/82/46
f 21/76/8 27/91/53 26/84/47
f 28/85/48 27/91/53 21/76/8
f 29/86/49 28/85/48 22/78/43
f 30/80/45 29/86/49 23/79/44
f 25/87/46 31/95/57 36/88/50
f 32/89/51 31/97/57 25/82/46
f 33/90/52 32/89/51 26/84/47
f 34/92/54 33/90/52 27/91/53
f 35/93/55 34/92/54 28/85/48
f 36/88/50 35/93/55 29/86/49
f 37/94/56 42/102/28 36/88/50
f 38/96/58 37/104/56 31/97/57
f 39/98/25 38/96/58 32/89/51
f 34/92/54 40/99/59 39/98/25
f 35/93/55 41/100/60 40/99/59
f 36/88/50 42/102/28 41/100/60
f 37/94/56 43/109/62 48/101/61
f 38/96/58 44/105/63 43/103/62
f 39/98/25 45/112/69 44/105/63
f 46/106/64 45/112/69 39/98/25
f 47/107/65 46/106/64 40/99/59
f 48/101/61 47/107/65 41/100/60
f 49/108/66 54/114/71 48/101/61
f 50/110/67 49/117/66 43/103/62
f 51/111/68 50/110/67 44/105/63
f 46/106/64 52/119/74 51/111/68
f 53/113/70 52/119/74 46/106/64
f 54/114/71 53/113/70 47/107/65
f 55/115/72 60/123/8 54/114/71
f 56/116/73 55/125/72 49/117/66
f 57/118/3 56/116/73 50/110/67
f 52/119/74 58/120/75 57/118/3
f 53/113/70 59/121/76 58/120/75
f 54/114/71 60/123/8 59/121/76
f 55/115/72 61/129/78 66/122/77
f 56/116/73 62/126/79 61/124/78
f 57/118/3 63/132/84 62/126/79
f 64/127/80 63/132/84 57/118/3
f 65/128/81 64/127/80 58/120/75
f 66/122/77 65/128/81 59/121/76
f 61/129/78 67/136/87 72/130/82
f 68/131/83 67/138/87 61/124/78
f 63/132/84 69/140/88 68/131/83
f 70/133/85 69/140/88 63/132/84
f 71/134/86 70/133/85 64/127/80
f 72/130/82 71/134/86 65/128/81
f 1/135/23 6/143/25 72/130/82
f 2/137/26 1/144/23 67/138/87
f 3/139/28 2/137/26 68/131/83
f 70/133/85 4/141/31 3/139/28
f 71/134/86 5/142/33 4/141/31
f 72/130/82 6/143/25 5/142/33
usemtl LeatherModernKitchenStool1
s off
f 142/145/5 104/146/5 140/147/5
f 114/148/8 116/149/8 112/150/8
f 118/151/10 120/152/10 116/149/10
f 122/153/11 124/154/11 120/152/11
f 126/155/1 128/156/1 124/154/1
f 130/157/2 132/158/2 128/156/2
f 134/159/3 136/160/3 132/158/3
f 138/161/4 140/147/4 136/160/4
f 110/162/7 112/150/7 108/163/7
f 137/164/12 121/165/12 113/166/12
f 106/167/6 108/163/6 104/168/6
f 108/169/89 103/170/89 104/171/89
f 106/172/90 109/173/90 110/174/90
f 112/175/91 107/176/91 108/169/91
f 110/174/92 113/166/92 114/177/92
f 116/178/93 111/179/93 112/175/93
f 118/180/94 113/166/94 117/181/94
f 120/182/95 115/183/95 116/178/95
f 118/180/96 121/165/96 122/184/96
f 124/185/97 119/186/97 120/182/97
f 122/184/98 125/187/98 126/188/98
f 128/189/99 123/190/99 124/185/99
f 130/191/100 125/187/100 129/192/100
f 132/193/101 127/194/101 128/189/101
f 130/191/102 133/195/102 134/196/102
f 136/197/103 131/198/103 132/193/103
f 134/196/104 137/164/104 138/199/104
f 140/200/105 135/201/105 136/197/105
f 138/199/106 141/202/106 142/203/106
f 104/171/107 139/204/107 140/200/107
f 142/203/108 105/205/108 106/172/108
f 115/183/13 131/198/13 139/204/13
f 142/145/5 106/206/5 104/146/5
f 114/148/8 118/151/8 116/149/8
f 118/151/10 122/153/10 120/152/10
f 122/153/11 126/155/11 124/154/11
f 126/155/1 130/157/1 128/156/1
f 130/157/2 134/159/2 132/158/2
f 134/159/3 138/161/3 136/160/3
f 138/161/4 142/145/4 140/147/4
f 110/162/7 114/148/7 112/150/7
f 113/166/12 109/173/12 105/205/12
f 105/205/12 141/202/12 137/164/12
f 137/164/12 133/195/12 129/192/12
f 129/192/12 125/187/12 121/165/12
f 121/165/12 117/181/12 113/166/12
f 113/166/12 105/205/12 137/164/12
f 137/164/12 129/192/12 121/165/12
f 106/167/6 110/162/6 108/163/6
f 108/169/89 107/176/89 103/170/89
f 106/172/90 105/205/90 109/173/90
f 112/175/91 111/179/91 107/176/91
f 110/174/92 109/173/92 113/166/92
f 116/178/93 115/183/93 111/179/93
f 118/180/94 114/177/94 113/166/94
f 120/182/95 119/186/95 115/183/95
f 118/180/96 117/181/96 121/165/96
f 124/185/97 123/190/97 119/186/97
f 122/184/98 121/165/98 125/187/98
f 128/189/99 127/194/99 123/190/99
f 130/191/100 126/188/100 125/187/100
f 132/193/101 131/198/101 127/194/101
f 130/191/102 129/192/102 133/195/102
f 136/197/103 135/201/103 131/198/103
f 134/196/104 133/195/104 137/164/104
f 140/200/105 139/204/105 135/201/105
f 138/199/106 137/164/106 141/202/106
f 104/171/107 103/170/107 139/204/107
f 142/203/108 141/202/108 105/205/108
f 139/204/13 103/170/13 115/183/13
f 103/170/13 107/176/13 115/183/13
f 107/176/13 111/179/13 115/183/13
f 115/183/13 119/186/13 123/190/13
f 123/190/13 127/194/13 131/198/13
f 131/198/13 135/201/13 139/204/13
f 115/183/13 123/190/13 131/198/13
