# Blender v3.2.0 OBJ File: 'ModernKitchenTable1.blend'
# www.blender.org
mtllib ModernKitchenTable1.mtl
o ModernKitchenTable1_Cube
v -0.985257 -0.698909 0.536495
v -0.985257 -0.695909 0.539495
v -0.988257 -0.695909 0.536495
v -0.985257 0.205944 0.539495
v -0.991830 0.208944 0.541445
v -0.988257 0.205944 0.536495
v -0.985257 -0.698909 -0.536495
v -0.988257 -0.695909 -0.536495
v -0.985257 -0.695909 -0.539495
v -0.991830 0.208944 -0.541445
v -0.985257 0.205944 -0.539495
v -0.988257 0.205944 -0.536495
v 0.985257 -0.698909 0.536495
v 0.988257 -0.695909 0.536495
v 0.985257 -0.695909 0.539495
v 0.991830 0.208944 0.541445
v 0.985257 0.205944 0.539495
v 0.988257 0.205944 0.536495
v 0.985257 -0.698909 -0.536495
v 0.985257 -0.695909 -0.539495
v 0.988257 -0.695909 -0.536495
v 0.991830 0.208944 -0.541445
v 0.988257 0.205944 -0.536495
v 0.985257 0.205944 -0.539495
v -1.059838 0.211944 0.575571
v -1.056265 0.208944 0.576621
v -1.056838 0.211944 0.578571
v -1.059838 0.211944 -0.575571
v -1.056838 0.211944 -0.578571
v -1.056265 0.208944 -0.576621
v 1.056838 0.211944 -0.578571
v 1.059838 0.211944 -0.575571
v 1.056265 0.208944 -0.576621
v 1.059838 0.211944 0.575571
v 1.056838 0.211944 0.578571
v 1.056265 0.208944 0.576621
v -1.059838 0.278020 0.575571
v -1.056838 0.278020 0.578571
v -1.056838 0.281020 0.575571
v -1.059838 0.278020 -0.575571
v -1.056838 0.281020 -0.575571
v -1.056838 0.278020 -0.578571
v 1.056838 0.278020 -0.578571
v 1.056838 0.281020 -0.575571
v 1.059838 0.278020 -0.575571
v 1.059838 0.278020 0.575571
v 1.056838 0.281020 0.575571
v 1.056838 0.278020 0.578571
vt 0.624174 0.750380
vt 0.375826 0.999620
vt 0.375826 0.750379
vt 0.624174 0.000695
vt 0.375826 0.249305
vt 0.375826 0.000695
vt 0.624174 0.250379
vt 0.375826 0.499620
vt 0.375826 0.250379
vt 0.624174 0.500695
vt 0.375826 0.749305
vt 0.375826 0.500695
vt 0.125379 0.749305
vt 0.125379 0.750000
vt 0.125000 0.749305
vt 0.624174 0.999621
vt 0.625000 1.000000
vt 0.624174 1.000000
vt 0.125379 0.500695
vt 0.125000 0.500695
vt 0.125379 0.500000
vt 0.625000 0.250000
vt 0.624174 0.249305
vt 0.374621 0.749305
vt 0.375000 0.749305
vt 0.374621 0.750000
vt 0.625000 0.750000
vt 0.624174 0.749305
vt 0.374621 0.500695
vt 0.374620 0.500000
vt 0.375000 0.500695
vt 0.625000 0.500000
vt 0.624174 0.499621
vt 0.624174 0.000000
vt 0.375826 0.000000
vt 0.625000 0.000000
vt 0.625000 0.500000
vt 0.625000 0.750000
vt 0.625000 0.250000
vt 0.874646 0.500648
vt 0.625354 0.749352
vt 0.625354 0.500648
vt 0.625000 0.000648
vt 0.625000 0.249352
vt 0.625000 0.249352
vt 0.625000 1.000000
vt 0.625000 0.750354
vt 0.625000 0.999646
vt 0.625000 0.999646
vt 0.625000 0.250354
vt 0.625000 0.499646
vt 0.625000 0.499646
vt 0.625000 0.500648
vt 0.625000 0.749352
vt 0.625000 0.749352
vt 0.625000 0.000000
vt 0.625000 0.000000
vt 0.625000 0.000648
vt 0.625000 0.000000
vt 0.625000 0.000648
vt 0.875000 0.500648
vt 0.874646 0.500000
vt 0.625354 0.500000
vt 0.625000 0.500648
vt 0.625354 0.750000
vt 0.875000 0.749352
vt 0.874646 0.749352
vt 0.625000 0.750354
vt 0.625000 0.250354
vt 0.874646 0.750000
vn 0.0000 0.0000 1.0000
vn -1.0000 0.0000 0.0000
vn 0.0000 0.0000 -1.0000
vn 1.0000 0.0000 0.0000
vn -0.5774 -0.5773 0.5774
vn -0.3151 -0.8952 0.3151
vn -0.5774 -0.5773 -0.5774
vn -0.3151 -0.8952 -0.3151
vn 0.5773 -0.5774 0.5774
vn 0.3151 -0.8952 0.3151
vn 0.5773 -0.5774 -0.5774
vn 0.3151 -0.8952 -0.3151
vn -0.7071 -0.7071 0.0000
vn -0.7071 0.0000 0.7071
vn -0.6430 -0.7658 0.0000
vn -0.7071 0.0000 -0.7071
vn 0.0000 -0.7071 -0.7071
vn 0.0000 -0.5451 -0.8384
vn 0.7071 0.0000 -0.7071
vn 0.7071 -0.7071 0.0000
vn 0.6430 -0.7658 0.0000
vn 0.7071 0.0000 0.7071
vn 0.0000 -0.7071 0.7071
vn 0.0000 -0.5451 0.8384
vn 0.0000 -1.0000 0.0000
vn -0.6431 -0.7658 0.0000
vn 0.6431 -0.7658 0.0000
vn 0.0000 1.0000 0.0000
vn -0.6077 -0.5112 0.6077
vn -0.6077 -0.5112 -0.6077
vn 0.6077 -0.5112 -0.6077
vn 0.6077 -0.5112 0.6077
vn -0.5774 0.5773 0.5774
vn -0.5774 0.5773 -0.5774
vn 0.5773 0.5774 -0.5773
vn 0.5773 0.5774 0.5773
vn -0.7071 0.7071 0.0000
vn 0.0000 0.7071 -0.7071
vn 0.7071 0.7071 0.0000
vn 0.0000 0.7071 0.7071
usemtl WoodModernKitchenTable1
s off
f 17/1/1 2/2/1 15/3/1
f 6/4/2 8/5/2 3/6/2
f 11/7/3 20/8/3 9/9/3
f 23/10/4 14/11/4 21/12/4
f 1/13/5 2/14/5 3/15/5
f 4/16/6 5/17/6 6/18/6
f 7/19/7 8/20/7 9/21/7
f 10/22/8 11/7/8 12/23/8
f 13/24/9 14/25/9 15/26/9
f 16/27/10 17/1/10 18/28/10
f 19/29/11 20/30/11 21/31/11
f 22/32/12 23/10/12 24/33/12
f 1/13/13 8/20/13 7/19/13
f 4/34/14 3/6/14 2/35/14
f 10/22/15 6/4/15 5/36/15
f 9/9/16 12/23/16 11/7/16
f 7/19/17 20/30/17 19/29/17
f 22/32/18 11/7/18 10/22/18
f 21/12/19 24/33/19 23/10/19
f 19/29/20 14/11/20 13/24/20
f 16/27/21 23/10/21 22/32/21
f 15/3/22 18/28/22 17/1/22
f 13/24/23 2/14/23 1/13/23
f 5/17/24 17/1/24 16/27/24
f 19/29/25 1/13/25 7/19/25
f 17/1/1 4/16/1 2/2/1
f 6/4/2 12/23/2 8/5/2
f 11/7/3 24/33/3 20/8/3
f 23/10/4 18/28/4 14/11/4
f 1/13/13 3/15/13 8/20/13
f 4/34/14 6/4/14 3/6/14
f 10/22/26 12/23/26 6/4/26
f 9/9/16 8/5/16 12/23/16
f 7/19/17 9/21/17 20/30/17
f 22/32/18 24/33/18 11/7/18
f 21/12/19 20/8/19 24/33/19
f 19/29/20 21/12/20 14/11/20
f 16/27/27 18/28/27 23/10/27
f 15/3/22 14/11/22 18/28/22
f 13/24/23 15/26/23 2/14/23
f 5/17/24 4/16/24 17/1/24
f 19/29/25 13/24/25 1/13/25
usemtl MarbleModernKitchenTable1
f 10/22/25 33/37/25 22/32/25
f 22/32/25 36/38/25 16/27/25
f 5/36/25 30/39/25 10/22/25
f 41/40/28 47/41/28 44/42/28
f 25/43/2 40/44/2 28/45/2
f 16/27/25 26/46/25 5/17/25
f 35/47/1 38/48/1 27/49/1
f 29/50/3 43/51/3 31/52/3
f 32/53/4 46/54/4 34/55/4
f 25/43/29 26/56/29 27/57/29
f 28/45/30 29/50/30 30/39/30
f 31/52/31 32/53/31 33/37/31
f 34/55/32 35/47/32 36/38/32
f 37/58/33 38/59/33 39/60/33
f 40/61/34 41/40/34 42/62/34
f 43/63/35 44/42/35 45/64/35
f 46/54/36 47/41/36 48/65/36
f 28/45/15 26/56/15 25/43/15
f 31/52/18 30/39/18 29/50/18
f 34/55/21 33/37/21 32/53/21
f 27/49/24 36/38/24 35/47/24
f 41/40/37 37/66/37 39/67/37
f 44/42/38 42/62/38 41/40/38
f 47/41/39 45/64/39 44/42/39
f 39/67/40 48/65/40 47/41/40
f 43/51/19 32/53/19 31/52/19
f 35/47/22 46/54/22 48/68/22
f 38/59/14 25/43/14 27/57/14
f 29/50/16 40/44/16 42/69/16
f 10/22/25 30/39/25 33/37/25
f 22/32/25 33/37/25 36/38/25
f 5/36/25 26/56/25 30/39/25
f 41/40/28 39/67/28 47/41/28
f 25/43/2 37/58/2 40/44/2
f 16/27/25 36/38/25 26/46/25
f 35/47/1 48/68/1 38/48/1
f 29/50/3 42/69/3 43/51/3
f 32/53/4 45/64/4 46/54/4
f 28/45/15 30/39/15 26/56/15
f 31/52/18 33/37/18 30/39/18
f 34/55/21 36/38/21 33/37/21
f 27/49/24 26/46/24 36/38/24
f 41/40/37 40/61/37 37/66/37
f 44/42/38 43/63/38 42/62/38
f 47/41/39 46/54/39 45/64/39
f 39/67/40 38/70/40 48/65/40
f 43/51/19 45/64/19 32/53/19
f 35/47/22 34/55/22 46/54/22
f 38/59/14 37/58/14 25/43/14
f 29/50/16 28/45/16 40/44/16
