# Blender v3.2.0 OBJ File: 'Monitor1.blend'
# www.blender.org
mtllib Monitor1.mtl
o Monitor1_Cube.004
v 0.055620 0.106688 -0.030812
v 0.055620 0.103068 -0.034433
v 0.059241 0.103068 -0.030812
v 0.055620 -0.187484 -0.034433
v 0.055620 -0.191105 -0.030812
v 0.059241 -0.187484 -0.030812
v 0.055620 0.106688 -0.013581
v 0.059241 0.103068 -0.013581
v 0.055620 0.103068 -0.009960
v 0.055620 -0.191105 -0.013581
v 0.055620 -0.187484 -0.009960
v 0.059241 -0.187484 -0.013581
v -0.055620 0.106688 -0.030812
v -0.059241 0.103068 -0.030812
v -0.055620 0.103068 -0.034433
v -0.055620 -0.191105 -0.030812
v -0.055620 -0.187484 -0.034433
v -0.059241 -0.187484 -0.030812
v -0.055620 0.106688 -0.013581
v -0.055620 0.103068 -0.009960
v -0.059241 0.103068 -0.013581
v -0.055620 -0.191105 -0.013581
v -0.059241 -0.187484 -0.013581
v -0.055620 -0.187484 -0.009960
v 0.190316 -0.198070 0.151402
v 0.194866 -0.193520 0.151402
v 0.190316 -0.193520 0.155953
v 0.194866 -0.181798 0.151402
v 0.190316 -0.177248 0.151402
v 0.190316 -0.181798 0.155953
v -0.190316 -0.198070 0.151402
v -0.190316 -0.193520 0.155953
v -0.194866 -0.193520 0.151402
v -0.190316 -0.177248 0.151402
v -0.194866 -0.181798 0.151402
v -0.190316 -0.181798 0.155953
v 0.190316 -0.198070 -0.118021
v 0.190316 -0.193520 -0.122571
v 0.194866 -0.193520 -0.118021
v 0.190316 -0.177248 -0.118021
v 0.194866 -0.181798 -0.118021
v 0.190316 -0.181798 -0.122571
v -0.190316 -0.198070 -0.118021
v -0.194866 -0.193520 -0.118021
v -0.190316 -0.193520 -0.122571
v -0.190316 -0.177248 -0.118021
v -0.190316 -0.181798 -0.122571
v -0.194866 -0.181798 -0.118021
v 0.432275 0.007066 0.026125
v 0.432275 0.474917 0.026125
v -0.432275 0.007066 0.026125
v -0.432275 0.474917 0.026125
v 0.454687 -0.008139 0.007257
v 0.454687 0.490123 0.007257
v -0.454687 -0.008139 0.007257
v -0.454687 0.490123 0.007257
v -0.454687 -0.008139 0.026125
v 0.454687 -0.008139 0.026125
v 0.454687 0.490123 0.026125
v -0.454687 0.490123 0.026125
v -0.432275 0.007066 0.021186
v 0.432275 0.007066 0.021185
v 0.432275 0.474917 0.021185
v -0.432275 0.474917 0.021186
v 0.079115 0.187206 -0.047677
v 0.079115 0.089618 -0.047677
v 0.079115 0.151295 0.011490
v 0.079115 0.125529 0.011490
v -0.079115 0.187206 -0.047677
v -0.079115 0.089618 -0.047677
v -0.079115 0.151295 0.011490
v -0.079115 0.125529 0.011490
v 0.079115 0.187206 -0.011472
v 0.079115 0.089618 -0.011472
v -0.079115 0.187206 -0.011472
v -0.079115 0.089618 -0.011472
vt 0.617371 0.006162
vt 0.382629 0.243838
vt 0.382629 0.006162
vt 0.617371 0.243838
vt 0.378040 0.992360
vt 0.621960 0.757640
vt 0.378040 0.757640
vt 0.378040 0.713012
vt 0.621960 0.536988
vt 0.378040 0.536988
vt 0.632640 0.713012
vt 0.867360 0.536988
vt 0.632640 0.536988
vt 0.378040 0.213012
vt 0.621960 0.036988
vt 0.378040 0.036988
vt 0.378040 0.492360
vt 0.621960 0.257640
vt 0.378040 0.257640
vt 0.375000 0.992360
vt 0.378040 1.000000
vt 0.867360 0.750000
vt 0.875000 0.713012
vt 0.867360 0.713012
vt 0.375000 0.213012
vt 0.378040 0.250000
vt 0.875000 0.536988
vt 0.867360 0.500000
vt 0.375000 0.713012
vt 0.378040 0.750000
vt 0.625000 0.713012
vt 0.632640 0.750000
vt 0.375000 0.492360
vt 0.378040 0.500000
vt 0.632640 0.500000
vt 0.625000 0.536988
vt 0.375000 0.036988
vt 0.621960 0.992360
vt 0.621960 0.213012
vt 0.375000 0.257640
vt 0.621960 0.492360
vt 0.367360 0.536988
vt 0.367360 0.713012
vt 0.621960 0.713012
vt 0.375000 0.757640
vt 0.132640 0.713012
vt 0.132640 0.536988
vt 0.570368 0.754084
vt 0.429632 0.995916
vt 0.429632 0.754084
vt 0.570368 0.502919
vt 0.429632 0.747081
vt 0.429632 0.502919
vt 0.870916 0.502919
vt 0.629084 0.747081
vt 0.629084 0.502919
vt 0.570368 0.002919
vt 0.429632 0.247081
vt 0.429632 0.002919
vt 0.570368 0.254084
vt 0.429632 0.495916
vt 0.429632 0.254084
vt 0.129084 0.747081
vt 0.129084 0.750000
vt 0.125000 0.747081
vt 0.570368 0.995916
vt 0.625000 0.995916
vt 0.570368 1.000000
vt 0.129084 0.502919
vt 0.125000 0.502919
vt 0.129084 0.500000
vt 0.625000 0.254084
vt 0.570368 0.250000
vt 0.370916 0.747081
vt 0.375000 0.747081
vt 0.370916 0.750000
vt 0.625000 0.754084
vt 0.570368 0.750000
vt 0.370916 0.502919
vt 0.370916 0.500000
vt 0.375000 0.502919
vt 0.625000 0.502919
vt 0.570368 0.500000
vt 0.570368 0.000000
vt 0.429632 0.000000
vt 0.625000 0.247081
vt 0.625000 0.002919
vt 0.570368 0.247081
vt 0.625000 0.495916
vt 0.570368 0.495916
vt 0.570368 0.747081
vt 0.617371 0.006162
vt 0.382629 0.006162
vt 0.625000 0.250000
vt 0.375000 0.500000
vt 0.375000 0.250000
vt 0.625000 0.500000
vt 0.375000 0.750000
vt 0.625000 0.750000
vt 0.375000 1.000000
vt 0.125000 0.750000
vt 0.125000 0.500000
vt 0.875000 0.500000
vt 0.382629 0.243838
vt 0.375000 0.000000
vt 0.625000 0.000000
vt 0.617371 0.243838
vt 0.375000 0.125000
vt 0.625000 0.250000
vt 0.625000 0.125000
vt 0.375000 0.500000
vt 0.375000 0.250000
vt 0.375000 0.750000
vt 0.625000 0.625000
vt 0.375000 0.625000
vt 0.375000 1.000000
vt 0.625000 0.750000
vt 0.125000 0.750000
vt 0.125000 0.625000
vt 0.875000 0.625000
vt 0.875000 0.500000
vt 0.625000 0.500000
vt 0.125000 0.500000
vt 0.625000 0.000000
vt 0.375000 0.000000
vt 0.621960 1.000000
vt 0.870916 0.747081
vt 0.625000 1.000000
vt 0.875000 0.750000
vt 0.625000 1.000000
vt 0.875000 0.750000
vn 0.0000 0.0000 1.0000
vn 0.0000 0.0000 -1.0000
vn -1.0000 0.0000 0.0000
vn 0.0000 -1.0000 0.0000
vn 1.0000 0.0000 0.0000
vn 0.5774 0.5773 -0.5774
vn 0.5774 -0.5773 -0.5774
vn 0.5774 0.5773 0.5774
vn 0.5774 -0.5773 0.5773
vn -0.5774 0.5773 -0.5774
vn -0.5774 -0.5773 -0.5774
vn -0.5774 0.5773 0.5774
vn -0.5774 -0.5773 0.5773
vn 0.7071 0.7071 0.0000
vn 0.7071 0.0000 -0.7071
vn 0.7071 -0.7071 0.0000
vn 0.7071 0.0000 0.7071
vn 0.0000 0.7071 0.7071
vn 0.0000 -0.7071 0.7071
vn -0.7071 0.0000 0.7071
vn -0.7071 0.7071 0.0000
vn -0.7071 -0.7071 0.0000
vn -0.7071 0.0000 -0.7071
vn 0.0000 0.7071 -0.7071
vn 0.0000 -0.7071 -0.7071
vn 0.0000 1.0000 0.0000
vn 0.5773 -0.5773 0.5774
vn 0.5773 0.5774 0.5774
vn -0.5774 -0.5774 0.5774
vn -0.5774 0.5774 0.5773
vn 0.5773 -0.5773 -0.5774
vn 0.5774 0.5774 -0.5774
vn -0.5773 -0.5773 -0.5774
vn -0.5774 0.5774 -0.5774
vn 0.0000 -0.5387 0.8425
vn 0.0000 0.5387 0.8425
usemtl Screen1Monitor1
s off
f 63/1/1 61/2/1 62/3/1
f 63/1/1 64/4/1 61/2/1
usemtl Plastic1Monitor1
f 2/5/2 17/6/2 15/7/2
f 14/8/3 23/9/3 21/10/3
f 16/11/4 10/12/4 22/13/4
f 8/14/5 6/15/5 3/16/5
f 20/17/1 11/18/1 9/19/1
f 1/20/6 3/21/6 2/5/6
f 4/22/7 6/23/7 5/24/7
f 7/25/8 9/26/8 8/14/8
f 10/12/9 12/27/9 11/28/9
f 13/29/10 15/30/10 14/8/10
f 16/11/11 18/31/11 17/32/11
f 19/33/12 21/34/12 20/17/12
f 22/13/13 24/35/13 23/36/13
f 8/14/14 1/37/14 7/25/14
f 3/21/15 4/38/15 2/5/15
f 6/23/16 10/12/16 5/24/16
f 12/39/17 9/19/17 11/18/17
f 20/17/18 7/40/18 19/33/18
f 11/28/19 22/13/19 10/12/19
f 24/41/20 21/10/20 23/9/20
f 14/8/21 19/42/21 13/43/21
f 23/9/22 16/11/22 22/13/22
f 18/44/23 15/7/23 17/6/23
f 2/5/24 13/45/24 1/20/24
f 17/32/25 5/24/25 16/11/25
f 1/46/26 19/42/26 7/47/26
f 41/48/5 26/49/5 39/50/5
f 47/51/2 38/52/2 45/53/2
f 34/54/26 40/55/26 46/56/26
f 30/57/1 32/58/1 27/59/1
f 35/60/3 44/61/3 33/62/3
f 25/63/27 26/64/27 27/65/27
f 28/66/28 29/67/28 30/68/28
f 31/69/29 32/70/29 33/71/29
f 34/72/30 35/60/30 36/73/30
f 37/74/31 38/75/31 39/76/31
f 40/77/32 41/48/32 42/78/32
f 43/79/33 44/80/33 45/81/33
f 46/82/34 47/51/34 48/83/34
f 25/63/19 32/70/19 31/69/19
f 28/84/17 27/59/17 26/85/17
f 34/86/18 30/57/18 29/87/18
f 33/62/20 36/88/20 35/60/20
f 31/69/22 44/80/22 43/79/22
f 46/89/21 35/60/21 34/72/21
f 45/53/23 48/90/23 47/51/23
f 43/79/25 38/52/25 37/74/25
f 40/55/24 47/51/24 46/56/24
f 39/50/15 42/91/15 41/48/15
f 37/74/16 26/64/16 25/63/16
f 29/67/14 41/48/14 40/77/14
f 43/79/4 25/63/4 31/69/4
f 50/92/3 62/3/3 49/93/3
f 60/94/3 55/95/3 57/96/3
f 56/97/2 53/98/2 55/95/2
f 54/99/5 58/100/5 53/98/5
f 55/95/4 58/101/4 57/102/4
f 60/103/26 54/99/26 56/97/26
f 51/104/1 58/105/1 49/93/1
f 49/93/1 59/106/1 50/92/1
f 50/92/1 60/94/1 52/107/1
f 51/104/1 60/94/1 57/96/1
f 52/107/4 63/1/4 50/92/4
f 49/93/26 61/2/26 51/104/26
f 51/104/5 64/4/5 52/107/5
f 73/108/5 68/109/5 74/110/5
f 71/111/1 68/109/1 67/112/1
f 69/113/3 76/114/3 75/115/3
f 65/116/2 70/117/2 69/113/2
f 65/118/26 75/115/26 73/119/26
f 70/117/4 74/120/4 76/114/4
f 76/114/35 68/121/35 72/122/35
f 73/119/36 71/111/36 67/123/36
f 75/115/3 72/122/3 71/111/3
f 73/108/5 66/124/5 65/125/5
f 2/5/2 4/38/2 17/6/2
f 14/8/3 18/44/3 23/9/3
f 16/11/4 5/24/4 10/12/4
f 8/14/5 12/39/5 6/15/5
f 20/17/1 24/41/1 11/18/1
f 8/14/14 3/16/14 1/37/14
f 3/21/15 6/126/15 4/38/15
f 6/23/16 12/27/16 10/12/16
f 12/39/17 8/14/17 9/19/17
f 20/17/18 9/19/18 7/40/18
f 11/28/19 24/35/19 22/13/19
f 24/41/20 20/17/20 21/10/20
f 14/8/21 21/10/21 19/42/21
f 23/9/22 18/44/22 16/11/22
f 18/44/23 14/8/23 15/7/23
f 2/5/24 15/7/24 13/45/24
f 17/32/25 4/22/25 5/24/25
f 1/46/26 13/43/26 19/42/26
f 41/48/5 28/66/5 26/49/5
f 47/51/2 42/91/2 38/52/2
f 34/54/26 29/127/26 40/55/26
f 30/57/1 36/88/1 32/58/1
f 35/60/3 48/90/3 44/61/3
f 25/63/19 27/65/19 32/70/19
f 28/84/17 30/57/17 27/59/17
f 34/86/18 36/88/18 30/57/18
f 33/62/20 32/58/20 36/88/20
f 31/69/22 33/71/22 44/80/22
f 46/89/21 48/90/21 35/60/21
f 45/53/23 44/61/23 48/90/23
f 43/79/25 45/53/25 38/52/25
f 40/55/24 42/91/24 47/51/24
f 39/50/15 38/52/15 42/91/15
f 37/74/16 39/76/16 26/64/16
f 29/67/14 28/66/14 41/48/14
f 43/79/4 37/74/4 25/63/4
f 50/92/3 63/1/3 62/3/3
f 60/94/3 56/97/3 55/95/3
f 56/97/2 54/99/2 53/98/2
f 54/99/5 59/128/5 58/100/5
f 55/95/4 53/98/4 58/101/4
f 60/103/26 59/129/26 54/99/26
f 51/104/1 57/96/1 58/105/1
f 49/93/1 58/105/1 59/106/1
f 50/92/1 59/106/1 60/94/1
f 51/104/1 52/107/1 60/94/1
f 52/107/4 64/4/4 63/1/4
f 49/93/26 62/3/26 61/2/26
f 51/104/5 61/2/5 64/4/5
f 73/108/5 67/112/5 68/109/5
f 71/111/1 72/122/1 68/109/1
f 69/113/3 70/117/3 76/114/3
f 65/116/2 66/130/2 70/117/2
f 65/118/26 69/113/26 75/115/26
f 70/117/4 66/131/4 74/120/4
f 76/114/35 74/120/35 68/121/35
f 73/119/36 75/115/36 71/111/36
f 75/115/3 76/114/3 72/122/3
f 73/108/5 74/110/5 66/124/5
