# Blender v3.2.0 OBJ File: 'Mouse1.blend'
# www.blender.org
mtllib Mouse1.mtl
o Mouse1_Torus
v -0.000000 -0.013067 -0.030315
v 0.007899 -0.009717 -0.032074
v -0.000000 -0.006367 -0.033832
v -0.007899 -0.009717 -0.032074
v -0.000000 -0.013094 -0.050717
v 0.007899 -0.009738 -0.048395
v -0.000000 -0.006383 -0.046073
v -0.007899 -0.009738 -0.048395
v -0.000000 0.003656 -0.059509
v 0.007899 0.003662 -0.055429
v -0.000000 0.003667 -0.051349
v -0.007899 0.003662 -0.055429
v -0.000000 0.020433 -0.047900
v 0.007899 0.017083 -0.046141
v -0.000000 0.013733 -0.044383
v -0.007899 0.017083 -0.046141
v -0.000000 0.020459 -0.027498
v 0.007899 0.017104 -0.029820
v -0.000000 0.013749 -0.032142
v -0.007899 0.017104 -0.029820
v -0.000000 0.003709 -0.018706
v 0.007899 0.003704 -0.022786
v -0.000000 0.003699 -0.026867
v -0.007899 0.003704 -0.022786
v -0.048077 -0.019176 0.025841
v 0.048077 -0.019176 0.025841
v -0.053917 -0.019176 0.076213
v 0.053917 -0.019176 0.076213
v -0.027779 -0.019176 0.115455
v 0.027779 -0.019176 0.115455
v -0.035057 -0.019176 -0.068641
v -0.057497 -0.019176 -0.042385
v 0.035057 -0.019176 -0.068641
v 0.057497 -0.019176 -0.042385
v 0.000000 -0.019176 0.025841
v 0.000000 0.027796 0.025841
v 0.000000 -0.019176 0.076213
v 0.000000 0.017871 0.076213
v 0.000000 -0.019176 0.115455
v -0.000000 -0.019176 -0.042385
v 0.000000 -0.019176 -0.078810
v 0.000000 0.016651 -0.026522
v -0.040012 0.027796 0.025841
v -0.048077 0.019845 0.025841
v 0.048077 0.019845 0.025841
v 0.040012 0.027796 0.025841
v -0.053917 0.009931 0.076213
v -0.045830 0.017871 0.076213
v 0.045830 0.017871 0.076213
v 0.053917 0.009931 0.076213
v -0.024060 -0.000610 0.108859
v -0.027779 -0.012269 0.115455
v 0.024060 -0.000610 0.108859
v 0.027779 -0.012270 0.115455
v -0.030237 0.001607 -0.063112
v -0.035057 -0.009550 -0.068641
v -0.057497 0.008098 -0.030309
v -0.049422 0.016651 -0.026522
v 0.049422 0.016651 -0.026522
v 0.057497 0.008098 -0.030309
v 0.030237 0.001607 -0.063112
v 0.035057 -0.009550 -0.068641
v 0.000000 -0.012256 0.115455
v 0.000000 -0.000610 0.108859
v 0.000000 0.000616 -0.071412
v 0.000000 -0.009552 -0.078810
vt 0.500000 0.500000
vt 0.666667 0.750000
vt 0.500000 0.750000
vt 0.666667 1.000000
vt 0.500000 1.000000
vt 0.666667 0.000000
vt 0.500000 0.250000
vt 0.500000 0.000000
vt 0.666667 0.250000
vt 0.833333 0.500000
vt 0.666667 0.500000
vt 0.833333 1.000000
vt 0.833333 0.000000
vt 0.833333 0.250000
vt 1.000000 0.500000
vt 0.833333 0.750000
vt 1.000000 0.750000
vt 1.000000 0.250000
vt -0.000000 0.500000
vt 0.166667 0.750000
vt -0.000000 0.750000
vt 0.166667 1.000000
vt -0.000000 1.000000
vt 0.166667 0.000000
vt -0.000000 0.250000
vt -0.000000 0.000000
vt 0.166667 0.250000
vt 0.333333 0.500000
vt 0.166667 0.500000
vt 0.333333 0.750000
vt 0.333333 0.250000
vt 0.333333 1.000000
vt 0.333333 0.000000
vt 0.854031 0.750000
vt 0.750000 0.750000
vt 0.750000 0.750000
vt 0.750000 0.574065
vt 0.645969 0.750000
vt 0.642555 0.574065
vt 0.565316 0.574065
vt 0.375000 0.750000
vt 0.375000 0.574065
vt 0.571417 0.750000
vt 0.375000 0.750000
vt 0.250000 0.750000
vt 0.375000 0.750000
vt 0.250000 0.750000
vt 0.250000 0.750000
vt 0.375000 0.000000
vt 0.565316 0.175935
vt 0.375000 0.175935
vt 0.491416 0.750000
vt 0.375000 0.875000
vt 0.846592 0.750000
vt 0.750000 0.750000
vt 0.653408 0.750000
vt 0.643748 0.750000
vt 0.492025 0.303703
vt 0.500976 0.375000
vt 0.492025 0.375000
vt 0.375000 0.375000
vt 0.500978 0.446297
vt 0.492025 0.446297
vt 0.250000 0.574065
vt 0.125000 0.750000
vt 0.125000 0.574065
vt 0.500978 0.303703
vt 0.375000 0.491935
vt 0.491416 1.000000
vt 0.375000 1.000000
vt 0.625000 0.375000
vt 0.527597 0.313551
vt 0.625000 0.274487
vt 0.375000 0.000000
vt 0.491416 0.000000
vt 0.571417 0.000000
vt 0.125000 0.750000
vt 0.125000 0.750000
vt 0.527597 0.436449
vt 0.524531 0.375000
vt 0.579364 0.750000
vt 0.625000 0.000000
vt 0.579364 0.000000
vt 0.625000 0.983266
vt 0.491640 0.875000
vt 0.625000 0.875000
vt 0.625000 0.000000
vt 0.516555 0.294336
vt 0.616926 0.184750
vt 0.516555 0.455664
vt 0.616926 0.565250
vt 0.625000 0.170145
vt 0.625000 0.000000
vt 0.625000 0.766734
vt 1.000000 1.000000
vt 1.000000 0.000000
vt 0.856252 0.750000
vt 0.857445 0.574065
vt 0.375000 0.258065
vt 0.375000 0.000000
vt 0.625000 0.475513
vn 0.3907 -0.9205 0.0012
vn 0.3907 0.9205 -0.0012
vn -0.3907 0.9205 -0.0012
vn -0.3907 -0.9205 0.0012
vn 0.4162 -0.4226 -0.8051
vn 0.4162 0.4226 0.8051
vn -0.4162 0.4226 0.8051
vn -0.4162 -0.4226 -0.8051
vn 0.3907 0.5238 -0.7570
vn 0.3907 -0.5238 0.7570
vn -0.3907 -0.5238 0.7570
vn -0.3907 0.5238 -0.7570
vn 0.0000 0.9811 0.1933
vn 0.0000 0.9781 -0.2082
vn 0.9888 -0.0604 0.1365
vn 0.9933 0.0000 -0.1152
vn -0.0000 -1.0000 -0.0000
vn -0.9888 -0.0604 0.1365
vn 0.0000 0.0000 1.0000
vn -0.0000 0.8702 0.4926
vn 0.8323 0.0000 0.5544
vn -0.2786 0.0000 -0.9604
vn 0.7793 0.2537 -0.5730
vn 0.2786 0.0000 -0.9604
vn -0.7793 0.2537 -0.5730
vn -0.0000 0.9249 -0.3803
vn -0.8323 -0.0000 0.5544
vn 0.0614 0.9399 -0.3358
vn 0.7008 0.7109 0.0591
vn -0.6994 0.7123 0.0591
vn -0.0000 0.4928 0.8701
vn -0.5273 0.5395 0.6564
vn 0.5273 0.5395 0.6564
vn -0.4816 0.6925 -0.5372
vn 0.4816 0.6925 -0.5372
vn -0.1987 0.5766 -0.7925
vn -0.7018 0.7119 -0.0254
vn 0.7018 0.7119 -0.0254
vn 0.0002 0.4925 0.8703
vn 0.2392 0.5122 -0.8249
vn -0.9933 0.0000 -0.1152
vn 0.9862 0.0000 0.1654
vn -0.9862 0.0000 0.1654
vn 0.7602 0.0000 -0.6497
vn -0.7602 0.0000 -0.6497
vn -0.0614 0.9399 -0.3358
vn 0.6994 0.7123 0.0591
vn -0.7008 0.7109 0.0591
vn -0.0002 0.4925 0.8703
vn -0.5283 0.5380 0.6569
vn 0.5283 0.5380 0.6569
vn -0.5864 0.5487 -0.5959
vn 0.5864 0.5487 -0.5959
vn -0.2392 0.5122 -0.8249
vn -0.7217 0.6918 -0.0237
vn 0.7217 0.6918 -0.0237
vn 0.1987 0.5766 -0.7925
usemtl PlasticMouse1
s off
f 1/1/1 6/2/1 2/3/1
f 2/3/2 7/4/2 3/5/2
f 7/6/3 4/7/3 3/8/3
f 8/9/4 1/1/4 4/7/4
f 9/10/5 6/2/5 5/11/5
f 6/2/6 11/12/6 7/4/6
f 11/13/7 8/9/7 7/6/7
f 12/14/8 5/11/8 8/9/8
f 13/15/9 10/16/9 9/10/9
f 14/17/10 11/12/10 10/16/10
f 11/13/11 16/18/11 12/14/11
f 12/14/12 13/15/12 9/10/12
f 13/19/2 18/20/2 14/21/2
f 14/21/1 19/22/1 15/23/1
f 19/24/4 16/25/4 15/26/4
f 20/27/3 13/19/3 16/25/3
f 21/28/6 18/20/6 17/29/6
f 22/30/5 19/22/5 18/20/5
f 19/24/8 24/31/8 20/27/8
f 24/31/7 17/29/7 20/27/7
f 1/1/10 22/30/10 21/28/10
f 2/3/9 23/32/9 22/30/9
f 23/33/12 4/7/12 24/31/12
f 24/31/11 1/1/11 21/28/11
f 43/34/13 38/35/13 36/36/13
f 42/37/14 46/38/14 59/39/14
f 60/40/15 26/41/15 34/42/15
f 26/41/16 50/43/16 28/44/16
f 37/45/17 30/46/17 39/47/17
f 42/37/14 43/34/14 36/36/14
f 26/41/17 37/45/17 35/48/17
f 25/49/18 57/50/18 32/51/18
f 54/52/19 39/53/19 30/46/19
f 38/35/20 51/54/20 64/55/20
f 28/44/21 54/52/21 30/46/21
f 38/35/20 53/56/20 49/57/20
f 31/58/22 66/59/22 41/60/22
f 40/61/17 31/58/17 41/60/17
f 34/42/23 62/62/23 60/40/23
f 66/59/24 33/63/24 41/60/24
f 40/64/17 26/41/17 35/48/17
f 40/64/17 25/65/17 32/66/17
f 56/67/25 32/51/25 57/50/25
f 40/61/17 33/63/17 34/68/17
f 39/53/19 52/69/19 29/70/19
f 42/71/26 55/72/26 58/73/26
f 27/74/27 52/75/27 47/76/27
f 25/65/17 37/45/17 27/77/17
f 37/45/17 29/78/17 27/77/17
f 46/38/13 38/35/13 49/57/13
f 42/71/28 61/79/28 65/80/28
f 49/57/29 45/81/29 46/38/29
f 48/82/30 44/83/30 47/76/30
f 51/84/31 63/85/31 64/86/31
f 51/87/32 47/76/32 52/75/32
f 50/43/33 53/56/33 54/52/33
f 55/88/34 57/50/34 58/89/34
f 60/40/35 61/90/35 59/91/35
f 66/59/36 55/72/36 65/80/36
f 58/92/37 44/83/37 43/93/37
f 45/81/38 59/39/38 46/38/38
f 53/94/39 63/85/39 54/52/39
f 66/59/40 61/79/40 62/62/40
f 25/49/41 47/76/41 44/83/41
f 1/1/1 5/11/1 6/2/1
f 2/3/2 6/2/2 7/4/2
f 7/6/3 8/9/3 4/7/3
f 8/9/4 5/11/4 1/1/4
f 9/10/5 10/16/5 6/2/5
f 6/2/6 10/16/6 11/12/6
f 11/13/7 12/14/7 8/9/7
f 12/14/8 9/10/8 5/11/8
f 13/15/9 14/17/9 10/16/9
f 14/17/10 15/95/10 11/12/10
f 11/13/11 15/96/11 16/18/11
f 12/14/12 16/18/12 13/15/12
f 13/19/2 17/29/2 18/20/2
f 14/21/1 18/20/1 19/22/1
f 19/24/4 20/27/4 16/25/4
f 20/27/3 17/29/3 13/19/3
f 21/28/6 22/30/6 18/20/6
f 22/30/5 23/32/5 19/22/5
f 19/24/8 23/33/8 24/31/8
f 24/31/7 21/28/7 17/29/7
f 1/1/10 2/3/10 22/30/10
f 2/3/9 3/5/9 23/32/9
f 23/33/12 3/8/12 4/7/12
f 24/31/11 4/7/11 1/1/11
f 43/34/13 48/97/13 38/35/13
f 42/37/14 36/36/14 46/38/14
f 60/40/42 45/81/42 26/41/42
f 26/41/16 45/81/16 50/43/16
f 37/45/17 28/44/17 30/46/17
f 42/37/14 58/98/14 43/34/14
f 26/41/17 28/44/17 37/45/17
f 25/49/43 44/83/43 57/50/43
f 54/52/19 63/85/19 39/53/19
f 38/35/20 48/97/20 51/54/20
f 28/44/21 50/43/21 54/52/21
f 38/35/20 64/55/20 53/56/20
f 31/58/22 56/67/22 66/59/22
f 40/61/17 32/99/17 31/58/17
f 34/42/44 33/63/44 62/62/44
f 66/59/24 62/62/24 33/63/24
f 40/64/17 34/42/17 26/41/17
f 40/64/17 35/48/17 25/65/17
f 56/67/45 31/58/45 32/51/45
f 40/61/17 41/60/17 33/63/17
f 39/53/19 63/85/19 52/69/19
f 42/71/46 65/80/46 55/72/46
f 27/74/27 29/100/27 52/75/27
f 25/65/17 35/48/17 37/45/17
f 37/45/17 39/47/17 29/78/17
f 46/38/13 36/36/13 38/35/13
f 42/71/26 59/101/26 61/79/26
f 49/57/47 50/43/47 45/81/47
f 48/82/48 43/93/48 44/83/48
f 51/84/49 52/69/49 63/85/49
f 51/87/50 48/82/50 47/76/50
f 50/43/51 49/57/51 53/56/51
f 55/88/52 56/67/52 57/50/52
f 60/40/53 62/62/53 61/90/53
f 66/59/54 56/67/54 55/72/54
f 58/92/55 57/50/55 44/83/55
f 45/81/56 60/40/56 59/39/56
f 53/94/31 64/86/31 63/85/31
f 66/59/57 65/80/57 61/79/57
f 25/49/41 27/74/41 47/76/41
