# Blender v3.2.0 OBJ File: 'OpenBaseCabinet1.blend'
# www.blender.org
mtllib OpenBaseCabinet1.mtl
o OpenBaseCabinet1_Cube.002
v -0.206322 0.320707 0.271741
v -0.234060 0.348445 -0.313552
v 0.206322 0.320707 0.271741
v 0.234060 0.348445 -0.313552
v -0.234060 0.348446 0.271741
v 0.234060 0.348446 0.271741
v -0.206322 0.320707 -0.299187
v 0.206322 0.320707 -0.299187
v -0.206322 -0.407344 0.271741
v -0.234060 -0.435082 -0.313552
v 0.206322 -0.407344 0.271741
v 0.234060 -0.435082 -0.313552
v -0.234060 -0.435082 0.271741
v 0.234060 -0.435082 0.271741
v -0.206322 -0.407344 -0.299187
v 0.206322 -0.407344 -0.299187
v -0.234060 0.348446 0.154682
v 0.234060 0.348446 0.154682
v -0.234060 -0.435082 0.154682
v 0.234060 -0.435082 0.154682
v 0.234060 -0.529994 -0.313552
v -0.234060 -0.529994 -0.313552
v 0.234060 -0.529994 0.154682
v -0.234060 -0.529994 0.154682
v -0.243139 0.348446 0.159223
v -0.243139 0.348445 -0.327175
v 0.243139 0.348445 -0.327175
v 0.243139 0.348446 0.159223
v 0.243139 0.348446 0.280823
v -0.243139 0.348446 0.280823
v -0.243139 0.378127 0.159223
v -0.243139 0.378127 -0.327175
v 0.243139 0.378127 -0.327175
v 0.243139 0.378127 0.159223
v 0.243139 0.378127 0.280823
v -0.243139 0.378127 0.280823
v -0.222287 0.130219 0.266332
v -0.222287 0.143145 0.266332
v -0.222287 0.130219 -0.305952
v -0.222287 0.143145 -0.305952
v 0.222287 0.130219 0.266332
v 0.222287 0.143145 0.266332
v 0.222287 0.130219 -0.305952
v 0.222287 0.143145 -0.305952
v -0.222287 -0.063675 0.266332
v -0.222287 -0.050749 0.266332
v -0.222287 -0.063675 -0.305952
v -0.222287 -0.050749 -0.305952
v 0.222287 -0.063675 0.266332
v 0.222287 -0.050749 0.266332
v 0.222287 -0.063675 -0.305952
v 0.222287 -0.050749 -0.305952
v -0.222287 -0.257570 0.266332
v -0.222287 -0.244643 0.266332
v -0.222287 -0.257570 -0.305952
v -0.222287 -0.244643 -0.305952
v 0.222287 -0.257570 0.266332
v 0.222287 -0.244643 0.266332
v 0.222287 -0.257570 -0.305952
v 0.222287 -0.244643 -0.305952
vt 0.375000 0.500000
vt 0.625000 0.250000
vt 0.625000 0.500000
vt 0.375000 0.700000
vt 0.625000 0.700000
vt 0.375000 1.000000
vt 0.617238 0.985186
vt 0.625000 1.000000
vt 0.617238 0.764814
vt 0.382762 0.764814
vt 0.382762 0.764814
vt 0.382762 0.985186
vt 0.617238 0.985186
vt 0.625000 0.750000
vt 0.617238 0.764814
vt 0.382762 0.985186
vt 0.125000 0.750000
vt 0.125000 0.700000
vt 0.375000 0.750000
vt 0.375000 0.050000
vt 0.625000 0.000000
vt 0.625000 0.050000
vt 0.375000 0.250000
vt 0.375000 0.250000
vt 0.375000 0.500000
vt 0.125000 0.700000
vt 0.125000 0.500000
vt 0.375000 0.700000
vt 0.375000 0.050000
vt 0.625000 0.000000
vt 0.375000 0.250000
vt 0.375000 0.000000
vt 0.625000 0.250000
vt 0.375000 0.500000
vt 0.625000 0.500000
vt 0.375000 0.750000
vt 0.625000 0.750000
vt 0.375000 1.000000
vt 0.125000 0.750000
vt 0.125000 0.500000
vt 0.875000 0.500000
vt 0.625000 0.000000
vt 0.375000 0.250000
vt 0.375000 0.000000
vt 0.625000 0.250000
vt 0.375000 0.500000
vt 0.625000 0.500000
vt 0.375000 0.750000
vt 0.625000 0.750000
vt 0.375000 1.000000
vt 0.125000 0.750000
vt 0.125000 0.500000
vt 0.875000 0.500000
vt 0.625000 0.000000
vt 0.375000 0.250000
vt 0.375000 0.000000
vt 0.625000 0.250000
vt 0.375000 0.500000
vt 0.625000 0.500000
vt 0.375000 0.750000
vt 0.625000 0.750000
vt 0.375000 1.000000
vt 0.125000 0.750000
vt 0.125000 0.500000
vt 0.875000 0.500000
vt 0.375000 0.000000
vt 0.625000 1.000000
vt 0.875000 0.750000
vt 0.625000 1.000000
vt 0.875000 0.750000
vt 0.625000 1.000000
vt 0.875000 0.750000
vt 0.625000 0.700000
vt 0.625000 0.050000
vt 0.625000 0.250000
vt 0.625000 0.500000
vt 0.625000 0.700000
vt 0.625000 0.250000
vt 0.625000 1.000000
vt 0.625000 0.750000
vt 0.875000 0.700000
vt 0.625000 0.750000
vt 0.625000 0.500000
vt 0.625000 1.000000
vt 0.625000 0.000000
vt 0.625000 0.050000
vt 0.875000 0.750000
vt 0.875000 0.500000
vt 0.625000 0.000000
vn 0.0000 -0.0000 -1.0000
vn 1.0000 0.0000 0.0000
vn 0.0000 0.0000 1.0000
vn -1.0000 0.0000 0.0000
vn 0.0000 -1.0000 0.0000
vn 0.0000 1.0000 0.0000
usemtl WoodOpenBaseCabinet1
s off
f 12/1/1 2/2/1 4/3/1
f 20/4/2 4/3/2 18/5/2
f 13/6/3 1/7/3 5/8/3
f 3/9/4 16/10/4 11/11/4
f 1/7/2 15/12/2 7/13/2
f 11/11/3 6/14/3 3/9/3
f 7/13/3 16/10/3 8/15/3
f 3/9/3 5/8/3 1/7/3
f 1/7/5 8/15/5 3/9/5
f 11/11/6 15/12/6 9/16/6
f 20/4/5 13/17/5 19/18/5
f 9/16/3 14/19/3 11/11/3
f 19/20/4 5/21/4 17/22/4
f 10/23/4 17/22/4 2/2/4
f 12/1/1 22/24/1 10/23/1
f 14/19/2 18/5/2 6/14/2
f 21/25/5 24/26/5 22/27/5
f 19/18/3 23/28/3 20/4/3
f 20/4/2 21/25/2 12/1/2
f 10/23/4 24/29/4 19/20/4
f 38/30/4 39/31/4 37/32/4
f 40/33/1 43/34/1 39/31/1
f 44/35/2 41/36/2 43/34/2
f 42/37/3 37/38/3 41/36/3
f 43/34/5 37/39/5 39/40/5
f 40/41/6 42/37/6 44/35/6
f 46/42/4 47/43/4 45/44/4
f 48/45/1 51/46/1 47/43/1
f 52/47/2 49/48/2 51/46/2
f 50/49/3 45/50/3 49/48/3
f 51/46/5 45/51/5 47/52/5
f 48/53/6 50/49/6 52/47/6
f 54/54/4 55/55/4 53/56/4
f 56/57/1 59/58/1 55/55/1
f 60/59/2 57/60/2 59/58/2
f 58/61/3 53/62/3 57/60/3
f 59/58/5 53/63/5 55/64/5
f 56/65/6 58/61/6 60/59/6
f 12/1/1 10/23/1 2/2/1
f 20/4/2 12/1/2 4/3/2
f 13/6/3 9/16/3 1/7/3
f 3/9/4 8/15/4 16/10/4
f 1/7/2 9/16/2 15/12/2
f 11/11/3 14/19/3 6/14/3
f 7/13/3 15/12/3 16/10/3
f 3/9/3 6/14/3 5/8/3
f 1/7/5 7/13/5 8/15/5
f 11/11/6 16/10/6 15/12/6
f 20/4/5 14/19/5 13/17/5
f 9/16/3 13/6/3 14/19/3
f 19/20/4 13/66/4 5/21/4
f 10/23/4 19/20/4 17/22/4
f 12/1/1 21/25/1 22/24/1
f 14/19/2 20/4/2 18/5/2
f 21/25/5 23/28/5 24/26/5
f 19/18/3 24/26/3 23/28/3
f 20/4/2 23/28/2 21/25/2
f 10/23/4 22/24/4 24/29/4
f 38/30/4 40/33/4 39/31/4
f 40/33/1 44/35/1 43/34/1
f 44/35/2 42/37/2 41/36/2
f 42/37/3 38/67/3 37/38/3
f 43/34/5 41/36/5 37/39/5
f 40/41/6 38/68/6 42/37/6
f 46/42/4 48/45/4 47/43/4
f 48/45/1 52/47/1 51/46/1
f 52/47/2 50/49/2 49/48/2
f 50/49/3 46/69/3 45/50/3
f 51/46/5 49/48/5 45/51/5
f 48/53/6 46/70/6 50/49/6
f 54/54/4 56/57/4 55/55/4
f 56/57/1 60/59/1 59/58/1
f 60/59/2 58/61/2 57/60/2
f 58/61/3 54/71/3 53/62/3
f 59/58/5 57/60/5 53/63/5
f 56/65/6 54/72/6 58/61/6
usemtl MarbleOpenBaseCabinet1
f 4/3/5 28/73/5 18/5/5
f 2/2/5 25/74/5 26/75/5
f 27/76/2 34/77/2 28/73/2
f 25/74/4 32/78/4 26/75/4
f 2/2/5 27/76/5 4/3/5
f 5/21/5 25/74/5 17/22/5
f 6/14/5 30/79/5 5/8/5
f 6/14/5 28/73/5 29/80/5
f 31/81/6 35/82/6 34/77/6
f 33/83/6 31/81/6 34/77/6
f 29/80/3 36/84/3 30/79/3
f 26/75/1 33/83/1 27/76/1
f 30/85/4 31/86/4 25/74/4
f 28/73/2 35/82/2 29/80/2
f 4/3/5 27/76/5 28/73/5
f 2/2/5 17/22/5 25/74/5
f 27/76/2 33/83/2 34/77/2
f 25/74/4 31/86/4 32/78/4
f 2/2/5 26/75/5 27/76/5
f 5/21/5 30/85/5 25/74/5
f 6/14/5 29/80/5 30/79/5
f 6/14/5 18/5/5 28/73/5
f 31/81/6 36/87/6 35/82/6
f 33/83/6 32/88/6 31/81/6
f 29/80/3 35/82/3 36/84/3
f 26/75/1 32/78/1 33/83/1
f 30/85/4 36/89/4 31/86/4
f 28/73/2 34/77/2 35/82/2
