# Blender v3.2.0 OBJ File: 'OpenDoorTallCabinet1.blend'
# www.blender.org
mtllib OpenDoorTallCabinet1.mtl
o OpenDoorTallCabinet1_Cube.002
v -0.440545 -0.900854 0.312041
v -0.468283 -0.928592 -0.374171
v -0.027902 -0.900854 0.312041
v -0.000000 -0.928592 -0.374171
v -0.468283 -0.928592 0.312041
v -0.000000 -0.928592 0.312041
v -0.440545 -0.900854 -0.359806
v -0.027902 -0.900854 -0.359806
v -0.468283 -0.928592 0.194064
v -0.000000 -0.928592 0.194064
v -0.000000 -1.023504 -0.374171
v -0.468283 -1.023504 -0.374171
v -0.000000 -1.023504 0.194064
v -0.468283 -1.023504 0.194064
v -0.468535 0.766002 -0.374171
v -0.000000 0.766002 -0.374171
v -0.027902 0.766002 -0.359806
v -0.027902 0.766002 0.312041
v -0.440545 0.766002 -0.359806
v -0.468535 0.766002 0.312041
v -0.000000 0.766002 0.312041
v -0.440545 0.766002 0.312041
v -0.468535 0.766002 0.194064
v -0.000000 0.766002 0.194064
v -0.027902 -0.900854 0.191919
v -0.440545 -0.900854 0.191919
v -0.440545 0.766002 0.191919
v -0.027902 0.766002 0.191919
v -0.000000 0.734939 -0.374171
v -0.027902 0.736326 -0.359806
v -0.440545 0.736326 -0.359806
v -0.000000 0.734939 0.312041
v -0.468522 0.734939 -0.374171
v -0.027902 0.736326 0.312041
v -0.468522 0.734939 0.312041
v -0.440545 0.736326 0.312041
v -0.468522 0.734939 0.194064
v -0.440545 0.736326 0.191919
v -0.027902 0.736326 0.191919
v -0.459758 -0.654629 0.296022
v -0.459758 -0.629899 0.296022
v -0.459758 -0.654629 -0.364236
v -0.459758 -0.629899 -0.364236
v -0.008688 -0.654629 0.296022
v -0.008688 -0.629899 0.296022
v -0.008688 -0.654629 -0.364236
v -0.008688 -0.629899 -0.364236
v -0.459758 -0.283671 0.296022
v -0.459758 -0.258940 0.296022
v -0.459758 -0.283671 -0.364236
v -0.459758 -0.258940 -0.364236
v -0.008688 -0.283671 0.296022
v -0.008688 -0.258940 0.296022
v -0.008688 -0.283671 -0.364236
v -0.008688 -0.258940 -0.364236
v -0.459758 0.087288 0.296022
v -0.459758 0.112019 0.296022
v -0.459758 0.087288 -0.364236
v -0.459758 0.112019 -0.364236
v -0.008688 0.087288 0.296022
v -0.008688 0.112019 0.296022
v -0.008688 0.087288 -0.364236
v -0.008688 0.112019 -0.364236
v -0.459758 0.458247 0.296022
v -0.459758 0.482977 0.296022
v -0.459758 0.458247 -0.364236
v -0.459758 0.482977 -0.364236
v -0.008688 0.458247 0.296022
v -0.008688 0.482977 0.296022
v -0.008688 0.458247 -0.364236
v -0.008688 0.482977 -0.364236
v 0.440545 -0.900854 0.312041
v 0.468283 -0.928592 -0.374171
v 0.027902 -0.900854 0.312041
v 0.468283 -0.928592 0.312041
v 0.440545 -0.900854 -0.359806
v 0.027902 -0.900854 -0.359806
v 0.468283 -0.928592 0.194064
v 0.468283 -1.023504 -0.374171
v 0.468283 -1.023504 0.194064
v 0.468534 0.766002 -0.374171
v 0.027902 0.766002 -0.359806
v 0.027902 0.766002 0.312041
v 0.440545 0.766002 -0.359806
v 0.468534 0.766002 0.312041
v 0.440545 0.766002 0.312041
v 0.468534 0.766002 0.194064
v 0.027902 -0.900854 0.191919
v 0.440545 -0.900854 0.191919
v 0.440545 0.766002 0.191919
v 0.027902 0.766002 0.191919
v 0.027902 0.736326 -0.359806
v 0.440545 0.736326 -0.359806
v 0.468522 0.734939 -0.374171
v 0.027902 0.736326 0.312041
v 0.468522 0.734939 0.312041
v 0.440545 0.736326 0.312041
v 0.468522 0.734939 0.194064
v 0.440545 0.736326 0.191919
v 0.027902 0.736326 0.191919
v 0.459758 -0.654629 0.296022
v 0.459758 -0.629899 0.296022
v 0.459758 -0.654629 -0.364236
v 0.459758 -0.629899 -0.364236
v 0.008688 -0.654629 0.296022
v 0.008688 -0.629899 0.296022
v 0.008688 -0.654629 -0.364236
v 0.008688 -0.629899 -0.364236
v 0.459758 -0.283671 0.296022
v 0.459758 -0.258940 0.296022
v 0.459758 -0.283671 -0.364236
v 0.459758 -0.258940 -0.364236
v 0.008688 -0.283671 0.296022
v 0.008688 -0.258940 0.296022
v 0.008688 -0.283671 -0.364236
v 0.008688 -0.258940 -0.364236
v 0.459758 0.087288 0.296022
v 0.459758 0.112019 0.296022
v 0.459758 0.087288 -0.364236
v 0.459758 0.112019 -0.364236
v 0.008688 0.087288 0.296022
v 0.008688 0.112019 0.296022
v 0.008688 0.087288 -0.364236
v 0.008688 0.112019 -0.364236
v 0.459758 0.458247 0.296022
v 0.459758 0.482977 0.296022
v 0.459758 0.458247 -0.364236
v 0.459758 0.482977 -0.364236
v 0.008688 0.458247 0.296022
v 0.008688 0.482977 0.296022
v 0.008688 0.458247 -0.364236
v 0.008688 0.482977 -0.364236
vt 0.546475 0.500000
vt 0.375000 0.250000
vt 0.546475 0.250000
vt 0.546475 1.000000
vt 0.382762 0.985186
vt 0.543589 0.985186
vt 0.543589 0.764814
vt 0.382762 0.764814
vt 0.543589 0.764814
vt 0.382762 0.985186
vt 0.543589 0.985186
vt 0.543589 0.985186
vt 0.382762 0.764814
vt 0.546475 0.750000
vt 0.543589 0.764814
vt 0.382762 0.764814
vt 0.382762 0.985186
vt 0.375000 0.700000
vt 0.125000 0.750000
vt 0.125000 0.700000
vt 0.375000 1.000000
vt 0.375000 0.750000
vt 0.375000 0.050000
vt 0.546475 0.000000
vt 0.546475 0.050000
vt 0.375000 0.500000
vt 0.375000 0.250000
vt 0.375000 0.500000
vt 0.125000 0.700000
vt 0.125000 0.500000
vt 0.375000 0.700000
vt 0.375000 0.050000
vt 0.552053 0.985186
vt 0.555500 0.500000
vt 0.555500 0.250000
vt 0.555500 0.050000
vt 0.552053 0.985186
vt 0.552053 0.985186
vt 0.552053 0.764814
vt 0.555500 0.700000
vt 0.552053 0.764814
vt 0.555500 0.750000
vt 0.552053 0.764814
vt 0.555500 0.000000
vt 0.555500 1.000000
vt 0.625000 0.000000
vt 0.375000 0.250000
vt 0.375000 0.000000
vt 0.625000 0.250000
vt 0.375000 0.500000
vt 0.625000 0.500000
vt 0.375000 0.750000
vt 0.625000 0.750000
vt 0.375000 1.000000
vt 0.125000 0.750000
vt 0.125000 0.500000
vt 0.875000 0.500000
vt 0.625000 0.000000
vt 0.375000 0.250000
vt 0.375000 0.000000
vt 0.625000 0.250000
vt 0.375000 0.500000
vt 0.625000 0.500000
vt 0.375000 0.750000
vt 0.625000 0.750000
vt 0.375000 1.000000
vt 0.125000 0.750000
vt 0.125000 0.500000
vt 0.875000 0.500000
vt 0.625000 0.000000
vt 0.375000 0.250000
vt 0.375000 0.000000
vt 0.625000 0.250000
vt 0.375000 0.500000
vt 0.625000 0.500000
vt 0.375000 0.750000
vt 0.625000 0.750000
vt 0.375000 1.000000
vt 0.125000 0.750000
vt 0.125000 0.500000
vt 0.875000 0.500000
vt 0.625000 0.000000
vt 0.375000 0.250000
vt 0.375000 0.000000
vt 0.625000 0.250000
vt 0.375000 0.500000
vt 0.625000 0.500000
vt 0.375000 0.750000
vt 0.625000 0.750000
vt 0.375000 1.000000
vt 0.125000 0.750000
vt 0.125000 0.500000
vt 0.875000 0.500000
vt 0.375000 0.250000
vt 0.546475 1.000000
vt 0.382762 0.985186
vt 0.375000 1.000000
vt 0.382762 0.764814
vt 0.543589 0.764814
vt 0.543589 0.764814
vt 0.543589 0.985186
vt 0.382762 0.985186
vt 0.543589 0.985186
vt 0.382762 0.764814
vt 0.543589 0.764814
vt 0.382762 0.764814
vt 0.382762 0.985186
vt 0.125000 0.750000
vt 0.125000 0.700000
vt 0.546475 0.000000
vt 0.375000 0.050000
vt 0.546475 0.050000
vt 0.546475 0.250000
vt 0.375000 0.250000
vt 0.125000 0.700000
vt 0.125000 0.500000
vt 0.375000 0.050000
vt 0.552053 0.985186
vt 0.555500 0.250000
vt 0.543589 0.985186
vt 0.555500 0.050000
vt 0.552053 0.985186
vt 0.555500 1.000000
vt 0.552053 0.764814
vt 0.552053 0.764814
vt 0.552053 0.764814
vt 0.552053 0.985186
vt 0.555500 0.000000
vt 0.375000 0.250000
vt 0.625000 0.000000
vt 0.375000 0.000000
vt 0.375000 0.500000
vt 0.625000 0.250000
vt 0.375000 0.750000
vt 0.625000 0.500000
vt 0.375000 1.000000
vt 0.625000 0.750000
vt 0.125000 0.750000
vt 0.125000 0.500000
vt 0.875000 0.500000
vt 0.375000 0.250000
vt 0.625000 0.000000
vt 0.375000 0.000000
vt 0.375000 0.500000
vt 0.625000 0.250000
vt 0.375000 0.750000
vt 0.625000 0.500000
vt 0.375000 1.000000
vt 0.625000 0.750000
vt 0.125000 0.750000
vt 0.125000 0.500000
vt 0.875000 0.500000
vt 0.375000 0.250000
vt 0.625000 0.000000
vt 0.375000 0.000000
vt 0.375000 0.500000
vt 0.625000 0.250000
vt 0.375000 0.750000
vt 0.625000 0.500000
vt 0.375000 1.000000
vt 0.625000 0.750000
vt 0.125000 0.750000
vt 0.125000 0.500000
vt 0.875000 0.500000
vt 0.375000 0.250000
vt 0.625000 0.000000
vt 0.375000 0.000000
vt 0.375000 0.500000
vt 0.625000 0.250000
vt 0.375000 0.750000
vt 0.625000 0.500000
vt 0.375000 1.000000
vt 0.625000 0.750000
vt 0.125000 0.750000
vt 0.125000 0.500000
vt 0.875000 0.500000
vt 0.375000 0.000000
vt 0.625000 1.000000
vt 0.875000 0.750000
vt 0.625000 1.000000
vt 0.875000 0.750000
vt 0.625000 1.000000
vt 0.875000 0.750000
vt 0.625000 1.000000
vt 0.875000 0.750000
vt 0.375000 0.000000
vt 0.625000 1.000000
vt 0.875000 0.750000
vt 0.625000 1.000000
vt 0.875000 0.750000
vt 0.625000 1.000000
vt 0.875000 0.750000
vt 0.625000 1.000000
vt 0.875000 0.750000
vn 0.0000 -0.0000 -1.0000
vn 0.0000 0.0000 1.0000
vn -1.0000 0.0000 0.0000
vn 1.0000 -0.0000 0.0000
vn 0.0000 1.0000 -0.0000
vn 0.0000 -1.0000 -0.0000
vn -1.0000 -0.0001 0.0000
vn -1.0000 -0.0004 0.0000
vn 1.0000 -0.0001 0.0000
vn 1.0000 -0.0004 0.0000
usemtl WoodOpenDoorTallCabinet1
s off
f 29/1/1 2/2/1 33/3/1
f 35/4/2 1/5/2 36/6/2
f 30/7/3 25/8/3 39/9/3
f 26/10/4 31/11/4 38/12/4
f 3/13/2 32/14/2 34/15/2
f 31/11/2 8/16/2 30/7/2
f 25/8/5 7/17/5 26/10/5
f 10/18/6 5/19/6 9/20/6
f 3/13/2 5/21/2 6/22/2
f 9/23/7 35/24/7 37/25/7
f 33/3/7 9/23/7 37/25/7
f 4/26/1 12/27/1 2/2/1
f 11/28/6 14/29/6 12/30/6
f 9/20/2 13/31/2 10/18/2
f 10/18/4 11/28/4 4/26/4
f 2/2/3 14/32/3 9/23/3
f 19/33/5 16/34/5 15/35/5
f 3/13/5 26/10/5 1/5/5
f 1/5/4 38/12/4 36/6/4
f 39/9/3 3/13/3 34/15/3
f 23/36/5 22/37/5 27/38/5
f 19/33/5 23/36/5 27/38/5
f 17/39/5 24/40/5 16/34/5
f 24/40/5 18/41/5 21/42/5
f 22/37/5 28/43/5 27/38/5
f 27/38/5 17/39/5 19/33/5
f 33/3/8 23/36/8 15/35/8
f 37/25/8 20/44/8 23/36/8
f 19/33/2 30/7/2 17/39/2
f 34/15/2 21/42/2 18/41/2
f 31/11/6 39/9/6 38/12/6
f 38/12/6 34/15/6 36/6/6
f 20/45/2 36/6/2 22/37/2
f 16/34/1 33/3/1 15/35/1
f 36/6/2 18/41/2 22/37/2
f 41/46/3 42/47/3 40/48/3
f 43/49/1 46/50/1 42/47/1
f 47/51/4 44/52/4 46/50/4
f 45/53/2 40/54/2 44/52/2
f 46/50/6 40/55/6 42/56/6
f 43/57/5 45/53/5 47/51/5
f 49/58/3 50/59/3 48/60/3
f 51/61/1 54/62/1 50/59/1
f 55/63/4 52/64/4 54/62/4
f 53/65/2 48/66/2 52/64/2
f 54/62/6 48/67/6 50/68/6
f 51/69/5 53/65/5 55/63/5
f 57/70/3 58/71/3 56/72/3
f 59/73/1 62/74/1 58/71/1
f 63/75/4 60/76/4 62/74/4
f 61/77/2 56/78/2 60/76/2
f 62/74/6 56/79/6 58/80/6
f 59/81/5 61/77/5 63/75/5
f 65/82/3 66/83/3 64/84/3
f 67/85/1 70/86/1 66/83/1
f 71/87/4 68/88/4 70/86/4
f 69/89/2 64/90/2 68/88/2
f 70/86/6 64/91/6 66/92/6
f 67/93/5 69/89/5 71/87/5
f 29/1/1 73/94/1 4/26/1
f 96/95/2 72/96/2 75/97/2
f 88/98/4 92/99/4 100/100/4
f 93/101/3 89/102/3 99/103/3
f 32/14/2 74/104/2 95/105/2
f 77/106/2 93/101/2 92/99/2
f 76/107/5 88/98/5 89/102/5
f 75/108/6 10/18/6 78/109/6
f 74/104/2 75/97/2 72/96/2
f 96/110/9 78/111/9 98/112/9
f 94/113/9 78/111/9 73/94/9
f 79/114/1 4/26/1 73/94/1
f 80/115/6 11/28/6 79/116/6
f 13/31/2 78/109/2 10/18/2
f 80/117/4 73/94/4 78/111/4
f 16/34/5 84/118/5 81/119/5
f 89/102/5 74/104/5 72/96/5
f 99/103/3 72/96/3 97/120/3
f 74/104/4 100/100/4 95/105/4
f 87/121/5 86/122/5 85/123/5
f 84/118/5 87/121/5 81/119/5
f 82/124/5 24/40/5 91/125/5
f 83/126/5 24/40/5 21/42/5
f 91/125/5 86/122/5 90/127/5
f 82/124/5 90/127/5 84/118/5
f 87/121/10 94/113/10 81/119/10
f 85/128/10 98/112/10 87/121/10
f 92/99/2 84/118/2 82/124/2
f 21/42/2 95/105/2 83/126/2
f 100/100/6 93/101/6 99/103/6
f 95/105/6 99/103/6 97/120/6
f 85/123/2 97/120/2 96/95/2
f 16/34/1 94/113/1 29/1/1
f 83/126/2 97/120/2 86/122/2
f 103/129/4 102/130/4 101/131/4
f 107/132/1 104/133/1 103/129/1
f 105/134/3 108/135/3 107/132/3
f 101/136/2 106/137/2 105/134/2
f 101/138/6 107/132/6 103/139/6
f 106/137/5 104/140/5 108/135/5
f 111/141/4 110/142/4 109/143/4
f 115/144/1 112/145/1 111/141/1
f 113/146/3 116/147/3 115/144/3
f 109/148/2 114/149/2 113/146/2
f 109/150/6 115/144/6 111/151/6
f 114/149/5 112/152/5 116/147/5
f 119/153/4 118/154/4 117/155/4
f 123/156/1 120/157/1 119/153/1
f 121/158/3 124/159/3 123/156/3
f 117/160/2 122/161/2 121/158/2
f 117/162/6 123/156/6 119/163/6
f 122/161/5 120/164/5 124/159/5
f 127/165/4 126/166/4 125/167/4
f 131/168/1 128/169/1 127/165/1
f 129/170/3 132/171/3 131/168/3
f 125/172/2 130/173/2 129/170/2
f 125/174/6 131/168/6 127/175/6
f 130/173/5 128/176/5 132/171/5
f 29/1/1 4/26/1 2/2/1
f 35/4/2 5/21/2 1/5/2
f 30/7/3 8/16/3 25/8/3
f 26/10/4 7/17/4 31/11/4
f 3/13/2 6/22/2 32/14/2
f 31/11/2 7/17/2 8/16/2
f 25/8/5 8/16/5 7/17/5
f 10/18/6 6/22/6 5/19/6
f 3/13/2 1/5/2 5/21/2
f 9/23/7 5/177/7 35/24/7
f 33/3/7 2/2/7 9/23/7
f 4/26/1 11/28/1 12/27/1
f 11/28/6 13/31/6 14/29/6
f 9/20/2 14/29/2 13/31/2
f 10/18/4 13/31/4 11/28/4
f 2/2/3 12/27/3 14/32/3
f 19/33/5 17/39/5 16/34/5
f 3/13/5 25/8/5 26/10/5
f 1/5/4 26/10/4 38/12/4
f 39/9/3 25/8/3 3/13/3
f 23/36/5 20/45/5 22/37/5
f 19/33/5 15/35/5 23/36/5
f 17/39/5 28/43/5 24/40/5
f 24/40/5 28/43/5 18/41/5
f 22/37/5 18/41/5 28/43/5
f 27/38/5 28/43/5 17/39/5
f 33/3/8 37/25/8 23/36/8
f 37/25/8 35/24/8 20/44/8
f 19/33/2 31/11/2 30/7/2
f 34/15/2 32/14/2 21/42/2
f 31/11/6 30/7/6 39/9/6
f 38/12/6 39/9/6 34/15/6
f 20/45/2 35/4/2 36/6/2
f 16/34/1 29/1/1 33/3/1
f 36/6/2 34/15/2 18/41/2
f 41/46/3 43/49/3 42/47/3
f 43/49/1 47/51/1 46/50/1
f 47/51/4 45/53/4 44/52/4
f 45/53/2 41/178/2 40/54/2
f 46/50/6 44/52/6 40/55/6
f 43/57/5 41/179/5 45/53/5
f 49/58/3 51/61/3 50/59/3
f 51/61/1 55/63/1 54/62/1
f 55/63/4 53/65/4 52/64/4
f 53/65/2 49/180/2 48/66/2
f 54/62/6 52/64/6 48/67/6
f 51/69/5 49/181/5 53/65/5
f 57/70/3 59/73/3 58/71/3
f 59/73/1 63/75/1 62/74/1
f 63/75/4 61/77/4 60/76/4
f 61/77/2 57/182/2 56/78/2
f 62/74/6 60/76/6 56/79/6
f 59/81/5 57/183/5 61/77/5
f 65/82/3 67/85/3 66/83/3
f 67/85/1 71/87/1 70/86/1
f 71/87/4 69/89/4 68/88/4
f 69/89/2 65/184/2 64/90/2
f 70/86/6 68/88/6 64/91/6
f 67/93/5 65/185/5 69/89/5
f 29/1/1 94/113/1 73/94/1
f 96/95/2 97/120/2 72/96/2
f 88/98/4 77/106/4 92/99/4
f 93/101/3 76/107/3 89/102/3
f 32/14/2 6/22/2 74/104/2
f 77/106/2 76/107/2 93/101/2
f 76/107/5 77/106/5 88/98/5
f 75/108/6 6/22/6 10/18/6
f 74/104/2 6/22/2 75/97/2
f 96/110/9 75/186/9 78/111/9
f 94/113/9 98/112/9 78/111/9
f 79/114/1 11/28/1 4/26/1
f 80/115/6 13/31/6 11/28/6
f 13/31/2 80/115/2 78/109/2
f 80/117/4 79/114/4 73/94/4
f 16/34/5 82/124/5 84/118/5
f 89/102/5 88/98/5 74/104/5
f 99/103/3 89/102/3 72/96/3
f 74/104/4 88/98/4 100/100/4
f 87/121/5 90/127/5 86/122/5
f 84/118/5 90/127/5 87/121/5
f 82/124/5 16/34/5 24/40/5
f 83/126/5 91/125/5 24/40/5
f 91/125/5 83/126/5 86/122/5
f 82/124/5 91/125/5 90/127/5
f 87/121/10 98/112/10 94/113/10
f 85/128/10 96/110/10 98/112/10
f 92/99/2 93/101/2 84/118/2
f 21/42/2 32/14/2 95/105/2
f 100/100/6 92/99/6 93/101/6
f 95/105/6 100/100/6 99/103/6
f 85/123/2 86/122/2 97/120/2
f 16/34/1 81/119/1 94/113/1
f 83/126/2 95/105/2 97/120/2
f 103/129/4 104/133/4 102/130/4
f 107/132/1 108/135/1 104/133/1
f 105/134/3 106/137/3 108/135/3
f 101/136/2 102/187/2 106/137/2
f 101/138/6 105/134/6 107/132/6
f 106/137/5 102/188/5 104/140/5
f 111/141/4 112/145/4 110/142/4
f 115/144/1 116/147/1 112/145/1
f 113/146/3 114/149/3 116/147/3
f 109/148/2 110/189/2 114/149/2
f 109/150/6 113/146/6 115/144/6
f 114/149/5 110/190/5 112/152/5
f 119/153/4 120/157/4 118/154/4
f 123/156/1 124/159/1 120/157/1
f 121/158/3 122/161/3 124/159/3
f 117/160/2 118/191/2 122/161/2
f 117/162/6 121/158/6 123/156/6
f 122/161/5 118/192/5 120/164/5
f 127/165/4 128/169/4 126/166/4
f 131/168/1 132/171/1 128/169/1
f 129/170/3 130/173/3 132/171/3
f 125/172/2 126/193/2 130/173/2
f 125/174/6 129/170/6 131/168/6
f 130/173/5 126/194/5 128/176/5
