# Blender v3.2.0 OBJ File: 'OttomanCoffeTable1.blend'
# www.blender.org
mtllib OttomanCoffeTable1.mtl
o OttomanCoffeTable1_Cylinder
v 0.667491 -0.171643 -0.676898
v 0.667491 0.079472 -0.684575
v 0.706105 -0.171643 -0.654605
v 0.712754 0.079472 -0.658443
v 0.706105 -0.171643 -0.610017
v 0.712754 0.079472 -0.606178
v 0.667491 -0.171643 -0.587723
v 0.667491 0.079472 -0.580046
v 0.628877 -0.171643 -0.610017
v 0.622229 0.079472 -0.606178
v 0.628877 -0.171643 -0.654605
v 0.622229 0.079472 -0.658443
v -0.667491 -0.171643 -0.676898
v -0.667491 0.079472 -0.684575
v -0.706105 -0.171643 -0.654605
v -0.712754 0.079472 -0.658443
v -0.706105 -0.171643 -0.610017
v -0.712754 0.079472 -0.606178
v -0.667491 -0.171643 -0.587723
v -0.667491 0.079472 -0.580046
v -0.628877 -0.171643 -0.610017
v -0.622229 0.079472 -0.606178
v -0.628877 -0.171643 -0.654605
v -0.622229 0.079472 -0.658443
v 0.667491 -0.171643 0.676898
v 0.667491 0.079472 0.684575
v 0.706105 -0.171643 0.654604
v 0.712754 0.079472 0.658443
v 0.706105 -0.171643 0.610017
v 0.712754 0.079472 0.606178
v 0.667491 -0.171643 0.587723
v 0.667491 0.079472 0.580046
v 0.628877 -0.171643 0.610017
v 0.622229 0.079472 0.606178
v 0.628877 -0.171643 0.654604
v 0.622229 0.079472 0.658443
v -0.667491 -0.171642 0.676898
v -0.667491 0.079472 0.684575
v -0.706105 -0.171642 0.654604
v -0.712754 0.079472 0.658443
v -0.706105 -0.171642 0.610017
v -0.712754 0.079472 0.606178
v -0.667491 -0.171642 0.587723
v -0.667491 0.079472 0.580046
v -0.628877 -0.171642 0.610017
v -0.622229 0.079472 0.606178
v -0.628877 -0.171642 0.654604
v -0.622229 0.079472 0.658443
v -0.791584 0.070961 0.718851
v -0.791584 0.070961 -0.718851
v 0.791584 0.070961 0.718851
v 0.791584 0.070961 -0.718851
v -0.701938 0.285856 0.629204
v -0.791584 0.196209 0.718851
v -0.701938 0.285856 -0.629204
v -0.791584 0.196209 -0.718851
v 0.701938 0.285856 0.629204
v 0.791584 0.196209 0.718851
v 0.701938 0.285856 -0.629204
v 0.791584 0.196209 -0.718851
vt 0.860844 0.515589
vt 0.639156 0.734411
vt 0.639156 0.515589
vt 0.520709 0.500000
vt 0.375000 0.750000
vt 0.375000 0.500000
vt 0.520709 0.000000
vt 0.375000 0.250000
vt 0.375000 0.000000
vt 0.125000 0.750000
vt 0.125000 0.500000
vt 0.520709 0.250000
vt 0.875000 0.750000
vt 0.860844 0.734411
vt 0.875000 0.500000
vt 0.625000 0.750000
vt 0.520709 0.750000
vt 0.375000 1.000000
vt 0.625000 0.500000
vt 0.520709 1.000000
vt 1.000000 1.000000
vt 0.833333 0.500000
vt 1.000000 0.500000
vt 0.833333 1.000000
vt 0.666667 0.500000
vt 0.666667 1.000000
vt 0.500000 0.500000
vt 0.500000 1.000000
vt 0.333333 0.500000
vt 0.250000 0.490000
vt 0.042154 0.130000
vt 0.457846 0.130000
vt 0.333333 1.000000
vt 0.166667 0.500000
vt -0.000000 1.000000
vt -0.000000 0.500000
vt 0.750000 0.010000
vt 0.542154 0.130000
vt 0.542154 0.370000
vt 0.833333 0.500000
vt 1.000000 1.000000
vt 1.000000 0.500000
vt 0.666667 0.500000
vt 0.833333 1.000000
vt 0.500000 0.500000
vt 0.666667 1.000000
vt 0.333333 1.000000
vt 0.500000 1.000000
vt 0.457846 0.130000
vt 0.042154 0.130000
vt 0.250000 0.490000
vt 0.166667 0.500000
vt 0.333333 0.500000
vt -0.000000 0.500000
vt 0.166667 1.000000
vt 0.750000 0.010000
vt 0.957846 0.130000
vt 0.957846 0.370000
vt 0.833333 0.500000
vt 1.000000 1.000000
vt 1.000000 0.500000
vt 0.666667 0.500000
vt 0.833333 1.000000
vt 0.500000 0.500000
vt 0.666667 1.000000
vt 0.333333 0.500000
vt 0.500000 1.000000
vt 0.042154 0.370000
vt 0.250000 0.490000
vt 0.457846 0.130000
vt 0.166667 0.500000
vt 0.333333 1.000000
vt -0.000000 0.500000
vt 0.166667 1.000000
vt 0.750000 0.010000
vt 0.957846 0.130000
vt 0.957846 0.370000
vt 1.000000 1.000000
vt 0.833333 0.500000
vt 1.000000 0.500000
vt 0.833333 1.000000
vt 0.666667 0.500000
vt 0.666667 1.000000
vt 0.500000 0.500000
vt 0.500000 1.000000
vt 0.333333 0.500000
vt 0.042154 0.130000
vt 0.250000 0.010000
vt 0.457846 0.130000
vt 0.333333 1.000000
vt 0.166667 0.500000
vt 0.166667 1.000000
vt -0.000000 0.500000
vt 0.750000 0.010000
vt 0.542154 0.130000
vt 0.542154 0.370000
vt 0.457846 0.370000
vt 0.042154 0.370000
vt 0.250000 0.010000
vt 0.166667 1.000000
vt 0.750000 0.490000
vt 0.957846 0.370000
vt 0.957846 0.130000
vt 0.457846 0.370000
vt 0.250000 0.010000
vt 0.042154 0.370000
vt -0.000000 1.000000
vt 0.750000 0.490000
vt 0.542154 0.370000
vt 0.542154 0.130000
vt 0.457846 0.370000
vt 0.250000 0.010000
vt 0.042154 0.130000
vt -0.000000 1.000000
vt 0.750000 0.490000
vt 0.542154 0.370000
vt 0.542154 0.130000
vt 0.457846 0.370000
vt 0.250000 0.490000
vt 0.042154 0.370000
vt -0.000000 1.000000
vt 0.750000 0.490000
vt 0.957846 0.370000
vt 0.957846 0.130000
vn 0.0000 1.0000 0.0000
vn 1.0000 0.0000 0.0000
vn -1.0000 0.0000 0.0000
vn 0.0000 -1.0000 0.0000
vn 0.0000 0.0000 -1.0000
vn -0.7071 0.7071 0.0000
vn 0.0000 0.7071 -0.7071
vn 0.7071 0.7071 0.0000
vn 0.0000 0.7071 0.7071
vn 0.0000 0.0000 1.0000
vn 0.4998 -0.0265 -0.8657
vn 0.9996 -0.0265 0.0000
vn 0.4998 -0.0265 0.8657
vn -0.4998 -0.0265 0.8657
vn -0.9996 -0.0265 0.0000
vn -0.4998 -0.0265 -0.8657
usemtl PadOttomanCoffeTable1
s off
f 55/1/1 57/2/1 59/3/1
f 60/4/2 51/5/2 52/6/2
f 54/7/3 50/8/3 49/9/3
f 52/6/4 49/10/4 50/11/4
f 56/12/5 52/6/5 50/8/5
f 55/1/6 54/13/6 53/14/6
f 59/3/7 56/15/7 55/1/7
f 57/2/8 60/4/8 59/3/8
f 53/14/9 58/16/9 57/2/9
f 58/17/10 49/18/10 51/5/10
f 55/1/1 53/14/1 57/2/1
f 60/4/2 58/17/2 51/5/2
f 54/7/3 56/12/3 50/8/3
f 52/6/4 51/5/4 49/10/4
f 56/12/5 60/4/5 52/6/5
f 55/1/6 56/15/6 54/13/6
f 59/3/7 60/19/7 56/15/7
f 57/2/8 58/17/8 60/4/8
f 53/14/9 54/13/9 58/16/9
f 58/17/10 54/20/10 49/18/10
usemtl WoodOttomanCoffeTable1
f 2/21/11 3/22/11 1/23/11
f 4/24/12 5/25/12 3/22/12
f 6/26/13 7/27/13 5/25/13
f 8/28/14 9/29/14 7/27/14
f 2/30/1 10/31/1 6/32/1
f 10/33/15 11/34/15 9/29/15
f 11/34/16 2/35/16 1/36/16
f 7/37/4 9/38/4 11/39/4
f 15/40/16 14/41/16 13/42/16
f 17/43/15 16/44/15 15/40/15
f 19/45/14 18/46/14 17/43/14
f 19/45/13 22/47/13 20/48/13
f 18/49/1 22/50/1 14/51/1
f 23/52/12 22/47/12 21/53/12
f 13/54/11 24/55/11 23/52/11
f 19/56/4 17/57/4 15/58/4
f 27/59/13 26/60/13 25/61/13
f 29/62/12 28/63/12 27/59/12
f 31/64/11 30/65/11 29/62/11
f 33/66/16 32/67/16 31/64/16
f 36/68/1 26/69/1 30/70/1
f 35/71/15 34/72/15 33/66/15
f 25/73/14 36/74/14 35/71/14
f 31/75/4 29/76/4 27/77/4
f 38/78/14 39/79/14 37/80/14
f 40/81/15 41/82/15 39/79/15
f 42/83/16 43/84/16 41/82/16
f 44/85/11 45/86/11 43/84/11
f 46/87/1 44/88/1 42/89/1
f 46/90/12 47/91/12 45/86/12
f 48/92/13 37/93/13 47/91/13
f 43/94/4 45/95/4 47/96/4
f 2/21/11 4/24/11 3/22/11
f 4/24/12 6/26/12 5/25/12
f 6/26/13 8/28/13 7/27/13
f 8/28/14 10/33/14 9/29/14
f 6/32/1 4/97/1 2/30/1
f 2/30/1 12/98/1 10/31/1
f 10/31/1 8/99/1 6/32/1
f 10/33/15 12/100/15 11/34/15
f 11/34/16 12/100/16 2/35/16
f 11/39/4 1/101/4 7/37/4
f 1/101/4 3/102/4 7/37/4
f 3/102/4 5/103/4 7/37/4
f 15/40/16 16/44/16 14/41/16
f 17/43/15 18/46/15 16/44/15
f 19/45/14 20/48/14 18/46/14
f 19/45/13 21/53/13 22/47/13
f 14/51/1 16/104/1 18/49/1
f 18/49/1 20/105/1 22/50/1
f 22/50/1 24/106/1 14/51/1
f 23/52/12 24/55/12 22/47/12
f 13/54/11 14/107/11 24/55/11
f 15/58/4 13/108/4 19/56/4
f 13/108/4 23/109/4 19/56/4
f 23/109/4 21/110/4 19/56/4
f 27/59/13 28/63/13 26/60/13
f 29/62/12 30/65/12 28/63/12
f 31/64/11 32/67/11 30/65/11
f 33/66/16 34/72/16 32/67/16
f 26/69/1 28/111/1 30/70/1
f 30/70/1 32/112/1 34/113/1
f 34/113/1 36/68/1 30/70/1
f 35/71/15 36/74/15 34/72/15
f 25/73/14 26/114/14 36/74/14
f 27/77/4 25/115/4 31/75/4
f 25/115/4 35/116/4 31/75/4
f 35/116/4 33/117/4 31/75/4
f 38/78/14 40/81/14 39/79/14
f 40/81/15 42/83/15 41/82/15
f 42/83/16 44/85/16 43/84/16
f 44/85/11 46/90/11 45/86/11
f 42/89/1 40/118/1 46/87/1
f 40/118/1 38/119/1 46/87/1
f 38/119/1 48/120/1 46/87/1
f 46/90/12 48/92/12 47/91/12
f 48/92/13 38/121/13 37/93/13
f 47/96/4 37/122/4 43/94/4
f 37/122/4 39/123/4 43/94/4
f 39/123/4 41/124/4 43/94/4
