# Blender v3.2.0 OBJ File: 'RoundedCoffeTable1.blend'
# www.blender.org
mtllib RoundedCoffeTable1.mtl
o RoundedCoffeTable1_Cylinder.001
v 0.755263 0.214091 -0.046667
v 0.755263 0.252220 -0.046667
v 0.654077 0.214091 0.330965
v 0.654077 0.252220 0.330965
v 0.377631 0.214091 0.607410
v 0.377631 0.252220 0.607410
v -0.000000 0.214091 0.708596
v -0.000000 0.252220 0.708596
v -0.377631 0.214091 0.607410
v -0.377631 0.252220 0.607410
v -0.654077 0.214091 0.330965
v -0.654077 0.252220 0.330965
v -0.755263 0.214091 -0.046667
v -0.755263 0.252220 -0.046667
v -0.654077 0.214091 -0.424298
v -0.654077 0.252220 -0.424298
v -0.377631 0.214091 -0.700743
v -0.377631 0.252220 -0.700743
v 0.000000 0.214091 -0.801929
v 0.000000 0.252220 -0.801929
v 0.377631 0.214091 -0.700743
v 0.377631 0.252220 -0.700743
v 0.654077 0.214091 -0.424298
v 0.654077 0.252220 -0.424298
v 0.783058 0.214091 -0.046667
v 0.789938 0.220737 -0.046667
v 0.684106 0.220737 0.348302
v 0.678148 0.214091 0.344862
v 0.678148 0.252220 0.344862
v 0.684106 0.245574 0.348302
v 0.789938 0.245574 -0.046667
v 0.783058 0.252220 -0.046667
v 0.394969 0.220737 0.637440
v 0.391529 0.214091 0.631481
v 0.391529 0.252220 0.631481
v 0.394969 0.245574 0.637440
v -0.000000 0.220737 0.743271
v -0.000000 0.214091 0.736391
v -0.000000 0.252220 0.736391
v -0.000000 0.245574 0.743271
v -0.394969 0.220737 0.637440
v -0.391529 0.214091 0.631481
v -0.391529 0.252220 0.631481
v -0.394969 0.245574 0.637440
v -0.684106 0.220737 0.348302
v -0.678148 0.214091 0.344862
v -0.678148 0.252220 0.344862
v -0.684106 0.245574 0.348302
v -0.789938 0.220737 -0.046667
v -0.783058 0.214091 -0.046667
v -0.783058 0.252220 -0.046667
v -0.789938 0.245574 -0.046667
v -0.684106 0.220737 -0.441636
v -0.678148 0.214091 -0.438196
v -0.678148 0.252220 -0.438196
v -0.684106 0.245574 -0.441636
v -0.394969 0.220737 -0.730773
v -0.391529 0.214091 -0.724815
v -0.391529 0.252220 -0.724815
v -0.394969 0.245574 -0.730773
v 0.000000 0.220737 -0.836604
v 0.000000 0.214091 -0.829724
v 0.000000 0.252220 -0.829724
v 0.000000 0.245574 -0.836604
v 0.394969 0.220737 -0.730773
v 0.391529 0.214091 -0.724815
v 0.391529 0.252220 -0.724815
v 0.394969 0.245574 -0.730773
v 0.684106 0.220737 -0.441636
v 0.678148 0.214091 -0.438196
v 0.678148 0.252220 -0.438196
v 0.684106 0.245574 -0.441636
v 0.672559 -0.225094 -0.046667
v 0.672559 -0.190957 -0.046667
v 0.582454 -0.225094 0.289613
v 0.582454 -0.190957 0.289613
v 0.336280 -0.225094 0.535787
v 0.336280 -0.190957 0.535787
v -0.000000 -0.225094 0.625893
v -0.000000 -0.190957 0.625893
v -0.336280 -0.225094 0.535787
v -0.336280 -0.190957 0.535787
v -0.582454 -0.225094 0.289613
v -0.582454 -0.190957 0.289613
v -0.672559 -0.225094 -0.046667
v -0.672559 -0.190957 -0.046667
v -0.582454 -0.225094 -0.382946
v -0.582454 -0.190957 -0.382946
v -0.336280 -0.225094 -0.629120
v -0.336280 -0.190957 -0.629120
v 0.000000 -0.225094 -0.719226
v 0.000000 -0.190957 -0.719226
v 0.336280 -0.225094 -0.629120
v 0.336280 -0.190957 -0.629120
v 0.582454 -0.225094 -0.382946
v 0.582454 -0.190957 -0.382946
v 0.700355 -0.225094 -0.046667
v 0.707235 -0.218448 -0.046667
v 0.612483 -0.218448 0.306951
v 0.606525 -0.225094 0.303511
v 0.606525 -0.190957 0.303511
v 0.612483 -0.197602 0.306951
v 0.707235 -0.197602 -0.046667
v 0.700355 -0.190957 -0.046667
v 0.353617 -0.218448 0.565817
v 0.350177 -0.225094 0.559858
v 0.350177 -0.190957 0.559858
v 0.353617 -0.197602 0.565817
v -0.000000 -0.218448 0.660568
v -0.000000 -0.225094 0.653688
v -0.000000 -0.190957 0.653688
v -0.000000 -0.197602 0.660568
v -0.353617 -0.218448 0.565817
v -0.350177 -0.225094 0.559858
v -0.350177 -0.190957 0.559858
v -0.353617 -0.197602 0.565817
v -0.612483 -0.218448 0.306951
v -0.606525 -0.225094 0.303511
v -0.606525 -0.190957 0.303511
v -0.612483 -0.197602 0.306951
v -0.707235 -0.218448 -0.046667
v -0.700355 -0.225094 -0.046667
v -0.700355 -0.190957 -0.046667
v -0.707235 -0.197602 -0.046667
v -0.612483 -0.218448 -0.400284
v -0.606525 -0.225094 -0.396844
v -0.606525 -0.190957 -0.396844
v -0.612483 -0.197602 -0.400284
v -0.353617 -0.218448 -0.659150
v -0.350177 -0.225094 -0.653192
v -0.350177 -0.190957 -0.653192
v -0.353617 -0.197602 -0.659150
v 0.000000 -0.218448 -0.753901
v 0.000000 -0.225094 -0.747021
v 0.000000 -0.190957 -0.747021
v 0.000000 -0.197602 -0.753901
v 0.353617 -0.218448 -0.659150
v 0.350177 -0.225094 -0.653192
v 0.350177 -0.190957 -0.653192
v 0.353617 -0.197602 -0.659150
v 0.612483 -0.218448 -0.400284
v 0.606525 -0.225094 -0.396844
v 0.606525 -0.190957 -0.396844
v 0.612483 -0.197602 -0.400284
v 0.029579 -0.327446 0.653333
v 0.029579 0.226926 0.653333
v 0.014790 -0.327446 0.678950
v 0.014790 0.226926 0.678950
v -0.014790 -0.327446 0.678950
v -0.014790 0.226926 0.678950
v -0.029579 -0.327446 0.653333
v -0.029579 0.226926 0.653333
v -0.014790 -0.327446 0.627717
v -0.014790 0.226926 0.627717
v 0.014790 -0.327446 0.627717
v 0.014790 0.226926 0.627717
v 0.700000 -0.327446 -0.076246
v 0.700000 0.226926 -0.076246
v 0.725616 -0.327446 -0.061456
v 0.725616 0.226926 -0.061456
v 0.725616 -0.327446 -0.031877
v 0.725616 0.226926 -0.031877
v 0.700000 -0.327446 -0.017087
v 0.700000 0.226926 -0.017087
v 0.674384 -0.327446 -0.031877
v 0.674384 0.226926 -0.031877
v 0.674384 -0.327446 -0.061456
v 0.674384 0.226926 -0.061456
v -0.700000 -0.327446 -0.017087
v -0.700000 0.226926 -0.017087
v -0.725616 -0.327446 -0.031877
v -0.725616 0.226926 -0.031877
v -0.725616 -0.327446 -0.061456
v -0.725616 0.226926 -0.061456
v -0.700000 -0.327446 -0.076246
v -0.700000 0.226926 -0.076246
v -0.674384 -0.327446 -0.061456
v -0.674384 0.226926 -0.061456
v -0.674384 -0.327446 -0.031877
v -0.674384 0.226926 -0.031877
vt 0.083333 0.912853
vt 0.000000 0.587147
vt 0.083333 0.587147
vt 0.948722 0.364732
vt 0.868955 0.456036
vt 0.956036 0.368955
vt 0.979465 0.250000
vt 0.987910 0.250000
vt 0.956036 0.131045
vt 0.948722 0.135268
vt 0.864733 0.051278
vt 0.868955 0.043964
vt 0.750000 0.012090
vt 0.750000 0.020535
vt 0.631045 0.043964
vt 0.635268 0.051278
vt 0.543964 0.131045
vt 0.551278 0.135268
vt 0.520535 0.250000
vt 0.512090 0.250000
vt 0.543964 0.368955
vt 0.551278 0.364732
vt 0.051278 0.364732
vt 0.250000 0.020535
vt 0.448722 0.364732
vt 0.635267 0.448722
vt 0.631045 0.456036
vt 0.750000 0.479465
vt 0.750000 0.487910
vt 1.000000 0.912853
vt 0.916667 0.587147
vt 1.000000 0.587147
vt 0.364733 0.448722
vt 0.456036 0.368955
vt 0.368955 0.456036
vt 0.250000 0.479465
vt 0.250000 0.487910
vt 0.131045 0.456036
vt 0.135267 0.448722
vt 0.479465 0.250000
vt 0.750000 0.912853
vt 0.666667 0.587147
vt 0.750000 0.587147
vt 0.448722 0.135268
vt 0.487910 0.250000
vt 0.666667 0.912853
vt 0.583333 0.587147
vt 0.364733 0.051278
vt 0.456036 0.131045
vt 0.583333 0.912853
vt 0.500000 0.587147
vt 0.250000 0.012090
vt 0.368955 0.043964
vt 0.500000 0.912853
vt 0.416667 0.587147
vt 0.135268 0.051278
vt 0.416667 0.912853
vt 0.333333 0.587147
vt 0.043964 0.131045
vt 0.131045 0.043964
vt 0.333333 0.912853
vt 0.250000 0.587147
vt 0.020535 0.250000
vt 0.051278 0.135268
vt 0.250000 0.912853
vt 0.166667 0.587147
vt 0.043964 0.368955
vt 0.012090 0.250000
vt 0.166667 0.912853
vt 0.916667 0.912853
vt 0.833333 0.587147
vt 0.833333 0.912853
vt 0.870000 0.457846
vt 0.750000 0.490000
vt 0.370000 0.457846
vt 0.957846 0.370000
vt 0.457846 0.370000
vt 0.490000 0.250000
vt 0.957846 0.130000
vt 0.990000 0.250000
vt 0.457846 0.130000
vt 0.870000 0.042154
vt 0.370000 0.042154
vt 0.750000 0.010000
vt 0.250000 0.010000
vt 0.630000 0.042154
vt 0.130000 0.042154
vt 0.542154 0.130000
vt 0.042154 0.130000
vt 0.010000 0.250000
vt 0.542154 0.370000
vt 0.510000 0.250000
vt 0.042154 0.370000
vt 0.130000 0.457846
vt 0.630000 0.457846
vt 0.250000 0.490000
vt 0.864733 0.448722
vt 0.083333 0.902662
vt 0.000000 0.597338
vt 0.083333 0.597338
vt 0.864117 0.447656
vt 0.955824 0.368833
vt 0.947656 0.364117
vt 0.987665 0.250000
vt 0.978233 0.250000
vt 0.947656 0.135884
vt 0.955824 0.131167
vt 0.868833 0.044176
vt 0.864117 0.052344
vt 0.750000 0.012335
vt 0.750000 0.021767
vt 0.631167 0.044176
vt 0.635884 0.052344
vt 0.544176 0.131167
vt 0.552344 0.135884
vt 0.512335 0.250000
vt 0.521767 0.250000
vt 0.544176 0.368833
vt 0.552344 0.364116
vt 0.447656 0.135884
vt 0.447656 0.364117
vt 0.052344 0.364116
vt 0.631167 0.455824
vt 0.635884 0.447656
vt 0.750000 0.478233
vt 0.750000 0.487665
vt 1.000000 0.902662
vt 0.916667 0.597338
vt 1.000000 0.597338
vt 0.364117 0.447656
vt 0.455824 0.368833
vt 0.368833 0.455824
vt 0.250000 0.487665
vt 0.250000 0.478233
vt 0.131167 0.455824
vt 0.135883 0.447656
vt 0.478233 0.250000
vt 0.750000 0.902662
vt 0.666667 0.597338
vt 0.750000 0.597338
vt 0.487665 0.250000
vt 0.666667 0.902662
vt 0.583333 0.597338
vt 0.364116 0.052344
vt 0.455824 0.131167
vt 0.583333 0.902662
vt 0.500000 0.597338
vt 0.250000 0.021767
vt 0.368833 0.044176
vt 0.500000 0.902662
vt 0.416667 0.597338
vt 0.131167 0.044176
vt 0.250000 0.012335
vt 0.416667 0.902662
vt 0.333333 0.597338
vt 0.135884 0.052344
vt 0.044176 0.131167
vt 0.333333 0.902662
vt 0.250000 0.597338
vt 0.021767 0.250000
vt 0.052344 0.135884
vt 0.250000 0.902662
vt 0.166667 0.597338
vt 0.044176 0.368833
vt 0.012335 0.250000
vt 0.166667 0.902662
vt 0.916667 0.902662
vt 0.833333 0.597338
vt 0.833333 0.902662
vt 0.750000 0.490000
vt 0.868833 0.455824
vt 0.370000 0.457846
vt 0.957846 0.370000
vt 0.870000 0.457846
vt 0.457846 0.370000
vt 0.490000 0.250000
vt 0.957846 0.130000
vt 0.990000 0.250000
vt 0.457846 0.130000
vt 0.870000 0.042154
vt 0.370000 0.042154
vt 0.750000 0.010000
vt 0.250000 0.010000
vt 0.630000 0.042154
vt 0.130000 0.042154
vt 0.542154 0.130000
vt 0.042154 0.130000
vt 0.010000 0.250000
vt 0.542154 0.370000
vt 0.510000 0.250000
vt 0.042154 0.370000
vt 0.130000 0.457846
vt 0.630000 0.457846
vt 0.250000 0.490000
vt 1.000000 1.000000
vt 0.833333 0.500000
vt 1.000000 0.500000
vt 0.833333 1.000000
vt 0.666667 0.500000
vt 0.666667 1.000000
vt 0.500000 0.500000
vt 0.500000 1.000000
vt 0.333333 0.500000
vt 0.250000 0.490000
vt 0.042154 0.130000
vt 0.457846 0.130000
vt 0.333333 1.000000
vt 0.166667 0.500000
vt 0.166667 1.000000
vt -0.000000 0.500000
vt 0.542154 0.130000
vt 0.542154 0.370000
vt 0.957846 0.370000
vt 1.000000 1.000000
vt 0.833333 0.500000
vt 1.000000 0.500000
vt 0.833333 1.000000
vt 0.666667 0.500000
vt 0.666667 1.000000
vt 0.500000 0.500000
vt 0.500000 1.000000
vt 0.333333 0.500000
vt 0.250000 0.490000
vt 0.042154 0.130000
vt 0.457846 0.130000
vt 0.333333 1.000000
vt 0.166667 0.500000
vt 0.166667 1.000000
vt -0.000000 0.500000
vt 0.542154 0.130000
vt 0.542154 0.370000
vt 0.957846 0.370000
vt 1.000000 1.000000
vt 0.833333 0.500000
vt 1.000000 0.500000
vt 0.833333 1.000000
vt 0.666667 0.500000
vt 0.666667 1.000000
vt 0.500000 0.500000
vt 0.500000 1.000000
vt 0.333333 0.500000
vt 0.250000 0.490000
vt 0.042154 0.130000
vt 0.457846 0.130000
vt 0.333333 1.000000
vt 0.166667 0.500000
vt 0.166667 1.000000
vt -0.000000 0.500000
vt 0.542154 0.130000
vt 0.542154 0.370000
vt 0.957846 0.370000
vt 0.000000 0.912853
vt 0.000000 0.902662
vt 0.457846 0.370000
vt 0.042154 0.370000
vt 0.250000 0.010000
vt -0.000000 1.000000
vt 0.750000 0.490000
vt 0.957846 0.130000
vt 0.750000 0.010000
vt 0.457846 0.370000
vt 0.042154 0.370000
vt 0.250000 0.010000
vt -0.000000 1.000000
vt 0.750000 0.490000
vt 0.957846 0.130000
vt 0.750000 0.010000
vt 0.457846 0.370000
vt 0.042154 0.370000
vt 0.250000 0.010000
vt -0.000000 1.000000
vt 0.750000 0.490000
vt 0.957846 0.130000
vt 0.750000 0.010000
vn 0.9659 0.0000 -0.2588
vn 0.0000 -1.0000 -0.0000
vn 0.0000 1.0000 0.0000
vn 0.9659 0.0000 0.2588
vn -0.2588 0.0000 0.9659
vn -0.7071 0.0000 0.7071
vn -0.9659 0.0000 0.2588
vn -0.9659 0.0000 -0.2588
vn -0.7071 0.0000 -0.7071
vn -0.2588 0.0000 -0.9659
vn 0.2588 0.0000 -0.9659
vn 0.7071 0.0000 -0.7071
vn 0.7071 0.0000 0.7071
vn 0.2588 0.0000 0.9659
vn 0.6830 -0.7071 0.1830
vn 0.6830 0.7071 0.1830
vn 0.5000 -0.7071 0.5000
vn 0.5000 0.7071 0.5000
vn 0.1830 -0.7071 0.6830
vn 0.1830 0.7071 0.6830
vn -0.1830 -0.7071 0.6830
vn -0.1830 0.7071 0.6830
vn -0.5000 -0.7071 0.5000
vn -0.5000 0.7071 0.5000
vn -0.6830 -0.7071 0.1830
vn -0.6830 0.7071 0.1830
vn -0.6830 -0.7071 -0.1830
vn -0.6830 0.7071 -0.1830
vn -0.5000 -0.7071 -0.5000
vn -0.5000 0.7071 -0.5000
vn -0.1830 -0.7071 -0.6830
vn -0.1830 0.7071 -0.6830
vn 0.1830 -0.7071 -0.6830
vn 0.1830 0.7071 -0.6830
vn 0.5000 -0.7071 -0.5000
vn 0.5000 0.7071 -0.5000
vn 0.6830 -0.7071 -0.1830
vn 0.6830 0.7071 -0.1830
vn 0.8660 0.0000 0.5000
vn 0.0000 -0.0000 1.0000
vn -0.8660 -0.0000 0.5000
vn -0.8660 0.0000 -0.5000
vn 0.0000 -0.0000 -1.0000
vn 0.8660 -0.0000 -0.5000
vn 0.5000 0.0000 -0.8660
vn 1.0000 -0.0000 0.0000
vn 0.5000 0.0000 0.8660
vn -0.5000 0.0000 0.8660
vn -1.0000 -0.0000 0.0000
vn -0.5000 0.0000 -0.8660
usemtl WoodRoundedCoffeTable1
s off
f 72/1/1 26/2/1 69/3/1
f 5/4/2 28/5/2 34/6/2
f 7/7/2 34/6/2 38/8/2
f 7/7/2 42/9/2 9/10/2
f 11/11/2 42/9/2 46/12/2
f 11/11/2 50/13/2 13/14/2
f 13/14/2 54/15/2 15/16/2
f 15/16/2 58/17/2 17/18/2
f 19/19/2 58/17/2 62/20/2
f 19/19/2 66/21/2 21/22/2
f 22/23/3 14/24/3 6/25/3
f 23/26/2 66/21/2 70/27/2
f 1/28/2 70/27/2 25/29/2
f 19/19/2 23/26/2 7/7/2
f 31/30/4 27/31/4 26/32/4
f 4/33/3 35/34/3 29/35/3
f 2/36/3 29/35/3 32/37/3
f 2/36/3 71/38/3 24/39/3
f 8/40/3 35/34/3 6/25/3
f 40/41/5 41/42/5 37/43/5
f 10/44/3 39/45/3 8/40/3
f 44/46/6 45/47/6 41/42/6
f 12/48/3 43/49/3 10/44/3
f 48/50/7 49/51/7 45/47/7
f 12/48/3 51/52/3 47/53/3
f 52/54/8 53/55/8 49/51/8
f 16/56/3 51/52/3 14/24/3
f 56/57/9 57/58/9 53/55/9
f 16/56/3 59/59/3 55/60/3
f 60/61/10 61/62/10 57/58/10
f 20/63/3 59/59/3 18/64/3
f 64/65/11 65/66/11 61/62/11
f 20/63/3 67/67/3 63/68/3
f 68/69/12 69/3/12 65/66/12
f 24/39/3 67/67/3 22/23/3
f 30/70/13 33/71/13 27/31/13
f 36/72/14 37/43/14 33/71/14
f 27/73/15 25/29/15 26/74/15
f 30/75/16 32/37/16 29/35/16
f 33/76/17 28/5/17 27/73/17
f 36/77/18 29/35/18 35/34/18
f 33/76/19 38/8/19 34/6/19
f 36/77/20 39/45/20 40/78/20
f 41/79/21 38/8/21 37/80/21
f 40/78/22 43/49/22 44/81/22
f 45/82/23 42/9/23 41/79/23
f 44/81/24 47/53/24 48/83/24
f 49/84/25 46/12/25 45/82/25
f 52/85/26 47/53/26 51/52/26
f 53/86/27 50/13/27 49/84/27
f 52/85/28 55/60/28 56/87/28
f 57/88/29 54/15/29 53/86/29
f 56/87/30 59/59/30 60/89/30
f 57/88/31 62/20/31 58/17/31
f 60/89/32 63/68/32 64/90/32
f 65/91/33 62/20/33 61/92/33
f 64/90/34 67/67/34 68/93/34
f 65/91/35 70/27/35 66/21/35
f 68/93/36 71/38/36 72/94/36
f 26/74/37 70/27/37 69/95/37
f 72/94/38 32/37/38 31/96/38
f 1/28/2 28/5/2 3/97/2
f 144/98/1 98/99/1 141/100/1
f 75/101/2 106/102/2 77/103/2
f 77/103/2 110/104/2 79/105/2
f 81/106/2 110/104/2 114/107/2
f 81/106/2 118/108/2 83/109/2
f 83/109/2 122/110/2 85/111/2
f 85/111/2 126/112/2 87/113/2
f 87/113/2 130/114/2 89/115/2
f 89/115/2 134/116/2 91/117/2
f 91/117/2 138/118/2 93/119/2
f 82/120/3 78/121/3 94/122/3
f 93/119/2 142/123/2 95/124/2
f 73/125/2 142/123/2 97/126/2
f 87/113/2 91/117/2 95/124/2
f 103/127/4 99/128/4 98/129/4
f 76/130/3 107/131/3 101/132/3
f 76/130/3 104/133/3 74/134/3
f 74/134/3 143/135/3 96/136/3
f 80/137/3 107/131/3 78/121/3
f 112/138/5 113/139/5 109/140/5
f 82/120/3 111/141/3 80/137/3
f 116/142/6 117/143/6 113/139/6
f 84/144/3 115/145/3 82/120/3
f 120/146/7 121/147/7 117/143/7
f 86/148/3 119/149/3 84/144/3
f 124/150/8 125/151/8 121/147/8
f 86/148/3 127/152/3 123/153/3
f 128/154/9 129/155/9 125/151/9
f 88/156/3 131/157/3 127/152/3
f 132/158/10 133/159/10 129/155/10
f 92/160/3 131/157/3 90/161/3
f 136/162/11 137/163/11 133/159/11
f 92/160/3 139/164/3 135/165/3
f 140/166/12 141/100/12 137/163/12
f 96/136/3 139/164/3 94/122/3
f 102/167/13 105/168/13 99/128/13
f 108/169/14 109/140/14 105/168/14
f 98/170/15 100/171/15 97/126/15
f 102/172/16 104/133/16 101/132/16
f 105/173/17 100/171/17 99/174/17
f 102/172/18 107/131/18 108/175/18
f 105/173/19 110/104/19 106/102/19
f 108/175/20 111/141/20 112/176/20
f 113/177/21 110/104/21 109/178/21
f 112/176/22 115/145/22 116/179/22
f 117/180/23 114/107/23 113/177/23
f 120/181/24 115/145/24 119/149/24
f 121/182/25 118/108/25 117/180/25
f 120/181/26 123/153/26 124/183/26
f 125/184/27 122/110/27 121/182/27
f 124/183/28 127/152/28 128/185/28
f 129/186/29 126/112/29 125/184/29
f 128/185/30 131/157/30 132/187/30
f 129/186/31 134/116/31 130/114/31
f 132/187/32 135/165/32 136/188/32
f 137/189/33 134/116/33 133/190/33
f 140/191/34 135/165/34 139/164/34
f 137/189/35 142/123/35 138/118/35
f 140/191/36 143/135/36 144/192/36
f 98/170/37 142/123/37 141/193/37
f 144/192/38 104/133/38 103/194/38
f 73/125/2 100/171/2 75/101/2
f 146/195/39 147/196/39 145/197/39
f 148/198/40 149/199/40 147/196/40
f 150/200/41 151/201/41 149/199/41
f 152/202/42 153/203/42 151/201/42
f 146/204/3 154/205/3 150/206/3
f 154/207/43 155/208/43 153/203/43
f 156/209/44 145/210/44 155/208/44
f 153/211/2 155/212/2 147/213/2
f 158/214/45 159/215/45 157/216/45
f 160/217/46 161/218/46 159/215/46
f 162/219/47 163/220/47 161/218/47
f 164/221/48 165/222/48 163/220/48
f 158/223/3 166/224/3 162/225/3
f 166/226/49 167/227/49 165/222/49
f 168/228/50 157/229/50 167/227/50
f 165/230/2 167/231/2 159/232/2
f 170/233/48 171/234/48 169/235/48
f 172/236/49 173/237/49 171/234/49
f 174/238/50 175/239/50 173/237/50
f 176/240/45 177/241/45 175/239/45
f 170/242/3 178/243/3 174/244/3
f 178/245/46 179/246/46 177/241/46
f 180/247/47 169/248/47 179/246/47
f 177/249/2 179/250/2 171/251/2
f 72/1/1 31/252/1 26/2/1
f 5/4/2 3/97/2 28/5/2
f 7/7/2 5/4/2 34/6/2
f 7/7/2 38/8/2 42/9/2
f 11/11/2 9/10/2 42/9/2
f 11/11/2 46/12/2 50/13/2
f 13/14/2 50/13/2 54/15/2
f 15/16/2 54/15/2 58/17/2
f 19/19/2 17/18/2 58/17/2
f 19/19/2 62/20/2 66/21/2
f 6/25/3 4/33/3 2/36/3
f 2/36/3 24/39/3 22/23/3
f 22/23/3 20/63/3 14/24/3
f 20/63/3 18/64/3 14/24/3
f 18/64/3 16/56/3 14/24/3
f 14/24/3 12/48/3 10/44/3
f 10/44/3 8/40/3 14/24/3
f 8/40/3 6/25/3 14/24/3
f 6/25/3 2/36/3 22/23/3
f 23/26/2 21/22/2 66/21/2
f 1/28/2 23/26/2 70/27/2
f 23/26/2 1/28/2 3/97/2
f 3/97/2 5/4/2 7/7/2
f 7/7/2 9/10/2 11/11/2
f 11/11/2 13/14/2 7/7/2
f 13/14/2 15/16/2 7/7/2
f 15/16/2 17/18/2 19/19/2
f 19/19/2 21/22/2 23/26/2
f 23/26/2 3/97/2 7/7/2
f 15/16/2 19/19/2 7/7/2
f 31/30/4 30/70/4 27/31/4
f 4/33/3 6/25/3 35/34/3
f 2/36/3 4/33/3 29/35/3
f 2/36/3 32/37/3 71/38/3
f 8/40/3 39/45/3 35/34/3
f 40/41/5 44/46/5 41/42/5
f 10/44/3 43/49/3 39/45/3
f 44/46/6 48/50/6 45/47/6
f 12/48/3 47/53/3 43/49/3
f 48/50/7 52/54/7 49/51/7
f 12/48/3 14/24/3 51/52/3
f 52/54/8 56/57/8 53/55/8
f 16/56/3 55/60/3 51/52/3
f 56/57/9 60/61/9 57/58/9
f 16/56/3 18/64/3 59/59/3
f 60/61/10 64/65/10 61/62/10
f 20/63/3 63/68/3 59/59/3
f 64/65/11 68/69/11 65/66/11
f 20/63/3 22/23/3 67/67/3
f 68/69/12 72/1/12 69/3/12
f 24/39/3 71/38/3 67/67/3
f 30/70/13 36/72/13 33/71/13
f 36/72/14 40/41/14 37/43/14
f 27/73/15 28/5/15 25/29/15
f 30/75/16 31/96/16 32/37/16
f 33/76/17 34/6/17 28/5/17
f 36/77/18 30/75/18 29/35/18
f 33/76/19 37/80/19 38/8/19
f 36/77/20 35/34/20 39/45/20
f 41/79/21 42/9/21 38/8/21
f 40/78/22 39/45/22 43/49/22
f 45/82/23 46/12/23 42/9/23
f 44/81/24 43/49/24 47/53/24
f 49/84/25 50/13/25 46/12/25
f 52/85/26 48/83/26 47/53/26
f 53/86/27 54/15/27 50/13/27
f 52/85/28 51/52/28 55/60/28
f 57/88/29 58/17/29 54/15/29
f 56/87/30 55/60/30 59/59/30
f 57/88/31 61/92/31 62/20/31
f 60/89/32 59/59/32 63/68/32
f 65/91/33 66/21/33 62/20/33
f 64/90/34 63/68/34 67/67/34
f 65/91/35 69/95/35 70/27/35
f 68/93/36 67/67/36 71/38/36
f 26/74/37 25/29/37 70/27/37
f 72/94/38 71/38/38 32/37/38
f 1/28/2 25/29/2 28/5/2
f 144/98/1 103/253/1 98/99/1
f 75/101/2 100/171/2 106/102/2
f 77/103/2 106/102/2 110/104/2
f 81/106/2 79/105/2 110/104/2
f 81/106/2 114/107/2 118/108/2
f 83/109/2 118/108/2 122/110/2
f 85/111/2 122/110/2 126/112/2
f 87/113/2 126/112/2 130/114/2
f 89/115/2 130/114/2 134/116/2
f 91/117/2 134/116/2 138/118/2
f 78/121/3 76/130/3 94/122/3
f 76/130/3 74/134/3 94/122/3
f 74/134/3 96/136/3 94/122/3
f 94/122/3 92/160/3 90/161/3
f 90/161/3 88/156/3 86/148/3
f 86/148/3 84/144/3 82/120/3
f 82/120/3 80/137/3 78/121/3
f 94/122/3 90/161/3 86/148/3
f 86/148/3 82/120/3 94/122/3
f 93/119/2 138/118/2 142/123/2
f 73/125/2 95/124/2 142/123/2
f 95/124/2 73/125/2 75/101/2
f 75/101/2 77/103/2 79/105/2
f 79/105/2 81/106/2 83/109/2
f 83/109/2 85/111/2 87/113/2
f 87/113/2 89/115/2 91/117/2
f 91/117/2 93/119/2 95/124/2
f 95/124/2 75/101/2 79/105/2
f 79/105/2 83/109/2 95/124/2
f 83/109/2 87/113/2 95/124/2
f 103/127/4 102/167/4 99/128/4
f 76/130/3 78/121/3 107/131/3
f 76/130/3 101/132/3 104/133/3
f 74/134/3 104/133/3 143/135/3
f 80/137/3 111/141/3 107/131/3
f 112/138/5 116/142/5 113/139/5
f 82/120/3 115/145/3 111/141/3
f 116/142/6 120/146/6 117/143/6
f 84/144/3 119/149/3 115/145/3
f 120/146/7 124/150/7 121/147/7
f 86/148/3 123/153/3 119/149/3
f 124/150/8 128/154/8 125/151/8
f 86/148/3 88/156/3 127/152/3
f 128/154/9 132/158/9 129/155/9
f 88/156/3 90/161/3 131/157/3
f 132/158/10 136/162/10 133/159/10
f 92/160/3 135/165/3 131/157/3
f 136/162/11 140/166/11 137/163/11
f 92/160/3 94/122/3 139/164/3
f 140/166/12 144/98/12 141/100/12
f 96/136/3 143/135/3 139/164/3
f 102/167/13 108/169/13 105/168/13
f 108/169/14 112/138/14 109/140/14
f 98/170/15 99/174/15 100/171/15
f 102/172/16 103/194/16 104/133/16
f 105/173/17 106/102/17 100/171/17
f 102/172/18 101/132/18 107/131/18
f 105/173/19 109/178/19 110/104/19
f 108/175/20 107/131/20 111/141/20
f 113/177/21 114/107/21 110/104/21
f 112/176/22 111/141/22 115/145/22
f 117/180/23 118/108/23 114/107/23
f 120/181/24 116/179/24 115/145/24
f 121/182/25 122/110/25 118/108/25
f 120/181/26 119/149/26 123/153/26
f 125/184/27 126/112/27 122/110/27
f 124/183/28 123/153/28 127/152/28
f 129/186/29 130/114/29 126/112/29
f 128/185/30 127/152/30 131/157/30
f 129/186/31 133/190/31 134/116/31
f 132/187/32 131/157/32 135/165/32
f 137/189/33 138/118/33 134/116/33
f 140/191/34 136/188/34 135/165/34
f 137/189/35 141/193/35 142/123/35
f 140/191/36 139/164/36 143/135/36
f 98/170/37 97/126/37 142/123/37
f 144/192/38 143/135/38 104/133/38
f 73/125/2 97/126/2 100/171/2
f 146/195/39 148/198/39 147/196/39
f 148/198/40 150/200/40 149/199/40
f 150/200/41 152/202/41 151/201/41
f 152/202/42 154/207/42 153/203/42
f 150/206/3 148/254/3 146/204/3
f 146/204/3 156/255/3 154/205/3
f 154/205/3 152/256/3 150/206/3
f 154/207/43 156/209/43 155/208/43
f 156/209/44 146/257/44 145/210/44
f 155/212/2 145/258/2 147/213/2
f 147/213/2 149/259/2 151/260/2
f 151/260/2 153/211/2 147/213/2
f 158/214/45 160/217/45 159/215/45
f 160/217/46 162/219/46 161/218/46
f 162/219/47 164/221/47 163/220/47
f 164/221/48 166/226/48 165/222/48
f 162/225/3 160/261/3 158/223/3
f 158/223/3 168/262/3 166/224/3
f 166/224/3 164/263/3 162/225/3
f 166/226/49 168/228/49 167/227/49
f 168/228/50 158/264/50 157/229/50
f 167/231/2 157/265/2 159/232/2
f 159/232/2 161/266/2 163/267/2
f 163/267/2 165/230/2 159/232/2
f 170/233/48 172/236/48 171/234/48
f 172/236/49 174/238/49 173/237/49
f 174/238/50 176/240/50 175/239/50
f 176/240/45 178/245/45 177/241/45
f 174/244/3 172/268/3 170/242/3
f 170/242/3 180/269/3 178/243/3
f 178/243/3 176/270/3 174/244/3
f 178/245/46 180/247/46 179/246/46
f 180/247/47 170/271/47 169/248/47
f 179/250/2 169/272/2 171/251/2
f 171/251/2 173/273/2 175/274/2
f 175/274/2 177/249/2 171/251/2
