# Blender v3.2.0 OBJ File: 'SaucePan1.blend'
# www.blender.org
mtllib SaucePan1.mtl
o Lid1SaucePan1_Cylinder.001
v -0.000000 0.082909 -0.042989
v 0.030398 0.082909 -0.030398
v 0.042989 0.082909 0.000000
v 0.030398 0.082909 0.030398
v -0.000000 0.082909 0.042989
v -0.030398 0.082909 0.030398
v -0.042989 0.082909 0.000000
v -0.030398 0.082909 -0.030398
v 0.000000 0.061189 -0.149441
v 0.000000 0.062798 -0.151183
v 0.105671 0.061189 -0.105671
v 0.106903 0.062798 -0.106903
v 0.149441 0.061189 0.000000
v 0.151183 0.062798 0.000000
v 0.105671 0.061189 0.105671
v 0.106903 0.062798 0.106903
v -0.000000 0.061189 0.149441
v -0.000000 0.062798 0.151183
v -0.105671 0.061189 0.105671
v -0.106903 0.062798 0.106903
v -0.149441 0.061189 -0.000000
v -0.151183 0.062798 -0.000000
v -0.105671 0.061189 -0.105671
v -0.106903 0.062798 -0.106903
v 0.105679 0.071814 -0.105679
v 0.106903 0.070025 -0.106903
v 0.000000 0.070025 -0.151183
v -0.000000 0.071814 -0.149452
v 0.149452 0.071814 0.000000
v 0.151183 0.070025 0.000000
v 0.105679 0.071814 0.105679
v 0.106903 0.070025 0.106903
v -0.000000 0.071814 0.149452
v -0.000000 0.070025 0.151183
v -0.105679 0.071814 0.105679
v -0.106903 0.070025 0.106903
v -0.149452 0.071814 -0.000000
v -0.151183 0.070025 -0.000000
v -0.105679 0.071814 -0.105679
v -0.106903 0.070025 -0.106903
v -0.010276 0.079973 -0.038349
v -0.010276 0.085846 -0.038349
v 0.028074 0.079973 -0.028074
v 0.028074 0.085846 -0.028074
v 0.038349 0.079973 0.010276
v 0.038349 0.085846 0.010276
v 0.010276 0.079973 0.038349
v 0.010276 0.085846 0.038349
v -0.028074 0.079973 0.028074
v -0.028074 0.085846 0.028074
v -0.038349 0.079973 -0.010276
v -0.038349 0.085846 -0.010276
v 0.020999 0.099608 -0.020999
v -0.007686 0.099608 -0.028685
v 0.028685 0.099608 0.007686
v 0.007686 0.099608 0.028685
v -0.020999 0.099608 0.020999
v -0.028685 0.099608 -0.007686
v 0.026120 0.124828 -0.026120
v 0.028438 0.120492 -0.028438
v -0.010409 0.120492 -0.038847
v -0.009560 0.124828 -0.035680
v 0.035680 0.124828 0.009560
v 0.038847 0.120492 0.010409
v 0.009560 0.124828 0.035680
v 0.010409 0.120492 0.038847
v -0.026120 0.124828 0.026120
v -0.028438 0.120492 0.028438
v -0.035680 0.124828 -0.009560
v -0.038847 0.120492 -0.010409
vt 0.125000 0.922958
vt 0.000000 0.577042
vt 0.125000 0.577042
vt 0.750000 0.922958
vt 0.625000 0.577042
vt 0.750000 0.577042
vt 0.625000 0.922958
vt 0.500000 0.577042
vt 0.500000 0.922958
vt 0.375000 0.577042
vt 0.375000 0.922958
vt 0.250000 0.577042
vt 0.250000 0.922958
vt 0.409649 0.090351
vt 0.475778 0.250000
vt 0.024222 0.250000
vt 0.250000 0.475778
vt 0.419545 0.419545
vt 0.250000 0.489772
vt 0.875000 0.922958
vt 0.875000 0.577042
vt 1.000000 0.922958
vt 1.000000 0.577042
vt 0.409649 0.409649
vt 0.080455 0.419545
vt 0.090351 0.409649
vt 0.250000 0.024222
vt 0.419545 0.080455
vt 0.080455 0.080455
vt 0.250000 0.010228
vt 0.090351 0.090351
vt 0.010228 0.250000
vt 0.489772 0.250000
vt 0.919706 0.419706
vt 0.750000 0.487234
vt 0.750000 0.490000
vt 0.250000 0.490000
vt 0.419706 0.419706
vt 0.990000 0.250000
vt 0.917750 0.417750
vt 0.490000 0.250000
vt 0.919706 0.080294
vt 0.987234 0.250000
vt 0.419706 0.080294
vt 0.750000 0.010000
vt 0.917750 0.082250
vt 0.250000 0.010000
vt 0.582250 0.082250
vt 0.750000 0.012765
vt 0.080294 0.080294
vt 0.510000 0.250000
vt 0.580294 0.080294
vt 0.010000 0.250000
vt 0.580294 0.419706
vt 0.512765 0.250000
vt 0.080294 0.419706
vt 0.582250 0.417750
vt 0.000000 0.922958
vt 1.000000 1.000000
vt 0.833333 0.500000
vt 1.000000 0.500000
vt 0.833333 1.000000
vt 0.666667 0.500000
vt 0.666667 1.000000
vt 0.500000 0.500000
vt 0.500000 1.000000
vt 0.333333 0.500000
vt 0.666667 1.000000
vt 0.333333 1.000000
vt 0.166667 0.500000
vt 0.166667 1.000000
vt -0.000000 0.500000
vt 0.750000 0.010000
vt 0.542154 0.130000
vt 0.542154 0.370000
vt 0.166667 1.000000
vt -0.000000 1.000000
vt -0.000000 1.000000
vt 0.833333 1.000000
vt 0.500000 1.000000
vt -0.000000 1.000000
vt 0.333333 1.000000
vt 0.666667 1.000000
vt 0.500000 1.000000
vt 0.166667 1.000000
vt 1.000000 1.000000
vt 0.833333 1.000000
vt 0.333333 1.000000
vt 0.255353 0.486910
vt 0.431072 0.354542
vt 0.452493 0.373090
vt 0.457846 0.363819
vt 0.431072 0.145458
vt 0.457846 0.136181
vt 0.452493 0.126910
vt 0.250000 0.040916
vt 0.255353 0.013090
vt 0.244647 0.013090
vt 0.068928 0.145458
vt 0.047507 0.126910
vt 0.042154 0.136181
vt 0.068928 0.354542
vt 0.042154 0.363819
vt 0.047507 0.373090
vt 0.250000 0.459084
vt 0.244647 0.486910
vt 0.750000 0.490000
vt 0.957846 0.370000
vt 0.957846 0.130000
vt 1.000000 1.000000
vn -0.3827 0.0000 -0.9239
vn 0.9239 0.0000 0.3827
vn 0.3827 0.0000 0.9239
vn -0.3827 0.0000 0.9239
vn -0.9239 0.0000 0.3827
vn -0.9239 0.0000 -0.3827
vn 0.0000 1.0000 0.0000
vn 0.0429 0.9937 -0.1036
vn 0.9239 0.0000 -0.3827
vn 0.3827 0.0000 -0.9239
vn 0.1036 0.9937 -0.0429
vn -0.0429 0.9937 -0.1036
vn 0.0429 0.9937 0.1036
vn -0.0429 0.9937 0.1036
vn -0.1036 0.9937 0.0429
vn -0.1036 0.9937 -0.0429
vn 0.1036 0.9937 0.0429
vn 0.2706 -0.7071 -0.6533
vn 0.2854 0.6663 -0.6889
vn 0.6533 -0.7071 -0.2706
vn 0.6889 0.6663 -0.2854
vn 0.6533 -0.7071 0.2706
vn 0.6889 0.6663 0.2854
vn 0.2706 -0.7071 0.6533
vn 0.2854 0.6663 0.6889
vn -0.2706 -0.7071 0.6533
vn -0.2854 0.6663 0.6889
vn -0.6533 -0.7071 0.2706
vn -0.6889 0.6663 0.2854
vn -0.6533 -0.7071 -0.2706
vn -0.6889 0.6663 -0.2854
vn -0.2706 -0.7071 -0.6533
vn -0.2854 0.6663 -0.6889
vn 0.0000 -1.0000 0.0000
vn 0.2588 0.0000 -0.9659
vn 0.9659 0.0000 -0.2588
vn 0.7071 0.0000 0.7071
vn -0.2588 0.0000 0.9659
vn 0.8174 0.5328 -0.2190
vn -0.9659 0.0000 0.2588
vn -0.7071 0.0000 -0.7071
vn -0.6481 -0.3998 -0.6481
vn -0.8174 0.5328 0.2190
vn 0.2190 0.5328 -0.8174
vn 0.5984 0.5328 0.5984
vn -0.5984 0.5328 -0.5984
vn -0.2190 0.5328 0.8174
vn 0.8854 -0.3998 -0.2372
vn 0.6481 -0.3998 0.6481
vn -0.8854 -0.3998 0.2372
vn 0.2372 -0.3998 -0.8854
vn -0.2372 -0.3998 0.8853
vn 0.2165 0.5478 -0.8081
vn 0.8081 0.5478 -0.2165
vn 0.5916 0.5478 0.5916
vn -0.2165 0.5478 0.8081
vn -0.8081 0.5478 0.2165
vn -0.5916 0.5478 -0.5916
vn 0.8853 -0.3998 -0.2372
vn -0.8853 -0.3998 0.2372
vn 0.2372 -0.3998 -0.8853
vn -0.2372 -0.3998 0.8854
usemtl GlassLid1SaucePan1
s off
f 40/1/1 10/2/1 24/3/1
f 30/4/2 16/5/2 14/6/2
f 32/7/3 18/8/3 16/5/3
f 34/9/4 20/10/4 18/8/4
f 36/11/5 22/12/5 20/10/5
f 38/13/6 24/3/6 22/12/6
f 4/14/7 3/15/7 7/16/7
f 1/17/8 25/18/8 28/19/8
f 26/20/9 14/6/9 12/21/9
f 27/22/10 12/21/10 10/23/10
f 3/15/11 25/18/11 2/24/11
f 1/17/12 39/25/12 8/26/12
f 5/27/13 31/28/13 4/14/13
f 5/27/14 35/29/14 33/30/14
f 7/16/15 35/29/15 6/31/15
f 7/16/16 39/25/16 37/32/16
f 3/15/17 31/28/17 29/33/17
f 12/34/18 9/35/18 10/36/18
f 27/37/19 25/18/19 26/38/19
f 14/39/20 11/40/20 12/34/20
f 26/38/21 29/33/21 30/41/21
f 16/42/22 13/43/22 14/39/22
f 30/41/23 31/28/23 32/44/23
f 18/45/24 15/46/24 16/42/24
f 32/44/25 33/30/25 34/47/25
f 18/45/26 19/48/26 17/49/26
f 34/47/27 35/29/27 36/50/27
f 22/51/28 19/48/28 20/52/28
f 36/50/29 37/32/29 38/53/29
f 24/54/30 21/55/30 22/51/30
f 38/53/31 39/25/31 40/56/31
f 10/36/32 23/57/32 24/54/32
f 40/56/33 28/19/33 27/37/33
f 11/40/34 15/46/34 19/48/34
f 40/1/1 27/58/1 10/2/1
f 30/4/2 32/7/2 16/5/2
f 32/7/3 34/9/3 18/8/3
f 34/9/4 36/11/4 20/10/4
f 36/11/5 38/13/5 22/12/5
f 38/13/6 40/1/6 24/3/6
f 3/15/7 2/24/7 7/16/7
f 2/24/7 1/17/7 7/16/7
f 1/17/7 8/26/7 7/16/7
f 7/16/7 6/31/7 5/27/7
f 5/27/7 4/14/7 7/16/7
f 1/17/8 2/24/8 25/18/8
f 26/20/9 30/4/9 14/6/9
f 27/22/10 26/20/10 12/21/10
f 3/15/11 29/33/11 25/18/11
f 1/17/12 28/19/12 39/25/12
f 5/27/13 33/30/13 31/28/13
f 5/27/14 6/31/14 35/29/14
f 7/16/15 37/32/15 35/29/15
f 7/16/16 8/26/16 39/25/16
f 3/15/17 4/14/17 31/28/17
f 12/34/18 11/40/18 9/35/18
f 27/37/19 28/19/19 25/18/19
f 14/39/20 13/43/20 11/40/20
f 26/38/21 25/18/21 29/33/21
f 16/42/22 15/46/22 13/43/22
f 30/41/23 29/33/23 31/28/23
f 18/45/24 17/49/24 15/46/24
f 32/44/25 31/28/25 33/30/25
f 18/45/26 20/52/26 19/48/26
f 34/47/27 33/30/27 35/29/27
f 22/51/28 21/55/28 19/48/28
f 36/50/29 35/29/29 37/32/29
f 24/54/30 23/57/30 21/55/30
f 38/53/31 37/32/31 39/25/31
f 10/36/32 9/35/32 23/57/32
f 40/56/33 39/25/33 28/19/33
f 23/57/34 9/35/34 11/40/34
f 11/40/34 13/43/34 15/46/34
f 15/46/34 17/49/34 19/48/34
f 19/48/34 21/55/34 23/57/34
f 23/57/34 11/40/34 19/48/34
usemtl PlasticLid1SaucePan1
f 42/59/35 43/60/35 41/61/35
f 44/62/36 45/63/36 43/60/36
f 46/64/37 47/65/37 45/63/37
f 48/66/38 49/67/38 47/65/38
f 44/62/39 55/68/39 46/64/39
f 50/69/40 51/70/40 49/67/40
f 52/71/41 41/72/41 51/70/41
f 47/73/34 49/74/34 51/75/34
f 58/76/42 61/77/42 54/78/42
f 50/69/43 58/76/43 52/71/43
f 42/59/44 53/79/44 44/62/44
f 46/64/45 56/80/45 48/66/45
f 52/71/46 54/78/46 42/81/46
f 48/66/47 57/82/47 50/69/47
f 53/79/48 64/83/48 55/68/48
f 55/68/49 66/84/49 56/80/49
f 57/82/50 70/85/50 58/76/50
f 54/86/51 60/87/51 53/79/51
f 57/82/52 66/84/52 68/88/52
f 61/89/53 59/90/53 60/91/53
f 60/92/54 63/93/54 64/94/54
f 64/95/55 65/96/55 66/97/55
f 66/98/56 67/99/56 68/100/56
f 68/101/57 69/102/57 70/103/57
f 70/104/58 62/105/58 61/106/58
f 62/105/7 67/99/7 63/93/7
f 42/59/35 44/62/35 43/60/35
f 44/62/36 46/64/36 45/63/36
f 46/64/37 48/66/37 47/65/37
f 48/66/38 50/69/38 49/67/38
f 44/62/39 53/79/39 55/68/39
f 50/69/40 52/71/40 51/70/40
f 52/71/41 42/81/41 41/72/41
f 51/75/34 41/107/34 43/108/34
f 43/108/34 45/109/34 51/75/34
f 45/109/34 47/73/34 51/75/34
f 58/76/42 70/85/42 61/77/42
f 50/69/43 57/82/43 58/76/43
f 42/59/44 54/86/44 53/79/44
f 46/64/45 55/68/45 56/80/45
f 52/71/46 58/76/46 54/78/46
f 48/66/47 56/80/47 57/82/47
f 53/79/59 60/87/59 64/83/59
f 55/68/49 64/83/49 66/84/49
f 57/82/60 68/88/60 70/85/60
f 54/86/61 61/110/61 60/87/61
f 57/82/62 56/80/62 66/84/62
f 61/89/53 62/105/53 59/90/53
f 60/92/54 59/90/54 63/93/54
f 64/95/55 63/93/55 65/96/55
f 66/98/56 65/96/56 67/99/56
f 68/101/57 67/99/57 69/102/57
f 70/104/58 69/102/58 62/105/58
f 63/93/7 59/90/7 62/105/7
f 62/105/7 69/102/7 67/99/7
f 67/99/7 65/96/7 63/93/7
o SaucePan1_Cylinder.003
v 0.000000 -0.096674 -0.158915
v -0.000000 0.062535 -0.146565
v 0.112370 -0.096674 -0.112370
v 0.103637 0.062535 -0.103637
v 0.158915 -0.096674 0.000000
v 0.146565 0.062535 0.000000
v 0.112370 -0.096674 0.112370
v 0.103637 0.062535 0.103637
v -0.000000 -0.096674 0.158915
v -0.000000 0.062535 0.146565
v -0.112370 -0.096674 0.112370
v -0.103637 0.062535 0.103637
v -0.158915 -0.096674 -0.000000
v -0.146565 0.062535 -0.000000
v -0.112370 -0.096674 -0.112370
v -0.103637 0.062535 -0.103637
v 0.103637 -0.089629 -0.103637
v 0.000000 -0.089629 -0.146565
v 0.146565 -0.089629 0.000000
v 0.103637 -0.089629 0.103637
v -0.000000 -0.089629 0.146565
v -0.103637 -0.089629 0.103637
v -0.146565 -0.089629 -0.000000
v -0.103637 -0.089629 -0.103637
v 0.107633 0.062535 -0.107633
v 0.112370 0.061234 -0.112370
v -0.000000 0.061234 -0.158915
v -0.000000 0.062535 -0.152216
v 0.152216 0.062535 0.000000
v 0.158915 0.061234 0.000000
v 0.107633 0.062535 0.107633
v 0.112370 0.061234 0.112370
v -0.000000 0.062535 0.152216
v -0.000000 0.061234 0.158915
v -0.107633 0.062535 0.107633
v -0.112370 0.061234 0.112370
v -0.152216 0.062535 -0.000000
v -0.158915 0.061234 -0.000000
v -0.107633 0.062535 -0.107633
v -0.112370 0.061234 -0.112370
v 0.018610 0.012059 -0.199947
v 0.018610 0.029989 -0.199947
v 0.018610 0.013825 -0.141837
v 0.018610 0.028223 -0.152523
v -0.018610 0.012059 -0.199947
v -0.018610 0.029989 -0.199947
v -0.018610 0.013825 -0.141837
v -0.018610 0.028223 -0.152523
v 0.017678 0.025919 -0.189836
v 0.014853 0.026849 -0.188200
v -0.014853 0.026849 -0.188200
v -0.017678 0.025919 -0.189836
v 0.007093 0.065833 -0.517563
v 0.008442 0.064758 -0.517056
v -0.008442 0.064758 -0.517056
v -0.007093 0.065833 -0.517563
v 0.011070 0.098507 -0.454224
v 0.013165 0.096672 -0.453753
v -0.013165 0.096672 -0.453753
v -0.011070 0.098507 -0.454224
v 0.014272 0.110203 -0.364958
v 0.016973 0.108306 -0.364958
v -0.016973 0.108306 -0.364958
v -0.014272 0.110203 -0.364958
v 0.014853 0.099036 -0.276579
v 0.017678 0.097206 -0.277111
v -0.017678 0.097206 -0.277111
v -0.014853 0.099036 -0.276579
v 0.014853 0.068526 -0.211881
v 0.017678 0.067078 -0.213223
v -0.017678 0.067078 -0.213223
v -0.014853 0.068526 -0.211881
v 0.014853 0.015040 -0.197270
v 0.017678 0.024816 -0.191777
v -0.017678 0.024816 -0.191777
v -0.014853 0.015040 -0.197270
v 0.008442 0.063482 -0.516455
v 0.007093 0.050780 -0.515948
v -0.007093 0.050780 -0.515948
v -0.008442 0.063482 -0.516455
v 0.013151 0.094572 -0.453217
v 0.010827 0.074387 -0.453983
v -0.010827 0.074387 -0.453983
v -0.013151 0.094572 -0.453217
v 0.016961 0.106104 -0.364958
v 0.014231 0.085803 -0.364958
v -0.014231 0.085803 -0.364958
v -0.016961 0.106104 -0.364958
v 0.017678 0.095109 -0.277722
v 0.014853 0.074875 -0.278254
v -0.014853 0.074875 -0.278254
v -0.017678 0.095109 -0.277722
v 0.017678 0.065578 -0.214613
v 0.014853 0.045724 -0.223245
v -0.014853 0.045724 -0.223245
v -0.017678 0.065578 -0.214613
vt 0.875000 0.500000
vt 0.750000 0.995914
vt 0.750000 0.500000
vt 0.401457 0.401457
vt 0.476002 0.250000
vt 0.409807 0.409807
vt 0.401457 0.098543
vt 0.464193 0.250000
vt 0.250000 0.023998
vt 0.409807 0.090193
vt 0.098543 0.098543
vt 0.250000 0.035807
vt 0.023998 0.250000
vt 0.090193 0.090193
vt 0.035807 0.250000
vt 0.098543 0.401457
vt 0.098543 0.401457
vt 0.090193 0.409807
vt 0.250000 0.476002
vt 0.919706 0.080294
vt 0.580294 0.080294
vt 0.580294 0.419706
vt 1.000000 0.500000
vt 0.875000 0.995914
vt 0.125000 0.995914
vt 0.000000 0.500000
vt 0.125000 0.500000
vt 0.625000 0.995914
vt 0.500000 0.500000
vt 0.625000 0.500000
vt 0.500000 0.995914
vt 0.375000 0.500000
vt 0.375000 0.995914
vt 0.250000 0.500000
vt 0.035807 0.250000
vt 0.250000 0.035807
vt 0.464193 0.250000
vt 0.098543 0.098543
vt 0.401457 0.098543
vt 0.250000 0.464193
vt 0.401457 0.401457
vt 0.250000 0.464193
vt 0.250000 0.490000
vt 0.419706 0.419706
vt 0.490000 0.250000
vt 0.419706 0.080294
vt 0.250000 0.010000
vt 0.080294 0.080294
vt 0.010000 0.250000
vt 0.080294 0.419706
vt 0.375000 0.000000
vt 0.625000 0.250000
vt 0.375000 0.250000
vt 0.375000 0.500000
vt 0.625000 0.500000
vt 0.375000 0.750000
vt 0.625000 0.750000
vt 0.375000 1.000000
vt 0.125000 0.750000
vt 0.125000 0.500000
vt 0.875000 0.500000
vt 0.416667 0.500000
vt 0.333333 0.500000
vt 0.416667 0.500000
vt 0.333333 0.500000
vt 0.250000 0.500000
vt 0.250000 0.500000
vt 0.166667 0.500000
vt 0.166667 0.500000
vt 0.083333 0.500000
vt 0.000000 0.500000
vt 0.083333 0.500000
vt 0.333333 0.539959
vt 0.250000 0.960041
vt 0.333333 0.960041
vt 0.250000 0.539959
vt 0.166667 0.960041
vt 0.166667 0.539959
vt 0.083333 0.960041
vt 0.416667 0.539959
vt 0.416667 0.960041
vt 0.083333 0.960041
vt 0.000000 0.539959
vt 0.083333 0.539959
vt 0.416667 0.539959
vt 0.333333 0.960041
vt 0.333333 0.539959
vt 0.416667 1.000000
vt 0.333333 1.000000
vt 0.333333 1.000000
vt 0.250000 0.539959
vt 0.250000 1.000000
vt 0.250000 1.000000
vt 0.250000 0.960041
vt 0.166667 0.539959
vt 0.166667 1.000000
vt 0.166667 1.000000
vt 0.083333 1.000000
vt 0.083333 1.000000
vt 0.000000 0.539959
vt 0.083333 0.539959
vt 0.000000 1.000000
vt 0.000000 1.000000
vt 0.416667 1.000000
vt 0.416667 0.960041
vt 0.166667 0.960041
vt 0.000000 0.960041
vt 0.000000 0.500000
vt 0.000000 0.960041
vt 0.750000 0.490000
vt 0.919706 0.419706
vt 0.990000 0.250000
vt 0.750000 0.010000
vt 0.510000 0.250000
vt 1.000000 0.995914
vt 0.000000 0.995914
vt 0.250000 0.995914
vt 0.625000 0.000000
vt 0.625000 1.000000
vt 0.875000 0.750000
vn 0.9239 0.0000 -0.3827
vn 0.0000 1.0000 0.0000
vn 0.9239 0.0000 0.3827
vn -0.0000 -1.0000 -0.0000
vn 0.3827 0.0000 -0.9239
vn -0.3827 -0.0000 -0.9239
vn 0.3827 0.0000 0.9239
vn -0.3827 0.0000 0.9239
vn -0.9239 0.0000 0.3827
vn -0.9239 -0.0000 -0.3827
vn 0.0787 0.9786 -0.1901
vn 0.1901 0.9786 -0.0787
vn 0.1901 0.9786 0.0787
vn 0.0787 0.9786 0.1901
vn -0.0787 0.9786 0.1901
vn -0.1901 0.9786 0.0787
vn -0.1901 0.9786 -0.0787
vn -0.0787 0.9786 -0.1901
vn 1.0000 -0.0000 -0.0000
vn 0.0000 0.5960 0.8030
vn -1.0000 0.0000 0.0000
vn 0.0000 0.0000 -1.0000
vn 0.0000 -0.9995 0.0304
vn 0.0000 0.9993 0.0372
vn 0.9978 -0.0284 -0.0603
vn 0.9990 -0.0168 -0.0409
vn 0.9999 -0.0057 -0.0089
vn -0.0000 -0.9919 0.1272
vn -0.0000 -0.9921 -0.1251
vn -0.0000 -0.8836 -0.4682
vn 0.0000 -0.9345 0.3560
vn 0.0000 0.4940 0.8695
vn 0.0000 0.8887 -0.4584
vn -0.9978 -0.0225 -0.0631
vn 0.0000 0.9915 -0.1299
vn -0.9991 -0.0057 -0.0421
vn 0.0000 0.9921 0.1254
vn -1.0000 0.0023 -0.0077
vn 0.0000 0.9045 0.4265
vn -0.0000 -0.6461 -0.7632
vn 0.0000 -0.4266 -0.9045
vn 0.6598 0.6500 -0.3769
vn -0.6567 0.6527 -0.3779
vn 0.6693 0.7332 -0.1201
vn -0.5699 0.8113 -0.1307
vn 0.5720 0.8143 0.0983
vn -0.5541 0.8263 0.1008
vn 0.5544 0.7528 0.3550
vn -0.5544 0.7527 0.3550
vn 0.5544 0.4111 0.7236
vn -0.5544 0.4111 0.7236
vn 0.9941 -0.1064 -0.0194
vn -0.9933 -0.1137 -0.0181
vn 0.9933 -0.1135 -0.0234
vn -0.9908 -0.1332 -0.0254
vn 0.9908 -0.1332 -0.0249
vn -0.9902 -0.1376 -0.0244
vn 0.9886 -0.1364 -0.0638
vn -0.9915 -0.1147 -0.0608
vn 0.9868 -0.0791 -0.1412
vn -0.9657 -0.1678 -0.1982
vn 0.4925 -0.5302 0.6902
vn 0.9978 -0.0225 -0.0631
vn 0.9991 -0.0057 -0.0421
vn 1.0000 0.0023 -0.0077
vn -0.9978 -0.0284 -0.0603
vn -0.9990 -0.0168 -0.0409
vn -0.9999 -0.0057 -0.0089
vn 0.0001 -0.4266 -0.9045
vn -0.0001 -0.4266 -0.9045
vn 0.0000 -0.0399 -0.9992
vn 0.6567 0.6527 -0.3779
vn -0.6598 0.6500 -0.3769
vn 0.5699 0.8113 -0.1307
vn -0.6693 0.7332 -0.1201
vn 0.5541 0.8263 0.1008
vn -0.5720 0.8143 0.0983
vn -0.5544 0.7528 0.3550
vn 0.5544 0.4112 0.7236
vn -0.5544 0.4112 0.7236
vn 0.9933 -0.1137 -0.0181
vn -0.9941 -0.1064 -0.0194
vn 0.9908 -0.1332 -0.0254
vn -0.9933 -0.1135 -0.0234
vn 0.9902 -0.1376 -0.0245
vn -0.9908 -0.1332 -0.0249
vn 0.9915 -0.1147 -0.0608
vn -0.9886 -0.1364 -0.0638
vn 0.9657 -0.1678 -0.1982
vn -0.9868 -0.0791 -0.1412
vn 0.0000 -0.8695 0.4940
vn 0.0000 -0.6092 0.7930
vn -0.4925 -0.5302 0.6902
usemtl SteelSaucePan1
s off
f 73/111/63 100/112/63 75/113/63
f 74/114/64 99/115/64 95/116/64
f 78/117/64 99/115/64 76/118/64
f 78/117/64 103/119/64 101/120/64
f 82/121/64 103/119/64 80/122/64
f 82/121/64 107/123/64 105/124/64
f 84/125/65 94/126/65 86/127/65
f 84/125/64 109/128/64 107/123/64
f 86/127/64 98/129/64 109/128/64
f 77/130/66 81/131/66 85/132/66
f 71/133/67 96/134/67 73/111/67
f 110/135/68 71/136/68 85/137/68
f 102/138/69 79/139/69 77/140/69
f 104/141/70 81/142/70 79/139/70
f 106/143/71 83/144/71 81/142/71
f 83/144/72 110/135/72 85/137/72
f 100/112/65 77/140/65 75/113/65
f 93/145/64 91/146/64 89/147/64
f 80/122/67 92/148/67 82/121/67
f 76/118/72 90/149/72 78/117/72
f 74/114/70 88/150/70 87/151/70
f 72/152/69 94/126/69 88/150/69
f 82/121/63 93/145/63 84/125/63
f 80/122/68 90/149/68 91/146/68
f 74/114/71 89/147/71 76/118/71
f 97/153/73 95/116/73 96/154/73
f 96/154/74 99/115/74 100/155/74
f 100/155/75 101/120/75 102/156/75
f 102/156/76 103/119/76 104/157/76
f 104/157/77 105/124/77 106/158/77
f 106/158/78 107/123/78 108/159/78
f 110/160/79 107/123/79 109/128/79
f 110/160/80 98/129/80 97/153/80
f 74/114/64 98/129/64 72/152/64
f 111/161/81 114/162/81 113/163/81
f 114/162/82 117/164/82 113/163/82
f 118/165/83 115/166/83 117/164/83
f 116/167/84 111/168/84 115/166/84
f 117/164/85 111/169/85 113/170/85
f 114/171/86 116/167/86 118/165/86
f 124/172/87 151/173/87 147/174/87
f 128/175/88 155/176/88 151/173/88
f 132/177/89 159/178/89 155/176/89
f 136/179/81 163/180/81 159/178/81
f 119/181/81 163/180/81 140/182/81
f 152/183/90 157/184/90 153/185/90
f 156/186/91 161/187/91 157/184/91
f 160/188/92 165/189/92 161/187/92
f 148/190/93 153/185/93 149/191/93
f 142/192/94 120/193/94 139/194/94
f 123/195/95 130/196/95 127/197/95
f 125/198/96 154/199/96 129/200/96
f 130/196/97 131/201/97 127/197/97
f 129/200/98 158/202/98 133/203/98
f 134/204/99 135/205/99 131/201/99
f 133/203/100 162/206/100 137/207/100
f 135/205/101 142/192/101 139/194/101
f 137/207/83 166/208/83 141/209/83
f 143/210/102 165/189/102 164/211/102
f 122/212/83 166/208/83 145/213/83
f 150/214/103 126/215/103 147/174/103
f 123/195/104 128/175/104 124/172/104
f 126/215/105 129/200/105 130/196/105
f 131/201/106 128/175/106 127/197/106
f 134/204/107 129/200/107 133/203/107
f 131/201/108 136/179/108 132/177/108
f 134/204/109 137/207/109 138/216/109
f 135/205/110 140/182/110 136/179/110
f 138/216/111 141/209/111 142/192/111
f 120/193/112 140/182/112 139/194/112
f 121/217/113 141/209/113 122/212/113
f 147/174/114 152/183/114 148/190/114
f 150/214/115 153/185/115 154/199/115
f 151/173/116 156/186/116 152/183/116
f 154/199/117 157/184/117 158/202/117
f 159/178/118 156/186/118 155/176/118
f 162/206/119 157/184/119 161/187/119
f 163/180/120 160/188/120 159/178/120
f 166/208/121 161/187/121 165/189/121
f 144/218/122 164/211/122 163/180/122
f 145/213/123 165/189/123 146/219/123
f 143/210/124 144/218/124 120/193/124
f 73/111/63 96/134/63 100/112/63
f 74/114/64 76/118/64 99/115/64
f 78/117/64 101/120/64 99/115/64
f 78/117/64 80/122/64 103/119/64
f 82/121/64 105/124/64 103/119/64
f 82/121/64 84/125/64 107/123/64
f 84/125/65 93/145/65 94/126/65
f 84/125/64 86/127/64 109/128/64
f 86/127/64 72/152/64 98/129/64
f 85/132/66 71/220/66 77/130/66
f 71/220/66 73/221/66 77/130/66
f 73/221/66 75/222/66 77/130/66
f 77/130/66 79/223/66 81/131/66
f 81/131/66 83/224/66 85/132/66
f 71/133/67 97/225/67 96/134/67
f 110/135/68 97/226/68 71/136/68
f 102/138/69 104/141/69 79/139/69
f 104/141/70 106/143/70 81/142/70
f 106/143/71 108/227/71 83/144/71
f 83/144/72 108/227/72 110/135/72
f 100/112/65 102/138/65 77/140/65
f 89/147/64 87/151/64 88/150/64
f 88/150/64 94/126/64 93/145/64
f 93/145/64 92/148/64 91/146/64
f 91/146/64 90/149/64 89/147/64
f 89/147/64 88/150/64 93/145/64
f 80/122/67 91/146/67 92/148/67
f 76/118/72 89/147/72 90/149/72
f 74/114/70 72/152/70 88/150/70
f 72/152/69 86/127/69 94/126/69
f 82/121/63 92/148/63 93/145/63
f 80/122/68 78/117/68 90/149/68
f 74/114/71 87/151/71 89/147/71
f 97/153/73 98/129/73 95/116/73
f 96/154/74 95/116/74 99/115/74
f 100/155/75 99/115/75 101/120/75
f 102/156/76 101/120/76 103/119/76
f 104/157/77 103/119/77 105/124/77
f 106/158/78 105/124/78 107/123/78
f 110/160/79 108/159/79 107/123/79
f 110/160/80 109/128/80 98/129/80
f 74/114/64 95/116/64 98/129/64
f 111/161/81 112/228/81 114/162/81
f 114/162/82 118/165/82 117/164/82
f 118/165/83 116/167/83 115/166/83
f 116/167/84 112/229/84 111/168/84
f 117/164/85 115/166/85 111/169/85
f 114/171/86 112/230/86 116/167/86
f 124/172/125 128/175/125 151/173/125
f 128/175/126 132/177/126 155/176/126
f 132/177/127 136/179/127 159/178/127
f 136/179/81 140/182/81 163/180/81
f 119/181/81 144/218/81 163/180/81
f 152/183/90 156/186/90 157/184/90
f 156/186/91 160/188/91 161/187/91
f 160/188/92 164/211/92 165/189/92
f 148/190/93 152/183/93 153/185/93
f 142/192/94 121/217/94 120/193/94
f 123/195/95 126/215/95 130/196/95
f 125/198/128 150/214/128 154/199/128
f 130/196/97 134/204/97 131/201/97
f 129/200/129 154/199/129 158/202/129
f 134/204/99 138/216/99 135/205/99
f 133/203/130 158/202/130 162/206/130
f 135/205/101 138/216/101 142/192/101
f 137/207/83 162/206/83 166/208/83
f 143/210/102 146/219/102 165/189/102
f 122/212/83 141/209/83 166/208/83
f 150/214/131 125/198/131 126/215/131
f 126/215/103 123/195/103 147/174/103
f 123/195/132 124/172/132 147/174/132
f 147/174/133 148/190/133 150/214/133
f 148/190/133 149/191/133 150/214/133
f 123/195/134 127/197/134 128/175/134
f 126/215/135 125/198/135 129/200/135
f 131/201/136 132/177/136 128/175/136
f 134/204/137 130/196/137 129/200/137
f 131/201/138 135/205/138 136/179/138
f 134/204/139 133/203/139 137/207/139
f 135/205/110 139/194/110 140/182/110
f 138/216/140 137/207/140 141/209/140
f 120/193/141 119/181/141 140/182/141
f 121/217/142 142/192/142 141/209/142
f 147/174/143 151/173/143 152/183/143
f 150/214/144 149/191/144 153/185/144
f 151/173/145 155/176/145 156/186/145
f 154/199/146 153/185/146 157/184/146
f 159/178/147 160/188/147 156/186/147
f 162/206/148 158/202/148 157/184/148
f 163/180/149 164/211/149 160/188/149
f 166/208/150 162/206/150 161/187/150
f 144/218/151 143/210/151 164/211/151
f 145/213/152 166/208/152 165/189/152
f 144/218/153 119/181/153 120/193/153
f 120/193/154 121/217/154 146/219/154
f 121/217/153 122/212/153 145/213/153
f 146/219/155 121/217/155 145/213/155
f 146/219/154 143/210/154 120/193/154
