# Blender v3.2.0 OBJ File: 'SingleDoorUpperCabinet1.blend'
# www.blender.org
mtllib SingleDoorUpperCabinet1.mtl
o SingleDoorUpperCabinet1_Cube.002
v -0.213958 0.354915 0.177926
v -0.241696 0.382653 -0.207367
v 0.000000 0.354915 0.177926
v 0.000000 0.382653 -0.207367
v -0.241696 0.382653 0.177926
v 0.000000 0.382653 0.177926
v -0.213958 0.354915 -0.193003
v 0.000000 0.354915 -0.193003
v -0.213958 -0.373136 0.177926
v -0.241696 -0.400874 -0.207367
v 0.000000 -0.373136 0.177926
v 0.000000 -0.400874 -0.207367
v -0.241696 -0.400874 0.177926
v 0.000000 -0.400874 0.177926
v -0.213958 -0.373136 -0.193002
v 0.000000 -0.373136 -0.193002
v -0.241696 0.382653 0.060867
v 0.000000 0.382653 0.060867
v -0.241696 -0.400874 0.060867
v 0.000000 -0.400874 0.060867
v 0.000000 0.382653 0.065408
v -0.229923 -0.015574 0.172516
v -0.229923 -0.002648 0.172516
v -0.229923 -0.015574 -0.199767
v -0.229923 -0.002648 -0.199767
v 0.000000 -0.015574 0.172516
v 0.000000 -0.002648 0.172516
v 0.000000 -0.015574 -0.199767
v 0.000000 -0.002648 -0.199767
v 0.213958 0.354915 0.177926
v 0.241696 0.382653 -0.207367
v 0.241696 0.382653 0.177926
v 0.213958 0.354915 -0.193003
v 0.213958 -0.373136 0.177926
v 0.241696 -0.400874 -0.207367
v 0.241696 -0.400874 0.177926
v 0.213958 -0.373136 -0.193002
v 0.241696 0.382653 0.060867
v 0.241696 -0.400874 0.060867
v 0.229923 -0.015574 0.172516
v 0.229923 -0.002648 0.172516
v 0.229923 -0.015574 -0.199767
v 0.229923 -0.002648 -0.199767
vt 0.625000 0.500000
vt 0.375000 0.250000
vt 0.625000 0.250000
vt 0.375000 1.000000
vt 0.617238 0.985186
vt 0.625000 1.000000
vt 0.382762 0.985186
vt 0.617238 0.985186
vt 0.382762 0.764814
vt 0.617238 0.764814
vt 0.625000 0.750000
vt 0.617238 0.764814
vt 0.382762 0.764814
vt 0.382762 0.985186
vt 0.375000 0.700000
vt 0.125000 0.750000
vt 0.125000 0.700000
vt 0.375000 0.750000
vt 0.375000 0.050000
vt 0.625000 0.000000
vt 0.625000 0.050000
vt 0.625000 0.000000
vt 0.375000 0.250000
vt 0.375000 0.000000
vt 0.625000 0.250000
vt 0.375000 0.500000
vt 0.625000 0.750000
vt 0.375000 1.000000
vt 0.375000 0.750000
vt 0.125000 0.750000
vt 0.125000 0.500000
vt 0.875000 0.500000
vt 0.625000 0.500000
vt 0.375000 0.500000
vt 0.000000 0.000000
vt 0.625000 0.250000
vt 0.617238 0.985186
vt 0.375000 1.000000
vt 0.625000 1.000000
vt 0.617238 0.985186
vt 0.382762 0.985186
vt 0.382762 0.985186
vt 0.125000 0.750000
vt 0.125000 0.700000
vt 0.625000 0.000000
vt 0.375000 0.050000
vt 0.625000 0.050000
vt 0.375000 0.250000
vt 0.375000 0.250000
vt 0.625000 0.000000
vt 0.375000 0.000000
vt 0.625000 0.250000
vt 0.375000 1.000000
vt 0.125000 0.750000
vt 0.125000 0.500000
vt 0.875000 0.500000
vt 0.375000 0.000000
vt 0.625000 1.000000
vt 0.875000 0.750000
vt 0.375000 0.000000
vt 0.625000 1.000000
vt 0.875000 0.750000
vn 0.0000 -0.0000 -1.0000
vn -0.0000 0.0000 1.0000
vn 1.0000 0.0000 0.0000
vn 0.0000 -1.0000 0.0000
vn 0.0000 1.0000 0.0000
vn -1.0000 0.0000 0.0000
usemtl WoodSingleDoorUpperCabinet1
s off
f 4/1/1 10/2/1 2/3/1
f 13/4/2 1/5/2 5/6/2
f 9/7/3 7/8/3 1/5/3
f 7/8/2 16/9/2 8/10/2
f 1/5/2 6/11/2 5/6/2
f 1/5/4 8/10/4 3/12/4
f 11/13/5 15/14/5 9/7/5
f 20/15/4 13/16/4 19/17/4
f 9/7/2 14/18/2 11/13/2
f 19/19/6 5/20/6 17/21/6
f 2/3/6 19/19/6 17/21/6
f 23/22/6 24/23/6 22/24/6
f 25/25/1 28/26/1 24/23/1
f 27/27/2 22/28/2 26/29/2
f 28/26/4 22/30/4 24/31/4
f 25/32/5 27/27/5 29/33/5
f 12/34/4 19/19/4 10/2/4
f 17/21/5 6/11/5 18/35/5
f 18/35/5 2/3/5 17/21/5
f 31/36/1 12/34/1 4/1/1
f 30/37/2 36/38/2 32/39/2
f 33/40/6 34/41/6 30/37/6
f 16/9/2 33/40/2 8/10/2
f 30/37/2 6/11/2 3/12/2
f 8/10/4 30/37/4 3/12/4
f 37/42/5 11/13/5 34/41/5
f 36/43/4 20/15/4 39/44/4
f 14/18/2 34/41/2 11/13/2
f 32/45/3 39/46/3 38/47/3
f 38/47/3 35/48/3 31/36/3
f 42/49/3 41/50/3 40/51/3
f 28/26/1 43/52/1 42/49/1
f 40/53/2 27/27/2 26/29/2
f 40/54/4 28/26/4 42/55/4
f 27/27/5 43/56/5 29/33/5
f 39/46/4 12/34/4 35/48/4
f 6/11/5 38/47/5 18/35/5
f 31/36/5 18/35/5 38/47/5
f 4/1/1 12/34/1 10/2/1
f 13/4/2 9/7/2 1/5/2
f 9/7/3 15/14/3 7/8/3
f 7/8/2 15/14/2 16/9/2
f 1/5/2 3/12/2 6/11/2
f 1/5/4 7/8/4 8/10/4
f 11/13/5 16/9/5 15/14/5
f 20/15/4 14/18/4 13/16/4
f 9/7/2 13/4/2 14/18/2
f 19/19/6 13/57/6 5/20/6
f 2/3/6 10/2/6 19/19/6
f 23/22/6 25/25/6 24/23/6
f 25/25/1 29/33/1 28/26/1
f 27/27/2 23/58/2 22/28/2
f 28/26/4 26/29/4 22/30/4
f 25/32/5 23/59/5 27/27/5
f 12/34/4 20/15/4 19/19/4
f 17/21/5 5/20/5 6/11/5
f 18/35/5 4/1/5 2/3/5
f 31/36/1 35/48/1 12/34/1
f 30/37/2 34/41/2 36/38/2
f 33/40/6 37/42/6 34/41/6
f 16/9/2 37/42/2 33/40/2
f 30/37/2 32/39/2 6/11/2
f 8/10/4 33/40/4 30/37/4
f 37/42/5 16/9/5 11/13/5
f 36/43/4 14/18/4 20/15/4
f 14/18/2 36/38/2 34/41/2
f 32/45/3 36/60/3 39/46/3
f 38/47/3 39/46/3 35/48/3
f 42/49/3 43/52/3 41/50/3
f 28/26/1 29/33/1 43/52/1
f 40/53/2 41/61/2 27/27/2
f 40/54/4 26/29/4 28/26/4
f 27/27/5 41/62/5 43/56/5
f 39/46/4 20/15/4 12/34/4
f 6/11/5 32/45/5 38/47/5
f 31/36/5 4/1/5 18/35/5
l 21 18
o Door1SingleDoorUpperCabinet1_Cube.008
v -0.227827 -0.375315 0.171138
v -0.227827 0.357094 0.171137
v 0.233325 -0.375315 0.171138
v 0.233325 0.357094 0.171137
v -0.183637 -0.325431 0.184714
v -0.183637 0.307210 0.184714
v 0.189135 0.307210 0.184714
v 0.189135 -0.325431 0.184714
v -0.227827 -0.375315 0.184714
v -0.227827 0.357094 0.184714
v 0.233325 0.357094 0.184714
v 0.233325 -0.375315 0.184714
v -0.183637 -0.325431 0.176158
v -0.183637 0.307210 0.176158
v 0.189135 0.307210 0.176158
v 0.189135 -0.325431 0.176158
v 0.208134 0.305597 0.188580
v 0.208134 0.311773 0.214862
v 0.213059 0.303557 0.188580
v 0.217426 0.307924 0.214862
v 0.215098 0.298632 0.188580
v 0.221275 0.298632 0.214862
v 0.213059 0.293707 0.188580
v 0.217426 0.289340 0.214862
v 0.208134 0.291667 0.188580
v 0.208134 0.285491 0.214862
v 0.203209 0.293707 0.188580
v 0.198842 0.289340 0.214862
v 0.201169 0.298632 0.188580
v 0.194993 0.298632 0.214862
v 0.203209 0.303557 0.188580
v 0.198842 0.307924 0.214862
v 0.208134 0.319436 0.201721
v 0.222844 0.313343 0.201721
v 0.228938 0.298632 0.201721
v 0.222844 0.283922 0.201721
v 0.208134 0.277828 0.201721
v 0.193423 0.283922 0.201721
v 0.187330 0.298632 0.201721
v 0.193423 0.313343 0.201721
v 0.208134 0.311773 0.188580
v 0.217426 0.307924 0.188580
v 0.221275 0.298632 0.188580
v 0.217426 0.289340 0.188580
v 0.208134 0.285491 0.188580
v 0.198842 0.289340 0.188580
v 0.194993 0.298632 0.188580
v 0.198842 0.307924 0.188580
v 0.208134 0.305597 0.174334
v 0.213059 0.303557 0.174334
v 0.215098 0.298632 0.174334
v 0.213059 0.293707 0.174334
v 0.208134 0.291667 0.174334
v 0.203209 0.293707 0.174334
v 0.201169 0.298632 0.174334
v 0.203209 0.303557 0.174334
vt 0.000000 0.000000
vt 0.000000 0.000000
vt 0.000000 0.000000
vt 0.000000 0.000000
vt 0.000000 0.000000
vt 0.000000 0.000000
vt 0.000000 0.000000
vt 0.000000 0.000000
vt 0.000000 0.000000
vt 0.000000 0.000000
vt 0.000000 0.000000
vt 0.000000 0.000000
vt 0.000000 0.000000
vt 0.000000 0.000000
vt 0.000000 0.000000
vt 0.000000 0.000000
vt 1.000000 1.000000
vt 0.875000 0.750000
vt 1.000000 0.750000
vt 0.750000 1.000000
vt 0.750000 0.750000
vt 0.625000 1.000000
vt 0.625000 0.750000
vt 0.500000 1.000000
vt 0.500000 0.750000
vt 0.375000 0.750000
vt 0.375000 1.000000
vt 0.250000 0.750000
vt 0.419706 0.080294
vt 0.490000 0.250000
vt 0.010000 0.250000
vt 0.250000 1.000000
vt 0.125000 0.750000
vt 0.125000 1.000000
vt 0.000000 0.750000
vt 0.660058 0.339942
vt 0.622803 0.250000
vt 0.622803 0.250000
vt 0.000000 0.500000
vt 0.125000 0.500000
vt 0.250000 0.500000
vt 0.375000 0.500000
vt 0.500000 0.500000
vt 0.625000 0.500000
vt 0.750000 0.500000
vt 0.875000 0.500000
vt 1.000000 0.500000
vt 0.750000 0.377197
vt 0.919706 0.419706
vt 0.839942 0.339942
vt 0.990000 0.250000
vt 0.877197 0.250000
vt 0.839942 0.160058
vt 0.919706 0.080294
vt 0.750000 0.122803
vt 0.750000 0.010000
vt 0.660058 0.160058
vt 0.580294 0.080294
vt 0.510000 0.250000
vt 0.580294 0.419706
vt 0.750000 0.490000
vt 0.839942 0.160058
vt 0.660058 0.160058
vt 0.660058 0.339942
vt 0.750000 0.122803
vt 0.877197 0.250000
vt 0.750000 0.377197
vt 0.839942 0.339942
vt 0.875000 1.000000
vt 0.419706 0.419706
vt 0.250000 0.490000
vt 0.080294 0.419706
vt 0.080294 0.080294
vt 0.250000 0.010000
vt 0.000000 1.000000
vn 0.0000 -0.0000 -1.0000
vn 0.0000 -1.0000 0.0000
vn 1.0000 -0.0000 0.0000
vn -1.0000 -0.0000 0.0000
vn 0.0000 1.0000 0.0000
vn 0.0000 0.0000 1.0000
vn 0.3369 0.8134 0.4743
vn 0.8134 0.3369 0.4743
vn 0.8134 -0.3369 0.4743
vn 0.3369 -0.8134 0.4743
vn -0.3369 -0.8134 0.4743
vn -0.8134 -0.3369 0.4743
vn -0.8134 0.3369 0.4743
vn -0.3369 0.8134 0.4743
vn -0.9239 0.3827 0.0000
vn -0.3369 0.8134 -0.4743
vn -0.8134 0.3369 -0.4743
vn -0.8134 -0.3369 -0.4743
vn -0.3369 -0.8134 -0.4743
vn 0.3369 -0.8134 -0.4743
vn 0.8134 -0.3369 -0.4743
vn 0.8134 0.3369 -0.4743
vn 0.3369 0.8134 -0.4743
vn -0.3827 -0.9239 0.0000
vn 0.9239 -0.3827 0.0000
vn 0.3827 0.9239 0.0000
vn -0.3827 0.9239 0.0000
vn -0.9239 -0.3827 0.0000
vn 0.3827 -0.9239 0.0000
vn 0.9239 0.3827 0.0000
usemtl WoodDoor1SingleDoorUpperCabinet1
s off
f 47/63/7 44/64/7 45/65/7
f 49/66/8 58/67/8 50/68/8
f 54/69/9 46/70/9 47/63/9
f 55/71/8 44/64/8 46/70/8
f 52/72/10 45/65/10 44/64/10
f 53/73/11 47/63/11 45/65/11
f 49/66/12 52/72/12 48/74/12
f 51/75/12 54/69/12 50/68/12
f 48/74/12 55/71/12 51/75/12
f 50/68/12 53/73/12 49/66/12
f 56/76/12 58/67/12 57/77/12
f 50/68/10 59/78/10 51/75/10
f 51/75/11 56/76/11 48/74/11
f 48/74/9 57/77/9 49/66/9
f 47/63/7 46/70/7 44/64/7
f 49/66/8 57/77/8 58/67/8
f 54/69/9 55/71/9 46/70/9
f 55/71/8 52/72/8 44/64/8
f 52/72/10 53/73/10 45/65/10
f 53/73/11 54/69/11 47/63/11
f 49/66/12 53/73/12 52/72/12
f 51/75/12 55/71/12 54/69/12
f 48/74/12 52/72/12 55/71/12
f 50/68/12 54/69/12 53/73/12
f 56/76/12 59/78/12 58/67/12
f 50/68/10 58/67/10 59/78/10
f 51/75/11 59/78/11 56/76/11
f 48/74/9 56/76/9 57/77/9
usemtl MetalDoor1SingleDoorUpperCabinet1
f 61/79/13 77/80/13 76/81/13
f 77/80/14 65/82/14 78/83/14
f 78/83/15 67/84/15 79/85/15
f 79/85/16 69/86/16 80/87/16
f 69/86/17 81/88/17 80/87/17
f 71/89/18 82/90/18 81/88/18
f 67/91/12 65/92/12 73/93/12
f 73/94/19 83/95/19 82/90/19
f 75/96/20 76/97/20 83/95/20
f 74/98/21 98/99/21 72/100/21
f 83/95/22 84/101/22 91/102/22
f 82/90/23 91/102/23 90/103/23
f 89/104/24 82/90/24 90/103/24
f 88/105/25 81/88/25 89/104/25
f 79/85/26 88/105/26 87/106/26
f 78/83/27 87/106/27 86/107/27
f 77/80/28 86/107/28 85/108/28
f 84/109/29 77/80/29 85/108/29
f 60/110/7 85/111/7 62/112/7
f 62/112/7 86/113/7 64/114/7
f 66/115/7 86/113/7 87/116/7
f 68/117/7 87/116/7 88/118/7
f 70/119/7 88/118/7 89/120/7
f 72/100/7 89/120/7 90/121/7
f 72/100/7 91/122/7 74/98/7
f 74/98/7 84/123/7 60/110/7
f 95/124/7 97/125/7 99/126/7
f 70/119/30 96/127/30 68/117/30
f 66/115/31 94/128/31 64/114/31
f 62/112/32 92/129/32 60/110/32
f 60/110/33 99/126/33 74/98/33
f 72/100/34 97/125/34 70/119/34
f 68/117/35 95/124/35 66/115/35
f 64/114/36 93/130/36 62/112/36
f 61/79/13 63/131/13 77/80/13
f 77/80/14 63/131/14 65/82/14
f 78/83/15 65/82/15 67/84/15
f 79/85/16 67/84/16 69/86/16
f 69/86/17 71/89/17 81/88/17
f 71/89/18 73/94/18 82/90/18
f 65/92/12 63/132/12 73/93/12
f 63/132/12 61/133/12 73/93/12
f 61/133/12 75/134/12 73/93/12
f 73/93/12 71/135/12 69/136/12
f 69/136/12 67/91/12 73/93/12
f 73/94/19 75/96/19 83/95/19
f 75/96/20 61/137/20 76/97/20
f 74/98/21 99/126/21 98/99/21
f 83/95/22 76/97/22 84/101/22
f 82/90/23 83/95/23 91/102/23
f 89/104/24 81/88/24 82/90/24
f 88/105/25 80/87/25 81/88/25
f 79/85/26 80/87/26 88/105/26
f 78/83/27 79/85/27 87/106/27
f 77/80/28 78/83/28 86/107/28
f 84/109/29 76/81/29 77/80/29
f 60/110/7 84/123/7 85/111/7
f 62/112/7 85/111/7 86/113/7
f 66/115/7 64/114/7 86/113/7
f 68/117/7 66/115/7 87/116/7
f 70/119/7 68/117/7 88/118/7
f 72/100/7 70/119/7 89/120/7
f 72/100/7 90/121/7 91/122/7
f 74/98/7 91/122/7 84/123/7
f 99/126/7 92/129/7 93/130/7
f 93/130/7 94/128/7 99/126/7
f 94/128/7 95/124/7 99/126/7
f 95/124/7 96/127/7 97/125/7
f 97/125/7 98/99/7 99/126/7
f 70/119/30 97/125/30 96/127/30
f 66/115/31 95/124/31 94/128/31
f 62/112/32 93/130/32 92/129/32
f 60/110/33 92/129/33 99/126/33
f 72/100/34 98/99/34 97/125/34
f 68/117/35 96/127/35 95/124/35
f 64/114/36 94/128/36 93/130/36
