# Blender v3.2.0 OBJ File: 'SingleDoorBaseCabinetWDrawer1.blend'
# www.blender.org
mtllib SingleDoorBaseCabinetWDrawer1.mtl
o SingleDoorbaseCabinetWDrawer1_Cube.002
v -0.206322 0.418933 0.292647
v -0.234060 0.446672 -0.292647
v 0.206322 0.418933 0.292647
v 0.234060 0.446672 -0.292647
v -0.234060 0.446672 0.292647
v 0.234060 0.446672 0.292647
v -0.206322 0.418933 -0.278282
v 0.206322 0.418933 -0.278282
v -0.206322 -0.309117 0.292647
v -0.234060 -0.336856 -0.292647
v 0.206322 -0.309117 0.292647
v 0.234060 -0.336856 -0.292647
v -0.234060 -0.336856 0.292647
v 0.234060 -0.336856 0.292647
v -0.206322 -0.309117 -0.278282
v 0.206322 -0.309117 -0.278282
v -0.234060 0.446672 0.175588
v 0.234060 0.446672 0.175588
v -0.234060 -0.336856 0.175588
v 0.234060 -0.336856 0.175588
v 0.234060 -0.431768 -0.292647
v -0.234060 -0.431768 -0.292647
v 0.234060 -0.431768 0.175588
v -0.234060 -0.431768 0.175588
v -0.243139 0.446672 0.180129
v -0.243139 0.446672 -0.306269
v 0.243139 0.446672 -0.306269
v 0.243139 0.446672 0.180129
v 0.243139 0.446672 0.301728
v -0.243139 0.446672 0.301728
v -0.243139 0.476353 0.180129
v -0.243139 0.476353 -0.306269
v 0.243139 0.476353 -0.306269
v 0.243139 0.476353 0.180129
v 0.243139 0.476353 0.301728
v -0.243139 0.476353 0.301728
v -0.222287 0.237219 0.291391
v -0.222287 0.244059 0.291391
v -0.222287 0.237219 -0.285046
v -0.222287 0.244059 -0.285046
v 0.222287 0.237219 0.291391
v 0.222287 0.244059 0.291391
v 0.222287 0.237219 -0.285046
v 0.222287 0.244059 -0.285046
v -0.234060 0.258858 -0.292647
v 0.234060 0.258858 -0.292647
v 0.206322 0.244418 -0.278282
v 0.206322 0.244418 0.292647
v -0.206322 0.244418 -0.278282
v -0.234060 0.258858 0.292647
v 0.234060 0.258858 0.292647
v -0.206322 0.244418 0.292647
v -0.234060 0.258858 0.175588
v 0.234060 0.258858 0.175588
vt 0.375000 0.500000
vt 0.565074 0.250000
vt 0.565074 0.500000
vt 0.375000 0.700000
vt 0.565074 0.700000
vt 0.565074 1.000000
vt 0.382762 0.985186
vt 0.561033 0.985186
vt 0.561033 0.764814
vt 0.382762 0.764814
vt 0.382762 0.764814
vt 0.382762 0.985186
vt 0.561033 0.985186
vt 0.565074 0.750000
vt 0.561033 0.764814
vt 0.617238 0.764814
vt 0.625000 1.000000
vt 0.617238 0.985186
vt 0.617238 0.764814
vt 0.125000 0.750000
vt 0.125000 0.700000
vt 0.375000 0.750000
vt 0.375000 0.050000
vt 0.565074 0.000000
vt 0.565074 0.050000
vt 0.375000 0.250000
vt 0.375000 0.250000
vt 0.375000 0.500000
vt 0.125000 0.700000
vt 0.125000 0.500000
vt 0.375000 0.700000
vt 0.375000 0.050000
vt 0.625000 0.000000
vt 0.375000 0.250000
vt 0.375000 0.000000
vt 0.625000 0.250000
vt 0.375000 0.500000
vt 0.625000 0.500000
vt 0.375000 0.750000
vt 0.625000 0.750000
vt 0.375000 1.000000
vt 0.125000 0.750000
vt 0.125000 0.500000
vt 0.875000 0.500000
vt 0.625000 0.750000
vt 0.625000 0.700000
vt 0.625000 0.050000
vt 0.625000 0.250000
vt 0.625000 0.000000
vt 0.617238 0.985186
vt 0.625000 0.500000
vt 0.375000 1.000000
vt 0.375000 0.000000
vt 0.625000 1.000000
vt 0.875000 0.750000
vt 0.625000 0.700000
vt 0.625000 0.050000
vt 0.625000 0.250000
vt 0.625000 0.500000
vt 0.625000 0.700000
vt 0.625000 0.250000
vt 0.625000 1.000000
vt 0.625000 0.750000
vt 0.875000 0.700000
vt 0.625000 0.750000
vt 0.625000 0.500000
vt 0.625000 1.000000
vt 0.625000 0.000000
vt 0.625000 0.050000
vt 0.875000 0.750000
vt 0.875000 0.500000
vt 0.625000 0.000000
vn 0.0000 -0.0000 -1.0000
vn 1.0000 0.0000 0.0000
vn 0.0000 0.0000 1.0000
vn -1.0000 0.0000 0.0000
vn 0.0000 -1.0000 0.0000
vn 0.0000 1.0000 0.0000
usemtl WoodSingleDoorbaseCabinetWDrawer1
s off
f 12/1/1 45/2/1 46/3/1
f 20/4/2 46/3/2 54/5/2
f 50/6/3 9/7/3 52/8/3
f 48/9/4 16/10/4 11/11/4
f 52/8/2 15/12/2 49/13/2
f 11/11/3 51/14/3 48/9/3
f 49/13/3 16/10/3 47/15/3
f 3/16/3 5/17/3 1/18/3
f 1/18/5 8/19/5 3/16/5
f 11/11/6 15/12/6 9/7/6
f 20/4/5 13/20/5 19/21/5
f 9/7/3 14/22/3 11/11/3
f 19/23/4 50/24/4 53/25/4
f 10/26/4 53/25/4 45/2/4
f 12/1/1 22/27/1 10/26/1
f 51/14/2 20/4/2 54/5/2
f 21/28/5 24/29/5 22/30/5
f 19/21/3 23/31/3 20/4/3
f 20/4/2 21/28/2 12/1/2
f 10/26/4 24/32/4 19/23/4
f 38/33/4 39/34/4 37/35/4
f 40/36/1 43/37/1 39/34/1
f 44/38/2 41/39/2 43/37/2
f 42/40/3 37/41/3 41/39/3
f 43/37/5 37/42/5 39/43/5
f 40/44/6 42/40/6 44/38/6
f 6/45/2 54/5/2 18/46/2
f 45/2/4 17/47/4 2/48/4
f 53/25/4 5/49/4 17/47/4
f 7/50/3 47/15/3 8/19/3
f 3/16/3 51/14/3 6/45/3
f 52/8/2 7/50/2 1/18/2
f 8/19/4 48/9/4 3/16/4
f 50/6/3 1/18/3 5/17/3
f 54/5/2 4/51/2 18/46/2
f 46/3/1 2/48/1 4/51/1
f 12/1/1 10/26/1 45/2/1
f 20/4/2 12/1/2 46/3/2
f 50/6/3 13/52/3 9/7/3
f 48/9/4 47/15/4 16/10/4
f 52/8/2 9/7/2 15/12/2
f 11/11/3 14/22/3 51/14/3
f 49/13/3 15/12/3 16/10/3
f 3/16/3 6/45/3 5/17/3
f 1/18/5 7/50/5 8/19/5
f 11/11/6 16/10/6 15/12/6
f 20/4/5 14/22/5 13/20/5
f 9/7/3 13/52/3 14/22/3
f 19/23/4 13/53/4 50/24/4
f 10/26/4 19/23/4 53/25/4
f 12/1/1 21/28/1 22/27/1
f 51/14/2 14/22/2 20/4/2
f 21/28/5 23/31/5 24/29/5
f 19/21/3 24/29/3 23/31/3
f 20/4/2 23/31/2 21/28/2
f 10/26/4 22/27/4 24/32/4
f 38/33/4 40/36/4 39/34/4
f 40/36/1 44/38/1 43/37/1
f 44/38/2 42/40/2 41/39/2
f 42/40/3 38/54/3 37/41/3
f 43/37/5 41/39/5 37/42/5
f 40/44/6 38/55/6 42/40/6
f 6/45/2 51/14/2 54/5/2
f 45/2/4 53/25/4 17/47/4
f 53/25/4 50/24/4 5/49/4
f 7/50/3 49/13/3 47/15/3
f 3/16/3 48/9/3 51/14/3
f 52/8/2 49/13/2 7/50/2
f 8/19/4 47/15/4 48/9/4
f 50/6/3 52/8/3 1/18/3
f 54/5/2 46/3/2 4/51/2
f 46/3/1 45/2/1 2/48/1
usemtl MarbleSingleDoorbaseCabinetWDrawer1
f 4/51/5 28/56/5 18/46/5
f 2/48/5 25/57/5 26/58/5
f 27/59/2 34/60/2 28/56/2
f 25/57/4 32/61/4 26/58/4
f 2/48/5 27/59/5 4/51/5
f 5/49/5 25/57/5 17/47/5
f 6/45/5 30/62/5 5/17/5
f 6/45/5 28/56/5 29/63/5
f 31/64/6 35/65/6 34/60/6
f 33/66/6 31/64/6 34/60/6
f 29/63/3 36/67/3 30/62/3
f 26/58/1 33/66/1 27/59/1
f 30/68/4 31/69/4 25/57/4
f 28/56/2 35/65/2 29/63/2
f 4/51/5 27/59/5 28/56/5
f 2/48/5 17/47/5 25/57/5
f 27/59/2 33/66/2 34/60/2
f 25/57/4 31/69/4 32/61/4
f 2/48/5 26/58/5 27/59/5
f 5/49/5 30/68/5 25/57/5
f 6/45/5 29/63/5 30/62/5
f 6/45/5 18/46/5 28/56/5
f 31/64/6 36/70/6 35/65/6
f 33/66/6 32/71/6 31/64/6
f 29/63/3 35/65/3 36/67/3
f 26/58/1 32/61/1 33/66/1
f 30/68/4 36/72/4 31/69/4
f 28/56/2 34/60/2 35/65/2
o Door1SingleDoorbaseCabinetWDrawer1_Cube.005
v -0.207601 -0.310878 0.288479
v -0.207601 0.247088 0.288478
v 0.207601 -0.310878 0.288479
v 0.207601 0.247088 0.288478
v -0.163411 -0.260993 0.302055
v -0.163411 0.197204 0.302055
v 0.163411 0.197204 0.302055
v 0.163411 -0.260993 0.302055
v -0.207601 -0.310878 0.302055
v -0.207601 0.247088 0.302055
v 0.207601 0.247088 0.302055
v 0.207601 -0.310878 0.302055
v -0.163411 -0.260993 0.293499
v -0.163411 0.197204 0.293499
v 0.163411 0.197204 0.293499
v 0.163411 -0.260993 0.293499
v 0.185506 0.195992 0.314805
v 0.185506 0.202523 0.342598
v 0.190714 0.193834 0.314805
v 0.195332 0.198453 0.342598
v 0.192871 0.188627 0.314805
v 0.199403 0.188627 0.342598
v 0.190714 0.183419 0.314805
v 0.195332 0.178800 0.342598
v 0.185506 0.181262 0.314805
v 0.185506 0.174730 0.342598
v 0.180298 0.183419 0.314805
v 0.175680 0.178800 0.342598
v 0.178141 0.188627 0.314805
v 0.171610 0.188627 0.342598
v 0.180298 0.193834 0.314805
v 0.175680 0.198453 0.342598
v 0.185506 0.210626 0.328702
v 0.201062 0.204183 0.328702
v 0.207506 0.188627 0.328702
v 0.201062 0.173071 0.328702
v 0.185506 0.166627 0.328702
v 0.169950 0.173071 0.328702
v 0.163507 0.188627 0.328702
v 0.169950 0.204183 0.328702
v 0.185506 0.202523 0.314805
v 0.195332 0.198453 0.314805
v 0.199403 0.188627 0.314805
v 0.195332 0.178800 0.314805
v 0.185506 0.174730 0.314805
v 0.175680 0.178800 0.314805
v 0.171610 0.188627 0.314805
v 0.175680 0.198453 0.314805
v 0.185506 0.195992 0.299740
v 0.190714 0.193834 0.299740
v 0.192871 0.188627 0.299740
v 0.190714 0.183419 0.299740
v 0.185506 0.181262 0.299740
v 0.180298 0.183419 0.299740
v 0.178141 0.188627 0.299740
v 0.180298 0.193834 0.299740
vt 0.000000 0.000000
vt 0.000000 0.000000
vt 0.000000 0.000000
vt 0.000000 0.000000
vt 0.000000 0.000000
vt 0.000000 0.000000
vt 0.000000 0.000000
vt 0.000000 0.000000
vt 0.000000 0.000000
vt 0.000000 0.000000
vt 0.000000 0.000000
vt 0.000000 0.000000
vt 0.000000 0.000000
vt 0.000000 0.000000
vt 0.000000 0.000000
vt 0.000000 0.000000
vt 1.000000 1.000000
vt 0.875000 0.750000
vt 1.000000 0.750000
vt 0.750000 1.000000
vt 0.750000 0.750000
vt 0.625000 1.000000
vt 0.625000 0.750000
vt 0.500000 1.000000
vt 0.500000 0.750000
vt 0.375000 0.750000
vt 0.375000 1.000000
vt 0.250000 0.750000
vt 0.419706 0.080294
vt 0.490000 0.250000
vt 0.010000 0.250000
vt 0.125000 1.000000
vt 0.125000 0.750000
vt 0.000000 1.000000
vt 0.000000 0.750000
vt 0.660058 0.339942
vt 0.622803 0.250000
vt 0.622803 0.250000
vt 0.000000 0.500000
vt 0.125000 0.500000
vt 0.250000 0.500000
vt 0.375000 0.500000
vt 0.500000 0.500000
vt 0.625000 0.500000
vt 0.750000 0.500000
vt 0.875000 0.500000
vt 1.000000 0.500000
vt 0.750000 0.377197
vt 0.919706 0.419706
vt 0.839942 0.339942
vt 0.990000 0.250000
vt 0.877197 0.250000
vt 0.839942 0.160058
vt 0.919706 0.080294
vt 0.750000 0.122803
vt 0.750000 0.010000
vt 0.660058 0.160058
vt 0.580294 0.080294
vt 0.510000 0.250000
vt 0.580294 0.419706
vt 0.750000 0.490000
vt 0.660058 0.160058
vt 0.660058 0.339942
vt 0.750000 0.122803
vt 0.877197 0.250000
vt 0.750000 0.377197
vt 0.839942 0.160058
vt 0.839942 0.339942
vt 0.875000 1.000000
vt 0.250000 1.000000
vt 0.419706 0.419706
vt 0.250000 0.490000
vt 0.080294 0.419706
vt 0.080294 0.080294
vt 0.250000 0.010000
vn 0.0000 -0.0000 -1.0000
vn 0.0000 -1.0000 0.0000
vn 1.0000 -0.0000 0.0000
vn -1.0000 -0.0000 0.0000
vn 0.0000 1.0000 0.0000
vn 0.0000 0.0000 1.0000
vn 0.3369 0.8134 0.4743
vn 0.8134 0.3369 0.4743
vn 0.8134 -0.3369 0.4743
vn 0.3369 -0.8134 0.4743
vn -0.3369 -0.8134 0.4743
vn -0.8134 -0.3369 0.4743
vn -0.8134 0.3369 0.4743
vn -0.3369 0.8134 0.4743
vn -0.9239 0.3827 0.0000
vn -0.3369 0.8134 -0.4743
vn -0.8134 0.3369 -0.4743
vn -0.8134 -0.3369 -0.4743
vn -0.3369 -0.8134 -0.4743
vn 0.3369 -0.8134 -0.4743
vn 0.8134 -0.3369 -0.4743
vn 0.8134 0.3369 -0.4743
vn 0.3369 0.8134 -0.4743
vn -0.3827 -0.9239 0.0000
vn 0.9239 -0.3827 0.0000
vn 0.3827 0.9239 0.0000
vn -0.3827 0.9239 0.0000
vn -0.9239 -0.3827 0.0000
vn 0.3827 -0.9239 0.0000
vn 0.9239 0.3827 0.0000
usemtl WoodDoor1SingleDoorbaseCabinetWDrawer1
s off
f 58/73/7 55/74/7 56/75/7
f 60/76/8 69/77/8 61/78/8
f 65/79/9 57/80/9 58/73/9
f 66/81/8 55/74/8 57/80/8
f 63/82/10 56/75/10 55/74/10
f 64/83/11 58/73/11 56/75/11
f 59/84/12 64/83/12 63/82/12
f 62/85/12 65/79/12 61/78/12
f 59/84/12 66/81/12 62/85/12
f 60/76/12 65/79/12 64/83/12
f 67/86/12 69/77/12 68/87/12
f 61/78/10 70/88/10 62/85/10
f 62/85/11 67/86/11 59/84/11
f 59/84/9 68/87/9 60/76/9
f 58/73/7 57/80/7 55/74/7
f 60/76/8 68/87/8 69/77/8
f 65/79/9 66/81/9 57/80/9
f 66/81/8 63/82/8 55/74/8
f 63/82/10 64/83/10 56/75/10
f 64/83/11 65/79/11 58/73/11
f 59/84/12 60/76/12 64/83/12
f 62/85/12 66/81/12 65/79/12
f 59/84/12 63/82/12 66/81/12
f 60/76/12 61/78/12 65/79/12
f 67/86/12 70/88/12 69/77/12
f 61/78/10 69/77/10 70/88/10
f 62/85/11 70/88/11 67/86/11
f 59/84/9 67/86/9 68/87/9
usemtl MetalDoor1SingleDoorbaseCabinetWDrawer1
f 72/89/13 88/90/13 87/91/13
f 88/90/14 76/92/14 89/93/14
f 89/93/15 78/94/15 90/95/15
f 90/95/16 80/96/16 91/97/16
f 80/96/17 92/98/17 91/97/17
f 82/99/18 93/100/18 92/98/18
f 78/101/12 76/102/12 84/103/12
f 93/100/19 86/104/19 94/105/19
f 94/105/20 72/106/20 87/107/20
f 85/108/21 109/109/21 83/110/21
f 94/105/22 95/111/22 102/112/22
f 93/100/23 102/112/23 101/113/23
f 100/114/24 93/100/24 101/113/24
f 99/115/25 92/98/25 100/114/25
f 90/95/26 99/115/26 98/116/26
f 89/93/27 98/116/27 97/117/27
f 88/90/28 97/117/28 96/118/28
f 95/119/29 88/90/29 96/118/29
f 71/120/7 96/121/7 73/122/7
f 73/122/7 97/123/7 75/124/7
f 77/125/7 97/123/7 98/126/7
f 79/127/7 98/126/7 99/128/7
f 81/129/7 99/128/7 100/130/7
f 83/110/7 100/130/7 101/131/7
f 83/110/7 102/132/7 85/108/7
f 71/120/7 102/132/7 95/133/7
f 108/134/7 109/109/7 110/135/7
f 81/129/30 107/136/30 79/127/30
f 77/125/31 105/137/31 75/124/31
f 73/122/32 103/138/32 71/120/32
f 71/120/33 110/135/33 85/108/33
f 83/110/34 108/134/34 81/129/34
f 79/127/35 106/139/35 77/125/35
f 75/124/36 104/140/36 73/122/36
f 72/89/13 74/141/13 88/90/13
f 88/90/14 74/141/14 76/92/14
f 89/93/15 76/92/15 78/94/15
f 90/95/16 78/94/16 80/96/16
f 80/96/17 82/99/17 92/98/17
f 82/99/18 84/142/18 93/100/18
f 76/102/12 74/143/12 84/103/12
f 74/143/12 72/144/12 84/103/12
f 72/144/12 86/145/12 84/103/12
f 84/103/12 82/146/12 80/147/12
f 80/147/12 78/101/12 84/103/12
f 93/100/19 84/142/19 86/104/19
f 94/105/20 86/104/20 72/106/20
f 85/108/21 110/135/21 109/109/21
f 94/105/22 87/107/22 95/111/22
f 93/100/23 94/105/23 102/112/23
f 100/114/24 92/98/24 93/100/24
f 99/115/25 91/97/25 92/98/25
f 90/95/26 91/97/26 99/115/26
f 89/93/27 90/95/27 98/116/27
f 88/90/28 89/93/28 97/117/28
f 95/119/29 87/91/29 88/90/29
f 71/120/7 95/133/7 96/121/7
f 73/122/7 96/121/7 97/123/7
f 77/125/7 75/124/7 97/123/7
f 79/127/7 77/125/7 98/126/7
f 81/129/7 79/127/7 99/128/7
f 83/110/7 81/129/7 100/130/7
f 83/110/7 101/131/7 102/132/7
f 71/120/7 85/108/7 102/132/7
f 110/135/7 103/138/7 104/140/7
f 104/140/7 105/137/7 110/135/7
f 105/137/7 106/139/7 110/135/7
f 106/139/7 107/136/7 110/135/7
f 107/136/7 108/134/7 110/135/7
f 81/129/30 108/134/30 107/136/30
f 77/125/31 106/139/31 105/137/31
f 73/122/32 104/140/32 103/138/32
f 71/120/33 103/138/33 110/135/33
f 83/110/34 109/109/34 108/134/34
f 79/127/35 107/136/35 106/139/35
f 75/124/36 105/137/36 104/140/36
o Drawer1SingleDoorbaseCabinetWDrawer1_Cube.001
v -0.192555 0.418518 -0.261523
v -0.205338 0.244834 -0.274307
v 0.192555 0.418518 -0.261523
v 0.205338 0.244834 0.301183
v 0.192555 0.418518 0.286527
v -0.205338 0.244834 0.301183
v -0.192555 0.418518 0.286527
v 0.205338 0.244834 -0.274307
v -0.205338 0.418518 0.301183
v -0.205338 0.418518 -0.274307
v 0.205338 0.418518 0.301183
v 0.205338 0.418518 -0.274307
v -0.192555 0.256929 0.286527
v -0.192555 0.256929 -0.261523
v 0.192555 0.256929 0.286527
v 0.192555 0.256929 -0.261523
v 0.000000 0.341145 0.313788
v 0.000000 0.349543 0.349523
v 0.006696 0.338372 0.313788
v 0.012634 0.344310 0.349523
v 0.009470 0.331676 0.313788
v 0.017867 0.331676 0.349523
v 0.006696 0.324980 0.313788
v 0.012634 0.319041 0.349523
v 0.000000 0.322206 0.313788
v 0.000000 0.313808 0.349523
v -0.006696 0.324980 0.313788
v -0.012634 0.319041 0.349523
v -0.009469 0.331676 0.313788
v -0.017867 0.331676 0.349523
v -0.006696 0.338372 0.313788
v -0.012634 0.344310 0.349523
v 0.000000 0.359962 0.331656
v 0.020001 0.351677 0.331656
v 0.028286 0.331676 0.331656
v 0.020001 0.311674 0.331656
v 0.000000 0.303390 0.331656
v -0.020001 0.311674 0.331656
v -0.028286 0.331676 0.331656
v -0.020001 0.351677 0.331656
v 0.000000 0.349543 0.313788
v 0.012634 0.344310 0.313788
v 0.017867 0.331676 0.313788
v 0.012634 0.319041 0.313788
v 0.000000 0.313808 0.313788
v -0.012634 0.319041 0.313788
v -0.017867 0.331676 0.313788
v -0.012634 0.344310 0.313788
v 0.000000 0.341145 0.294418
v 0.006696 0.338372 0.294418
v 0.009470 0.331676 0.294418
v 0.006696 0.324980 0.294418
v 0.000000 0.322206 0.294418
v -0.006696 0.324980 0.294418
v -0.009469 0.331676 0.294418
v -0.006696 0.338372 0.294418
vt 0.617238 0.771674
vt 0.617238 0.771674
vt 0.617238 0.771674
vt 0.561033 0.764814
vt 0.617238 0.764814
vt 0.561033 0.764814
vt 0.617238 0.985186
vt 0.617238 0.985186
vt 0.617238 0.764814
vt 0.561033 0.985186
vt 0.561033 0.985186
vt 0.617237 0.978326
vt 0.617238 0.978326
vt 0.617238 0.771674
vt 0.617237 0.978326
vt 0.617238 0.978326
vt 1.000000 1.000000
vt 0.875000 0.750000
vt 1.000000 0.750000
vt 0.750000 1.000000
vt 0.750000 0.750000
vt 0.625000 1.000000
vt 0.625000 0.750000
vt 0.500000 1.000000
vt 0.500000 0.750000
vt 0.375000 0.750000
vt 0.375000 1.000000
vt 0.250000 0.750000
vt 0.419706 0.080294
vt 0.490000 0.250000
vt 0.010000 0.250000
vt 0.125000 1.000000
vt 0.125000 0.750000
vt 0.000000 1.000000
vt 0.000000 0.750000
vt 0.660058 0.339942
vt 0.622803 0.250000
vt 0.622803 0.250000
vt 0.000000 0.500000
vt 0.125000 0.500000
vt 0.250000 0.500000
vt 0.375000 0.500000
vt 0.500000 0.500000
vt 0.625000 0.500000
vt 0.750000 0.500000
vt 0.875000 0.500000
vt 1.000000 0.500000
vt 0.750000 0.377197
vt 0.919706 0.419706
vt 0.839942 0.339942
vt 0.990000 0.250000
vt 0.877197 0.250000
vt 0.839942 0.160058
vt 0.919706 0.080294
vt 0.750000 0.122803
vt 0.750000 0.010000
vt 0.660058 0.160058
vt 0.580294 0.080294
vt 0.510000 0.250000
vt 0.580294 0.419706
vt 0.750000 0.490000
vt 0.660058 0.160058
vt 0.660058 0.339942
vt 0.750000 0.122803
vt 0.877197 0.250000
vt 0.750000 0.377197
vt 0.839942 0.160058
vt 0.839942 0.339942
vt 0.875000 1.000000
vt 0.250000 1.000000
vt 0.419706 0.419706
vt 0.250000 0.490000
vt 0.080294 0.419706
vt 0.080294 0.080294
vt 0.250000 0.010000
vn -1.0000 0.0000 0.0000
vn 1.0000 -0.0000 0.0000
vn 0.0000 0.0000 1.0000
vn 0.0000 0.0000 -1.0000
vn 0.0000 -1.0000 0.0000
vn 0.0000 1.0000 0.0000
vn 0.3369 0.8134 0.4743
vn 0.8134 0.3369 0.4743
vn 0.8134 -0.3369 0.4743
vn 0.3369 -0.8134 0.4743
vn -0.3369 -0.8134 0.4743
vn -0.8134 -0.3369 0.4743
vn -0.8134 0.3369 0.4743
vn -0.3369 0.8134 0.4743
vn -0.9239 0.3827 0.0000
vn -0.3369 0.8134 -0.4743
vn -0.8134 0.3369 -0.4743
vn -0.8134 -0.3369 -0.4743
vn -0.3369 -0.8134 -0.4743
vn 0.3369 -0.8134 -0.4743
vn 0.8134 -0.3369 -0.4743
vn 0.8134 0.3369 -0.4743
vn 0.3369 0.8134 -0.4743
vn -0.3827 -0.9239 0.0000
vn 0.9239 -0.3827 0.0000
vn 0.3827 0.9239 0.0000
vn -0.3827 0.9239 0.0000
vn -0.9239 -0.3827 0.0000
vn 0.3827 -0.9239 0.0000
vn 0.9239 0.3827 0.0000
usemtl WoodDrawer1SingleDoorbaseCabinetWDrawer1
s off
f 113/148/37 125/149/37 115/150/37
f 118/151/38 121/152/38 114/153/38
f 119/154/39 114/153/39 121/152/39
f 118/151/40 120/155/40 122/156/40
f 119/154/37 112/157/37 116/158/37
f 112/157/41 114/153/41 116/158/41
f 117/159/42 120/155/42 119/154/42
f 117/159/42 121/152/42 115/150/42
f 115/150/42 122/156/42 113/148/42
f 113/148/42 120/155/42 111/160/42
f 126/161/42 123/162/42 125/149/42
f 117/159/38 124/163/38 111/160/38
f 111/160/39 126/161/39 113/148/39
f 115/150/40 123/162/40 117/159/40
f 113/148/37 126/161/37 125/149/37
f 118/151/38 122/156/38 121/152/38
f 119/154/39 116/158/39 114/153/39
f 118/151/40 112/157/40 120/155/40
f 119/154/37 120/155/37 112/157/37
f 112/157/41 118/151/41 114/153/41
f 117/159/42 111/160/42 120/155/42
f 117/159/42 119/154/42 121/152/42
f 115/150/42 121/152/42 122/156/42
f 113/148/42 122/156/42 120/155/42
f 126/161/42 124/163/42 123/162/42
f 117/159/38 123/162/38 124/163/38
f 111/160/39 124/163/39 126/161/39
f 115/150/40 125/149/40 123/162/40
usemtl MetalDrawer1SingleDoorbaseCabinetWDrawer1
f 128/164/43 144/165/43 143/166/43
f 144/165/44 132/167/44 145/168/44
f 145/168/45 134/169/45 146/170/45
f 146/170/46 136/171/46 147/172/46
f 136/171/47 148/173/47 147/172/47
f 138/174/48 149/175/48 148/173/48
f 134/176/39 132/177/39 140/178/39
f 149/175/49 142/179/49 150/180/49
f 150/180/50 128/181/50 143/182/50
f 141/183/51 165/184/51 139/185/51
f 150/180/52 151/186/52 158/187/52
f 149/175/53 158/187/53 157/188/53
f 156/189/54 149/175/54 157/188/54
f 155/190/55 148/173/55 156/189/55
f 146/170/56 155/190/56 154/191/56
f 153/192/57 146/170/57 154/191/57
f 144/165/58 153/192/58 152/193/58
f 151/194/59 144/165/59 152/193/59
f 127/195/40 152/196/40 129/197/40
f 129/197/40 153/198/40 131/199/40
f 133/200/40 153/198/40 154/201/40
f 135/202/40 154/201/40 155/203/40
f 137/204/40 155/203/40 156/205/40
f 139/185/40 156/205/40 157/206/40
f 139/185/40 158/207/40 141/183/40
f 127/195/40 158/207/40 151/208/40
f 164/209/40 165/184/40 166/210/40
f 137/204/60 163/211/60 135/202/60
f 133/200/61 161/212/61 131/199/61
f 129/197/62 159/213/62 127/195/62
f 127/195/63 166/210/63 141/183/63
f 139/185/64 164/209/64 137/204/64
f 135/202/65 162/214/65 133/200/65
f 131/199/66 160/215/66 129/197/66
f 128/164/43 130/216/43 144/165/43
f 144/165/44 130/216/44 132/167/44
f 145/168/45 132/167/45 134/169/45
f 146/170/46 134/169/46 136/171/46
f 136/171/47 138/174/47 148/173/47
f 138/174/48 140/217/48 149/175/48
f 132/177/39 130/218/39 140/178/39
f 130/218/39 128/219/39 140/178/39
f 128/219/39 142/220/39 140/178/39
f 140/178/39 138/221/39 136/222/39
f 136/222/39 134/176/39 140/178/39
f 149/175/49 140/217/49 142/179/49
f 150/180/50 142/179/50 128/181/50
f 141/183/51 166/210/51 165/184/51
f 150/180/52 143/182/52 151/186/52
f 149/175/53 150/180/53 158/187/53
f 156/189/54 148/173/54 149/175/54
f 155/190/55 147/172/55 148/173/55
f 146/170/56 147/172/56 155/190/56
f 153/192/57 145/168/57 146/170/57
f 144/165/58 145/168/58 153/192/58
f 151/194/59 143/166/59 144/165/59
f 127/195/40 151/208/40 152/196/40
f 129/197/40 152/196/40 153/198/40
f 133/200/40 131/199/40 153/198/40
f 135/202/40 133/200/40 154/201/40
f 137/204/40 135/202/40 155/203/40
f 139/185/40 137/204/40 156/205/40
f 139/185/40 157/206/40 158/207/40
f 127/195/40 141/183/40 158/207/40
f 166/210/40 159/213/40 160/215/40
f 160/215/40 161/212/40 166/210/40
f 161/212/40 162/214/40 166/210/40
f 162/214/40 163/211/40 166/210/40
f 163/211/40 164/209/40 166/210/40
f 137/204/60 164/209/60 163/211/60
f 133/200/61 162/214/61 161/212/61
f 129/197/62 160/215/62 159/213/62
f 127/195/63 159/213/63 166/210/63
f 139/185/64 165/184/64 164/209/64
f 135/202/65 163/211/65 162/214/65
f 131/199/66 161/212/66 160/215/66
