# Blender v3.2.0 OBJ File: 'StandingDesk1.blend'
# www.blender.org
mtllib StandingDesk1.mtl
o StandingDesk1_Cube
v -0.740533 0.538747 0.403065
v -0.740533 0.540439 0.404758
v -0.742225 0.540439 0.403065
v -0.740533 0.559892 0.404758
v -0.740533 0.561584 0.403065
v -0.742225 0.559892 0.403065
v -0.740533 0.538747 -0.403065
v -0.742225 0.540439 -0.403065
v -0.740533 0.540439 -0.404758
v -0.740533 0.561584 -0.403065
v -0.740533 0.559892 -0.404758
v -0.742225 0.559892 -0.403065
v 0.740533 0.538747 0.403065
v 0.742225 0.540439 0.403065
v 0.740533 0.540439 0.404758
v 0.740533 0.561584 0.403065
v 0.740533 0.559892 0.404758
v 0.742225 0.559892 0.403065
v 0.740533 0.538747 -0.403065
v 0.740533 0.540439 -0.404758
v 0.742225 0.540439 -0.403065
v 0.740533 0.561584 -0.403065
v 0.742225 0.559892 -0.403065
v 0.740533 0.559892 -0.404758
v 0.604326 -0.369487 0.039258
v 0.604326 -0.367794 0.040950
v 0.602633 -0.367794 0.039258
v 0.604326 0.544068 0.040950
v 0.604326 0.545760 0.039258
v 0.602633 0.544068 0.039258
v 0.604326 -0.369487 -0.039258
v 0.602633 -0.367794 -0.039258
v 0.604326 -0.367794 -0.040950
v 0.604326 0.545760 -0.039258
v 0.604326 0.544068 -0.040950
v 0.602633 0.544068 -0.039258
v 0.641836 -0.369487 0.039258
v 0.643528 -0.367794 0.039258
v 0.641836 -0.367794 0.040950
v 0.641836 0.545760 0.039258
v 0.641836 0.544068 0.040950
v 0.643528 0.544068 0.039258
v 0.641836 -0.369487 -0.039258
v 0.641836 -0.367794 -0.040950
v 0.643528 -0.367794 -0.039258
v 0.641836 0.545760 -0.039258
v 0.643528 0.544068 -0.039258
v 0.641836 0.544068 -0.040950
v -0.604326 -0.369487 0.039258
v -0.602633 -0.367795 0.039258
v -0.604326 -0.367795 0.040950
v -0.604326 0.544068 0.040950
v -0.602633 0.544068 0.039258
v -0.604326 0.545760 0.039258
v -0.604326 -0.369487 -0.039258
v -0.604326 -0.367795 -0.040950
v -0.602633 -0.367795 -0.039258
v -0.604326 0.545760 -0.039258
v -0.602633 0.544068 -0.039258
v -0.604326 0.544068 -0.040950
v -0.641836 -0.369487 0.039258
v -0.641836 -0.367795 0.040950
v -0.643528 -0.367795 0.039258
v -0.641836 0.545760 0.039258
v -0.643528 0.544068 0.039258
v -0.641836 0.544068 0.040950
v -0.641836 -0.369487 -0.039258
v -0.643528 -0.367795 -0.039258
v -0.641836 -0.367795 -0.040950
v -0.641836 0.545760 -0.039258
v -0.641836 0.544068 -0.040950
v -0.643528 0.544068 -0.039258
v 0.580285 -0.376613 0.162369
v 0.580285 -0.374920 0.164062
v 0.578593 -0.374920 0.162369
v 0.580285 -0.351519 0.164062
v 0.580285 -0.349826 0.162369
v 0.578593 -0.351519 0.162369
v 0.580285 -0.376613 -0.162369
v 0.578593 -0.374920 -0.162369
v 0.580285 -0.374920 -0.164062
v 0.580285 -0.349826 -0.162369
v 0.580285 -0.351519 -0.164062
v 0.578593 -0.351519 -0.162369
v 0.665876 -0.376613 0.162369
v 0.667569 -0.374920 0.162369
v 0.665876 -0.374920 0.164062
v 0.665876 -0.349826 0.162369
v 0.665876 -0.351519 0.164062
v 0.667569 -0.351519 0.162369
v 0.665876 -0.376613 -0.162369
v 0.665876 -0.374920 -0.164062
v 0.667569 -0.374920 -0.162369
v 0.665876 -0.349826 -0.162369
v 0.667569 -0.351519 -0.162369
v 0.665876 -0.351519 -0.164062
v -0.580285 -0.376613 0.162369
v -0.578593 -0.374920 0.162369
v -0.580285 -0.374920 0.164062
v -0.580285 -0.351519 0.164062
v -0.578593 -0.351519 0.162369
v -0.580285 -0.349826 0.162369
v -0.580285 -0.376613 -0.162369
v -0.580285 -0.374920 -0.164062
v -0.578593 -0.374920 -0.162369
v -0.580285 -0.349826 -0.162369
v -0.578593 -0.351519 -0.162369
v -0.580285 -0.351519 -0.164062
v -0.665876 -0.376613 0.162369
v -0.665876 -0.374920 0.164062
v -0.667569 -0.374920 0.162369
v -0.665876 -0.349826 0.162369
v -0.667569 -0.351519 0.162369
v -0.665876 -0.351519 0.164062
v -0.665876 -0.376613 -0.162369
v -0.667569 -0.374920 -0.162369
v -0.665876 -0.374920 -0.164062
v -0.665876 -0.349826 -0.162369
v -0.665876 -0.351519 -0.164062
v -0.667569 -0.351519 -0.162369
vt 0.606471 0.750285
vt 0.393529 0.999715
vt 0.393528 0.750285
vt 0.606472 0.500523
vt 0.393528 0.749477
vt 0.393528 0.500523
vt 0.364653 0.505167
vt 0.135347 0.744833
vt 0.135347 0.505167
vt 0.874715 0.500523
vt 0.625285 0.749477
vt 0.625285 0.500523
vt 0.606472 0.000523
vt 0.393528 0.249477
vt 0.393528 0.000523
vt 0.606471 0.250285
vt 0.393529 0.499715
vt 0.393528 0.250285
vt 0.624538 0.760347
vt 0.375462 0.989653
vt 0.375462 0.760347
vt 0.624538 0.505167
vt 0.375462 0.744833
vt 0.375462 0.505167
vt 0.135347 0.744833
vt 0.364653 0.505167
vt 0.135347 0.505167
vt 0.864653 0.505167
vt 0.635347 0.744833
vt 0.635347 0.505167
vt 0.624538 0.005167
vt 0.375462 0.244833
vt 0.375462 0.005167
vt 0.624538 0.260347
vt 0.375462 0.489653
vt 0.375462 0.260347
vt 0.375462 0.989653
vt 0.624538 0.760347
vt 0.375462 0.760347
vt 0.375462 0.744833
vt 0.624538 0.505167
vt 0.375462 0.505167
vt 0.370244 0.501290
vt 0.129756 0.748710
vt 0.129756 0.501290
vt 0.635347 0.744833
vt 0.864653 0.505167
vt 0.635347 0.505167
vt 0.375462 0.244833
vt 0.624538 0.005167
vt 0.375462 0.005167
vt 0.375462 0.489653
vt 0.624538 0.260347
vt 0.375462 0.260347
vt 0.609203 0.754756
vt 0.390797 0.995244
vt 0.390797 0.754756
vt 0.609203 0.501290
vt 0.390797 0.748710
vt 0.390797 0.501290
vt 0.129756 0.748710
vt 0.370244 0.501290
vt 0.129756 0.501290
vt 0.870244 0.501290
vt 0.629756 0.748710
vt 0.629756 0.501290
vt 0.609203 0.001290
vt 0.390797 0.248710
vt 0.390797 0.001290
vt 0.609203 0.254756
vt 0.390797 0.495244
vt 0.390797 0.254756
vt 0.390797 0.995244
vt 0.609203 0.754756
vt 0.390797 0.754756
vt 0.390797 0.748710
vt 0.609203 0.501290
vt 0.390797 0.501290
vt 0.629756 0.748710
vt 0.870244 0.501290
vt 0.629756 0.501290
vt 0.390797 0.248710
vt 0.609203 0.001290
vt 0.390797 0.001290
vt 0.390797 0.495244
vt 0.609203 0.254756
vt 0.390797 0.254756
vt 0.125285 0.749477
vt 0.125285 0.750000
vt 0.125000 0.749477
vt 0.606472 0.999715
vt 0.625000 0.999715
vt 0.606472 1.000000
vt 0.125285 0.500523
vt 0.125000 0.500523
vt 0.125285 0.500000
vt 0.625000 0.250285
vt 0.606471 0.250000
vt 0.374715 0.749477
vt 0.375000 0.749477
vt 0.374715 0.750000
vt 0.625000 0.750285
vt 0.606471 0.750000
vt 0.374715 0.500523
vt 0.374715 0.500000
vt 0.375000 0.500523
vt 0.625000 0.500523
vt 0.606471 0.500000
vt 0.135347 0.750000
vt 0.125000 0.744833
vt 0.624538 0.989653
vt 0.625000 0.989653
vt 0.624538 1.000000
vt 0.125000 0.505167
vt 0.135347 0.500000
vt 0.625000 0.260347
vt 0.624538 0.250000
vt 0.364653 0.744833
vt 0.375000 0.744833
vt 0.364653 0.750000
vt 0.625000 0.760347
vt 0.624538 0.750000
vt 0.364653 0.500000
vt 0.375000 0.505167
vt 0.625000 0.505167
vt 0.624538 0.500000
vt 0.125000 0.744833
vt 0.135347 0.750000
vt 0.624538 0.989653
vt 0.624538 1.000000
vt 0.625000 0.989653
vt 0.135347 0.500000
vt 0.125000 0.505167
vt 0.625000 0.244833
vt 0.624538 0.244833
vt 0.624538 0.250000
vt 0.364653 0.744833
vt 0.364653 0.750000
vt 0.375000 0.744833
vt 0.625000 0.744833
vt 0.624538 0.744833
vt 0.624538 0.750000
vt 0.375000 0.505167
vt 0.364653 0.500000
vt 0.625000 0.489653
vt 0.624538 0.489653
vt 0.624538 0.500000
vt 0.129756 0.750000
vt 0.125000 0.748710
vt 0.609203 0.995244
vt 0.625000 0.995244
vt 0.609203 1.000000
vt 0.125000 0.501290
vt 0.129756 0.500000
vt 0.625000 0.254756
vt 0.609203 0.250000
vt 0.370244 0.748710
vt 0.375000 0.748710
vt 0.370244 0.750000
vt 0.625000 0.754756
vt 0.609203 0.750000
vt 0.370244 0.500000
vt 0.375000 0.501290
vt 0.625000 0.501290
vt 0.609203 0.500000
vt 0.125000 0.748710
vt 0.129756 0.750000
vt 0.609203 0.995244
vt 0.609203 1.000000
vt 0.625000 0.995244
vt 0.129756 0.500000
vt 0.125000 0.501290
vt 0.625000 0.248710
vt 0.609203 0.248710
vt 0.609203 0.250000
vt 0.370244 0.748710
vt 0.370244 0.750000
vt 0.375000 0.748710
vt 0.625000 0.748710
vt 0.609203 0.748710
vt 0.609203 0.750000
vt 0.375000 0.501290
vt 0.370244 0.500000
vt 0.625000 0.495244
vt 0.609203 0.495244
vt 0.609203 0.500000
vt 0.606471 0.000000
vt 0.393528 0.000000
vt 0.625000 0.249477
vt 0.625000 0.000523
vt 0.606472 0.249477
vt 0.625000 0.499715
vt 0.606472 0.499715
vt 0.606472 0.749477
vt 0.624538 0.000000
vt 0.375462 0.000000
vt 0.625000 0.244833
vt 0.625000 0.005167
vt 0.624538 0.244833
vt 0.625000 0.489653
vt 0.624538 0.489653
vt 0.624538 0.744833
vt 0.375462 1.000000
vt 0.625000 0.005167
vt 0.625000 0.260347
vt 0.625000 0.760347
vt 0.609203 0.000000
vt 0.390797 0.000000
vt 0.625000 0.248710
vt 0.625000 0.001290
vt 0.609203 0.248710
vt 0.625000 0.495244
vt 0.609203 0.495244
vt 0.609203 0.748710
vt 0.390797 1.000000
vt 0.625000 0.001290
vt 0.625000 0.254756
vt 0.625000 0.754756
vt 0.874715 0.749477
vt 0.864653 0.744833
vt 0.864653 0.744833
vt 0.870244 0.748710
vt 0.870244 0.748710
vn 0.0000 0.0000 1.0000
vn 1.0000 0.0000 0.0000
vn 0.0000 -1.0000 0.0000
vn 0.0000 1.0000 0.0000
vn -1.0000 0.0000 0.0000
vn 0.0000 0.0000 -1.0000
vn -0.5773 -0.5774 0.5774
vn -0.5773 0.5774 0.5773
vn -0.5773 -0.5774 -0.5774
vn -0.5773 0.5774 -0.5773
vn 0.5773 -0.5774 0.5774
vn 0.5773 0.5774 0.5773
vn 0.5773 -0.5774 -0.5774
vn 0.5773 0.5774 -0.5773
vn -0.5774 -0.5773 0.5774
vn -0.5774 0.5773 0.5774
vn -0.5774 -0.5773 -0.5774
vn -0.5774 0.5773 -0.5774
vn 0.5774 -0.5773 0.5774
vn 0.5774 0.5773 0.5774
vn 0.5774 -0.5773 -0.5774
vn 0.5774 0.5773 -0.5774
vn 0.5774 -0.5774 0.5773
vn 0.5773 0.5774 0.5774
vn 0.5774 -0.5774 -0.5773
vn 0.5773 0.5774 -0.5774
vn -0.5774 -0.5774 0.5773
vn -0.5773 0.5774 0.5774
vn -0.5774 -0.5774 -0.5773
vn -0.5773 0.5774 -0.5774
vn -0.5774 0.5774 0.5774
vn -0.5774 0.5774 -0.5774
vn 0.5774 0.5774 0.5774
vn 0.5774 0.5774 -0.5774
vn -0.7071 -0.7071 0.0000
vn -0.7071 0.0000 0.7071
vn -0.7071 0.7071 0.0000
vn -0.7071 0.0000 -0.7071
vn 0.0000 -0.7071 -0.7071
vn 0.0000 0.7071 -0.7071
vn 0.7071 0.0000 -0.7071
vn 0.7071 -0.7071 0.0000
vn 0.7071 0.7071 0.0000
vn 0.7071 0.0000 0.7071
vn 0.0000 -0.7071 0.7071
vn 0.0000 0.7071 0.7071
usemtl MetalStandingDesk1
s off
f 17/1/1 2/2/1 15/3/1
f 23/4/2 14/5/2 21/6/2
f 43/7/3 25/8/3 31/9/3
f 10/10/4 16/11/4 22/12/4
f 6/13/5 8/14/5 3/15/5
f 11/16/6 20/17/6 9/18/6
f 41/19/1 26/20/1 39/21/1
f 47/22/2 38/23/2 45/24/2
f 49/25/3 67/26/3 55/27/3
f 34/28/4 40/29/4 46/30/4
f 30/31/5 32/32/5 27/33/5
f 35/34/6 44/35/6 33/36/6
f 51/37/1 66/38/1 62/39/1
f 63/40/5 72/41/5 68/42/5
f 91/43/3 73/44/3 79/45/3
f 64/46/4 58/47/4 70/48/4
f 57/49/2 53/50/2 50/51/2
f 69/52/6 60/53/6 56/54/6
f 89/55/1 74/56/1 87/57/1
f 95/58/2 86/59/2 93/60/2
f 97/61/3 115/62/3 103/63/3
f 82/64/4 88/65/4 94/66/4
f 78/67/5 80/68/5 75/69/5
f 83/70/6 92/71/6 81/72/6
f 99/73/1 114/74/1 110/75/1
f 111/76/5 120/77/5 116/78/5
f 112/79/4 106/80/4 118/81/4
f 105/82/2 101/83/2 98/84/2
f 117/85/6 108/86/6 104/87/6
f 1/88/7 2/89/7 3/90/7
f 4/91/8 5/92/8 6/93/8
f 7/94/9 8/95/9 9/96/9
f 10/97/10 11/16/10 12/98/10
f 13/99/11 14/100/11 15/101/11
f 16/102/12 17/1/12 18/103/12
f 19/104/13 20/105/13 21/106/13
f 22/107/14 23/4/14 24/108/14
f 25/8/15 26/109/15 27/110/15
f 28/111/16 29/112/16 30/113/16
f 31/9/17 32/114/17 33/115/17
f 34/116/18 35/34/18 36/117/18
f 37/118/19 38/119/19 39/120/19
f 40/121/20 41/19/20 42/122/20
f 43/7/21 44/123/21 45/124/21
f 46/125/22 47/22/22 48/126/22
f 49/25/23 50/127/23 51/128/23
f 52/129/24 53/130/24 54/131/24
f 55/27/25 56/132/25 57/133/25
f 58/134/26 59/135/26 60/136/26
f 61/137/27 62/138/27 63/139/27
f 64/140/28 65/141/28 66/142/28
f 67/26/29 68/143/29 69/144/29
f 70/145/30 71/146/30 72/147/30
f 73/44/27 74/148/27 75/149/27
f 76/150/31 77/151/31 78/152/31
f 79/45/29 80/153/29 81/154/29
f 82/155/32 83/70/32 84/156/32
f 85/157/23 86/158/23 87/159/23
f 88/160/33 89/55/33 90/161/33
f 91/43/25 92/162/25 93/163/25
f 94/164/34 95/58/34 96/165/34
f 97/61/23 98/166/23 99/167/23
f 100/168/33 101/169/33 102/170/33
f 103/63/25 104/171/25 105/172/25
f 106/173/34 107/174/34 108/175/34
f 109/176/27 110/177/27 111/178/27
f 112/179/31 113/180/31 114/181/31
f 115/62/29 116/182/29 117/183/29
f 118/184/32 119/185/32 120/186/32
f 1/88/35 8/95/35 7/94/35
f 4/187/36 3/15/36 2/188/36
f 10/189/37 6/13/37 5/190/37
f 9/18/38 12/191/38 11/16/38
f 7/94/39 20/105/39 19/104/39
f 22/192/40 11/16/40 10/97/40
f 21/6/41 24/193/41 23/4/41
f 19/104/42 14/5/42 13/99/42
f 16/11/43 23/4/43 22/12/43
f 15/3/44 18/194/44 17/1/44
f 13/99/45 2/89/45 1/88/45
f 5/92/46 17/1/46 16/102/46
f 25/8/35 32/114/35 31/9/35
f 28/195/36 27/33/36 26/196/36
f 34/197/37 30/31/37 29/198/37
f 33/36/38 36/199/38 35/34/38
f 31/9/39 44/123/39 43/7/39
f 46/200/40 35/34/40 34/116/40
f 45/24/41 48/201/41 47/22/41
f 43/7/42 38/23/42 37/118/42
f 40/29/43 47/22/43 46/30/43
f 39/21/44 42/202/44 41/19/44
f 37/118/45 26/109/45 25/8/45
f 29/112/46 41/19/46 40/121/46
f 50/127/42 55/27/42 57/133/42
f 53/130/44 51/37/44 50/203/44
f 59/135/43 54/204/43 53/50/43
f 57/49/41 60/53/41 59/135/41
f 56/132/39 67/26/39 69/144/39
f 71/146/40 58/205/40 60/53/40
f 69/52/38 72/41/38 71/146/38
f 68/42/35 61/137/35 63/40/35
f 65/141/37 70/48/37 72/41/37
f 63/40/36 66/38/36 65/141/36
f 62/138/45 49/25/45 51/128/45
f 52/129/46 64/206/46 66/38/46
f 73/44/35 80/153/35 79/45/35
f 76/207/36 75/69/36 74/208/36
f 82/209/37 78/67/37 77/210/37
f 81/72/38 84/211/38 83/70/38
f 79/45/39 92/162/39 91/43/39
f 94/212/40 83/70/40 82/155/40
f 93/60/41 96/213/41 95/58/41
f 91/43/42 86/59/42 85/157/42
f 88/65/43 95/58/43 94/66/43
f 87/57/44 90/214/44 89/55/44
f 85/157/45 74/148/45 73/44/45
f 77/151/46 89/55/46 88/160/46
f 98/166/42 103/63/42 105/172/42
f 101/169/44 99/73/44 98/215/44
f 107/174/43 102/216/43 101/83/43
f 105/82/41 108/86/41 107/174/41
f 104/171/39 115/62/39 117/183/39
f 119/185/40 106/217/40 108/86/40
f 117/85/38 120/77/38 119/185/38
f 116/78/35 109/176/35 111/76/35
f 113/180/37 118/81/37 120/77/37
f 111/76/36 114/74/36 113/180/36
f 110/177/45 97/61/45 99/167/45
f 100/168/46 112/218/46 114/74/46
f 19/104/3 1/88/3 7/94/3
f 17/1/1 4/91/1 2/2/1
f 23/4/2 18/194/2 14/5/2
f 43/7/3 37/118/3 25/8/3
f 10/10/4 5/219/4 16/11/4
f 6/13/5 12/191/5 8/14/5
f 11/16/6 24/193/6 20/17/6
f 41/19/1 28/111/1 26/20/1
f 47/22/2 42/202/2 38/23/2
f 49/25/3 61/137/3 67/26/3
f 34/28/4 29/220/4 40/29/4
f 30/31/5 36/199/5 32/32/5
f 35/34/6 48/201/6 44/35/6
f 51/37/1 52/129/1 66/38/1
f 63/40/5 65/141/5 72/41/5
f 91/43/3 85/157/3 73/44/3
f 64/46/4 54/221/4 58/47/4
f 57/49/2 59/135/2 53/50/2
f 69/52/6 71/146/6 60/53/6
f 89/55/1 76/150/1 74/56/1
f 95/58/2 90/214/2 86/59/2
f 97/61/3 109/176/3 115/62/3
f 82/64/4 77/222/4 88/65/4
f 78/67/5 84/211/5 80/68/5
f 83/70/6 96/213/6 92/71/6
f 99/73/1 100/168/1 114/74/1
f 111/76/5 113/180/5 120/77/5
f 112/79/4 102/223/4 106/80/4
f 105/82/2 107/174/2 101/83/2
f 117/85/6 119/185/6 108/86/6
f 1/88/35 3/90/35 8/95/35
f 4/187/36 6/13/36 3/15/36
f 10/189/37 12/191/37 6/13/37
f 9/18/38 8/14/38 12/191/38
f 7/94/39 9/96/39 20/105/39
f 22/192/40 24/193/40 11/16/40
f 21/6/41 20/17/41 24/193/41
f 19/104/42 21/6/42 14/5/42
f 16/11/43 18/194/43 23/4/43
f 15/3/44 14/5/44 18/194/44
f 13/99/45 15/101/45 2/89/45
f 5/92/46 4/91/46 17/1/46
f 25/8/35 27/110/35 32/114/35
f 28/195/36 30/31/36 27/33/36
f 34/197/37 36/199/37 30/31/37
f 33/36/38 32/32/38 36/199/38
f 31/9/39 33/115/39 44/123/39
f 46/200/40 48/201/40 35/34/40
f 45/24/41 44/35/41 48/201/41
f 43/7/42 45/24/42 38/23/42
f 40/29/43 42/202/43 47/22/43
f 39/21/44 38/23/44 42/202/44
f 37/118/45 39/120/45 26/109/45
f 29/112/46 28/111/46 41/19/46
f 50/127/42 49/25/42 55/27/42
f 53/130/44 52/129/44 51/37/44
f 59/135/43 58/134/43 54/204/43
f 57/49/41 56/54/41 60/53/41
f 56/132/39 55/27/39 67/26/39
f 71/146/40 70/145/40 58/205/40
f 69/52/38 68/42/38 72/41/38
f 68/42/35 67/26/35 61/137/35
f 65/141/37 64/46/37 70/48/37
f 63/40/36 62/39/36 66/38/36
f 62/138/45 61/137/45 49/25/45
f 52/129/46 54/131/46 64/206/46
f 73/44/35 75/149/35 80/153/35
f 76/207/36 78/67/36 75/69/36
f 82/209/37 84/211/37 78/67/37
f 81/72/38 80/68/38 84/211/38
f 79/45/39 81/154/39 92/162/39
f 94/212/40 96/213/40 83/70/40
f 93/60/41 92/71/41 96/213/41
f 91/43/42 93/60/42 86/59/42
f 88/65/43 90/214/43 95/58/43
f 87/57/44 86/59/44 90/214/44
f 85/157/45 87/159/45 74/148/45
f 77/151/46 76/150/46 89/55/46
f 98/166/42 97/61/42 103/63/42
f 101/169/44 100/168/44 99/73/44
f 107/174/43 106/173/43 102/216/43
f 105/82/41 104/87/41 108/86/41
f 104/171/39 103/63/39 115/62/39
f 119/185/40 118/184/40 106/217/40
f 117/85/38 116/78/38 120/77/38
f 116/78/35 115/62/35 109/176/35
f 113/180/37 112/79/37 118/81/37
f 111/76/36 110/75/36 114/74/36
f 110/177/45 109/176/45 97/61/45
f 100/168/46 102/170/46 112/218/46
f 19/104/3 13/99/3 1/88/3
