# Blender v3.2.0 OBJ File: 'Tablet1.blend'
# www.blender.org
mtllib Tablet1.mtl
o Tablet1_Cube
v -0.151719 -0.000790 0.303628
v -0.161220 -0.000790 0.294126
v -0.158437 -0.000790 0.300845
v -0.149962 0.004943 0.291887
v -0.149480 0.004943 0.292370
v -0.149821 0.004943 0.292228
v -0.161220 -0.000790 -0.145817
v -0.151719 -0.000790 -0.155318
v -0.158437 -0.000790 -0.152535
v -0.149480 0.004943 -0.144060
v -0.149962 0.004943 -0.143578
v -0.149821 0.004943 -0.143919
v 0.093591 -0.000790 0.294126
v 0.084090 -0.000790 0.303628
v 0.090808 -0.000790 0.300845
v 0.081851 0.004943 0.292370
v 0.082333 0.004943 0.291887
v 0.082192 0.004943 0.292228
v 0.084090 -0.000790 -0.155318
v 0.093591 -0.000790 -0.145817
v 0.090808 -0.000790 -0.152535
v 0.082333 0.004943 -0.143577
v 0.081851 0.004943 -0.144060
v 0.082192 0.004943 -0.143919
v -0.151719 0.004943 0.303628
v -0.158437 0.004943 0.300845
v -0.161220 0.004943 0.294126
v -0.158437 0.004943 -0.152535
v -0.151719 0.004943 -0.155318
v -0.161220 0.004943 -0.145817
v 0.090808 0.004943 -0.152535
v 0.093591 0.004943 -0.145817
v 0.084090 0.004943 -0.155318
v 0.090808 0.004943 0.300845
v 0.084090 0.004943 0.303628
v 0.093591 0.004943 0.294126
v 0.050722 -0.007382 -0.122845
v 0.050722 0.000697 -0.125226
v 0.060778 -0.007382 -0.117038
v 0.062840 0.000697 -0.118229
v 0.060778 -0.007382 -0.105426
v 0.062840 0.000697 -0.104236
v 0.050722 -0.007382 -0.099620
v 0.050722 0.000697 -0.097239
v 0.040665 -0.007382 -0.105426
v 0.038603 0.000697 -0.104236
v 0.040665 -0.007382 -0.117038
v 0.038603 0.000697 -0.118229
v 0.050722 -0.007382 -0.125226
v 0.062840 -0.007382 -0.118229
v 0.062840 -0.007382 -0.104236
v 0.050722 -0.007382 -0.097239
v 0.038603 -0.007382 -0.104236
v 0.038603 -0.007382 -0.118229
v 0.050722 -0.004125 -0.122845
v 0.060778 -0.004125 -0.117038
v 0.060778 -0.004125 -0.105426
v 0.050722 -0.004125 -0.099620
v 0.040665 -0.004125 -0.105426
v 0.040665 -0.004125 -0.117038
vt 0.625000 0.759322
vt 0.375000 0.990678
vt 0.375000 0.759322
vt 0.625000 0.505176
vt 0.375000 0.744824
vt 0.375000 0.505176
vt 0.636045 0.506395
vt 0.863481 0.506133
vt 0.863955 0.506395
vt 0.625000 0.005176
vt 0.375000 0.244824
vt 0.375000 0.005176
vt 0.625000 0.259322
vt 0.375000 0.490678
vt 0.375000 0.259322
vt 0.625000 0.990678
vt 0.375000 1.000000
vt 0.625000 0.000000
vt 0.375000 0.000000
vt 0.625000 0.250000
vt 0.375000 0.250000
vt 0.625000 0.244824
vt 0.625000 0.500000
vt 0.375000 0.500000
vt 0.625000 0.490678
vt 0.625000 0.750000
vt 0.375000 0.750000
vt 0.625000 0.744825
vt 0.125000 0.505176
vt 0.365678 0.500000
vt 0.863816 0.743791
vt 0.865678 0.750000
vt 0.863481 0.743867
vt 0.875000 0.744825
vt 0.872270 0.748484
vt 0.863816 0.506209
vt 0.865678 0.500000
vt 0.872270 0.501516
vt 0.875000 0.505176
vt 0.636184 0.506209
vt 0.627730 0.501516
vt 0.634322 0.500000
vt 0.636519 0.506132
vt 0.636184 0.743791
vt 0.634322 0.750000
vt 0.627730 0.748484
vt 0.636045 0.743605
vt 0.863955 0.743605
vt 0.636519 0.743868
vt 1.000000 1.000000
vt 0.833333 0.500000
vt 1.000000 0.500000
vt 0.833333 1.000000
vt 0.666667 0.500000
vt 0.666667 1.000000
vt 0.500000 0.500000
vt 0.500000 1.000000
vt 0.333333 0.500000
vt 0.042154 0.130000
vt 0.250000 0.010000
vt 0.457846 0.130000
vt 0.333333 1.000000
vt 0.166667 0.500000
vt 0.166667 1.000000
vt -0.000000 0.500000
vt 0.577522 0.349580
vt 0.577522 0.150420
vt 0.577522 0.150420
vt 0.922478 0.349580
vt 0.750000 0.490000
vt 0.957846 0.370000
vt 0.922478 0.150420
vt 0.957846 0.130000
vt 0.750000 0.050840
vt 0.750000 0.010000
vt 0.542154 0.130000
vt 0.542154 0.370000
vt 0.750000 0.449160
vt 0.577522 0.349580
vt 0.922478 0.349580
vt 0.922478 0.150420
vt 0.750000 0.449160
vt 0.750000 0.050840
vt 0.625000 1.000000
vt 0.125000 0.744824
vt 0.127730 0.501516
vt 0.134322 0.500000
vt 0.372270 0.501516
vt 0.372270 0.748484
vt 0.365678 0.750000
vt 0.134322 0.750000
vt 0.127730 0.748484
vt 0.457846 0.370000
vt 0.250000 0.490000
vt 0.042154 0.370000
vt -0.000000 1.000000
vn 0.0000 0.0000 1.0000
vn 1.0000 0.0000 0.0000
vn 0.0000 1.0000 -0.0000
vn -1.0000 0.0000 0.0000
vn 0.0000 0.0000 -1.0000
vn -0.3827 0.0000 0.9239
vn -0.9239 0.0000 0.3827
vn -0.3827 0.0000 -0.9239
vn -0.9239 0.0000 -0.3827
vn 0.9239 0.0000 -0.3827
vn 0.3827 0.0000 -0.9239
vn 0.3827 0.0000 0.9239
vn 0.9239 0.0000 0.3827
vn 0.0000 -1.0000 -0.0000
vn 0.5000 0.0000 -0.8660
vn 0.5000 0.0000 0.8660
vn -0.5000 0.0000 0.8660
vn -0.5000 0.0000 -0.8660
usemtl Screen1Tablet1
s off
f 35/1/1 1/2/1 14/3/1
f 32/4/2 13/5/2 20/6/2
f 22/7/3 10/8/3 11/9/3
f 27/10/4 7/11/4 2/12/4
f 29/13/5 19/14/5 8/15/5
f 25/16/6 3/17/6 1/2/6
f 26/18/7 2/12/7 3/19/7
f 8/15/8 28/20/8 29/13/8
f 9/21/9 30/22/9 28/20/9
f 20/6/10 31/23/10 32/4/10
f 21/24/11 33/25/11 31/23/11
f 14/3/12 34/26/12 35/1/12
f 15/27/13 36/28/13 34/26/13
f 7/29/14 19/30/14 20/6/14
f 6/31/3 25/32/3 5/33/3
f 6/31/3 27/34/3 26/35/3
f 12/36/3 29/37/3 28/38/3
f 12/36/3 30/39/3 11/9/3
f 24/40/3 32/4/3 31/41/3
f 24/40/3 33/42/3 23/43/3
f 18/44/3 35/45/3 34/46/3
f 18/44/3 36/28/3 17/47/3
f 4/48/3 30/39/3 27/34/3
f 16/49/3 25/32/3 35/45/3
f 17/47/3 32/4/3 22/7/3
f 23/43/3 29/37/3 10/8/3
f 38/50/15 50/51/15 49/52/15
f 40/53/2 51/54/2 50/51/2
f 42/55/16 52/56/16 51/54/16
f 44/57/17 53/58/17 52/56/17
f 46/59/3 44/60/3 42/61/3
f 46/62/4 54/63/4 53/58/4
f 48/64/18 49/65/18 54/63/18
f 47/66/2 59/67/2 45/68/2
f 39/69/14 49/70/14 50/71/14
f 41/72/14 50/71/14 51/73/14
f 43/74/14 51/73/14 52/75/14
f 45/68/14 52/75/14 53/76/14
f 45/68/14 54/77/14 47/66/14
f 47/66/14 49/70/14 37/78/14
f 59/67/14 60/79/14 56/80/14
f 43/74/18 57/81/18 41/72/18
f 39/69/17 55/82/17 37/78/17
f 37/78/16 60/79/16 47/66/16
f 45/68/15 58/83/15 43/74/15
f 41/72/4 56/80/4 39/69/4
f 35/1/1 25/16/1 1/2/1
f 32/4/2 36/28/2 13/5/2
f 17/47/3 22/7/3 11/9/3
f 22/7/3 24/40/3 23/43/3
f 10/8/3 22/7/3 23/43/3
f 10/8/3 12/36/3 11/9/3
f 11/9/3 4/48/3 17/47/3
f 4/48/3 6/31/3 5/33/3
f 17/47/3 4/48/3 5/33/3
f 5/33/3 16/49/3 17/47/3
f 16/49/3 18/44/3 17/47/3
f 27/10/4 30/22/4 7/11/4
f 29/13/5 33/25/5 19/14/5
f 25/16/6 26/84/6 3/17/6
f 26/18/7 27/10/7 2/12/7
f 8/15/8 9/21/8 28/20/8
f 9/21/9 7/11/9 30/22/9
f 20/6/10 21/24/10 31/23/10
f 21/24/11 19/14/11 33/25/11
f 14/3/12 15/27/12 34/26/12
f 15/27/13 13/5/13 36/28/13
f 2/85/14 7/29/14 20/6/14
f 7/29/14 9/86/14 8/87/14
f 19/30/14 7/29/14 8/87/14
f 19/30/14 21/88/14 20/6/14
f 20/6/14 13/5/14 2/85/14
f 13/5/14 15/89/14 14/90/14
f 2/85/14 13/5/14 1/91/14
f 14/90/14 1/91/14 13/5/14
f 1/91/14 3/92/14 2/85/14
f 6/31/3 26/35/3 25/32/3
f 6/31/3 4/48/3 27/34/3
f 12/36/3 10/8/3 29/37/3
f 12/36/3 28/38/3 30/39/3
f 24/40/3 22/7/3 32/4/3
f 24/40/3 31/41/3 33/42/3
f 18/44/3 16/49/3 35/45/3
f 18/44/3 34/46/3 36/28/3
f 4/48/3 11/9/3 30/39/3
f 16/49/3 5/33/3 25/32/3
f 17/47/3 36/28/3 32/4/3
f 23/43/3 33/42/3 29/37/3
f 38/50/15 40/53/15 50/51/15
f 40/53/2 42/55/2 51/54/2
f 42/55/16 44/57/16 52/56/16
f 44/57/17 46/62/17 53/58/17
f 42/61/3 40/93/3 46/59/3
f 40/93/3 38/94/3 46/59/3
f 38/94/3 48/95/3 46/59/3
f 46/62/4 48/64/4 54/63/4
f 48/64/18 38/96/18 49/65/18
f 47/66/2 60/79/2 59/67/2
f 39/69/14 37/78/14 49/70/14
f 41/72/14 39/69/14 50/71/14
f 43/74/14 41/72/14 51/73/14
f 45/68/14 43/74/14 52/75/14
f 45/68/14 53/76/14 54/77/14
f 47/66/14 54/77/14 49/70/14
f 60/79/14 55/82/14 56/80/14
f 56/80/14 57/81/14 58/83/14
f 58/83/14 59/67/14 56/80/14
f 43/74/18 58/83/18 57/81/18
f 39/69/17 56/80/17 55/82/17
f 37/78/16 55/82/16 60/79/16
f 45/68/15 59/67/15 58/83/15
f 41/72/4 57/81/4 56/80/4
