# Blender v3.2.0 OBJ File: 'TeaCup1.blend'
# www.blender.org
mtllib TeaCup1.mtl
o TeaCup1_Cylinder
v 0.054784 -0.061898 0.026403
v 0.038735 -0.061898 0.065149
v -0.000011 -0.061898 0.081198
v -0.038757 -0.061898 0.065149
v -0.054806 -0.061898 0.026403
v -0.038757 -0.061898 -0.012343
v -0.000011 -0.061898 -0.028392
v 0.038735 -0.061898 -0.012343
v 0.055761 -0.047365 0.026403
v 0.039425 -0.047365 0.065840
v -0.000011 -0.047365 0.082175
v -0.039447 -0.047365 0.065840
v -0.055782 -0.047365 0.026403
v -0.039447 -0.047365 -0.013033
v -0.000011 -0.047365 -0.029368
v 0.039425 -0.047365 -0.013033
v 0.073453 -0.028708 0.025654
v 0.051936 -0.028708 0.077600
v -0.000011 -0.028708 0.099117
v -0.051957 -0.028708 0.077600
v -0.073474 -0.028708 0.025654
v -0.051957 -0.028708 -0.026293
v -0.000011 -0.028708 -0.047810
v 0.051936 -0.028708 -0.026293
v 0.044414 -0.030609 0.070078
v 0.062815 -0.030609 0.025654
v -0.000011 -0.030609 0.088479
v -0.044435 -0.030609 0.070078
v -0.062836 -0.030609 0.025654
v -0.044435 -0.030609 -0.018771
v -0.000011 -0.030609 -0.037172
v 0.044414 -0.030609 -0.018771
v 0.033193 -0.047091 0.059607
v 0.046947 -0.047091 0.026403
v -0.000011 -0.047091 0.073361
v -0.033215 -0.047091 0.059607
v -0.046969 -0.047091 0.026403
v -0.033215 -0.047091 -0.006801
v -0.000011 -0.047091 -0.020554
v 0.033193 -0.047091 -0.006801
v 0.073718 0.048824 0.025654
v 0.072565 0.047808 0.025654
v 0.051308 0.047808 0.076973
v 0.052124 0.048824 0.077788
v -0.000011 0.047808 0.098229
v -0.000011 0.048824 0.099382
v -0.051330 0.047808 0.076973
v -0.052145 0.048824 0.077788
v -0.072587 0.047808 0.025654
v -0.073740 0.048824 0.025654
v -0.051330 0.047808 -0.025665
v -0.052145 0.048824 -0.026481
v -0.000011 0.047808 -0.046922
v -0.000011 0.048824 -0.048075
v 0.051308 0.047808 -0.025665
v 0.052124 0.048824 -0.026481
v 0.059526 0.048824 0.085190
v 0.060240 0.047810 0.085904
v 0.085197 0.047810 0.025654
v 0.084187 0.048824 0.025654
v -0.000011 0.048824 0.109851
v -0.000011 0.047810 0.110861
v -0.059547 0.048824 0.085190
v -0.060261 0.047810 0.085904
v -0.084208 0.048824 0.025654
v -0.085218 0.047810 0.025654
v -0.059547 0.048824 -0.033883
v -0.060261 0.047810 -0.034597
v -0.000011 0.048824 -0.058544
v -0.000011 0.047810 -0.059554
v 0.059526 0.048824 -0.033883
v 0.060240 0.047810 -0.034597
v 0.004934 0.034700 -0.045303
v -0.004955 0.034700 -0.045303
v 0.003841 -0.021224 -0.035695
v -0.005643 -0.024024 -0.035695
v 0.004934 -0.013923 -0.070350
v -0.004955 -0.013923 -0.070350
v 0.004934 0.005961 -0.078526
v -0.004955 0.005961 -0.078526
v 0.004934 0.025943 -0.070249
v -0.004955 0.025943 -0.070249
v 0.004934 0.039385 -0.047244
v 0.003700 0.040528 -0.047717
v -0.003722 0.040528 -0.047717
v -0.004955 0.039393 -0.047247
v 0.004438 -0.027609 -0.036140
v 0.005284 -0.026115 -0.036056
v -0.004213 -0.028869 -0.036052
v -0.002678 -0.029709 -0.036140
v 0.003700 -0.018482 -0.074709
v 0.004934 -0.017488 -0.073758
v -0.004955 -0.017497 -0.073768
v -0.003722 -0.018482 -0.074709
v 0.003700 0.005961 -0.084834
v 0.004934 0.005961 -0.083474
v -0.004955 0.005961 -0.083485
v -0.003722 0.005961 -0.084834
v 0.003700 0.030403 -0.074709
v 0.004934 0.029443 -0.073749
v -0.004955 0.029450 -0.073756
v -0.003722 0.030403 -0.074709
vt 0.875000 0.996816
vt 0.750000 0.794956
vt 0.875000 0.794956
vt 0.125000 0.996816
vt 0.000000 0.794956
vt 0.125000 0.794956
vt 0.625000 0.996816
vt 0.500000 0.794956
vt 0.625000 0.794956
vt 0.500000 0.996816
vt 0.375000 0.794956
vt 0.250000 0.996816
vt 0.250000 0.794956
vt 0.091050 0.408950
vt 0.025211 0.250000
vt 0.091050 0.408950
vt 0.750000 0.996816
vt 0.580294 0.080294
vt 0.510000 0.250000
vt 0.580294 0.419706
vt 0.125000 0.589912
vt 0.000000 0.500000
vt 0.125000 0.500000
vt 0.250000 0.589912
vt 0.250000 0.500000
vt 0.375000 0.589912
vt 0.375000 0.500000
vt 0.500000 0.589912
vt 0.500000 0.500000
vt 0.625000 0.589912
vt 0.625000 0.500000
vt 0.750000 0.500000
vt 0.875000 0.589912
vt 0.875000 0.500000
vt 1.000000 0.589912
vt 1.000000 0.500000
vt 0.000000 0.589912
vt 0.750000 0.589912
vt 0.250000 0.474789
vt 0.250000 0.474789
vt 0.408950 0.091050
vt 0.474789 0.250000
vt 0.408950 0.091050
vt 0.250000 0.025211
vt 0.250000 0.025211
vt 0.091050 0.091050
vt 0.091050 0.091050
vt 0.023889 0.250000
vt 0.081229 0.081229
vt 0.090115 0.090115
vt 0.025211 0.250000
vt 1.000000 0.996816
vt 1.000000 0.794956
vt 0.408950 0.408950
vt 0.474789 0.250000
vt 0.408950 0.408950
vt 0.250000 0.474789
vt 0.408950 0.408950
vt 0.250000 0.023889
vt 0.418771 0.081229
vt 0.409885 0.090115
vt 0.409885 0.409885
vt 0.488678 0.250000
vt 0.418771 0.418771
vt 0.090115 0.409885
vt 0.011322 0.250000
vt 0.250000 0.011322
vt 0.476111 0.250000
vt 0.250000 0.488678
vt 0.250000 0.476111
vt 0.081229 0.418771
vt 0.025211 0.250000
vt 0.250000 0.025211
vt 0.474789 0.250000
vt 0.091050 0.408950
vt 0.091050 0.091050
vt 0.408950 0.091050
vt 0.250091 0.489962
vt 0.419615 0.419743
vt 0.419743 0.419615
vt 0.489962 0.250091
vt 0.489962 0.249909
vt 0.419743 0.080385
vt 0.419615 0.080257
vt 0.250091 0.010038
vt 0.249909 0.010038
vt 0.080385 0.080257
vt 0.080257 0.080385
vt 0.010038 0.249909
vt 0.080257 0.419615
vt 0.080385 0.419743
vt 0.249909 0.489962
vt 0.500000 0.500000
vt 0.375000 0.500000
vt 0.500000 0.500000
vt 0.250000 0.500000
vt 0.375000 0.500000
vt 0.125000 0.500000
vt 0.250000 0.500000
vt 0.000000 0.500000
vt 0.125000 0.500000
vt 0.375000 1.000000
vt 0.500000 1.000000
vt 0.250000 1.000000
vt 0.000000 0.500000
vt 0.125000 1.000000
vt 0.125000 0.937634
vt 0.000000 0.562363
vt 0.125000 0.562363
vt 0.500000 0.562421
vt 0.375000 0.937632
vt 0.375000 0.562364
vt 0.500000 1.000000
vt 0.375000 1.000000
vt 0.250000 0.562363
vt 0.250000 1.000000
vt 0.250000 0.937633
vt 0.125000 1.000000
vt 0.000000 1.000000
vt 0.000000 1.000000
vt 0.500000 0.937559
vt 0.000000 0.937634
vt 0.000000 0.996816
vt 0.375000 0.996816
vt 0.750000 0.490000
vt 0.919706 0.419706
vt 0.990000 0.250000
vt 0.919706 0.080294
vt 0.750000 0.010000
vt 0.010038 0.250091
vn 0.3789 -0.1404 0.9147
vn 0.9147 -0.1404 -0.3789
vn -0.9147 -0.1404 0.3789
vn -0.9147 -0.1404 -0.3789
vn -0.3789 -0.1404 -0.9147
vn 0.3789 -0.1404 -0.9147
vn -0.3802 0.1141 0.9178
vn -0.3789 -0.1404 0.9147
vn 0.0000 -1.0000 0.0000
vn 0.9221 -0.0620 -0.3819
vn 0.3819 -0.0620 -0.9221
vn -0.3819 -0.0620 -0.9221
vn -0.9221 -0.0620 -0.3819
vn -0.9221 -0.0620 0.3819
vn -0.3819 -0.0620 0.9221
vn 0.3819 -0.0620 0.9221
vn 0.9221 -0.0620 0.3819
vn 0.6896 -0.6655 -0.2857
vn 0.2826 -0.6743 -0.6822
vn -0.2826 -0.6743 -0.6822
vn -0.6896 -0.6654 -0.2857
vn -0.7002 -0.6523 0.2900
vn -0.2932 -0.6427 0.7078
vn 0.2932 -0.6427 0.7078
vn 0.7002 -0.6524 0.2900
vn -0.9178 0.1141 0.3802
vn 0.3802 0.1141 -0.9178
vn 0.9178 0.1141 -0.3802
vn 0.9178 0.1141 0.3802
vn 0.0000 1.0000 0.0000
vn 0.3802 0.1141 0.9178
vn 0.9147 -0.1404 0.3789
vn -0.3802 0.1141 -0.9178
vn -0.6963 0.6572 -0.2884
vn -0.6844 0.6718 0.2835
vn 0.2800 0.6816 0.6760
vn 0.6963 0.6572 -0.2884
vn -0.2920 0.6465 -0.7048
vn -0.2800 0.6816 0.6760
vn 0.6844 0.6718 0.2835
vn 0.2920 0.6465 -0.7048
vn 0.6798 0.6772 0.2816
vn 0.2816 0.6772 0.6798
vn -0.2816 0.6772 0.6798
vn -0.6798 0.6772 0.2816
vn -0.6798 0.6772 -0.2816
vn -0.2816 0.6772 -0.6798
vn 0.2816 0.6772 -0.6798
vn 0.6798 0.6772 -0.2816
vn -0.6378 0.7235 -0.2642
vn -0.2642 0.7235 -0.6378
vn 0.2642 0.7235 -0.6378
vn 0.6378 0.7235 -0.2642
vn 0.6378 0.7235 0.2642
vn 0.2642 0.7235 0.6378
vn -0.2642 0.7235 0.6378
vn -0.6378 0.7235 0.2642
vn -0.9178 0.1141 -0.3802
vn 0.9571 0.2760 0.0883
vn 1.0000 0.0000 0.0000
vn -0.2730 0.9250 0.2642
vn -0.0000 0.3803 0.9249
vn 0.0000 -0.3827 0.9239
vn 0.0000 -0.9435 0.3312
vn 0.0000 0.9363 -0.3512
vn 0.0000 -0.9731 -0.2303
vn -0.9998 -0.0146 0.0153
vn 0.0000 -0.3827 -0.9239
vn -1.0000 0.0000 -0.0000
vn 0.0000 0.3827 -0.9239
vn 0.0200 -0.0676 0.9975
vn 0.8667 -0.4845 -0.1189
vn -0.6950 -0.6952 -0.1836
vn 0.7142 -0.2678 -0.6466
vn -0.7105 -0.2693 -0.6501
vn 0.7135 0.2681 -0.6474
vn -0.7105 0.2693 -0.6501
vn 0.7080 0.6613 -0.2480
vn -0.7054 0.6637 -0.2489
vn -0.0000 0.3827 0.9239
vn 0.9999 0.0073 -0.0076
vn -0.0000 0.9785 0.2062
vn 0.2721 -0.9219 -0.2757
vn -0.9563 -0.2750 -0.0991
vn 0.6969 -0.6948 -0.1777
vn -0.4760 -0.8445 -0.2453
vn 0.7134 -0.2682 -0.6474
vn -0.7108 -0.2692 -0.6499
vn 0.7131 0.2682 -0.6477
vn 0.7079 0.6613 -0.2480
vn -0.7053 0.6637 -0.2490
usemtl PorcelainTeaCup1
s off
f 58/1/1 19/2/1 18/3/1
f 72/4/2 17/5/2 24/6/2
f 64/7/3 21/8/3 20/9/3
f 66/10/4 22/11/4 21/8/4
f 22/11/5 70/12/5 23/13/5
f 70/12/6 24/6/6 23/13/6
f 55/14/7 31/15/7 32/16/7
f 62/17/8 20/9/8 19/2/8
f 6/18/9 7/19/9 8/20/9
f 16/21/10 1/22/10 8/23/10
f 15/24/11 8/23/11 7/25/11
f 14/26/12 7/25/12 6/27/12
f 13/28/13 6/27/13 5/29/13
f 12/30/14 5/29/14 4/31/14
f 3/32/15 12/30/15 4/31/15
f 10/33/16 3/32/16 2/34/16
f 9/35/17 2/34/17 1/36/17
f 16/21/18 17/5/18 9/37/18
f 15/24/19 24/6/19 16/21/19
f 22/11/20 15/24/20 14/26/20
f 21/8/21 14/26/21 13/28/21
f 20/9/22 13/28/22 12/30/22
f 19/2/23 12/30/23 11/38/23
f 10/33/24 19/2/24 11/38/24
f 9/35/25 18/3/25 10/33/25
f 55/14/26 26/39/26 42/40/26
f 47/41/27 27/42/27 28/43/27
f 49/44/28 28/43/28 29/45/28
f 49/44/29 30/46/29 51/47/29
f 54/48/30 67/49/30 52/50/30
f 51/47/31 31/15/31 53/51/31
f 59/52/32 18/3/32 17/53/32
f 43/54/33 27/42/33 45/55/33
f 25/56/34 34/57/34 33/58/34
f 50/59/30 63/60/30 48/61/30
f 44/62/30 61/63/30 57/64/30
f 56/65/30 69/66/30 54/48/30
f 52/50/30 65/67/30 50/59/30
f 48/61/30 61/63/30 46/68/30
f 44/62/30 60/69/30 41/70/30
f 41/70/30 71/71/30 56/65/30
f 39/72/30 37/73/30 35/74/30
f 26/39/35 40/75/35 34/57/35
f 30/46/36 39/72/36 31/15/36
f 28/43/37 37/73/37 29/45/37
f 27/42/38 33/58/38 35/74/38
f 32/16/39 39/72/39 40/75/39
f 29/45/40 38/76/40 30/46/40
f 27/42/41 36/77/41 28/43/41
f 59/78/42 57/64/42 58/79/42
f 58/80/43 61/63/43 62/81/43
f 62/82/44 63/60/44 64/83/44
f 64/84/45 65/67/45 66/85/45
f 66/86/46 67/49/46 68/87/46
f 68/88/47 69/66/47 70/89/47
f 72/90/48 69/66/48 71/71/48
f 72/91/49 60/69/49 59/92/49
f 44/62/50 42/40/50 43/54/50
f 44/62/51 45/55/51 46/68/51
f 48/61/52 45/55/52 47/41/52
f 50/59/53 47/41/53 49/44/53
f 52/50/54 49/44/54 51/47/54
f 52/50/55 53/51/55 54/48/55
f 56/65/56 53/51/56 55/14/56
f 56/65/57 42/40/57 41/70/57
f 42/40/58 25/56/58 43/54/58
f 88/93/59 77/94/59 75/95/59
f 96/96/60 77/94/60 92/97/60
f 96/96/60 81/98/60 79/99/60
f 83/100/60 81/98/60 100/101/60
f 75/95/61 78/102/61 76/103/61
f 77/94/62 80/104/62 78/102/62
f 81/98/63 80/104/63 79/99/63
f 73/105/64 82/106/64 81/98/64
f 102/107/65 84/108/65 99/109/65
f 87/110/66 94/111/66 91/112/66
f 89/113/67 78/102/67 93/114/67
f 94/111/68 95/115/68 91/112/68
f 97/116/69 78/102/69 80/104/69
f 98/117/70 99/109/70 95/115/70
f 97/116/69 82/106/69 101/118/69
f 86/119/69 82/106/69 74/120/69
f 76/103/71 87/110/71 75/95/71
f 87/110/72 92/97/72 88/93/72
f 90/121/73 93/114/73 94/111/73
f 95/115/74 92/97/74 91/112/74
f 98/117/75 93/114/75 97/116/75
f 99/109/76 96/96/76 95/115/76
f 102/107/77 97/116/77 101/118/77
f 84/108/78 100/101/78 99/109/78
f 85/122/79 101/118/79 86/119/79
f 73/105/80 85/122/80 74/120/80
f 58/1/1 62/17/1 19/2/1
f 72/4/2 59/123/2 17/5/2
f 64/7/3 66/10/3 21/8/3
f 66/10/4 68/124/4 22/11/4
f 22/11/5 68/124/5 70/12/5
f 70/12/6 72/4/6 24/6/6
f 55/14/7 53/51/7 31/15/7
f 62/17/8 64/7/8 20/9/8
f 8/20/9 1/125/9 2/126/9
f 2/126/9 3/127/9 8/20/9
f 3/127/9 4/128/9 8/20/9
f 4/128/9 5/129/9 8/20/9
f 5/129/9 6/18/9 8/20/9
f 16/21/10 9/37/10 1/22/10
f 15/24/11 16/21/11 8/23/11
f 14/26/12 15/24/12 7/25/12
f 13/28/13 14/26/13 6/27/13
f 12/30/14 13/28/14 5/29/14
f 3/32/15 11/38/15 12/30/15
f 10/33/16 11/38/16 3/32/16
f 9/35/17 10/33/17 2/34/17
f 16/21/18 24/6/18 17/5/18
f 15/24/19 23/13/19 24/6/19
f 22/11/20 23/13/20 15/24/20
f 21/8/21 22/11/21 14/26/21
f 20/9/22 21/8/22 13/28/22
f 19/2/23 20/9/23 12/30/23
f 10/33/24 18/3/24 19/2/24
f 9/35/25 17/53/25 18/3/25
f 55/14/26 32/16/26 26/39/26
f 47/41/27 45/55/27 27/42/27
f 49/44/28 47/41/28 28/43/28
f 49/44/29 29/45/29 30/46/29
f 54/48/30 69/66/30 67/49/30
f 51/47/31 30/46/31 31/15/31
f 59/52/32 58/1/32 18/3/32
f 43/54/33 25/56/33 27/42/33
f 25/56/34 26/39/34 34/57/34
f 50/59/30 65/67/30 63/60/30
f 44/62/30 46/68/30 61/63/30
f 56/65/30 71/71/30 69/66/30
f 52/50/30 67/49/30 65/67/30
f 48/61/30 63/60/30 61/63/30
f 44/62/30 57/64/30 60/69/30
f 41/70/30 60/69/30 71/71/30
f 35/74/30 33/58/30 34/57/30
f 34/57/30 40/75/30 39/72/30
f 39/72/30 38/76/30 37/73/30
f 37/73/30 36/77/30 35/74/30
f 35/74/30 34/57/30 39/72/30
f 26/39/35 32/16/35 40/75/35
f 30/46/36 38/76/36 39/72/36
f 28/43/37 36/77/37 37/73/37
f 27/42/38 25/56/38 33/58/38
f 32/16/39 31/15/39 39/72/39
f 29/45/40 37/73/40 38/76/40
f 27/42/41 35/74/41 36/77/41
f 59/78/42 60/69/42 57/64/42
f 58/80/43 57/64/43 61/63/43
f 62/82/44 61/63/44 63/60/44
f 64/84/45 63/60/45 65/67/45
f 66/86/46 65/67/46 67/49/46
f 68/88/47 67/49/47 69/66/47
f 72/90/48 70/130/48 69/66/48
f 72/91/49 71/71/49 60/69/49
f 44/62/50 41/70/50 42/40/50
f 44/62/51 43/54/51 45/55/51
f 48/61/52 46/68/52 45/55/52
f 50/59/53 48/61/53 47/41/53
f 52/50/54 50/59/54 49/44/54
f 52/50/55 51/47/55 53/51/55
f 56/65/56 54/48/56 53/51/56
f 56/65/57 55/14/57 42/40/57
f 42/40/58 26/39/58 25/56/58
f 88/93/81 92/97/81 77/94/81
f 96/96/60 79/99/60 77/94/60
f 96/96/60 100/101/60 81/98/60
f 83/100/60 73/105/60 81/98/60
f 75/95/82 77/94/82 78/102/82
f 77/94/62 79/99/62 80/104/62
f 81/98/63 82/106/63 80/104/63
f 73/105/64 74/120/64 82/106/64
f 102/107/65 85/122/65 84/108/65
f 87/110/83 90/121/83 94/111/83
f 89/113/84 76/103/84 78/102/84
f 94/111/68 98/117/68 95/115/68
f 97/116/69 93/114/69 78/102/69
f 98/117/70 102/107/70 99/109/70
f 97/116/69 80/104/69 82/106/69
f 86/119/69 101/118/69 82/106/69
f 76/103/71 89/113/71 90/121/71
f 90/121/71 87/110/71 76/103/71
f 87/110/71 88/93/71 75/95/71
f 87/110/85 91/112/85 92/97/85
f 90/121/86 89/113/86 93/114/86
f 95/115/87 96/96/87 92/97/87
f 98/117/88 94/111/88 93/114/88
f 99/109/89 100/101/89 96/96/89
f 102/107/77 98/117/77 97/116/77
f 84/108/90 83/100/90 100/101/90
f 85/122/91 102/107/91 101/118/91
f 73/105/80 83/100/80 84/108/80
f 84/108/80 85/122/80 73/105/80
f 85/122/80 86/119/80 74/120/80
o Plate1TeaCup1_Cylinder.002
v -0.000011 -0.062823 0.085218
v -0.000011 -0.062105 0.150396
v -0.041599 -0.062823 0.067992
v -0.087687 -0.062105 0.114079
v -0.058826 -0.062823 0.026403
v -0.124003 -0.062105 0.026403
v -0.041599 -0.062823 -0.015185
v -0.087687 -0.062105 -0.061272
v -0.000011 -0.062823 -0.032412
v -0.000011 -0.062105 -0.097589
v 0.041577 -0.062823 -0.015185
v 0.087665 -0.062105 -0.061272
v 0.058804 -0.062823 0.026403
v 0.123981 -0.062105 0.026403
v 0.041577 -0.062823 0.067992
v 0.087665 -0.062105 0.114079
v -0.000011 -0.057191 0.150396
v -0.087687 -0.057191 0.114079
v -0.124003 -0.057191 0.026403
v -0.087687 -0.057191 -0.061272
v -0.000011 -0.057191 -0.097589
v 0.087665 -0.057191 -0.061272
v 0.123981 -0.057191 0.026403
v 0.087665 -0.057191 0.114079
v -0.000011 -0.065473 0.082103
v -0.039396 -0.065473 0.065789
v -0.055710 -0.065473 0.026403
v -0.039396 -0.065473 -0.012982
v -0.000011 -0.065473 -0.029296
v 0.039374 -0.065473 -0.012982
v 0.055688 -0.065473 0.026403
v 0.039374 -0.065473 0.065789
vt 0.875000 0.500000
vt 1.000000 1.000000
vt 1.000000 0.500000
vt 0.750000 0.500000
vt 0.875000 1.000000
vt 0.625000 0.500000
vt 0.750000 1.000000
vt 0.500000 0.500000
vt 0.625000 1.000000
vt 0.375000 0.500000
vt 0.500000 1.000000
vt 0.250000 0.500000
vt 0.375000 1.000000
vt 0.250000 0.010000
vt 0.010000 0.250000
vt 0.250000 0.490000
vt 0.125000 0.500000
vt 0.250000 1.000000
vt 0.000000 0.500000
vt 0.125000 1.000000
vt 0.842178 0.342178
vt 0.880360 0.250000
vt 0.880360 0.250000
vt 0.919706 0.419706
vt 0.750000 0.380360
vt 0.990000 0.250000
vt 0.919706 0.080294
vt 0.842178 0.157822
vt 0.750000 0.010000
vt 0.750000 0.119640
vt 0.580294 0.080294
vt 0.657822 0.157822
vt 0.510000 0.250000
vt 0.619640 0.250000
vt 0.580294 0.419706
vt 0.657822 0.342178
vt 0.750000 0.490000
vt 0.657822 0.157822
vt 0.842178 0.157822
vt 0.842178 0.342178
vt 0.619640 0.250000
vt 0.750000 0.119640
vt 0.750000 0.380360
vt 0.657822 0.342178
vt 0.419706 0.419706
vt 0.490000 0.250000
vt 0.419706 0.080294
vt 0.080294 0.080294
vt 0.080294 0.419706
vt 0.000000 1.000000
vn -0.3827 0.0000 0.9239
vn -0.9239 0.0000 0.3827
vn -0.9239 0.0000 -0.3827
vn -0.3827 0.0000 -0.9239
vn 0.3827 0.0000 -0.9239
vn 0.9239 0.0000 -0.3827
vn 0.0000 -1.0000 0.0000
vn 0.9239 0.0000 0.3827
vn 0.3827 0.0000 0.9239
vn 0.6258 0.7357 -0.2592
vn 0.0356 0.9957 -0.0860
vn 0.0860 0.9957 -0.0356
vn 0.0860 0.9957 0.0356
vn 0.0356 0.9957 0.0860
vn -0.0356 0.9957 0.0860
vn -0.0860 0.9957 0.0356
vn -0.0860 0.9957 -0.0356
vn -0.0356 0.9957 -0.0860
vn 0.0000 1.0000 0.0000
vn -0.6258 0.7357 -0.2592
vn -0.2592 0.7357 0.6258
vn 0.6258 0.7357 0.2592
vn 0.2592 0.7357 -0.6258
vn -0.2592 0.7357 -0.6258
vn -0.6258 0.7357 0.2592
vn 0.2592 0.7357 0.6258
usemtl PorcelainPlateTeaCup1
s off
f 120/131/92 104/132/92 119/133/92
f 121/134/93 106/135/93 120/131/93
f 122/136/94 108/137/94 121/134/94
f 123/138/95 110/139/95 122/136/95
f 124/140/96 112/141/96 123/138/96
f 125/142/97 114/143/97 124/140/97
f 112/144/98 116/145/98 104/146/98
f 126/147/99 116/148/99 125/142/99
f 119/149/100 118/150/100 126/147/100
f 105/151/101 129/152/101 107/153/101
f 120/154/102 103/155/102 105/151/102
f 121/156/103 105/151/103 107/153/103
f 122/157/104 107/153/104 109/158/104
f 123/159/105 109/158/105 111/160/105
f 124/161/106 111/160/106 113/162/106
f 125/163/107 113/162/107 115/164/107
f 126/165/108 115/164/108 117/166/108
f 119/167/109 117/166/109 103/155/109
f 132/168/110 130/169/110 128/170/110
f 133/171/111 117/166/111 115/164/111
f 131/172/112 113/162/112 111/160/112
f 129/152/113 109/158/113 107/153/113
f 127/173/114 105/151/114 103/155/114
f 134/174/115 103/155/115 117/166/115
f 132/168/116 115/164/116 113/162/116
f 130/169/117 111/160/117 109/158/117
f 120/131/92 106/135/92 104/132/92
f 121/134/93 108/137/93 106/135/93
f 122/136/94 110/139/94 108/137/94
f 123/138/95 112/141/95 110/139/95
f 124/140/96 114/143/96 112/141/96
f 125/142/97 116/148/97 114/143/97
f 104/146/98 106/175/98 108/176/98
f 108/176/98 110/177/98 112/144/98
f 112/144/98 114/178/98 116/145/98
f 116/145/98 118/179/98 104/146/98
f 104/146/98 108/176/98 112/144/98
f 126/147/99 118/150/99 116/148/99
f 119/149/100 104/180/100 118/150/100
f 105/151/101 128/170/101 129/152/101
f 120/154/102 119/167/102 103/155/102
f 121/156/103 120/154/103 105/151/103
f 122/157/104 121/156/104 107/153/104
f 123/159/105 122/157/105 109/158/105
f 124/161/106 123/159/106 111/160/106
f 125/163/107 124/161/107 113/162/107
f 126/165/108 125/163/108 115/164/108
f 119/167/109 126/165/109 117/166/109
f 128/170/110 127/173/110 134/174/110
f 134/174/110 133/171/110 132/168/110
f 132/168/110 131/172/110 130/169/110
f 130/169/110 129/152/110 128/170/110
f 128/170/110 134/174/110 132/168/110
f 133/171/111 134/174/111 117/166/111
f 131/172/112 132/168/112 113/162/112
f 129/152/113 130/169/113 109/158/113
f 127/173/114 128/170/114 105/151/114
f 134/174/115 127/173/115 103/155/115
f 132/168/116 133/171/116 115/164/116
f 130/169/117 131/172/117 111/160/117
