# Blender v3.2.0 OBJ File: 'WashBrush1.blend'
# www.blender.org
mtllib WashBrush1.mtl
o WashBrush1_Cube.001
v -0.004168 -0.213203 0.006355
v -0.021283 0.006238 0.008511
v -0.004168 -0.213203 -0.006356
v -0.021283 0.006238 -0.008511
v 0.004168 -0.213203 0.006355
v 0.021283 0.006238 0.008511
v 0.004168 -0.213203 -0.006356
v 0.021283 0.006238 -0.008511
v -0.045752 0.086144 0.005996
v -0.045752 0.086144 -0.005996
v 0.045752 0.086144 -0.005996
v 0.045752 0.086144 0.005996
v -0.050891 0.086144 0.007614
v -0.050891 0.086144 -0.007614
v 0.050891 0.086144 -0.007614
v 0.050891 0.086144 0.007614
v 0.045752 0.141842 0.005996
v 0.045752 0.141842 -0.005996
v -0.045752 0.141842 -0.005996
v -0.045752 0.141842 0.005996
v -0.028126 -0.147784 0.006756
v -0.028126 -0.147784 -0.006756
v 0.028126 -0.147784 -0.006756
v 0.028126 -0.147784 0.006756
v 0.051033 0.040619 0.008125
v -0.051033 0.040619 0.008125
v -0.051033 0.040619 -0.008125
v 0.051033 0.040619 -0.008125
vt 0.625000 0.000000
vt 0.421435 0.250000
vt 0.421435 0.000000
vt 0.625000 0.250000
vt 0.421435 0.500000
vt 0.625000 0.500000
vt 0.421435 0.750000
vt 0.625000 0.750000
vt 0.421435 1.000000
vt 0.375000 0.500000
vt 0.125000 0.750000
vt 0.125000 0.500000
vt 0.625000 0.750000
vt 0.625000 1.000000
vt 0.625000 1.000000
vt 0.625000 0.250000
vt 0.625000 0.500000
vt 0.625000 0.500000
vt 0.625000 0.750000
vt 0.625000 0.000000
vt 0.625000 0.250000
vt 0.862379 0.526565
vt 0.875000 0.750000
vt 0.862379 0.723435
vt 0.875000 0.500000
vt 0.637621 0.723435
vt 0.637621 0.526565
vt 0.375000 0.750000
vt 0.375000 1.000000
vt 0.375000 0.250000
vt 0.375000 0.000000
vt 0.625000 1.000000
vt 0.625000 0.000000
vt 0.862379 0.526565
vt 0.637621 0.526565
vt 0.637621 0.723435
vt 0.862379 0.723435
vn -0.9990 0.0444 0.0000
vn 0.0000 -0.0114 -0.9999
vn 0.9990 0.0444 0.0000
vn 0.0000 -0.0114 0.9999
vn 0.0000 -1.0000 0.0000
vn 0.0000 0.0112 0.9999
vn 0.0000 0.0112 -0.9999
vn 1.0000 0.0031 0.0000
vn -1.0000 0.0031 0.0000
vn 0.0000 1.0000 0.0000
vn 0.0000 -0.0061 1.0000
vn 0.9390 -0.3439 0.0000
vn 0.0000 -0.0061 -1.0000
vn -0.9390 -0.3439 0.0000
vn -0.7562 -0.6543 -0.0000
vn 0.7562 -0.6543 0.0000
vn -1.0000 0.0000 0.0000
vn 0.0000 0.0000 -1.0000
vn 1.0000 0.0000 0.0000
vn 0.0000 0.0000 1.0000
usemtl Wood1WashBrush1
s off
f 2/1/1 22/2/1 21/3/1
f 4/4/2 23/5/2 22/2/2
f 8/6/3 24/7/3 23/5/3
f 6/8/4 21/9/4 24/7/4
f 7/10/5 1/11/5 3/12/5
f 25/13/6 13/14/6 26/15/6
f 27/16/7 15/17/7 28/18/7
f 25/13/8 15/17/8 16/19/8
f 26/20/9 14/21/9 27/16/9
f 10/22/10 13/23/10 9/24/10
f 10/22/10 15/17/10 14/25/10
f 12/26/10 15/17/10 11/27/10
f 12/26/10 13/23/10 16/19/10
f 5/28/11 21/9/11 1/29/11
f 23/5/12 5/28/12 7/10/12
f 3/30/13 23/5/13 7/10/13
f 1/31/14 22/2/14 3/30/14
f 2/1/15 27/16/15 4/4/15
f 6/8/16 28/18/16 25/13/16
f 4/4/7 28/18/7 8/6/7
f 6/8/6 26/15/6 2/32/6
f 2/1/1 4/4/1 22/2/1
f 4/4/2 8/6/2 23/5/2
f 8/6/3 6/8/3 24/7/3
f 6/8/4 2/32/4 21/9/4
f 7/10/5 5/28/5 1/11/5
f 25/13/6 16/19/6 13/14/6
f 27/16/7 14/21/7 15/17/7
f 25/13/8 28/18/8 15/17/8
f 26/20/9 13/33/9 14/21/9
f 10/22/10 14/25/10 13/23/10
f 10/22/10 11/27/10 15/17/10
f 12/26/10 16/19/10 15/17/10
f 12/26/10 9/24/10 13/23/10
f 5/28/11 24/7/11 21/9/11
f 23/5/12 24/7/12 5/28/12
f 3/30/13 22/2/13 23/5/13
f 1/31/14 21/3/14 22/2/14
f 2/1/15 26/20/15 27/16/15
f 6/8/16 8/6/16 28/18/16
f 4/4/7 27/16/7 28/18/7
f 6/8/6 25/13/6 26/15/6
usemtl Bristles1WashBrush1
f 9/24/17 19/34/17 10/22/17
f 10/22/18 18/35/18 11/27/18
f 11/27/19 17/36/19 12/26/19
f 12/26/20 20/37/20 9/24/20
f 17/36/10 19/34/10 20/37/10
f 9/24/17 20/37/17 19/34/17
f 10/22/18 19/34/18 18/35/18
f 11/27/19 18/35/19 17/36/19
f 12/26/20 17/36/20 20/37/20
f 17/36/10 18/35/10 19/34/10
